<svg xmlns="http://www.w3.org/2000/svg" width="123" height="118" viewBox="0 0 123 118">
  <g id="Grupo_1102" data-name="Grupo 1102" transform="translate(-32 -321)">
    <g id="Grupo_1035" data-name="Grupo 1035">
      <g id="Elipse_43" data-name="Elipse 43" transform="translate(32 321)" fill="#fff" stroke="#707070" stroke-width="1">
        <ellipse cx="61.5" cy="59" rx="61.5" ry="59" stroke="none"/>
        <ellipse cx="61.5" cy="59" rx="61" ry="58.5" fill="none"/>
      </g>
      <g id="Grupo_409" data-name="Grupo 409" transform="translate(-319.133 -540.485)">
        <g id="Grupo_387" data-name="Grupo 387" transform="translate(397.044 904.696)">
          <path id="Trazado_904" data-name="Trazado 904" d="M437.481,960.351c12.763-.324,18.763-5.054,18.84-15.5s-14.689-25.894-20.147-27.573-13.131-.281-16.953,13.21S409.14,961.071,437.481,960.351Z" transform="translate(-415.834 -916.714)" fill="#ffcf79"/>
        </g>
        <g id="Grupo_388" data-name="Grupo 388" transform="translate(396.3 904.65)">
          <path id="Trazado_905" data-name="Trazado 905" d="M455.8,944.821a21.322,21.322,0,0,0-16.322-13.948c-12.884-2.335-23.348,10.83-24.657,10.28s2.483-18.368,11.368-22.645S440.863,915.124,455.8,944.821Z" transform="translate(-414.571 -916.636)" fill="#fcb85d"/>
        </g>
        <g id="Grupo_389" data-name="Grupo 389" transform="translate(380.99 912.82)">
          <path id="Trazado_906" data-name="Trazado 906" d="M402.071,956.159s-10.474-4.4-12.724-11.511.585-12.387,5.986-13.506,15.886-.409,15.886-.409S400.949,944.9,402.071,956.159Z" transform="translate(-388.57 -930.51)" fill="#ffcf79"/>
        </g>
        <g id="Grupo_390" data-name="Grupo 390" transform="translate(375.509 903.049)">
          <path id="Trazado_907" data-name="Trazado 907" d="M383.448,929.559s-5.214-9.587-4-12.467,11.571-4.071,17.662-2.436,9.028,5.644,9.154,7.545S385.915,930.287,383.448,929.559Z" transform="translate(-379.263 -913.916)" fill="#ffcf79"/>
        </g>
        <g id="Grupo_391" data-name="Grupo 391" transform="translate(375.787 889.966)">
          <path id="Trazado_908" data-name="Trazado 908" d="M379.734,905.532s1.8-9.412,7.667-13.108,10.945,7.681,12.022,12.448S382.284,907.528,379.734,905.532Z" transform="translate(-379.734 -891.698)" fill="#ffcf79"/>
        </g>
        <g id="Grupo_392" data-name="Grupo 392" transform="translate(383.282 890.346)">
          <path id="Trazado_909" data-name="Trazado 909" d="M406.435,930.228s-5.339-11.488-12.215-13.454c0,0,2.779-8.076-1.757-11.214,0,0,3.784-8.27.171-12.869,0,0,8.293-3.6,12.022,12.448a14.438,14.438,0,0,1,7.032,8.194C414.007,919.545,406.435,930.228,406.435,930.228Z" transform="translate(-392.463 -892.344)" fill="#fcb85d"/>
        </g>
        <g id="Grupo_393" data-name="Grupo 393" transform="translate(423.574 889.163)">
          <path id="Trazado_910" data-name="Trazado 910" d="M474.766,938.6s4.987-1.6,9.006-8.231,2.543-9.715,2.543-9.715,5.917-12.611-.162-17.94c0,0-1.935-10.057-6.649-12.038s-9.586,5.214-12.532,10.755c0,0-4.93,4.4-6.084,10.076C460.889,911.5,471.986,919.555,474.766,938.6Z" transform="translate(-460.889 -890.335)" fill="#ffcf79"/>
        </g>
        <g id="Grupo_394" data-name="Grupo 394" transform="translate(423.574 889.624)">
          <path id="Trazado_911" data-name="Trazado 911" d="M473.7,930.458s-2.652-11.283,1.712-16.535c0,0-2.815-7.962,2.377-12.25,0,0-3.738-6.5-.185-10.554,0,0-7.935,1.287-10.63,10.63,0,0-5.579,2.276-6.084,10.076C460.889,911.823,470.912,920.966,473.7,930.458Z" transform="translate(-460.889 -891.118)" fill="#fcb85d"/>
        </g>
        <g id="Grupo_395" data-name="Grupo 395" transform="translate(422.468 938.933)">
          <path id="Trazado_912" data-name="Trazado 912" d="M460.48,977.989a4.842,4.842,0,0,0,2.323-1.995c.369-.691-.46-1.308-1.083-1.1a12,12,0,0,0-2.275,1.264C458.417,976.8,459.4,978.489,460.48,977.989Z" transform="translate(-459.011 -974.856)" fill="#fcb85d"/>
        </g>
        <g id="Grupo_396" data-name="Grupo 396" transform="translate(407.784 940.037)">
          <path id="Trazado_913" data-name="Trazado 913" d="M434.49,979.727l.078.068a1.067,1.067,0,0,0,1.495-.178,1,1,0,0,0,.107-.277c0,.05.058.031.238-.124.258-.143.511-.289.759-.448a1.609,1.609,0,0,0,.91-1.35.476.476,0,0,0-.281-.49,1.944,1.944,0,0,0-1.928.159,2.89,2.89,0,0,0-1.708,1.36A1.109,1.109,0,0,0,434.49,979.727Z" transform="translate(-434.074 -976.731)" fill="#fcb85d"/>
        </g>
        <g id="Grupo_397" data-name="Grupo 397" transform="translate(415.188 933.068)">
          <path id="Trazado_914" data-name="Trazado 914" d="M447.885,967.361a10.872,10.872,0,0,0,1.909-1.049c.814-.533.031-1.623-.783-1.38a9.763,9.763,0,0,0-1.83.705A.931.931,0,0,0,447.885,967.361Z" transform="translate(-446.648 -964.897)" fill="#fcb85d"/>
        </g>
        <g id="Grupo_398" data-name="Grupo 398" transform="translate(420.919 924.653)">
          <path id="Trazado_915" data-name="Trazado 915" d="M456.384,952.947a.614.614,0,0,0,.366.636c.717.292,1.262-.095,1.869-.47.69-.426,1.575-.873,1.9-1.647a.624.624,0,0,0-.491-.854,3.764,3.764,0,0,0-2.045.741C457.3,951.714,456.463,952.1,456.384,952.947Z" transform="translate(-456.381 -950.606)" fill="#fcb85d"/>
        </g>
        <g id="Grupo_399" data-name="Grupo 399" transform="translate(404.937 929.505)">
          <path id="Trazado_916" data-name="Trazado 916" d="M430.713,961.582c.934-.385,2.238-.76,2.641-1.775a.628.628,0,0,0-.331-.811c-1-.444-2.194.2-3.13.576A1.086,1.086,0,0,0,430.713,961.582Z" transform="translate(-429.238 -958.845)" fill="#fcb85d"/>
        </g>
        <g id="Grupo_400" data-name="Grupo 400" transform="translate(425.246 932.358)">
          <path id="Trazado_917" data-name="Trazado 917" d="M463.781,966.393a.775.775,0,0,0,.255.339.809.809,0,0,0,.83.117,8.734,8.734,0,0,0,2.974-2.222c.29-.363-.018-1.045-.525-.922a8.687,8.687,0,0,0-3.264,1.708A.856.856,0,0,0,463.781,966.393Z" transform="translate(-463.728 -963.69)" fill="#fcb85d"/>
        </g>
        <g id="Grupo_401" data-name="Grupo 401" transform="translate(401.844 936.35)">
          <path id="Trazado_918" data-name="Trazado 918" d="M424,972.236c.188,1.417,2.5.386,3.2.1,1-.405.605-2.061-.491-1.851C425.815,970.658,423.823,970.93,424,972.236Z" transform="translate(-423.986 -970.47)" fill="#fcb85d"/>
        </g>
        <g id="Grupo_402" data-name="Grupo 402" transform="translate(394.165 907.045)">
          <path id="Trazado_919" data-name="Trazado 919" d="M439.241,922.843h0c.834.351,1.688.738,2.56,1.155,5.452,2.6,10.349,11.5,12.367,18.936,1.077,3.971,2.4,11.356-.887,16.2-6.514,9.616-25.095,10-34.526,6.04a12.465,12.465,0,0,1-5.43-3.9c-5.684-7.889-.23-27.61,6.276-35.034C426.163,918.759,432.92,920.185,439.241,922.843Zm-19.493,39.978c8.763,3.683,25.814,3.156,31.419-5.118,1.979-2.921,2.175-8.06.536-14.1-2.14-7.889-6.871-15.326-11-17.3-.833-.4-1.648-.768-2.447-1.1h0c-6.465-2.718-11.52-3.209-16.725,2.73-5.72,6.525-11,25.085-6.127,31.854A10.2,10.2,0,0,0,419.748,962.821Z" transform="translate(-410.946 -920.703)" fill="#80491f"/>
        </g>
        <g id="Grupo_403" data-name="Grupo 403" transform="translate(423.193 909.215)">
          <path id="Trazado_920" data-name="Trazado 920" d="M476.7,927.216c.512.216.951.409,1.293.566,5.525,2.521,12.068,6.728,12.324,10.284.9,12.569-15.578,20.777-16.28,21.119a1.278,1.278,0,0,1-1.124-2.3c.157-.077,15.634-7.794,14.852-18.639-.114-1.589-4.289-5.155-10.834-8.143-6.67-3.033-12.531-4-14.646-2.418a1.279,1.279,0,1,1-1.535-2.046C464.65,922.727,472.825,925.587,476.7,927.216Z" transform="translate(-460.243 -924.388)" fill="#80491f"/>
        </g>
        <g id="Grupo_404" data-name="Grupo 404" transform="translate(425.539 899.276)">
          <path id="Trazado_921" data-name="Trazado 921" d="M489.5,908.86a8.358,8.358,0,0,1,3.091,2.116c4.869,5.547-.126,19.164-.711,20.7a1.277,1.277,0,0,1-1.65.738.336.336,0,0,1-.041-.015,1.279,1.279,0,0,1-.7-1.634c1.437-3.772,4.45-14.375,1.179-18.1-1.738-1.984-6.594-2.956-12.366-2.477-5.371.447-8.433,1.834-8.81,2.444a29.056,29.056,0,0,0-2.749,6.548,1.278,1.278,0,0,1-2.468-.665,31.3,31.3,0,0,1,3.043-7.23c1.325-2.138,6.632-3.3,10.774-3.644C480.549,907.433,485.693,907.261,489.5,908.86Z" transform="translate(-464.227 -907.508)" fill="#80491f"/>
        </g>
        <g id="Grupo_405" data-name="Grupo 405" transform="translate(430.122 887.485)">
          <path id="Trazado_922" data-name="Trazado 922" d="M487.744,887.858a4.944,4.944,0,0,1,.635.323c5.453,3.307,6.575,13.706,6.62,14.148a1.278,1.278,0,0,1-2.543.26c-.274-2.654-1.78-10.025-5.4-12.222a2.71,2.71,0,0,0-2.469-.066c-3.962,1.493-8.844,8.656-10.074,12.572a1.279,1.279,0,1,1-2.44-.766c1.4-4.436,6.737-12.36,11.614-14.2A5.386,5.386,0,0,1,487.744,887.858Z" transform="translate(-472.01 -887.485)" fill="#80491f"/>
        </g>
        <g id="Grupo_406" data-name="Grupo 406" transform="translate(374.487 910.238)">
          <path id="Trazado_923" data-name="Trazado 923" d="M405.456,927.04a9.134,9.134,0,0,1,2.166,1.277,1.278,1.278,0,1,1-1.595,2c-3.891-3.1-11.9-1.32-17.792,2.053-5.356,3.068-8.54,6.979-8.11,9.969.94,6.551,15.57,16.161,21.129,19.31a1.281,1.281,0,0,1,.482,1.743,1.3,1.3,0,0,1-1.742.482c-.86-.488-21.09-12.048-22.4-21.173-.7-4.9,4.381-9.692,9.372-12.549C392.746,926.841,400.275,924.864,405.456,927.04Z" transform="translate(-377.527 -926.126)" fill="#80491f"/>
        </g>
        <g id="Grupo_407" data-name="Grupo 407" transform="translate(370.133 902.341)">
          <path id="Trazado_924" data-name="Trazado 924" d="M393.44,915.188c3.617,1.52,6.415,3.758,6.508,6.742a1.278,1.278,0,0,1-2.555.082c-.081-2.6-5.205-5.33-11.92-6.358-6.223-.954-11.678-.041-12.416,2.079-1.659,4.755,2.8,12.054,4.655,14.465a1.278,1.278,0,0,1-2.025,1.561c-.307-.4-7.494-9.847-5.046-16.868,1.491-4.271,9.13-4.7,15.219-3.764A32.951,32.951,0,0,1,393.44,915.188Z" transform="translate(-370.133 -912.715)" fill="#80491f"/>
        </g>
        <g id="Grupo_408" data-name="Grupo 408" transform="translate(371.557 888.977)">
          <path id="Trazado_925" data-name="Trazado 925" d="M385.5,890.456c.06.025.118.049.177.078,5.561,2.547,8.8,13.884,9.388,16.131a1.278,1.278,0,1,1-2.473.651c-1.559-5.917-4.721-12.966-7.981-14.458a2.722,2.722,0,0,0-2.534.041c-5.421,2.645-6.965,12.8-6.982,12.906a1.277,1.277,0,0,1-2.528-.367c.068-.472,1.752-11.6,8.389-14.837A5.354,5.354,0,0,1,385.5,890.456Z" transform="translate(-372.551 -890.019)" fill="#80491f"/>
        </g>
      </g>
    </g>
  </g>
</svg>
