<svg id="Grupo_1" data-name="Grupo 1" xmlns="http://www.w3.org/2000/svg" width="61.893" height="45.461" viewBox="0 0 61.893 45.461">
  <path id="Trazado_39" data-name="Trazado 39" d="M23.293,36.41a.787.787,0,0,0,.748.537c9.448,0,19.218,0,28.909.025h0a.787.787,0,0,0,0-1.575c-9.5-.025-19.073-.025-28.343-.025-1.1-3.339-2.079-6.588-3.108-10.018-.541-1.81-1.1-3.678-1.682-5.546-.467-1.682-.946-3.236-1.6-5.195-1.281-4.24-3.856-12.547-3.885-12.63a.781.781,0,0,0-.752-.554H12.051A1.753,1.753,0,0,0,10.295,0H1.781A1.74,1.74,0,0,0,0,1.69V2.748a1.737,1.737,0,0,0,1.781,1.69h8.514A1.757,1.757,0,0,0,12.055,3H13c.6,1.938,2.624,8.481,3.711,12.076,0,.008,0,.012.008.021.649,1.942,1.12,3.48,1.583,5.141,0,.008,0,.012.008.021.574,1.868,1.137,3.736,1.682,5.546C21.032,29.273,22.106,32.856,23.293,36.41Z" fill="#3a4145"/>
  <path id="Trazado_40" data-name="Trazado 40" d="M86.285,21.28H46.391a1.74,1.74,0,0,0-1.781,1.69v1.058a1.74,1.74,0,0,0,1.781,1.69h.566l5.988,20.362a.789.789,0,0,0,.756.566H78.974a.792.792,0,0,0,.756-.566l5.988-20.362h.566a1.737,1.737,0,0,0,1.781-1.69V22.97A1.737,1.737,0,0,0,86.285,21.28Z" transform="translate(-26.174 -12.485)" fill="#3a4145"/>
  <path id="Trazado_41" data-name="Trazado 41" d="M52.316,90.18a4.1,4.1,0,1,0,4.1,4.1A4.1,4.1,0,0,0,52.316,90.18Z" transform="translate(-28.292 -52.91)" fill="#3a4145"/>
  <path id="Trazado_42" data-name="Trazado 42" d="M123.346,90.18a4.1,4.1,0,1,0,4.1,4.1A4.1,4.1,0,0,0,123.346,90.18Z" transform="translate(-69.966 -52.91)" fill="#3a4145"/>
</svg>
