<svg xmlns="http://www.w3.org/2000/svg" xmlns:xlink="http://www.w3.org/1999/xlink" width="123" height="118" viewBox="0 0 123 118">
  <defs>
    <linearGradient id="linear-gradient" x1="0.5" y1="1.014" x2="0.5" y2="-0.084" gradientUnits="objectBoundingBox">
      <stop offset="0.285" stop-color="#fff" stop-opacity="0"/>
      <stop offset="0.404" stop-color="#fff" stop-opacity="0.012"/>
      <stop offset="0.497" stop-color="#fff" stop-opacity="0.051"/>
      <stop offset="0.583" stop-color="#fff" stop-opacity="0.118"/>
      <stop offset="0.662" stop-color="#fff" stop-opacity="0.208"/>
      <stop offset="0.739" stop-color="#fff" stop-opacity="0.329"/>
      <stop offset="0.813" stop-color="#fff" stop-opacity="0.475"/>
      <stop offset="0.884" stop-color="#fff" stop-opacity="0.647"/>
      <stop offset="0.952" stop-color="#fff" stop-opacity="0.843"/>
      <stop offset="1" stop-color="#fff"/>
    </linearGradient>
    <radialGradient id="radial-gradient" cx="0.872" cy="0.738" r="0.615" gradientTransform="translate(-0.025) scale(1.049 1)" gradientUnits="objectBoundingBox">
      <stop offset="0"/>
      <stop offset="1" stop-color="#242422" stop-opacity="0"/>
    </radialGradient>
    <linearGradient id="linear-gradient-2" x1="0.95" y1="0.956" x2="-0.155" y2="-0.142" gradientUnits="objectBoundingBox">
      <stop offset="0.086" stop-color="#787878"/>
      <stop offset="0.096" stop-color="#7a7a7a"/>
      <stop offset="0.31" stop-color="#a9a9a9"/>
      <stop offset="0.514" stop-color="#cecece"/>
      <stop offset="0.702" stop-color="#e9e9e9"/>
      <stop offset="0.87" stop-color="#f9f9f9"/>
      <stop offset="1" stop-color="#fff"/>
    </linearGradient>
  </defs>
  <g id="Grupo_1114" data-name="Grupo 1114" transform="translate(-32 -160)">
    <g id="Grupo_1052" data-name="Grupo 1052">
      <g id="Elipse_33" data-name="Elipse 33" transform="translate(32 160)" fill="#fff" stroke="#707070" stroke-width="1">
        <ellipse cx="61.5" cy="59" rx="61.5" ry="59" stroke="none"/>
        <ellipse cx="61.5" cy="59" rx="61" ry="58.5" fill="none"/>
      </g>
      <g id="Grupo_682" data-name="Grupo 682" transform="translate(-1062.239 134.699)">
        <g id="Grupo_679" data-name="Grupo 679" transform="translate(1111.239 46.301)">
          <g id="Grupo_678" data-name="Grupo 678">
            <path id="Trazado_1680" data-name="Trazado 1680" d="M1180.4,84.146a34.58,34.58,0,1,1-69.159,0c0-19.958,15.482-37.845,34.58-37.845S1180.4,64.188,1180.4,84.146Z" transform="translate(-1111.239 -46.301)" fill="#935503"/>
            <path id="Trazado_1681" data-name="Trazado 1681" d="M1135.966,58.142s-28.637,25.453,2.463,57.9C1138.429,116.042,1097.167,91.148,1135.966,58.142Z" transform="translate(-1113.078 -48.989)" fill="#c79452" opacity="0.6"/>
            <path id="Trazado_1682" data-name="Trazado 1682" d="M1169.607,58.493s28.638,25.96-2.463,59.051C1167.144,117.544,1208.407,92.155,1169.607,58.493Z" transform="translate(-1123.932 -49.069)" fill="#c79452" opacity="0.6"/>
            <path id="Trazado_1683" data-name="Trazado 1683" d="M1160.371,59.26s15.4,24.19,1.847,54.715C1162.218,113.975,1167.145,81.146,1160.371,59.26Z" transform="translate(-1122.394 -49.243)" fill="#c79452" opacity="0.6"/>
            <path id="Trazado_1684" data-name="Trazado 1684" d="M1144.673,60.75s-11.7,19.007,2.156,50.972C1146.829,111.722,1140.054,78.029,1144.673,60.75Z" transform="translate(-1117.782 -49.582)" fill="#c79452" opacity="0.6"/>
            <ellipse id="Elipse_68" data-name="Elipse 68" cx="2.683" cy="1.435" rx="2.683" ry="1.435" transform="translate(27.964 2.832)" fill="#6e3f03"/>
            <path id="Trazado_1685" data-name="Trazado 1685" d="M1163.273,50.554c0,.633-.96,1.146-2.144,1.146s-2.144-.513-2.144-1.146.96-1.147,2.144-1.147S1163.273,49.92,1163.273,50.554Z" transform="translate(-1122.08 -47.006)" fill="#6e3f03"/>
            <ellipse id="Elipse_69" data-name="Elipse 69" cx="2.36" cy="1.262" rx="2.36" ry="1.262" transform="translate(32.97 5.624)" fill="#6e3f03"/>
          </g>
          <path id="Trazado_1686" data-name="Trazado 1686" d="M1145.819,46.3c-19.1,0-34.58,17.887-34.58,37.845a34.58,34.58,0,1,0,69.159,0C1180.4,64.188,1164.917,46.3,1145.819,46.3Z" transform="translate(-1111.239 -46.301)" opacity="0.4" fill="url(#linear-gradient)"/>
        </g>
        <path id="Trazado_1687" data-name="Trazado 1687" d="M1180.4,84.146a39.826,39.826,0,0,0-7.9-23.682,36.571,36.571,0,0,0-11.692-10.271,32.423,32.423,0,0,0-4.709-2.111,31.3,31.3,0,0,0-3.314-.975q-.844-.2-1.7-.349a30.4,30.4,0,0,0-3.487-.407q-.883-.052-1.779-.052t-1.779.052a30.41,30.41,0,0,0-3.487.407q-.859.151-1.7.349a31.286,31.286,0,0,0-3.314.975,32.36,32.36,0,0,0-3.178,1.325c-12.411,5.966-21.119,19.77-21.119,34.739a34.291,34.291,0,0,0,13.592,27.819c.234.175.471.347.71.517a34.027,34.027,0,0,0,6.818,3.761q1.551.637,3.178,1.125t3.314.82q.844.166,1.7.292,1.718.252,3.487.338.883.043,1.779.043t1.779-.043q1.768-.085,3.487-.338.858-.126,1.7-.292,1.688-.332,3.314-.82a34.43,34.43,0,0,0,4.709-1.8,33.8,33.8,0,0,0,11.692-9.017q1.056-1.273,1.99-2.654a35.013,35.013,0,0,0,5.905-19.755Z" opacity="0.6" fill="url(#radial-gradient)"/>
        <g id="Grupo_681" data-name="Grupo 681" transform="translate(1134.086 58.291)">
          <path id="Trazado_1688" data-name="Trazado 1688" d="M1204.919,88.884c5.653,16.752-2.306,34.565-17.776,39.785s-32.595-4.128-38.247-20.881,43.9-38.693,51.629-27.632A34.469,34.469,0,0,1,1204.919,88.884Z" transform="translate(-1142.533 -65.299)" fill="#935503"/>
          <g id="Grupo_680" data-name="Grupo 680" transform="translate(20.413 30.28)" opacity="0.6">
            <path id="Trazado_1689" data-name="Trazado 1689" d="M1189.252,130.9c4.15,6.235,7.558,8.319,9.749,8.946a27.449,27.449,0,0,0,3.111-1.662C1193.937,137.594,1189.252,130.9,1189.252,130.9Z" transform="translate(-1172.211 -107.779)" fill="#c79452"/>
            <path id="Trazado_1690" data-name="Trazado 1690" d="M1189.322,142.31c-12.144.649-22.116-7.76-22.116-7.76a28.631,28.631,0,0,0,16.273,8.58A27.42,27.42,0,0,0,1189.322,142.31Z" transform="translate(-1167.206 -108.608)" fill="#c79452"/>
            <path id="Trazado_1691" data-name="Trazado 1691" d="M1213.8,129.073a29.228,29.228,0,0,0,1.964-2.589,27.029,27.029,0,0,0-4.046-10.678A34.852,34.852,0,0,1,1213.8,129.073Z" transform="translate(-1177.311 -104.353)" fill="#c79452"/>
            <path id="Trazado_1692" data-name="Trazado 1692" d="M1220.152,100.988a33.047,33.047,0,0,1,2.348,10.124q.272-1.519.4-3.077A24.674,24.674,0,0,0,1220.152,100.988Z" transform="translate(-1179.227 -100.988)" fill="#c79452"/>
          </g>
          <path id="Trazado_1693" data-name="Trazado 1693" d="M1201.1,79.781c5.6,10.446-1.468,25.126-15.774,32.79s-30.441,5.407-36.036-5.039,1.468-25.126,15.775-32.79c13.321-7.134,28.226-5.67,34.733,3A15.856,15.856,0,0,1,1201.1,79.781Z" transform="translate(-1142.289 -63.717)" fill="#ad7832"/>
          <ellipse id="Elipse_70" data-name="Elipse 70" cx="26.833" cy="19.591" rx="26.833" ry="19.591" transform="matrix(0.882, -0.472, 0.472, 0.882, 0, 25.338)" fill="#fff"/>
          <path id="Trazado_1694" data-name="Trazado 1694" d="M1157.592,99.413s0,2.459-.1,2.97.717,3.279.717,3.791a9.468,9.468,0,0,0,1.741,2.97,30.709,30.709,0,0,0,2.868,2.459c.308,0,2.869-.307,3.074,0a3.685,3.685,0,0,0,2.254.717c.307-.2,2.151-.922,2.151-.922a33.44,33.44,0,0,0,5.43.41,21.388,21.388,0,0,0,4.815-1.947c.513-.41,2.152-.614,3.074-.922s4.2-1.946,4.405-2.766,2.459-2.46,3.074-3.074,2.459-2.766,2.356-3.278a1.722,1.722,0,0,1,.308-1.537c.41-.512,4-3.689,3.893-5.02s-.819-1.537-.717-2.459,1.229-2.664,1.127-3.484-2.869-3.688-3.279-4.2-2.766-2.356-3.381-2.254a2.736,2.736,0,0,1-1.844-.2,3.039,3.039,0,0,0-1.844-.512c-.82,0-5.43.512-7.172.2s-5.532.41-6.454,1.127-4.815,3.279-5.942,4.2-3.381,2.254-4.1,2.971a12.77,12.77,0,0,0-2.152,2.458c-.615,1.025-2.356,3.484-2.869,4.1s-.819,2.357-1.127,2.766A3.2,3.2,0,0,0,1157.592,99.413Z" transform="translate(-1144.585 -65.977)" opacity="0.4" fill="url(#linear-gradient-2)"/>
        </g>
      </g>
    </g>
  </g>
</svg>
