<svg xmlns="http://www.w3.org/2000/svg" width="119.276" height="123.853" viewBox="0 0 119.276 123.853">
  <g id="Grupo_1007" data-name="Grupo 1007" transform="translate(-339.959 -32.158)">
    <g id="Grupo_1005" data-name="Grupo 1005" transform="translate(371.416 32.658)">
      <path id="Trazado_2598" data-name="Trazado 2598" d="M430.266,69.749a37.09,37.09,0,1,1-37.087-37.091A37.092,37.092,0,0,1,430.266,69.749Z" transform="translate(-356.086 -32.658)" fill="#ffff4d" stroke="#3a3d83" stroke-linecap="round" stroke-linejoin="round" stroke-width="1"/>
      <path id="Trazado_2599" data-name="Trazado 2599" d="M418.175,65.726a29.021,29.021,0,1,1-29.017-29.021A29.018,29.018,0,0,1,418.175,65.726Z" transform="translate(-352.064 -28.635)" fill="#fe9431" stroke="#3a3d83" stroke-linecap="round" stroke-linejoin="round" stroke-width="1"/>
      <path id="Trazado_2600" data-name="Trazado 2600" d="M413.167,64.059a25.679,25.679,0,1,1-25.675-25.677A25.675,25.675,0,0,1,413.167,64.059Z" transform="translate(-350.398 -26.968)" fill="#ffff4d" stroke="#3a3d83" stroke-linecap="round" stroke-linejoin="round" stroke-width="1"/>
      <path id="Trazado_2601" data-name="Trazado 2601" d="M382.454,60.637V49.668a5.639,5.639,0,0,1,3.141,5.043,2.485,2.485,0,1,0,4.969,0,10.611,10.611,0,0,0-8.11-10.3v-2.3a2.486,2.486,0,1,0-4.971,0v2.3a10.595,10.595,0,0,0,0,20.6V75.979a5.632,5.632,0,0,1-3.139-5.045,2.486,2.486,0,0,0-4.971,0,10.616,10.616,0,0,0,8.11,10.3v2.3a2.486,2.486,0,1,0,4.971,0v-2.3a10.595,10.595,0,0,0,0-20.6Zm-8.11-5.926a5.634,5.634,0,0,1,3.139-5.043V59.76A5.64,5.64,0,0,1,374.344,54.711Zm8.11,21.268V65.89a5.622,5.622,0,0,1,0,10.09Z" transform="translate(-342.878 -25.732)" fill="#fe9431" stroke="#3a3d83" stroke-linecap="round" stroke-linejoin="round" stroke-width="1"/>
      <g id="Grupo_997" data-name="Grupo 997" transform="translate(37.092 1.624)">
        <line id="Línea_21" data-name="Línea 21" y2="4.173" fill="none" stroke="#3a3d83" stroke-linecap="round" stroke-linejoin="round" stroke-width="1"/>
        <line id="Línea_22" data-name="Línea 22" y2="4.171" transform="translate(0 66.764)" fill="none" stroke="#3a3d83" stroke-linecap="round" stroke-linejoin="round" stroke-width="1"/>
      </g>
      <g id="Grupo_998" data-name="Grupo 998" transform="translate(1.624 37.091)">
        <line id="Línea_23" data-name="Línea 23" x2="4.171" fill="none" stroke="#3a3d83" stroke-linecap="round" stroke-linejoin="round" stroke-width="1"/>
        <line id="Línea_24" data-name="Línea 24" x2="4.177" transform="translate(66.76)" fill="none" stroke="#3a3d83" stroke-linecap="round" stroke-linejoin="round" stroke-width="1"/>
      </g>
      <g id="Grupo_999" data-name="Grupo 999" transform="translate(12.011 12.013)">
        <line id="Línea_25" data-name="Línea 25" x1="2.95" y2="2.948" transform="translate(47.209)" fill="none" stroke="#3a3d83" stroke-linecap="round" stroke-linejoin="round" stroke-width="1"/>
        <line id="Línea_26" data-name="Línea 26" x1="2.952" y2="2.952" transform="translate(0 47.207)" fill="none" stroke="#3a3d83" stroke-linecap="round" stroke-linejoin="round" stroke-width="1"/>
      </g>
      <g id="Grupo_1000" data-name="Grupo 1000" transform="translate(12.011 12.013)">
        <line id="Línea_27" data-name="Línea 27" x2="2.952" y2="2.948" fill="none" stroke="#3a3d83" stroke-linecap="round" stroke-linejoin="round" stroke-width="1"/>
        <line id="Línea_28" data-name="Línea 28" x2="2.95" y2="2.952" transform="translate(47.209 47.207)" fill="none" stroke="#3a3d83" stroke-linecap="round" stroke-linejoin="round" stroke-width="1"/>
      </g>
      <g id="Grupo_1001" data-name="Grupo 1001" transform="translate(24.958 3.767)">
        <line id="Línea_29" data-name="Línea 29" x2="1.427" y2="3.918" fill="none" stroke="#3a3d83" stroke-linecap="round" stroke-linejoin="round" stroke-width="1"/>
        <line id="Línea_30" data-name="Línea 30" x2="1.428" y2="3.918" transform="translate(22.836 62.734)" fill="none" stroke="#3a3d83" stroke-linecap="round" stroke-linejoin="round" stroke-width="1"/>
      </g>
      <g id="Grupo_1002" data-name="Grupo 1002" transform="translate(3.764 24.959)">
        <line id="Línea_31" data-name="Línea 31" y1="1.427" x2="3.92" transform="translate(0 22.84)" fill="none" stroke="#3a3d83" stroke-linecap="round" stroke-linejoin="round" stroke-width="1"/>
        <line id="Línea_32" data-name="Línea 32" y1="1.431" x2="3.92" transform="translate(62.734)" fill="none" stroke="#3a3d83" stroke-linecap="round" stroke-linejoin="round" stroke-width="1"/>
      </g>
      <g id="Grupo_1003" data-name="Grupo 1003" transform="translate(22.102 4.947)">
        <line id="Línea_33" data-name="Línea 33" x1="1.764" y2="3.784" transform="translate(28.213)" fill="none" stroke="#3a3d83" stroke-linecap="round" stroke-linejoin="round" stroke-width="1"/>
        <line id="Línea_34" data-name="Línea 34" x1="1.764" y2="3.778" transform="translate(0 60.511)" fill="none" stroke="#3a3d83" stroke-linecap="round" stroke-linejoin="round" stroke-width="1"/>
      </g>
      <g id="Grupo_1004" data-name="Grupo 1004" transform="translate(4.946 22.104)">
        <line id="Línea_35" data-name="Línea 35" x2="3.782" y2="1.762" fill="none" stroke="#3a3d83" stroke-linecap="round" stroke-linejoin="round" stroke-width="1"/>
        <line id="Línea_36" data-name="Línea 36" x2="3.782" y2="1.76" transform="translate(60.507 28.215)" fill="none" stroke="#3a3d83" stroke-linecap="round" stroke-linejoin="round" stroke-width="1"/>
      </g>
    </g>
    <g id="Grupo_1006" data-name="Grupo 1006" transform="translate(340.664 89.185)">
      <path id="Trazado_2602" data-name="Trazado 2602" d="M450.092,62.18c-2.836-2.748-6.8.012-8.481,1.344-5.886,4.64-24.72,16.973-24.72,16.973s-18.405-.1-24.543,0c-1.605.024-5.87.187-5.87-2.6,0-3.027,3.649-3.3,5.193-3.346,3.841-.118,11.524-.2,15.36,0,2.692.136,9.861-.812,9.861-4.369,0-4.349-7.551-5.492-10.313-5.438-6.554.118-2.259,0-26.218,0-13.835,0-32.387,29.149-32.387,29.149l17.8,15.647L380.38,97.89l40.653-7.38s21.294-15.5,28.056-21.087C450.5,68.256,453.049,65.044,450.092,62.18Z" transform="translate(-333.4 -61.006)" fill="#fcb692" stroke="#3a3d83" stroke-linecap="round" stroke-linejoin="round" stroke-width="1"/>
      <rect id="Rectángulo_357" data-name="Rectángulo 357" width="28.984" height="34.455" transform="matrix(0.654, -0.756, 0.756, 0.654, 0, 43.572)" fill="#8c8c8c" stroke="#3a3d83" stroke-linecap="round" stroke-linejoin="round" stroke-width="1"/>
    </g>
  </g>
</svg>
