<svg xmlns="http://www.w3.org/2000/svg" width="123" height="118" viewBox="0 0 123 118">
  <g id="Grupo_1103" data-name="Grupo 1103" transform="translate(-205 -321)">
    <g id="Grupo_1037" data-name="Grupo 1037">
      <g id="Elipse_42" data-name="Elipse 42" transform="translate(205 321)" fill="#fff" stroke="#707070" stroke-width="1">
        <ellipse cx="61.5" cy="59" rx="61.5" ry="59" stroke="none"/>
        <ellipse cx="61.5" cy="59" rx="61" ry="58.5" fill="none"/>
      </g>
      <g id="Grupo_444" data-name="Grupo 444" transform="translate(-427.875 -506.123)">
        <g id="Grupo_426" data-name="Grupo 426" transform="translate(645.875 866.48)">
          <g id="Grupo_410" data-name="Grupo 410" transform="translate(8.587 18.11)">
            <path id="Trazado_926" data-name="Trazado 926" d="M660.99,917.122s1.952,13.7,17.967,12.7,27.366-9.6,29.936-16.873-.654-12.039-.654-12.039-4.118,4.053-7.8,4.718-5.479.781-7.711,5.711-5.927,7.637-11.2,6.321-8.139-4.151-11.9-3.057Z" transform="translate(-660.99 -900.912)" fill="#ffcf79"/>
          </g>
          <g id="Grupo_411" data-name="Grupo 411" transform="translate(8.397 18.11)">
            <path id="Trazado_927" data-name="Trazado 927" d="M660.846,917.122c-1.308,1.808,4.405,4.627,9.211,3.635s6.621,1.74,11.67.88,12.83-3.534,15.61-6.585,5.659-2.26,6.473-.866-3.853,8.46-5,9.407,9.347-6.392,10.907-11.533-1.617-11.147-1.617-11.147-3.743,3.944-7.8,4.718-6.168,2.612-7.711,5.711-5.8,5.97-9.966,6.368-7.192-3-10.847-2.955S660.846,917.122,660.846,917.122Z" transform="translate(-660.656 -900.912)" fill="#fcb85d"/>
          </g>
          <g id="Grupo_412" data-name="Grupo 412" transform="translate(3.785 3.121)">
            <path id="Trazado_928" data-name="Trazado 928" d="M673.535,877.366c-12.825,3.736-18.632,9.5-20.184,16.07s-1.217,14.01,3.988,12.29,12.031-2.078,14.652.623,9.642,3.713,13.87.036c1.826-1.588,5.466-8.522,8.1-9.288s6.975-2.643,9.088-4.482,2.931-10.229-1.717-14.989S684.244,874.247,673.535,877.366Z" transform="translate(-652.537 -874.526)" fill="#a76231"/>
          </g>
          <g id="Grupo_413" data-name="Grupo 413" transform="translate(16.62 11.208)">
            <path id="Trazado_929" data-name="Trazado 929" d="M675.423,894.979c-1.921,1.962,6.042,3.947,11.834,1.444s9.12-3.676,8.839-6.04S682.963,887.279,675.423,894.979Z" transform="translate(-675.13 -888.762)" fill="#945629"/>
          </g>
          <g id="Grupo_414" data-name="Grupo 414" transform="translate(7.829 18.079)">
            <path id="Trazado_930" data-name="Trazado 930" d="M662.37,901.169a.611.611,0,0,0-.567-.311.654.654,0,0,0-.565.34c-.44.7-1.148,1.246-1.527,1.965a.487.487,0,0,0,.558.7,4.763,4.763,0,0,0,2.117-2.031A.646.646,0,0,0,662.37,901.169Z" transform="translate(-659.656 -900.857)" fill="#fff"/>
          </g>
          <g id="Grupo_415" data-name="Grupo 415" transform="translate(17.792 9.168)">
            <path id="Trazado_931" data-name="Trazado 931" d="M680.074,885.172c-.62-.03-.991.752-1.359,1.165-.471.526-1.215,1-1.5,1.657-.076.178.021.444.253.422a3.61,3.61,0,0,0,1.867-1.188c.443-.408,1.332-1.119,1.092-1.791A.38.38,0,0,0,680.074,885.172Z" transform="translate(-677.193 -885.172)" fill="#fff"/>
          </g>
          <g id="Grupo_416" data-name="Grupo 416" transform="translate(12.334 25.568)">
            <path id="Trazado_932" data-name="Trazado 932" d="M669.85,914.045a3.961,3.961,0,0,0-2.238,1.986c-.095.168.077.426.276.344a3.983,3.983,0,0,0,2.282-2.021C670.243,914.158,670.02,914.006,669.85,914.045Z" transform="translate(-667.586 -914.039)" fill="#fff"/>
          </g>
          <g id="Grupo_417" data-name="Grupo 417" transform="translate(24.033 21.993)">
            <path id="Trazado_933" data-name="Trazado 933" d="M691.121,907.755c-.65.131-1.1.856-1.544,1.317a6.4,6.4,0,0,0-1.369,1.691.282.282,0,0,0,.392.373,6.481,6.481,0,0,0,1.683-1.395c.458-.444,1.166-.9,1.29-1.551A.367.367,0,0,0,691.121,907.755Z" transform="translate(-688.179 -907.746)" fill="#fff"/>
          </g>
          <g id="Grupo_418" data-name="Grupo 418" transform="translate(32.839 25.797)">
            <path id="Trazado_934" data-name="Trazado 934" d="M705.831,914.448c-.519.087-.825.635-1.11,1.036a13.284,13.284,0,0,0-1,1.56c-.193.372.331.793.61.445.385-.481.743-.983,1.137-1.458.323-.39.756-.75.766-1.283A.321.321,0,0,0,705.831,914.448Z" transform="translate(-703.681 -914.442)" fill="#fff"/>
          </g>
          <g id="Grupo_419" data-name="Grupo 419" transform="translate(39.296 15.654)">
            <path id="Trazado_935" data-name="Trazado 935" d="M717.692,896.588c-.585-.014-.92.568-1.275.963a11.446,11.446,0,0,0-1.324,1.62.364.364,0,0,0,.507.483,10.231,10.231,0,0,0,1.39-1.253c.4-.4,1.1-.848,1.05-1.473A.352.352,0,0,0,717.692,896.588Z" transform="translate(-715.045 -896.588)" fill="#fff"/>
          </g>
          <g id="Grupo_420" data-name="Grupo 420" transform="translate(48.988 10.488)">
            <path id="Trazado_936" data-name="Trazado 936" d="M734.643,887.661a.346.346,0,0,0-.3-.165c-.589-.04-.842.607-1.127,1.028a11.374,11.374,0,0,0-1.066,1.754.424.424,0,0,0,.676.493,11.148,11.148,0,0,0,1.215-1.536C734.395,888.742,734.92,888.288,734.643,887.661Z" transform="translate(-732.107 -887.494)" fill="#fff"/>
          </g>
          <g id="Grupo_421" data-name="Grupo 421" transform="translate(42.125 7.306)">
            <path id="Trazado_937" data-name="Trazado 937" d="M722.028,881.911c-.476.175-.642.672-.9,1.076-.306.476-.773.836-1.056,1.319a.356.356,0,0,0,.408.509,3.037,3.037,0,0,0,1.342-1.084c.331-.416.837-1.048.605-1.6A.325.325,0,0,0,722.028,881.911Z" transform="translate(-720.025 -881.893)" fill="#fff"/>
          </g>
          <g id="Grupo_422" data-name="Grupo 422" transform="translate(31.023 5.638)">
            <path id="Trazado_938" data-name="Trazado 938" d="M702.767,879.09a.486.486,0,0,0-.208-.115.459.459,0,0,0-.455.133c-.527.6-1.085,1.234-1.559,1.874-.152.205-.01.588.291.476a4.121,4.121,0,0,0,2.02-1.8A.478.478,0,0,0,702.767,879.09Z" transform="translate(-700.483 -878.957)" fill="#fff"/>
          </g>
          <g id="Grupo_423" data-name="Grupo 423">
            <path id="Trazado_939" data-name="Trazado 939" d="M679.006,904.127c-4.454,1.3-6.872-.068-9-1.274a10.028,10.028,0,0,0-4.387-1.61,13.488,13.488,0,0,0-4.974.685c-.423.123-.845.255-1.274.387a22.034,22.034,0,0,1-8.315,1.344c-2.573-.137-4.613-2.927-5.077-6.94-.951-8.225,4.634-19.782,23.508-25.28,22.286-6.492,29.78,1.793,31.969,5.657,2.488,4.392,1.873,9.107-.122,10.955a19.128,19.128,0,0,1-7.8,4.222,16.644,16.644,0,0,0-4.052,1.734,9.8,9.8,0,0,0-2.652,3.338C685.368,899.774,683.56,902.8,679.006,904.127Zm-18.857-3.89a15.37,15.37,0,0,1,5.6-.75,11.58,11.58,0,0,1,5.12,1.833c2.094,1.184,3.9,2.205,7.645,1.116,3.89-1.133,5.367-3.606,6.8-6a11.179,11.179,0,0,1,3.2-3.9,17.989,17.989,0,0,1,4.469-1.936,17.409,17.409,0,0,0,7.16-3.841c1.478-1.369,1.755-5.319-.214-8.795-1.982-3.5-8.866-10.974-29.944-4.834-17.819,5.191-23.123,15.843-22.251,23.387.351,3.032,1.789,5.3,3.422,5.384a20.443,20.443,0,0,0,7.7-1.267C659.285,900.5,659.718,900.363,660.149,900.237Z" transform="translate(-645.875 -869.033)" fill="#80491f"/>
          </g>
          <g id="Grupo_424" data-name="Grupo 424" transform="translate(4.345 15.928)">
            <path id="Trazado_940" data-name="Trazado 940" d="M684.6,924.742c-10.215,2.976-18.321,2.737-24.089-.71a14.987,14.987,0,0,1-6.964-8.959.9.9,0,0,1,.677-1.045.88.88,0,0,1,1.045.675,13.472,13.472,0,0,0,6.183,7.84c5.331,3.164,12.953,3.336,22.656.509,9.214-2.684,15.438-6.939,18.5-12.648a17.164,17.164,0,0,0,1.594-12.19.88.88,0,0,1,.579-1.1l.015,0a.881.881,0,0,1,1.087.583,18.743,18.743,0,0,1-1.724,13.548C700.861,917.377,694.28,921.921,684.6,924.742Z" transform="translate(-653.523 -897.07)" fill="#80491f"/>
          </g>
          <g id="Grupo_425" data-name="Grupo 425" transform="translate(16.005 9.948)">
            <path id="Trazado_941" data-name="Trazado 941" d="M686.175,896.336h0c-2.53.737-10.873,2.837-12.016-1.089s7.022-6.635,9.552-7.372c4.368-1.272,12.019-2.535,12.992.8.424,1.454-.616,2.971-3.092,4.507A31.544,31.544,0,0,1,686.175,896.336Zm-1.974-6.769c-5.692,1.658-8.717,3.94-8.354,5.188s4.141,1.549,9.833-.11h0a29.69,29.69,0,0,0,7-2.954c1.916-1.188,2.452-2.1,2.331-2.518C694.707,888.137,690.347,887.777,684.2,889.567Z" transform="translate(-674.047 -886.545)" fill="#80491f"/>
          </g>
        </g>
        <g id="Grupo_443" data-name="Grupo 443" transform="translate(686.35 863.123)">
          <g id="Grupo_427" data-name="Grupo 427" transform="translate(0.093 16.6)">
            <path id="Trazado_942" data-name="Trazado 942" d="M719.515,892.343s-7.553,11.593,5.153,21.391,26.916,10.8,33.639,7.022,7.438-9.488,7.438-9.488-5.768.337-8.974-1.586-4.637-3.022-9.565-.782-9.49,1.842-12.592-2.623-3.39-8.484-6.938-10.135Z" transform="translate(-717.287 -892.343)" fill="#ffcf79"/>
          </g>
          <g id="Grupo_428" data-name="Grupo 428" transform="translate(1.512 16.6)">
            <path id="Trazado_943" data-name="Trazado 943" d="M720.594,892.343c-2.175.5.266,6.383,4.537,8.8s3.836,5.67,8.2,8.349,11.981,5.791,16.082,5.326,5.747,2.027,5.442,3.611-8.472,3.827-9.962,3.782,11.244,1.348,15.8-1.495,6.125-9.451,6.125-9.451-5.414.5-8.974-1.586-6.362-2.1-9.565-.782-8.3.671-11.693-1.772-3.435-6.994-6.216-9.368S720.594,892.343,720.594,892.343Z" transform="translate(-719.784 -892.343)" fill="#fcb85d"/>
          </g>
          <g id="Grupo_429" data-name="Grupo 429" transform="translate(0.155 1.739)">
            <path id="Trazado_944" data-name="Trazado 944" d="M750.428,870.373c-12.111-5.635-20.279-5.121-25.772-1.2s-10.144,9.74-5.094,11.875,10.421,6.36,10.614,10.119,4.809,9.144,10.412,9.162c2.421.007,9.726-2.812,12.21-1.656s6.989,2.605,9.791,2.614,8.942-5.767,8.581-12.41S760.54,875.079,750.428,870.373Z" transform="translate(-717.395 -866.184)" fill="#ef7561"/>
          </g>
          <g id="Grupo_430" data-name="Grupo 430" transform="translate(20.961 11.16)">
            <path id="Trazado_945" data-name="Trazado 945" d="M754.821,882.82c-2.738.211,1.946,6.949,7.953,8.881s9.283,3.241,10.628,1.278S765.565,881.993,754.821,882.82Z" transform="translate(-754.02 -882.767)" fill="#ec5249"/>
          </g>
          <g id="Grupo_431" data-name="Grupo 431" transform="translate(12.707 6.986)">
            <path id="Trazado_946" data-name="Trazado 946" d="M743.116,876.179a.61.61,0,0,0-.222-.608.653.653,0,0,0-.649-.116c-.789.233-1.684.182-2.443.473a.487.487,0,0,0-.038.892,4.764,4.764,0,0,0,2.93-.134A.647.647,0,0,0,743.116,876.179Z" transform="translate(-739.49 -875.419)" fill="#fff"/>
          </g>
          <g id="Grupo_432" data-name="Grupo 432" transform="translate(25.833 7.265)">
            <path id="Trazado_947" data-name="Trazado 947" d="M766.792,876.124c-.447-.431-1.241-.086-1.79-.019a7.366,7.366,0,0,0-2.217.262.287.287,0,0,0-.087.483,3.6,3.6,0,0,0,2.187.336c.6-.015,1.74.035,2-.628A.38.38,0,0,0,766.792,876.124Z" transform="translate(-762.595 -875.911)" fill="#fff"/>
          </g>
          <g id="Grupo_433" data-name="Grupo 433" transform="translate(11.507 15.534)">
            <path id="Trazado_948" data-name="Trazado 948" d="M740.524,890.754a3.958,3.958,0,0,0-2.991.021.24.24,0,0,0-.019.44,3.983,3.983,0,0,0,3.049-.018C740.745,891.1,740.678,890.836,740.524,890.754Z" transform="translate(-737.377 -890.466)" fill="#fff"/>
          </g>
          <g id="Grupo_434" data-name="Grupo 434" transform="translate(21.968 21.117)">
            <path id="Trazado_949" data-name="Trazado 949" d="M760.143,900.462c-.575-.329-1.4-.083-2.03-.025a6.388,6.388,0,0,0-2.143.37.282.282,0,0,0,.049.539,6.49,6.49,0,0,0,2.185.059c.638-.033,1.469.093,1.992-.318A.367.367,0,0,0,760.143,900.462Z" transform="translate(-755.792 -900.294)" fill="#fff"/>
          </g>
          <g id="Grupo_435" data-name="Grupo 435" transform="translate(26.313 29.287)">
            <path id="Trazado_950" data-name="Trazado 950" d="M766.973,914.812c-.448-.276-1.039-.066-1.518.048a13.338,13.338,0,0,0-1.779.516c-.389.153-.273.815.166.737.607-.109,1.207-.25,1.817-.348a2.233,2.233,0,0,0,1.421-.462A.321.321,0,0,0,766.973,914.812Z" transform="translate(-763.44 -914.676)" fill="#fff"/>
          </g>
          <g id="Grupo_436" data-name="Grupo 436" transform="translate(37.873 26.135)">
            <path id="Trazado_951" data-name="Trazado 951" d="M787.678,909.36c-.431-.4-1.066-.178-1.594-.115a11.413,11.413,0,0,0-2.063.347.365.365,0,0,0,.064.7,10.254,10.254,0,0,0,1.871-.027c.566-.038,1.385.086,1.76-.416A.351.351,0,0,0,787.678,909.36Z" transform="translate(-783.79 -909.128)" fill="#fff"/>
          </g>
          <g id="Grupo_437" data-name="Grupo 437" transform="translate(48.4 28.385)">
            <path id="Trazado_952" data-name="Trazado 952" d="M806.183,913.619a.346.346,0,0,0-.118-.323c-.416-.418-1.034-.1-1.525.031a11.341,11.341,0,0,0-1.958.617.424.424,0,0,0,.183.817,11.194,11.194,0,0,0,1.925-.356C805.285,914.27,805.98,914.273,806.183,913.619Z" transform="translate(-802.32 -913.088)" fill="#fff"/>
          </g>
          <g id="Grupo_438" data-name="Grupo 438" transform="translate(45.615 21.476)">
            <path id="Trazado_953" data-name="Trazado 953" d="M800.7,900.988c-.474-.182-.926.082-1.387.216-.544.157-1.133.12-1.663.3a.356.356,0,0,0-.028.652,3.039,3.039,0,0,0,1.724.069c.523-.1,1.32-.237,1.51-.807A.326.326,0,0,0,800.7,900.988Z" transform="translate(-797.417 -900.926)" fill="#fff"/>
          </g>
          <g id="Grupo_439" data-name="Grupo 439" transform="translate(38.592 12.816)">
            <path id="Trazado_954" data-name="Trazado 954" d="M788.236,886.109a.479.479,0,0,0-.082-.224.459.459,0,0,0-.429-.2c-.79.1-1.629.214-2.407.383-.25.055-.394.436-.095.55a4.117,4.117,0,0,0,2.706-.025A.478.478,0,0,0,788.236,886.109Z" transform="translate(-785.055 -885.682)" fill="#fff"/>
          </g>
          <g id="Grupo_440" data-name="Grupo 440" transform="translate(0.4)">
            <path id="Trazado_955" data-name="Trazado 955" d="M739.755,898.314c-4.207-1.958-5.126-4.577-5.936-6.889a10.024,10.024,0,0,0-2.241-4.1,13.469,13.469,0,0,0-4.194-2.761c-.4-.186-.8-.365-1.213-.548a22.029,22.029,0,0,1-7.142-4.466c-1.846-1.8-1.544-5.241.751-8.566,4.7-6.816,16.517-11.833,34.34-3.539,21.045,9.793,21.227,20.964,20.329,25.313-1.021,4.944-4.589,8.086-7.308,8.162a19.127,19.127,0,0,1-8.653-1.964,16.679,16.679,0,0,0-4.191-1.364,9.791,9.791,0,0,0-4.194.765C747.409,899.229,744.056,900.316,739.755,898.314Zm-11.627-15.347a15.365,15.365,0,0,1,4.707,3.124,11.581,11.581,0,0,1,2.645,4.752c.8,2.27,1.484,4.231,5.018,5.875,3.673,1.709,6.413.822,9.063-.037a11.191,11.191,0,0,1,4.977-.833,18.006,18.006,0,0,1,4.637,1.487,17.416,17.416,0,0,0,7.918,1.826c2.014-.057,4.824-2.847,5.632-6.759.813-3.938.557-14.1-19.347-23.359-16.827-7.831-27.834-3.31-32.147,2.941-1.734,2.513-2.143,5.164-.971,6.3a20.446,20.446,0,0,0,6.63,4.119C727.306,882.594,727.721,882.777,728.128,882.967Z" transform="translate(-717.827 -863.123)" fill="#80491f"/>
          </g>
          <g id="Grupo_441" data-name="Grupo 441" transform="translate(0 14.926)">
            <path id="Trazado_956" data-name="Trazado 956" d="M735.568,917.567c-9.647-4.49-15.589-10.008-17.659-16.4a14.985,14.985,0,0,1,.661-11.328.9.9,0,0,1,1.2-.34.88.88,0,0,1,.341,1.2,13.475,13.475,0,0,0-.511,9.971c1.927,5.892,7.549,11.042,16.713,15.306,8.7,4.049,16.186,4.947,22.252,2.669a17.169,17.169,0,0,0,9.228-8.123.88.88,0,0,1,1.162-.449l.015.007a.88.88,0,0,1,.433,1.155,18.742,18.742,0,0,1-10.22,9.059C752.658,922.738,744.714,921.823,735.568,917.567Z" transform="translate(-717.123 -889.396)" fill="#80491f"/>
          </g>
          <g id="Grupo_442" data-name="Grupo 442" transform="translate(20.102 9.909)">
            <path id="Trazado_957" data-name="Trazado 957" d="M761.085,891h0c-2.388-1.112-10.05-5.027-8.324-8.734s9.654-.367,12.043.744c4.125,1.92,10.714,6.009,9.246,9.163-.639,1.373-2.42,1.829-5.3,1.355A31.553,31.553,0,0,1,761.085,891Zm2.973-6.394c-5.375-2.5-9.154-2.777-9.7-1.6s2.1,3.893,7.471,6.395h0a29.68,29.68,0,0,0,7.21,2.385c2.224.368,3.229.036,3.413-.359C772.905,890.452,769.863,887.309,764.058,884.607Z" transform="translate(-752.508 -880.564)" fill="#80491f"/>
          </g>
        </g>
      </g>
    </g>
  </g>
</svg>
