<svg xmlns="http://www.w3.org/2000/svg" xmlns:xlink="http://www.w3.org/1999/xlink" width="123" height="118" viewBox="0 0 123 118">
  <defs>
    <clipPath id="clip-path">
      <path id="SVGID" d="M169.694,266.49a.514.514,0,0,0,0-.075.492.492,0,0,0,0-.072V203.287H111.006V266.34c0,.025,0,.05,0,.075s0,.053,0,.077v.062h.009c.462,2.515,13.417,5.136,29.336,5.136s28.873-2.621,29.335-5.136h.008Z" transform="translate(-111.001 -203.287)" fill="none"/>
    </clipPath>
  </defs>
  <g id="Grupo_1111" data-name="Grupo 1111" transform="translate(-33 -160)">
    <g id="Grupo_1046" data-name="Grupo 1046">
      <g id="Elipse_27" data-name="Elipse 27" transform="translate(33 160)" fill="#fff" stroke="#707070" stroke-width="1">
        <ellipse cx="61.5" cy="59" rx="61.5" ry="59" stroke="none"/>
        <ellipse cx="61.5" cy="59" rx="61" ry="58.5" fill="none"/>
      </g>
      <g id="Grupo_743" data-name="Grupo 743" transform="translate(-45.291 -11.885)">
        <g id="Grupo_722" data-name="Grupo 722" transform="translate(110.291 255.968)">
          <path id="Trazado_1840" data-name="Trazado 1840" d="M169.84,307.139l-.007-1.466h-.8c-3.1-2.584-14.892-4.509-28.964-4.509-14.087,0-25.888,1.928-28.975,4.517h-.8v1.414h.014c.183,3.207,13.435,5.8,29.759,5.8,16.22,0,29.409-2.557,29.756-5.736Z" transform="translate(-110.291 -299.819)" fill="#7e8286"/>
          <path id="Trazado_1841" data-name="Trazado 1841" d="M189.179,305.673h-.8c-3.1-2.584-14.892-4.509-28.964-4.509-.3,0-.6,0-.909,0v11.722c.3,0,.606,0,.909,0,16.22,0,29.409-2.557,29.756-5.736l.02-.017Z" transform="translate(-129.637 -299.819)" fill="#8c959d" opacity="0.5" style="mix-blend-mode: multiply;isolation: isolate"/>
          <path id="Trazado_1842" data-name="Trazado 1842" d="M169.838,304.78c0,3.24-13.326,5.864-29.763,5.864s-29.762-2.624-29.762-5.864,13.324-5.862,29.762-5.862,29.763,2.624,29.763,5.862Z" transform="translate(-110.3 -298.918)" fill="#5b606c"/>
        </g>
        <g id="Grupo_723" data-name="Grupo 723" transform="translate(110.716 198.712)">
          <path id="Trazado_1843" data-name="Trazado 1843" d="M169.694,266.49a.514.514,0,0,0,0-.075.492.492,0,0,0,0-.072V203.287H111.006V266.34c0,.025,0,.05,0,.075s0,.053,0,.077v.062h.009c.462,2.515,13.417,5.136,29.336,5.136s28.873-2.621,29.335-5.136h.008Z" transform="translate(-111.001 -203.287)" fill="#146600"/>
        </g>
        <g id="Grupo_738" data-name="Grupo 738" transform="translate(110.716 198.712)">
          <g id="Grupo_737" data-name="Grupo 737" clip-path="url(#clip-path)">
            <g id="Grupo_736" data-name="Grupo 736" transform="translate(-11.226 2.271)">
              <path id="Trazado_1844" data-name="Trazado 1844" d="M190.713,219.343s2.118-4.522,6.651-5.626c0,0-3.919,3.963-4.1,8.319a3.47,3.47,0,0,1,3.246-1.216s-2.71,1.416-3.68,6.81a4.1,4.1,0,0,1,4.538-1.113s-3.931,1.037-4.538,7.161c0,0,1.86-2.125,3.809-2.084,0,0-4,.839-3.354,8.4h-3.537Z" transform="translate(-131.373 -209.743)" fill="#004902"/>
              <path id="Trazado_1845" data-name="Trazado 1845" d="M119.372,212.9s2.678,4.715,2.342,8.572c0,0-2.235-2.828-4.438-2.456a7.692,7.692,0,0,1,3.853,5.168,5.881,5.881,0,0,0-3.853-1.224s4.126,2.581,4.827,10.794h1.251V217.612A5.748,5.748,0,0,0,119.372,212.9Z" transform="translate(-102.292 -209.414)" fill="#004902"/>
              <g id="Grupo_728" data-name="Grupo 728" transform="translate(19.81)">
                <rect id="Rectángulo_337" data-name="Rectángulo 337" width="40.672" height="39.809" fill="#0f5b00"/>
                <rect id="Rectángulo_338" data-name="Rectángulo 338" width="39.273" height="38.44" transform="translate(0.698 0.684)" fill="#ffbf0d"/>
                <rect id="Rectángulo_339" data-name="Rectángulo 339" width="38.576" height="37.757" transform="translate(1.047 1.025)" fill="#fff"/>
                <rect id="Rectángulo_340" data-name="Rectángulo 340" width="34.928" height="34.184" transform="translate(2.871 2.812)" fill="#ffbf0d"/>
                <rect id="Rectángulo_341" data-name="Rectángulo 341" width="34.273" height="33.542" transform="translate(3.199 3.133)" fill="#a00"/>
                <g id="Grupo_725" data-name="Grupo 725" transform="translate(4.952 8.851)">
                  <g id="Grupo_724" data-name="Grupo 724">
                    <path id="Trazado_1846" data-name="Trazado 1846" d="M134.59,229.367c.071-.006.151.014.151.133a5.431,5.431,0,0,1-.4,1.026c-.1.232-.269.611-.466.695s-.265-.036-.265-.27c0-.47.778-2.3.745-2.395-.017-.061-.353-.206-.353-.536,0-.619.93-1.287,1.261-1.549.5-1.09.757-1.63,1.263-2.7a11.555,11.555,0,0,0-2.723,1.761c-.046.022-.125.044-.125-.051a8.636,8.636,0,0,1,.584-1.558,1.722,1.722,0,0,1,.6-.676,7.13,7.13,0,0,1,2.134-1.148c1.979-.656,2.585.166,2.54,1.426-.1,2.832-2.665,4.544-4.619,4.993Zm1.385-3.3c.293-.107.621-.367.621-.165s-.675.5-.8.669c-.069.166-.107.249-.174.416a2.119,2.119,0,0,0,.819-.187c1.552-.664,2.6-2.453,2.51-3.1-.09-.626-1.876-.325-1.961-.181-.056.09-.057.444-.177.71C136.478,224.959,136.31,225.327,135.976,226.065Z" transform="translate(-133.608 -221.863)" fill="#490000"/>
                    <path id="Trazado_1847" data-name="Trazado 1847" d="M145.052,227.83c-.363.666-1.074,1.786-1.685,1.94-.475.122-.692-.543-.692-1.087,0-1.3,1.007-2.838,1.49-2.95.136-.031.353-.016.353.217,0,.534-.985,1.717-1.135,2.066a.39.39,0,0,0,.424.567c.429-.107.848-.766,1.171-1.142C145.009,227.6,145.024,227.675,145.052,227.83Zm-.775-2.795a1.106,1.106,0,0,1,.7-.977c.147-.031.267.083.267.276,0,.425-.3,1.009-.646,1.086C144.406,225.463,144.277,225.291,144.277,225.035Z" transform="translate(-137.246 -222.742)" fill="#490000"/>
                    <path id="Trazado_1848" data-name="Trazado 1848" d="M150.313,226.941c.026.184.038.277.065.462-.431.547-1.27,1.97-1.863,2.061-.307.049-.451-.266-.451-.63a5.142,5.142,0,0,1,.7-1.948c-.008-.006-.01-.011-.018-.017a9.471,9.471,0,0,0-1.247,1.842c-.12.225-.422.8-.64.847-.357.074-.442-.581-.453-.939a4.963,4.963,0,0,1,.954-2.53.409.409,0,0,1,.317-.186c.476-.074.444.093.444.159,0,.415-1.021,1.679-1.021,1.934,0,.065.041.111.09.1s.129-.122.161-.18a9.424,9.424,0,0,1,2.379-2.776c.035,0,.084.044.129.187a2.192,2.192,0,0,1,.123.56c.022.387-1,1.36-1,2.1,0,.1.065.182.146.171.194-.029.552-.448.7-.627C150.02,227.292,150.118,227.174,150.313,226.941Z" transform="translate(-138.742 -223.179)" fill="#490000"/>
                    <path id="Trazado_1849" data-name="Trazado 1849" d="M155.807,227.046c-.5.775-1.4,1.825-2.2,1.9-.594.054-.871-.6-.887-1.308-.032-1.4,1.151-2.951,2.207-3,.259-.014.589.056.589.484,0,.522-.4,1.3-1.967,2.115,0,.095-.01.144-.016.238a.425.425,0,0,0,.505.5c.58-.044,1.266-.859,1.7-1.324C155.762,226.8,155.777,226.885,155.807,227.046Zm-1.014-1.671c0-.074-.04-.136-.1-.113-.4.168-1.1,1.439-1.1,1.439A5.543,5.543,0,0,0,154.793,225.375Z" transform="translate(-141.276 -222.973)" fill="#490000"/>
                    <path id="Trazado_1850" data-name="Trazado 1850" d="M158.847,227.894c-.157.159-.68.72-.866.726-.228.006-.7-.683-.718-1.236-.035-1.327,2.092-2.747,3.034-2.743a.589.589,0,0,1,.531.536c0,.128-.285.251-.285.251,0,.016.237.215.237.449,0,.342-.711,1.063-.711,1.562a.247.247,0,0,0,.254.266c.343.013.807-.509,1.158-.8.027.16.04.241.065.4-.351.5-1.444,1.593-1.844,1.583-.267-.006-.392-.26-.392-.572a4.368,4.368,0,0,1,.3-1.189c-.007-.01-.009-.014-.015-.022C159.3,227.421,159.146,227.577,158.847,227.894Zm-.987-.265c0,.05.04.247.162.211.162-.048.415-.052,2.03-2.139a.271.271,0,0,0-.017-.022C158.094,226.4,157.822,227.162,157.86,227.629Z" transform="translate(-143.1 -222.978)" fill="#490000"/>
                    <path id="Trazado_1851" data-name="Trazado 1851" d="M163.551,229.86c-.066.157-.213.437-.367.428-.188-.011-.236-.3-.237-.49a3.369,3.369,0,0,1,.506-1.66c.374-.674.783-1.521,1.311-2.644a.073.073,0,0,0-.018-.022c-.513.6-.771.9-1.287,1.513-.011-.2-.019-.3-.031-.5.863-1.168,1.3-1.739,2.158-2.855.2-.256.342-.548.653-.508.111.013.371.1.371.307,0,.233-.42.69-.551.855a4.083,4.083,0,0,0-.692,1.178.08.08,0,0,1,.016.021c.351-.291,1.171-.891,1.612-.825.217.033.34.277.34.555,0,.586-1.317,2.192-1.317,2.192.015.076.862,0,1.729-.833.023.2.036.3.058.5a2.79,2.79,0,0,1-2.209,1.221c-.221-.026-.429-.235-.578-.275-.084-.022-.246.04-.375.028a1.222,1.222,0,0,1-.326-.092C164.011,228.712,163.856,229.094,163.551,229.86Zm2.581-3.534a.941.941,0,0,0,.2-.5c0-.075-.025-.151-.089-.161-.13-.016-.524.263-.626.351a5.545,5.545,0,0,0-.751.956,4.27,4.27,0,0,1,.686.177C165.785,226.821,165.9,226.657,166.132,226.326Z" transform="translate(-145.381 -222.366)" fill="#490000"/>
                    <path id="Trazado_1852" data-name="Trazado 1852" d="M170.185,230.789c-.066.15-.211.413-.366.389-.186-.028-.233-.325-.235-.514a3.1,3.1,0,0,1,.5-1.608c.373-.633.778-1.438,1.3-2.508l-.016-.026c-.512.544-.767.82-1.281,1.38-.011-.2-.021-.3-.031-.5.858-1.078,1.287-1.6,2.142-2.634.2-.236.34-.511.649-.438.111.026.369.14.369.344,0,.234-.42.645-.547.8a3.511,3.511,0,0,0-.688,1.106c.007.01.01.015.018.026.347-.259,1.161-.773,1.6-.66a.564.564,0,0,1,.338.59c0,.587-1.306,2.057-1.306,2.057.013.083.857.089,1.714-.655.025.2.034.3.057.505a2.458,2.458,0,0,1-2.191.994c-.219-.048-.42-.28-.574-.335-.08-.029-.242.015-.372-.011a1.34,1.34,0,0,1-.323-.125C170.641,229.689,170.489,230.055,170.185,230.789Zm2.563-3.267a.851.851,0,0,0,.2-.475c0-.075-.026-.154-.091-.168-.128-.033-.517.208-.619.284a4.68,4.68,0,0,0-.744.878,4.735,4.735,0,0,1,.68.248C172.4,227.981,172.519,227.827,172.748,227.522Z" transform="translate(-148.044 -222.847)" fill="#490000"/>
                    <path id="Trazado_1853" data-name="Trazado 1853" d="M180.04,229c-.436.454-1.187,1.286-1.877,1.082-.583-.172-.712-.962-.712-1.591a5.133,5.133,0,0,1,.882-2.928c.7-.946,1.461-1.688,1.717-1.6.134.046.165.314.159.45-.056.991-.824,1.823-1.995,3.546a1.26,1.26,0,0,0-.054.72.722.722,0,0,0,.4.578c.439.136,1.054-.344,1.372-.619C179.973,228.78,180,228.851,180.04,229Zm-1.652-1.968a8.073,8.073,0,0,0,1.208-1.952A5.768,5.768,0,0,0,178.374,227,.257.257,0,0,0,178.387,227.028Z" transform="translate(-151.201 -222.703)" fill="#490000"/>
                    <path id="Trazado_1854" data-name="Trazado 1854" d="M184.428,232.224c-.477.552-1.345,1.2-2.13.911a1.8,1.8,0,0,1-.867-1.706c-.03-1.409,1.124-2.435,2.148-2.016a.809.809,0,0,1,.566.747c0,.523-.379,1.12-1.9,1.236-.006.091-.01.137-.014.228a.713.713,0,0,0,.49.729c.561.213,1.226-.295,1.643-.566C184.387,231.962,184.4,232.049,184.428,232.224Zm-.975-2.126c0-.07-.041-.152-.095-.156-.389-.01-1.072.942-1.069.947C182.347,231,183.456,230.279,183.452,230.1Z" transform="translate(-152.798 -224.855)" fill="#490000"/>
                  </g>
                </g>
                <g id="Grupo_727" data-name="Grupo 727" transform="translate(4.601 8.501)">
                  <g id="Grupo_726" data-name="Grupo 726">
                    <path id="Trazado_1855" data-name="Trazado 1855" d="M134.007,228.782c.071,0,.148.017.148.133a5.244,5.244,0,0,1-.4,1.028c-.1.232-.267.608-.463.693s-.269-.035-.269-.27c0-.47.778-2.3.747-2.394-.019-.063-.353-.208-.353-.538,0-.618.93-1.285,1.262-1.551.5-1.088.758-1.628,1.262-2.7a11.585,11.585,0,0,0-2.722,1.76c-.047.022-.126.044-.126-.053a8.524,8.524,0,0,1,.583-1.555,1.714,1.714,0,0,1,.6-.68,7.176,7.176,0,0,1,2.137-1.148c1.977-.654,2.585.167,2.539,1.427-.1,2.833-2.665,4.543-4.62,4.993C134.2,228.271,134.137,228.442,134.007,228.782Zm1.384-3.3c.295-.1.62-.366.62-.163s-.674.506-.8.67l-.175.414a2.089,2.089,0,0,0,.818-.186c1.554-.663,2.6-2.454,2.51-3.1-.087-.626-1.873-.323-1.961-.183-.055.092-.055.447-.175.711C135.893,224.375,135.724,224.743,135.392,225.48Z" transform="translate(-133.022 -221.279)" fill="#fff" stroke="#8e0000" stroke-linecap="round" stroke-linejoin="round" stroke-width="0.738"/>
                    <path id="Trazado_1856" data-name="Trazado 1856" d="M144.471,227.248c-.365.661-1.075,1.782-1.687,1.938-.474.12-.69-.543-.69-1.087,0-1.3,1-2.837,1.488-2.951.138-.031.354-.017.354.217,0,.534-.987,1.719-1.136,2.066a.391.391,0,0,0,.427.567c.427-.105.847-.763,1.169-1.141C144.428,227.011,144.442,227.091,144.471,227.248Zm-.777-2.8a1.108,1.108,0,0,1,.7-.977c.146-.029.268.084.268.275,0,.426-.3,1.011-.647,1.087C143.824,224.88,143.694,224.708,143.694,224.451Z" transform="translate(-136.662 -222.158)" fill="#fff" stroke="#8e0000" stroke-linecap="round" stroke-linejoin="round" stroke-width="0.738"/>
                    <path id="Trazado_1857" data-name="Trazado 1857" d="M149.731,226.357c.025.186.037.278.064.463-.431.547-1.268,1.968-1.861,2.061-.31.048-.454-.268-.454-.631a5.109,5.109,0,0,1,.7-1.947l-.016-.018a9.656,9.656,0,0,0-1.25,1.842c-.12.225-.421.805-.638.849-.357.071-.442-.583-.453-.943a4.96,4.96,0,0,1,.954-2.528.4.4,0,0,1,.314-.185c.479-.076.445.092.445.156,0,.416-1.018,1.68-1.018,1.936,0,.063.04.11.088.1s.131-.123.163-.18a9.382,9.382,0,0,1,2.378-2.774c.031,0,.082.043.128.184a2.3,2.3,0,0,1,.123.564c.02.384-1,1.358-1,2.1,0,.095.065.182.147.172.195-.028.551-.449.7-.628C149.436,226.709,149.534,226.591,149.731,226.357Z" transform="translate(-138.158 -222.595)" fill="#fff" stroke="#8e0000" stroke-linecap="round" stroke-linejoin="round" stroke-width="0.738"/>
                    <path id="Trazado_1858" data-name="Trazado 1858" d="M155.222,226.462c-.5.773-1.4,1.824-2.2,1.9-.6.056-.871-.6-.887-1.308-.034-1.393,1.15-2.949,2.206-3,.261-.014.587.057.587.485,0,.522-.4,1.3-1.964,2.113-.007.1-.009.143-.016.237a.427.427,0,0,0,.5.5c.58-.046,1.265-.862,1.7-1.325C155.179,226.219,155.193,226.3,155.222,226.462Zm-1.011-1.673c0-.07-.042-.134-.1-.111-.4.169-1.1,1.441-1.1,1.441A5.55,5.55,0,0,0,154.211,224.788Z" transform="translate(-140.691 -222.389)" fill="#fff" stroke="#8e0000" stroke-linecap="round" stroke-linejoin="round" stroke-width="0.738"/>
                    <path id="Trazado_1859" data-name="Trazado 1859" d="M158.264,227.311c-.156.162-.678.721-.866.725-.228.007-.7-.683-.717-1.233-.038-1.329,2.09-2.748,3.034-2.743a.585.585,0,0,1,.529.534c0,.128-.284.254-.284.254s.237.215.237.45c0,.34-.71,1.059-.71,1.561a.246.246,0,0,0,.253.265c.343.013.809-.508,1.158-.794.027.157.04.239.066.4-.352.5-1.444,1.593-1.844,1.584-.269-.007-.392-.263-.392-.572a4.373,4.373,0,0,1,.3-1.191c-.008-.008-.009-.014-.016-.022C158.714,226.837,158.564,226.994,158.264,227.311Zm-.989-.264c0,.049.042.245.165.21.163-.046.414-.051,2.031-2.139l-.017-.021C157.512,225.819,157.238,226.579,157.275,227.047Z" transform="translate(-142.516 -222.395)" fill="#fff" stroke="#8e0000" stroke-linecap="round" stroke-linejoin="round" stroke-width="0.738"/>
                    <path id="Trazado_1860" data-name="Trazado 1860" d="M162.967,229.276c-.066.156-.211.436-.367.427-.188-.008-.234-.3-.237-.492a3.336,3.336,0,0,1,.506-1.66c.375-.672.783-1.518,1.312-2.644l-.017-.022c-.515.6-.773.9-1.287,1.514-.013-.2-.02-.3-.032-.5.862-1.166,1.293-1.737,2.157-2.854.2-.256.342-.55.65-.509.116.016.375.1.375.307,0,.236-.423.691-.553.855a4.06,4.06,0,0,0-.691,1.179.1.1,0,0,0,.017.021c.347-.291,1.17-.891,1.607-.825.221.034.341.278.341.556,0,.587-1.314,2.191-1.314,2.191.013.075.86,0,1.727-.832.025.2.035.3.058.5a2.783,2.783,0,0,1-2.209,1.218c-.22-.025-.427-.234-.578-.275-.082-.022-.245.041-.377.029a1.272,1.272,0,0,1-.325-.092C163.427,228.127,163.272,228.509,162.967,229.276Zm2.581-3.535a.942.942,0,0,0,.2-.5c0-.072-.026-.151-.09-.159-.132-.017-.521.265-.626.347a5.581,5.581,0,0,0-.751.958,4.316,4.316,0,0,1,.684.178C165.2,226.236,165.317,226.071,165.548,225.742Z" transform="translate(-144.796 -221.781)" fill="#fff" stroke="#8e0000" stroke-linecap="round" stroke-linejoin="round" stroke-width="0.738"/>
                    <path id="Trazado_1861" data-name="Trazado 1861" d="M169.6,230.205c-.067.15-.212.414-.365.389-.187-.029-.233-.328-.235-.517a3.081,3.081,0,0,1,.5-1.607c.372-.632.778-1.438,1.3-2.508a.159.159,0,0,0-.016-.025c-.512.544-.767.82-1.281,1.38l-.031-.505c.859-1.078,1.288-1.606,2.146-2.635.193-.235.338-.511.644-.439.114.027.368.141.368.345,0,.237-.415.648-.545.8a3.478,3.478,0,0,0-.687,1.109.194.194,0,0,1,.016.023c.346-.259,1.162-.771,1.6-.66a.566.566,0,0,1,.339.589c0,.587-1.3,2.055-1.3,2.055.013.086.854.092,1.714-.652.022.2.034.3.055.507a2.457,2.457,0,0,1-2.19.991c-.219-.049-.42-.279-.574-.335-.081-.028-.242.014-.371-.011a1.333,1.333,0,0,1-.326-.124C170.06,229.1,169.906,229.47,169.6,230.205Zm2.562-3.27a.845.845,0,0,0,.2-.474c0-.074-.026-.154-.089-.169-.129-.032-.518.21-.622.284a4.708,4.708,0,0,0-.744.881,4.485,4.485,0,0,1,.68.248C171.821,227.4,171.937,227.243,172.164,226.935Z" transform="translate(-147.46 -222.262)" fill="#fff" stroke="#8e0000" stroke-linecap="round" stroke-linejoin="round" stroke-width="0.738"/>
                    <path id="Trazado_1862" data-name="Trazado 1862" d="M179.457,228.411c-.438.456-1.187,1.286-1.876,1.082-.584-.172-.714-.962-.714-1.591a5.122,5.122,0,0,1,.883-2.925c.7-.95,1.459-1.691,1.715-1.6.134.047.167.314.159.451-.057.993-.823,1.823-2,3.546a1.3,1.3,0,0,0-.056.72.726.726,0,0,0,.4.578c.438.135,1.052-.344,1.373-.619C179.391,228.2,179.412,228.268,179.457,228.411Zm-1.651-1.967a8.189,8.189,0,0,0,1.2-1.954,5.856,5.856,0,0,0-1.222,1.927Z" transform="translate(-150.616 -222.118)" fill="#fff" stroke="#8e0000" stroke-linecap="round" stroke-linejoin="round" stroke-width="0.738"/>
                    <path id="Trazado_1863" data-name="Trazado 1863" d="M183.846,231.64c-.478.553-1.347,1.2-2.131.913a1.814,1.814,0,0,1-.866-1.707c-.034-1.411,1.124-2.435,2.146-2.015a.807.807,0,0,1,.569.747c0,.522-.38,1.12-1.905,1.235,0,.091-.011.138-.015.228a.715.715,0,0,0,.491.729c.561.213,1.224-.295,1.64-.565C183.8,231.379,183.816,231.467,183.846,231.64Zm-.975-2.125c0-.071-.042-.152-.1-.153-.389-.011-1.072.939-1.069.945C181.763,230.415,182.874,229.7,182.87,229.515Z" transform="translate(-152.214 -224.272)" fill="#fff" stroke="#8e0000" stroke-linecap="round" stroke-linejoin="round" stroke-width="0.738"/>
                  </g>
                </g>
              </g>
              <g id="Grupo_730" data-name="Grupo 730" transform="translate(0.482 16.07)">
                <g id="Grupo_729" data-name="Grupo 729">
                  <path id="Trazado_1864" data-name="Trazado 1864" d="M176.879,288.186s1.388-8.181-2.543-12.422a6.2,6.2,0,0,1,5.343,4.855,5.955,5.955,0,0,1,3.192-4.329,8.79,8.79,0,0,0-1.03,4.59,4.123,4.123,0,0,1,2.909-2.8,4.82,4.82,0,0,0-.393,3.5,2.562,2.562,0,0,0,1.153-1.88,3.313,3.313,0,0,1,.021,2.862,3.381,3.381,0,0,1,3.4-1.637,2.619,2.619,0,0,0-1.027,1.934,3.578,3.578,0,0,1,3.28-.884,14.225,14.225,0,0,0-5.03,8.668Z" transform="translate(-125.672 -250.711)" fill="#0b7000"/>
                  <path id="Trazado_1865" data-name="Trazado 1865" d="M103.315,286.088s-3.711-7.031-10.259-7.573a7.387,7.387,0,0,1,10.153.589s-1.447-4.525-5.973-5.067c0,0,3.668-2.079,6.789,2.018,0,0-1.251-4.379,1.23-7.478a11.092,11.092,0,0,0,1.493,6.691,7.226,7.226,0,0,1,5.925-4.871,7.55,7.55,0,0,0-1.924,3.961,8.375,8.375,0,0,1,5.329-2.091s-4.3,2.922-3.4,12.5Z" transform="translate(-93.056 -247.828)" fill="#317c00"/>
                  <path id="Trazado_1866" data-name="Trazado 1866" d="M168.907,250.72s1.872-6.482-1.815-10.667a6.268,6.268,0,0,1,5.858,6.337s1.779-3.618-.669-6.613c0,0,3.466.888,2.962,5.229,0,0,1.812-3.411,5.152-3.845a9.384,9.384,0,0,0-3.025,4.966,6.133,6.133,0,0,1,6.488.511,6.4,6.4,0,0,0-3.507,1.289,7.122,7.122,0,0,1,4.489,1.855s-4.351-.745-9.441,5.641Z" transform="translate(-122.765 -236.27)" fill="#00320d"/>
                  <path id="Trazado_1867" data-name="Trazado 1867" d="M179.535,254.828s1.746-7.406-4.529-9a7.322,7.322,0,0,1,6.278,2.2s-.123-3.307-2.694-4.531c0,0,4.307.179,5.214,5.663a8.227,8.227,0,0,0-.314-5.928s3.611,2.409,3,6.634c0,0,.468-2.266,3.614-2.879a11.033,11.033,0,0,0-2.082,6.124s1.849-2.205,5.469-.94c0,0-2.654.572-3.8,2.164a5.525,5.525,0,0,1,4.9,3.779s-4.174-2.2-9.414.868Z" transform="translate(-125.941 -237.659)" fill="#113d00"/>
                  <path id="Trazado_1868" data-name="Trazado 1868" d="M168.578,253.542s1.213-4.592,5.5-6.247c0,0-3.142-1.115-4.092,1.409,0,0,.808-3.755,3.542-5.594,0,0-2.759.16-3.5,2.469a5.552,5.552,0,0,1,1.9-4.181s-3.42.366-4.441,5.144a7.23,7.23,0,0,0-1.133-4.981s.581,3.578-.69,5.06a3.415,3.415,0,0,0-.515-2.324s.459,1.682-.52,5.2Z" transform="translate(-121.777 -236.92)" fill="#054200"/>
                  <path id="Trazado_1869" data-name="Trazado 1869" d="M125.986,288.179a12.353,12.353,0,0,1,3.259-10.251s-4.586,1.181-4.307,4.392a11.389,11.389,0,0,1,1.186-8.17s-3.367,2.173-2.955,5.021a5.819,5.819,0,0,1-.046-5.566,7.744,7.744,0,0,0-2.577,8.38,6.955,6.955,0,0,0-4.316-4.149s2.807,3.15,2.078,5.558c0,0-.165-1.007-2-1.947,0,0,1.554,1.347,2.373,5.578Z" transform="translate(-102.355 -249.845)" fill="#054200"/>
                  <path id="Trazado_1870" data-name="Trazado 1870" d="M144.867,249.376s1.387-8.178-2.542-12.421a6.194,6.194,0,0,1,5.34,4.854,5.97,5.97,0,0,1,3.194-4.332,8.812,8.812,0,0,0-1.029,4.593,4.124,4.124,0,0,1,2.91-2.8,4.819,4.819,0,0,0-.395,3.5,2.566,2.566,0,0,0,1.153-1.882,3.3,3.3,0,0,1,.021,2.862,3.383,3.383,0,0,1,3.4-1.638,2.628,2.628,0,0,0-1.027,1.937,3.577,3.577,0,0,1,3.28-.887,14.23,14.23,0,0,0-5.03,8.669Z" transform="translate(-112.827 -235.138)" fill="#0b7000"/>
                  <path id="Trazado_1871" data-name="Trazado 1871" d="M146.924,270.028s1.39-8.176-2.542-12.419a6.191,6.191,0,0,1,5.342,4.854,5.967,5.967,0,0,1,3.194-4.331,8.811,8.811,0,0,0-1.028,4.592,4.114,4.114,0,0,1,2.908-2.8,4.821,4.821,0,0,0-.393,3.5,2.566,2.566,0,0,0,1.153-1.88,3.309,3.309,0,0,1,.021,2.862,3.383,3.383,0,0,1,3.4-1.639,2.631,2.631,0,0,0-1.029,1.937,3.581,3.581,0,0,1,3.281-.887,14.231,14.231,0,0,0-5.03,8.669Z" transform="translate(-113.652 -243.426)" fill="#054200"/>
                  <path id="Trazado_1872" data-name="Trazado 1872" d="M122.069,250.452s-3.42-6.742-9.651-5.662c0,0,2.491-2.779,5.621-1.78,0,0-2.061-3-5.389-2.344,0,0,3.609-3.092,7.732.75a7.794,7.794,0,0,1,.608-7.5,11.046,11.046,0,0,0,1.332,6s.308-5.247,6.4-5.294c0,0-3.185,1.17-2.576,5.53,0,0,2.482-3.936,6.935-2.765a4.637,4.637,0,0,0-3.14,2.623,8.523,8.523,0,0,1,8.34.843s-6.98-1.872-8.529,9.23Z" transform="translate(-100.826 -233.92)" fill="#00320d"/>
                  <path id="Trazado_1873" data-name="Trazado 1873" d="M108.176,300.965s-3.142-6.193-8.865-5.2c0,0,2.288-2.553,5.165-1.634,0,0-1.894-2.757-4.951-2.153,0,0,3.315-2.84,7.1.69a7.162,7.162,0,0,1,.559-6.888,10.141,10.141,0,0,0,1.223,5.508s.284-4.818,5.879-4.862c0,0-2.926,1.075-2.367,5.079,0,0,2.282-3.615,6.37-2.541a4.268,4.268,0,0,0-2.883,2.411,7.828,7.828,0,0,1,7.661.775s-6.412-1.72-7.834,8.479Z" transform="translate(-95.566 -254.729)" fill="#00320d"/>
                  <path id="Trazado_1874" data-name="Trazado 1874" d="M146.833,317.579s-3.141-6.193-8.866-5.2c0,0,2.289-2.552,5.165-1.636,0,0-1.893-2.753-4.949-2.152,0,0,3.314-2.84,7.1.69a7.158,7.158,0,0,1,.559-6.887,10.14,10.14,0,0,0,1.223,5.508s.284-4.819,5.879-4.863c0,0-2.927,1.078-2.366,5.079,0,0,2.281-3.614,6.369-2.539a4.257,4.257,0,0,0-2.884,2.411,7.824,7.824,0,0,1,7.662.774s-6.414-1.723-7.835,8.478Z" transform="translate(-111.078 -261.396)" fill="#00320d"/>
                  <path id="Trazado_1875" data-name="Trazado 1875" d="M137.031,279.126s-3.144-6.2-8.868-5.205c0,0,2.289-2.552,5.166-1.636,0,0-1.9-2.755-4.951-2.153,0,0,3.314-2.841,7.1.689a7.155,7.155,0,0,1,.56-6.885,10.129,10.129,0,0,0,1.223,5.508s.283-4.819,5.879-4.863c0,0-2.927,1.077-2.367,5.08,0,0,2.28-3.616,6.369-2.54a4.266,4.266,0,0,0-2.885,2.41,7.833,7.833,0,0,1,7.664.775s-6.415-1.721-7.835,8.48Z" transform="translate(-107.144 -245.964)" fill="#00320d"/>
                  <path id="Trazado_1876" data-name="Trazado 1876" d="M123.471,258.219s-3.659-6.933-10.118-7.468a7.281,7.281,0,0,1,10.013.584s-1.427-4.466-5.889-5c0,0,3.616-2.051,6.7,1.99,0,0-1.235-4.316,1.212-7.373a10.911,10.911,0,0,0,1.471,6.6,7.125,7.125,0,0,1,5.843-4.8,7.445,7.445,0,0,0-1.9,3.906,8.282,8.282,0,0,1,5.257-2.063s-4.244,2.884-3.359,12.332Z" transform="translate(-101.201 -236.742)" fill="#317c00"/>
                  <path id="Trazado_1877" data-name="Trazado 1877" d="M179.169,262.882a8.674,8.674,0,0,0-.669-10s4.617,1.3,4.371,5.826a7.413,7.413,0,0,0,.008-6.9s3.176,1.241,2.746,6.179c0,0,2.145-1.7,1.339-5.348,0,0,2.567,3.01,1.112,6.4,0,0,3.03-.952,5.081,1.13a6.556,6.556,0,0,0-3.244.49,5.848,5.848,0,0,1,5.266,4.727s-3.98-5.309-8.982,1.548Z" transform="translate(-127.343 -241.096)" fill="#317c00"/>
                  <path id="Trazado_1878" data-name="Trazado 1878" d="M173.08,295.6s1.871-6.482-1.815-10.667a6.267,6.267,0,0,1,5.861,6.336s1.777-3.617-.671-6.61c0,0,3.466.887,2.962,5.228,0,0,1.814-3.411,5.151-3.846a9.4,9.4,0,0,0-3.024,4.966,6.13,6.13,0,0,1,6.488.511,6.4,6.4,0,0,0-3.507,1.288,7.108,7.108,0,0,1,4.487,1.857s-4.349-.747-9.439,5.64Z" transform="translate(-124.44 -254.282)" fill="#00320d"/>
                  <path id="Trazado_1879" data-name="Trazado 1879" d="M184.906,295.152s1.746-7.4-4.527-9a7.321,7.321,0,0,1,6.278,2.2s-.123-3.307-2.7-4.531c0,0,4.307.179,5.215,5.662a8.235,8.235,0,0,0-.316-5.927s3.613,2.408,3,6.633c0,0,.471-2.267,3.613-2.878a11.036,11.036,0,0,0-2.082,6.121s1.849-2.2,5.472-.938c0,0-2.656.571-3.8,2.162a5.526,5.526,0,0,1,4.9,3.783s-4.172-2.207-9.415.865Z" transform="translate(-128.097 -253.841)" fill="#054200"/>
                  <path id="Trazado_1880" data-name="Trazado 1880" d="M179.169,303.469a8.673,8.673,0,0,0-.669-10s4.617,1.3,4.371,5.825a7.41,7.41,0,0,0,.008-6.9s3.176,1.241,2.746,6.179c0,0,2.145-1.7,1.339-5.348,0,0,2.567,3.01,1.112,6.4,0,0,3.03-.95,5.081,1.132a6.549,6.549,0,0,0-3.244.489,5.85,5.85,0,0,1,5.266,4.727s-3.98-5.31-8.982,1.548Z" transform="translate(-127.343 -257.383)" fill="#317c00"/>
                  <path id="Trazado_1881" data-name="Trazado 1881" d="M136.046,317.094a8.673,8.673,0,0,0-.671-10s4.616,1.3,4.371,5.826a7.411,7.411,0,0,0,.01-6.9s3.177,1.239,2.746,6.179c0,0,2.145-1.7,1.339-5.349,0,0,2.566,3.01,1.109,6.4,0,0,3.032-.952,5.084,1.129a6.563,6.563,0,0,0-3.247.489,5.851,5.851,0,0,1,5.268,4.729s-3.98-5.31-8.981,1.548Z" transform="translate(-110.038 -262.851)" fill="#317c00"/>
                </g>
                <path id="Trazado_1882" data-name="Trazado 1882" d="M145.086,281.237s-.1-5.226-3.443-6.441c0,0,2.37-.548,3.808,2.361a14.51,14.51,0,0,0-1.66-6.4s1.8.644,2.44,3.492a10.377,10.377,0,0,0,1.279-4.214,7.3,7.3,0,0,1,.393,5.648,4.013,4.013,0,0,1,2.847-2.125,4.982,4.982,0,0,0-.856,3.7,6.726,6.726,0,0,0,.856-6.743,6.763,6.763,0,0,1,2.218,5.116,6.049,6.049,0,0,0,.368-3.1s1.218.748,1.092,3.757c0,0,.241-2.664,2.406-3.195,0,0-1.266,1.943-.777,7.81Z" transform="translate(-112.553 -248.412)" fill="#0f5b00"/>
              </g>
              <g id="Grupo_735" data-name="Grupo 735" transform="translate(0 25.006)">
                <g id="Grupo_731" data-name="Grupo 731" transform="translate(18.36 27.703)">
                  <path id="Trazado_1883" data-name="Trazado 1883" d="M163.478,298.182c-.3-.161-.6-.312-.915-.454l-2,4.61Z" transform="translate(-138.021 -296.164)" fill="#d38700"/>
                  <path id="Trazado_1884" data-name="Trazado 1884" d="M138.291,302.271l-1.733-4.2c-.416.2-.809.42-1.174.643l2.539,3.394Z" transform="translate(-127.919 -296.301)" fill="#d38700"/>
                  <path id="Trazado_1885" data-name="Trazado 1885" d="M127.86,305.549c-.189.247-.358.476-.507.678-.082.111-.168.236-.255.371l4.42,2.919Z" transform="translate(-124.594 -299.302)" fill="#d38700"/>
                  <path id="Trazado_1886" data-name="Trazado 1886" d="M176.42,314.5c-.089-.286-.185-.571-.287-.849l-2.893.849Z" transform="translate(-143.11 -302.556)" fill="#d38700"/>
                  <path id="Trazado_1887" data-name="Trazado 1887" d="M178.923,322.489c-.011-.225-.026-.446-.044-.665l-1.477.326Z" transform="translate(-144.78 -305.833)" fill="#d38700"/>
                  <path id="Trazado_1888" data-name="Trazado 1888" d="M169.069,302.329c-.222-.219-.449-.432-.687-.636l-2.506,4.01Z" transform="translate(-140.155 -297.755)" fill="#d38700"/>
                  <path id="Trazado_1889" data-name="Trazado 1889" d="M123.478,316.576c-.041.208-.081.42-.117.635l1.9-.066Z" transform="translate(-123.094 -303.727)" fill="#d38700"/>
                  <path id="Trazado_1890" data-name="Trazado 1890" d="M153.521,297.983l.344-2.763c-.254-.022-.511-.04-.768-.054l.119,2.612Z" transform="translate(-135.027 -295.136)" fill="#d38700"/>
                  <path id="Trazado_1891" data-name="Trazado 1891" d="M123.064,326.012c.028.293.064.589.107.885l2.7-.432Z" transform="translate(-122.975 -307.514)" fill="#d38700"/>
                  <path id="Trazado_1892" data-name="Trazado 1892" d="M157.059,311.771l-1.521-.338,1.477-.326a18.451,18.451,0,0,0-.789-4.041h-3.18l2.893-.849a19.085,19.085,0,0,0-1.951-3.887,15.67,15.67,0,0,0-2.158-2.639l-3.193,3.374,2.506-4.01a15.319,15.319,0,0,0-2.77-1.92l-2.919,4.156,2-4.61a17.332,17.332,0,0,0-5.7-1.48l-.344,2.763-.305-.2-.119-2.612a21.785,21.785,0,0,0-2.289,0,18.11,18.11,0,0,0-7.142,1.739l1.733,4.2-.368-.164-2.539-3.394a15.261,15.261,0,0,0-4.2,3.835l3.658,3.968-4.42-2.919a16.776,16.776,0,0,0-2.121,5.553l1.784.569-1.9.066a19.053,19.053,0,0,0-.178,5.014l2.8.453-2.7.432a19.126,19.126,0,0,0,.644,2.873,14.58,14.58,0,0,0,2.072,4.2l4.726-3.987-3.8,5.147a16.033,16.033,0,0,0,5.564,4.03l1.023-2.043-.178,2.389a19.346,19.346,0,0,0,6.74,1.261l.325-5.426,1.351,5.37a19.389,19.389,0,0,0,7.852-2.258l-1.569-3.952,2.5,3.4a14.038,14.038,0,0,0,4.866-5.042l-6.186-5.09,6.884,3.6c.069-.184.137-.369.2-.557A18.538,18.538,0,0,0,157.059,311.771Zm-16.035,6.277c-3.919,1.02-7.307-1.224-7.8-4.778a5.912,5.912,0,0,1,2.654-6.2c3.674-2.592,7.962-.12,9.186,2.409S146.581,316.6,141.024,318.048Z" transform="translate(-122.915 -295.116)" fill="#e59200"/>
                  <path id="Trazado_1893" data-name="Trazado 1893" d="M166.15,344.149q.48-.261.936-.553l-2.5-3.4Z" transform="translate(-139.635 -313.206)" fill="#d38700"/>
                  <path id="Trazado_1894" data-name="Trazado 1894" d="M172.746,334.039a12.352,12.352,0,0,0,.7-1.492l-6.884-3.6Z" transform="translate(-140.429 -308.692)" fill="#d38700"/>
                  <path id="Trazado_1895" data-name="Trazado 1895" d="M127.778,336.635a14.031,14.031,0,0,0,.926,1.16l3.8-5.147Z" transform="translate(-124.867 -310.177)" fill="#d38700"/>
                  <path id="Trazado_1896" data-name="Trazado 1896" d="M151.287,347.024l.183,0q.748,0,1.493-.057l-1.351-5.37Z" transform="translate(-134.3 -313.768)" fill="#d38700"/>
                  <path id="Trazado_1897" data-name="Trazado 1897" d="M138.619,346.605c.276.123.559.237.844.346l.178-2.389Z" transform="translate(-129.217 -314.958)" fill="#d38700"/>
                </g>
                <g id="Grupo_732" data-name="Grupo 732" transform="translate(41.266 12.339)">
                  <path id="Trazado_1898" data-name="Trazado 1898" d="M201.738,272.519q-.447-.24-.914-.455l-2.006,4.613Z" transform="translate(-176.28 -270.502)" fill="#d38700"/>
                  <path id="Trazado_1899" data-name="Trazado 1899" d="M176.55,276.609l-1.733-4.2c-.417.2-.809.42-1.176.643l2.542,3.394Z" transform="translate(-166.176 -270.64)" fill="#d38700"/>
                  <path id="Trazado_1900" data-name="Trazado 1900" d="M166.121,279.887c-.191.247-.359.476-.508.678-.081.111-.166.237-.254.371l4.417,2.92Z" transform="translate(-162.853 -273.641)" fill="#d38700"/>
                  <path id="Trazado_1901" data-name="Trazado 1901" d="M214.679,288.843c-.089-.287-.183-.571-.287-.849l-2.889.849Z" transform="translate(-181.37 -276.894)" fill="#d38700"/>
                  <path id="Trazado_1902" data-name="Trazado 1902" d="M217.18,296.824q-.014-.333-.044-.664l-1.476.329Z" transform="translate(-183.038 -280.171)" fill="#d38700"/>
                  <path id="Trazado_1903" data-name="Trazado 1903" d="M207.327,276.667c-.222-.219-.45-.43-.686-.636l-2.507,4.012Z" transform="translate(-178.414 -272.094)" fill="#d38700"/>
                  <path id="Trazado_1904" data-name="Trazado 1904" d="M161.736,290.916c-.041.207-.08.417-.116.633l1.9-.062Z" transform="translate(-161.353 -278.067)" fill="#d38700"/>
                  <path id="Trazado_1905" data-name="Trazado 1905" d="M191.782,272.322l.341-2.763c-.253-.023-.51-.041-.768-.053l.12,2.611Z" transform="translate(-173.285 -269.475)" fill="#d38700"/>
                  <path id="Trazado_1906" data-name="Trazado 1906" d="M161.323,300.353q.042.437.107.883l2.7-.433Z" transform="translate(-161.234 -281.854)" fill="#d38700"/>
                  <path id="Trazado_1907" data-name="Trazado 1907" d="M195.316,286.108l-1.52-.335,1.476-.329a18.425,18.425,0,0,0-.789-4.04h-3.177l2.889-.849a19.165,19.165,0,0,0-1.947-3.887,15.906,15.906,0,0,0-2.161-2.639L186.9,277.4l2.507-4.012a15.244,15.244,0,0,0-2.77-1.92l-2.92,4.158,2.006-4.613a17.374,17.374,0,0,0-5.706-1.479l-.341,2.763-.307-.2-.12-2.611a21.288,21.288,0,0,0-2.288,0,18.074,18.074,0,0,0-7.142,1.737l1.733,4.2-.368-.164-2.542-3.394a15.259,15.259,0,0,0-4.2,3.835l3.655,3.969-4.417-2.92a16.783,16.783,0,0,0-2.123,5.554l1.784.571-1.9.062a19.075,19.075,0,0,0-.178,5.017l2.8.45-2.7.433a19.3,19.3,0,0,0,.644,2.876,14.578,14.578,0,0,0,2.072,4.2l4.725-3.987-3.8,5.148a16.076,16.076,0,0,0,5.567,4.029l1.021-2.044-.179,2.391a19.385,19.385,0,0,0,6.742,1.261l.327-5.427,1.348,5.374a19.444,19.444,0,0,0,7.852-2.259l-1.569-3.952,2.5,3.4a14.031,14.031,0,0,0,4.868-5.044l-6.187-5.089,6.885,3.6c.07-.184.138-.368.2-.557A18.591,18.591,0,0,0,195.316,286.108Zm-16.033,6.276c-3.92,1.022-7.309-1.223-7.8-4.775a5.913,5.913,0,0,1,2.652-6.206c3.674-2.592,7.96-.123,9.186,2.409S184.841,290.939,179.283,292.384Z" transform="translate(-161.174 -269.455)" fill="#ffbc00"/>
                  <path id="Trazado_1908" data-name="Trazado 1908" d="M204.409,318.489c.319-.175.63-.362.933-.553l-2.5-3.4Z" transform="translate(-177.894 -287.545)" fill="#d38700"/>
                  <path id="Trazado_1909" data-name="Trazado 1909" d="M211,308.378a12.016,12.016,0,0,0,.7-1.492l-6.885-3.6Z" transform="translate(-178.687 -283.032)" fill="#d38700"/>
                  <path id="Trazado_1910" data-name="Trazado 1910" d="M166.038,310.973c.289.4.6.79.924,1.16l3.8-5.148Z" transform="translate(-163.126 -284.515)" fill="#d38700"/>
                  <path id="Trazado_1911" data-name="Trazado 1911" d="M189.547,321.362l.182,0c.5,0,1-.02,1.494-.056l-1.348-5.373Z" transform="translate(-172.56 -288.106)" fill="#d38700"/>
                  <path id="Trazado_1912" data-name="Trazado 1912" d="M176.881,320.944c.276.123.559.237.842.347l.179-2.391Z" transform="translate(-167.477 -289.296)" fill="#d38700"/>
                </g>
                <g id="Grupo_733" data-name="Grupo 733" transform="translate(0 7.234)">
                  <path id="Trazado_1913" data-name="Trazado 1913" d="M132.812,264c-.3-.162-.6-.314-.915-.456l-2,4.611Z" transform="translate(-107.356 -261.976)" fill="#d38700"/>
                  <path id="Trazado_1914" data-name="Trazado 1914" d="M107.625,268.083l-1.732-4.2c-.417.2-.809.421-1.175.642l2.541,3.395Z" transform="translate(-97.254 -262.114)" fill="#d38700"/>
                  <path id="Trazado_1915" data-name="Trazado 1915" d="M97.2,271.359c-.19.248-.359.477-.507.68-.081.109-.166.236-.255.371l4.417,2.919Z" transform="translate(-93.93 -265.114)" fill="#d38700"/>
                  <path id="Trazado_1916" data-name="Trazado 1916" d="M145.754,280.317c-.09-.287-.184-.57-.287-.85l-2.892.85Z" transform="translate(-112.445 -268.368)" fill="#d38700"/>
                  <path id="Trazado_1917" data-name="Trazado 1917" d="M148.254,288.3c-.009-.223-.026-.445-.041-.665l-1.48.327Z" transform="translate(-114.113 -271.645)" fill="#d38700"/>
                  <path id="Trazado_1918" data-name="Trazado 1918" d="M138.4,268.141q-.334-.326-.687-.635l-2.5,4.012Z" transform="translate(-109.491 -263.568)" fill="#d38700"/>
                  <path id="Trazado_1919" data-name="Trazado 1919" d="M92.812,282.391c-.041.207-.082.418-.116.633l1.9-.064Z" transform="translate(-92.429 -269.541)" fill="#d38700"/>
                  <path id="Trazado_1920" data-name="Trazado 1920" d="M122.856,263.8l.34-2.764c-.252-.023-.507-.039-.768-.054l.122,2.613Z" transform="translate(-104.361 -260.948)" fill="#d38700"/>
                  <path id="Trazado_1921" data-name="Trazado 1921" d="M92.4,291.828c.029.291.063.585.108.883l2.7-.433Z" transform="translate(-92.31 -273.328)" fill="#d38700"/>
                  <path id="Trazado_1922" data-name="Trazado 1922" d="M126.392,277.583l-1.521-.338,1.48-.328a18.541,18.541,0,0,0-.79-4.04h-3.179l2.892-.85a19.253,19.253,0,0,0-1.95-3.887,15.893,15.893,0,0,0-2.16-2.64l-3.191,3.377,2.5-4.012a15.094,15.094,0,0,0-2.77-1.919l-2.918,4.155,2-4.611a17.4,17.4,0,0,0-5.705-1.479l-.34,2.764-.306-.2-.122-2.613a22.055,22.055,0,0,0-2.286,0,18.109,18.109,0,0,0-7.143,1.739l1.732,4.2-.366-.163-2.541-3.395a15.278,15.278,0,0,0-4.2,3.834l3.655,3.969-4.417-2.919a16.807,16.807,0,0,0-2.122,5.555l1.786.569-1.9.064a19.144,19.144,0,0,0-.178,5.017l2.8.45-2.7.433a19.022,19.022,0,0,0,.644,2.874,14.52,14.52,0,0,0,2.073,4.2l4.725-3.987-3.8,5.148a16.04,16.04,0,0,0,5.564,4.028l1.021-2.043-.179,2.388a19.338,19.338,0,0,0,6.742,1.263l.326-5.426,1.35,5.372a19.409,19.409,0,0,0,7.852-2.26l-1.569-3.947,2.5,3.394a14.013,14.013,0,0,0,4.868-5.043l-6.187-5.088,6.886,3.6c.069-.183.137-.372.2-.556A18.567,18.567,0,0,0,126.392,277.583Zm-16.031,6.276c-3.922,1.021-7.31-1.224-7.8-4.775a5.911,5.911,0,0,1,2.652-6.206c3.674-2.592,7.961-.123,9.185,2.409S115.917,282.411,110.36,283.859Z" transform="translate(-92.251 -260.928)" fill="#ffc612"/>
                  <path id="Trazado_1923" data-name="Trazado 1923" d="M135.484,309.963c.319-.175.631-.357.935-.553l-2.5-3.394Z" transform="translate(-108.97 -279.021)" fill="#d38700"/>
                  <path id="Trazado_1924" data-name="Trazado 1924" d="M142.079,299.852a12.124,12.124,0,0,0,.7-1.49l-6.886-3.6Z" transform="translate(-109.763 -274.506)" fill="#d38700"/>
                  <path id="Trazado_1925" data-name="Trazado 1925" d="M97.115,302.448a14.558,14.558,0,0,0,.925,1.161l3.8-5.148Z" transform="translate(-94.203 -275.99)" fill="#d38700"/>
                  <path id="Trazado_1926" data-name="Trazado 1926" d="M120.621,312.836c.06,0,.123.005.184.005.5,0,1-.022,1.492-.059l-1.35-5.372Z" transform="translate(-103.635 -279.581)" fill="#d38700"/>
                  <path id="Trazado_1927" data-name="Trazado 1927" d="M107.953,312.418c.278.124.56.238.842.345l.179-2.388Z" transform="translate(-98.552 -280.771)" fill="#d38700"/>
                </g>
                <g id="Grupo_734" data-name="Grupo 734" transform="translate(21.061)">
                  <path id="Trazado_1928" data-name="Trazado 1928" d="M167.991,251.913q-.447-.242-.914-.454l-2,4.611Z" transform="translate(-142.534 -249.894)" fill="#e8a000"/>
                  <path id="Trazado_1929" data-name="Trazado 1929" d="M142.8,256l-1.736-4.2c-.414.2-.806.42-1.173.641l2.541,3.4Z" transform="translate(-132.431 -250.032)" fill="#e8a000"/>
                  <path id="Trazado_1930" data-name="Trazado 1930" d="M132.372,259.277c-.188.248-.358.476-.507.68-.081.11-.166.235-.253.372l4.418,2.92Z" transform="translate(-129.107 -253.031)" fill="#e8a000"/>
                  <path id="Trazado_1931" data-name="Trazado 1931" d="M180.933,268.237c-.089-.287-.186-.571-.287-.85l-2.892.85Z" transform="translate(-147.623 -256.286)" fill="#e8a000"/>
                  <path id="Trazado_1932" data-name="Trazado 1932" d="M183.433,276.218c-.012-.223-.026-.445-.043-.665l-1.479.329Z" transform="translate(-149.291 -259.563)" fill="#e8a000"/>
                  <path id="Trazado_1933" data-name="Trazado 1933" d="M173.581,256.059c-.222-.219-.449-.429-.687-.635l-2.506,4.011Z" transform="translate(-144.668 -251.485)" fill="#e8a000"/>
                  <path id="Trazado_1934" data-name="Trazado 1934" d="M127.989,270.307c-.043.207-.081.42-.117.633l1.9-.063Z" transform="translate(-127.606 -257.458)" fill="#e8a000"/>
                  <path id="Trazado_1935" data-name="Trazado 1935" d="M158.032,251.714l.342-2.762c-.252-.023-.507-.041-.767-.054l.12,2.612Z" transform="translate(-139.539 -248.867)" fill="#e8a000"/>
                  <path id="Trazado_1936" data-name="Trazado 1936" d="M127.575,279.746c.028.29.064.586.108.883l2.7-.432Z" transform="translate(-127.487 -261.245)" fill="#e8a000"/>
                  <path id="Trazado_1937" data-name="Trazado 1937" d="M161.57,265.5l-1.523-.336,1.479-.329a18.452,18.452,0,0,0-.789-4.039h-3.179l2.892-.85a19.11,19.11,0,0,0-1.951-3.888,15.826,15.826,0,0,0-2.158-2.64l-3.192,3.376,2.506-4.011a15.22,15.22,0,0,0-2.77-1.92l-2.919,4.157,2-4.611a17.293,17.293,0,0,0-5.706-1.479l-.342,2.762-.3-.2-.12-2.612a20.832,20.832,0,0,0-2.288,0,18.075,18.075,0,0,0-7.144,1.739l1.736,4.2-.368-.163-2.541-3.4a15.352,15.352,0,0,0-4.2,3.834l3.658,3.971-4.418-2.92a16.765,16.765,0,0,0-2.122,5.553l1.785.571-1.9.063a19.232,19.232,0,0,0-.178,5.018l2.8.451-2.7.432a18.839,18.839,0,0,0,.644,2.874,14.594,14.594,0,0,0,2.072,4.2l4.725-3.986-3.8,5.144a16.055,16.055,0,0,0,5.567,4.032l1.021-2.043-.178,2.388a19.356,19.356,0,0,0,6.74,1.263l.327-5.426,1.35,5.371a19.418,19.418,0,0,0,7.851-2.26l-1.567-3.95,2.5,3.4a14.055,14.055,0,0,0,4.867-5.043l-6.186-5.09,6.884,3.6c.071-.182.136-.367.2-.554A18.52,18.52,0,0,0,161.57,265.5Zm-16.034,6.277c-3.919,1.021-7.307-1.226-7.8-4.777a5.909,5.909,0,0,1,2.654-6.2c3.674-2.594,7.961-.123,9.186,2.407S151.095,270.33,145.536,271.778Z" transform="translate(-127.428 -248.845)" fill="#ffe317"/>
                  <path id="Trazado_1938" data-name="Trazado 1938" d="M170.663,297.88c.322-.175.631-.361.935-.552l-2.5-3.4Z" transform="translate(-144.149 -266.937)" fill="#e8a000"/>
                  <path id="Trazado_1939" data-name="Trazado 1939" d="M177.258,287.77a12.1,12.1,0,0,0,.7-1.494l-6.884-3.6Z" transform="translate(-144.942 -262.423)" fill="#e8a000"/>
                  <path id="Trazado_1940" data-name="Trazado 1940" d="M132.291,290.367a14.634,14.634,0,0,0,.924,1.158l3.8-5.144Z" transform="translate(-129.379 -263.908)" fill="#e8a000"/>
                  <path id="Trazado_1941" data-name="Trazado 1941" d="M155.8,300.756l.183,0c.5,0,1-.021,1.495-.057l-1.35-5.371Z" transform="translate(-138.812 -267.499)" fill="#e8a000"/>
                  <path id="Trazado_1942" data-name="Trazado 1942" d="M143.132,300.338q.417.184.843.345l.178-2.388Z" transform="translate(-133.73 -268.689)" fill="#e8a000"/>
                </g>
              </g>
            </g>
            <path id="Trazado_1943" data-name="Trazado 1943" d="M124,203.287v66.567c1.927.39,4.152.736,6.607,1.022V203.287Z" transform="translate(-116.217 -203.287)" fill="#ffe780" opacity="0.4" style="mix-blend-mode: screen;isolation: isolate"/>
            <path id="Trazado_1944" data-name="Trazado 1944" d="M189.366,266.343V203.287H160.022v68.4c15.917,0,28.873-2.621,29.335-5.136h.008v-.065a.514.514,0,0,0,0-.075A.492.492,0,0,0,189.366,266.343Z" transform="translate(-130.672 -203.287)" fill="#af7e12" opacity="0.5" style="mix-blend-mode: multiply;isolation: isolate"/>
          </g>
        </g>
        <g id="Grupo_742" data-name="Grupo 742" transform="translate(110.291 191.885)">
          <g id="Grupo_739" data-name="Grupo 739">
            <path id="Trazado_1945" data-name="Trazado 1945" d="M169.84,200.106l-.007-1.469h-.8c-3.1-2.583-14.892-4.507-28.964-4.507-14.087,0-25.888,1.927-28.975,4.519h-.8v1.411h.014c.183,3.209,13.435,5.8,29.759,5.8,16.22,0,29.409-2.557,29.756-5.735Z" transform="translate(-110.291 -192.786)" fill="#fff"/>
            <path id="Trazado_1946" data-name="Trazado 1946" d="M169.84,200.106l-.007-1.469h-.8c-3.1-2.583-14.892-4.507-28.964-4.507-14.087,0-25.888,1.927-28.975,4.519h-.8v1.411h.014c.183,3.209,13.435,5.8,29.759,5.8,16.22,0,29.409-2.557,29.756-5.735Z" transform="translate(-110.291 -192.786)" fill="#7e8286"/>
            <path id="Trazado_1947" data-name="Trazado 1947" d="M189.179,198.638h-.8c-3.1-2.583-14.892-4.507-28.964-4.507-.3,0-.6,0-.909,0v11.721c.3,0,.606,0,.909,0,16.22,0,29.409-2.557,29.756-5.735l.02-.017Z" transform="translate(-129.637 -192.786)" fill="#8c959d" opacity="0.5" style="mix-blend-mode: multiply;isolation: isolate"/>
            <path id="Trazado_1948" data-name="Trazado 1948" d="M169.838,197.748c0,3.237-13.326,5.862-29.763,5.862s-29.762-2.625-29.762-5.862,13.324-5.863,29.762-5.863,29.763,2.624,29.763,5.863Z" transform="translate(-110.3 -191.885)" fill="#b2b6ba"/>
            <path id="Trazado_1949" data-name="Trazado 1949" d="M169.437,197.88c0,2.915-12.784,5.283-28.553,5.283S112.33,200.8,112.33,197.88s12.784-5.284,28.554-5.284,28.553,2.364,28.553,5.284Z" transform="translate(-111.109 -192.17)" fill="#73767a"/>
            <path id="Trazado_1950" data-name="Trazado 1950" d="M169.213,198.437c0,2.787-12.477,5.046-27.871,5.046s-27.872-2.259-27.872-5.046,12.478-5.044,27.872-5.044,27.871,2.258,27.871,5.044Z" transform="translate(-111.566 -192.49)" fill="#d2d5d4"/>
            <path id="Trazado_1951" data-name="Trazado 1951" d="M169.242,199.1c0,2.346-11.385,4.245-25.43,4.245s-25.43-1.9-25.43-4.245,11.386-4.245,25.43-4.245,25.43,1.9,25.43,4.245Z" transform="translate(-113.538 -193.077)" fill="#94989c"/>
            <path id="Trazado_1952" data-name="Trazado 1952" d="M168.889,199.434c0,2.209-10.906,4-24.358,4s-24.356-1.791-24.356-4,10.906-4,24.356-4,24.358,1.793,24.358,4Z" transform="translate(-114.257 -193.308)" fill="#d2d5d4"/>
            <path id="Trazado_1953" data-name="Trazado 1953" d="M169.144,200.125c0,1.642-8.6,2.971-19.209,2.971s-19.207-1.33-19.207-2.971,8.6-2.973,19.207-2.973,19.209,1.331,19.209,2.973Z" transform="translate(-118.492 -193.999)" fill="#94989c"/>
            <path id="Trazado_1954" data-name="Trazado 1954" d="M168.876,200.491c0,1.514-8.237,2.742-18.4,2.742s-18.4-1.228-18.4-2.742,8.236-2.745,18.4-2.745,18.4,1.23,18.4,2.745Z" transform="translate(-119.035 -194.237)" fill="#d2d5d4"/>
          </g>
          <path id="Trazado_1955" data-name="Trazado 1955" d="M122.176,200.54c.034.417-.62.8-1.458.864s-1.541-.23-1.571-.648.621-.8,1.458-.864,1.541.23,1.571.648Z" transform="translate(-113.844 -195.095)" fill="#fff"/>
          <g id="Grupo_741" data-name="Grupo 741" transform="translate(3.818 1.864)">
            <path id="Trazado_1956" data-name="Trazado 1956" d="M136.082,198.3a3.609,3.609,0,0,0-2.955-1.988c-2.592-.424-5.31.077-7.879.46-2.477.372-5.157.472-7.51,1.369-1.163.443-1.454,1.808-.491,2.35,1.423.8,8.946,1.7,10.949,1.835,1.1.072,2.2.1,3.306.065a9.645,9.645,0,0,0,2.743-.423,2.922,2.922,0,0,0,1.785-1.282,3.451,3.451,0,0,0,.052-2.387Zm-1.517,1.713a1.689,1.689,0,0,1-.787.963,2.574,2.574,0,0,1-1.145.253,8.913,8.913,0,0,1-1.385-.084c-.386-.053-.781-.139-1.165-.213-1.06-.2-5.015-1.011-3.131-2.786a4.326,4.326,0,0,1,2.495-.85,9.139,9.139,0,0,1,3.752-.036,1.83,1.83,0,0,1,1.3,1.27,3.106,3.106,0,0,1,.065,1.484Z" transform="translate(-116.668 -195.462)" fill="#73767a"/>
            <path id="Trazado_1957" data-name="Trazado 1957" d="M136.082,197.148a3.606,3.606,0,0,0-2.955-1.987c-2.592-.426-5.31.077-7.879.46-2.477.369-5.157.471-7.51,1.368-1.163.442-1.454,1.808-.491,2.351,1.423.8,8.946,1.705,10.949,1.834,1.1.074,2.2.1,3.306.066a9.6,9.6,0,0,0,2.743-.426,2.913,2.913,0,0,0,1.785-1.281,3.451,3.451,0,0,0,.052-2.386Zm-1.517,1.714a1.689,1.689,0,0,1-.787.963,2.55,2.55,0,0,1-1.145.252,9.215,9.215,0,0,1-1.385-.084c-.386-.054-.781-.141-1.165-.216-1.06-.2-5.015-1.009-3.131-2.784a4.317,4.317,0,0,1,2.495-.85,9.139,9.139,0,0,1,3.752-.036,1.829,1.829,0,0,1,1.3,1.271,3.105,3.105,0,0,1,.065,1.484Z" transform="translate(-116.668 -194.999)" fill="#b0b3b3"/>
            <g id="Grupo_740" data-name="Grupo 740" transform="translate(1.574 2.198)">
              <path id="Trazado_1958" data-name="Trazado 1958" d="M122.525,199.8c.014.445-.7.828-1.587.857s-1.626-.307-1.641-.751.7-.828,1.588-.856,1.623.308,1.64.751Z" transform="translate(-119.297 -198.821)" fill="#73767a"/>
              <path id="Trazado_1959" data-name="Trazado 1959" d="M122.522,199.364c.034.443-.661.855-1.55.919s-1.635-.244-1.67-.69.662-.853,1.551-.915,1.637.244,1.669.686Z" transform="translate(-119.298 -198.67)" fill="#d2d5d4"/>
            </g>
          </g>
        </g>
      </g>
    </g>
  </g>
</svg>
