<svg xmlns="http://www.w3.org/2000/svg" xmlns:xlink="http://www.w3.org/1999/xlink" width="123" height="118" viewBox="0 0 123 118">
  <defs>
    <clipPath id="clip-path">
      <path id="SVGID" d="M227.744,96.047c0-.018.006-.034.006-.052s0-.036-.006-.054V50.506H170.579V95.939a.3.3,0,0,0-.007.056.283.283,0,0,0,.007.054v.045h.007c.45,1.813,13.071,3.7,28.575,3.7s28.122-1.888,28.574-3.7h.008Z" transform="translate(-170.572 -50.506)" fill="none"/>
    </clipPath>
  </defs>
  <g id="Grupo_1110" data-name="Grupo 1110" transform="translate(-206 -160)">
    <g id="Grupo_1047" data-name="Grupo 1047">
      <g id="Elipse_28" data-name="Elipse 28" transform="translate(206 160)" fill="#fff" stroke="#707070" stroke-width="1">
        <ellipse cx="61.5" cy="59" rx="61.5" ry="59" stroke="none"/>
        <ellipse cx="61.5" cy="59" rx="61" ry="58.5" fill="none"/>
      </g>
      <g id="Grupo_771" data-name="Grupo 771" transform="translate(69.115 173.225)">
        <g id="Grupo_766" data-name="Grupo 766" transform="translate(169.885 14.565)">
          <g id="Grupo_747" data-name="Grupo 747">
            <g id="Grupo_746" data-name="Grupo 746">
              <g id="Grupo_744" data-name="Grupo 744" transform="translate(0 56.942)">
                <path id="Trazado_1960" data-name="Trazado 1960" d="M227.885,122.626l0-1.458H227.1c-3.024-2.572-14.507-4.484-28.211-4.484-13.721,0-25.216,1.917-28.223,4.492h-.776v1.405h.011c.179,3.189,13.087,5.764,28.987,5.764,15.8,0,28.645-2.542,28.984-5.7Z" transform="translate(-169.885 -115.344)" fill="#7e8286"/>
                <path id="Trazado_1961" data-name="Trazado 1961" d="M246.821,121.168h-.785c-3.024-2.572-14.507-4.484-28.211-4.484-.3,0-.589,0-.884,0v11.656l.884,0c15.8,0,28.645-2.542,28.984-5.7l.017-.016Z" transform="translate(-188.826 -115.344)" fill="#8c959d" opacity="0.5" style="mix-blend-mode: multiply;isolation: isolate"/>
                <path id="Trazado_1962" data-name="Trazado 1962" d="M227.88,120.274c0,3.22-12.979,5.833-28.989,5.833s-28.991-2.612-28.991-5.833,12.979-5.832,28.991-5.832,28.989,2.612,28.989,5.832Z" transform="translate(-169.891 -114.442)" fill="#5b606c"/>
              </g>
              <path id="Trazado_1963" data-name="Trazado 1963" d="M227.744,81.995c0-.023.006-.047.006-.071s0-.048-.006-.074V19.139H170.579V81.847a.56.56,0,0,0-.007.076.518.518,0,0,0,.007.075v.062h.007c.45,2.5,13.071,5.108,28.575,5.108s28.122-2.606,28.574-5.108h.008Z" transform="translate(-170.162 -19.139)" fill="#fed404"/>
              <g id="Grupo_745" data-name="Grupo 745" transform="translate(0.418)">
                <path id="Trazado_1964" data-name="Trazado 1964" d="M226.655,19.139h-51.1l25.936,54.654Z" transform="translate(-172.586 -19.139)" fill="#c80c00"/>
                <path id="Trazado_1965" data-name="Trazado 1965" d="M227.749,19.472v-.333h-3.1L199.492,73.793,173.556,19.139h-2.972v1.123l28.829,60.756Z" transform="translate(-170.584 -19.139)" fill="#fff"/>
              </g>
            </g>
          </g>
          <g id="Grupo_748" data-name="Grupo 748" transform="translate(0.41 39.602)">
            <path id="Trazado_1966" data-name="Trazado 1966" d="M170.579,108.526a.56.56,0,0,0-.007.076.518.518,0,0,0,.007.075v.062h.007c.314,1.744,6.541,3.537,15.533,4.465L170.579,85.42Z" transform="translate(-170.572 -85.42)" fill="#c80c00"/>
            <path id="Trazado_1967" data-name="Trazado 1967" d="M254.515,85.781,237.08,113.528c10-.858,17.092-2.78,17.426-4.642h.008v-.066c0-.023.006-.047.006-.071s0-.048-.006-.074Z" transform="translate(-197.343 -85.565)" fill="#c80c00"/>
          </g>
          <path id="Trazado_1968" data-name="Trazado 1968" d="M191.606,46.741l-5.272-11.3s22.921,1.661,38.085.054l-5.766,12.515S200.845,48.751,191.606,46.741Z" transform="translate(-176.506 -25.702)" fill="#75080e"/>
          <g id="Grupo_749" data-name="Grupo 749" transform="translate(15.658 12.242)">
            <path id="Trazado_1969" data-name="Trazado 1969" d="M216.942,40.539l.9,1.83,2.021.295-1.461,1.424.344,2.011-1.808-.95-1.808.95.347-2.011-1.463-1.424,2.021-.295Z" transform="translate(-203.307 -39.995)" fill="#ffe700"/>
            <path id="Trazado_1970" data-name="Trazado 1970" d="M228.595,40.778l.736,1.494,1.65.239-1.194,1.163.282,1.643-1.475-.775-1.476.775.282-1.643-1.194-1.163,1.65-.239Z" transform="translate(-208.214 -40.091)" fill="#ffe700"/>
            <path id="Trazado_1971" data-name="Trazado 1971" d="M205.59,40.778l.739,1.494,1.649.239-1.194,1.163.282,1.643-1.476-.775-1.475.775.282-1.643L203.2,42.512l1.65-.239Z" transform="translate(-198.954 -40.091)" fill="#ffe700"/>
            <path id="Trazado_1972" data-name="Trazado 1972" d="M197.911,39.628l.562,1.14,1.256.181-.909.887.215,1.25-1.124-.59-1.124.59.215-1.25-.91-.887,1.257-.181Z" transform="translate(-196.092 -39.628)" fill="#ffe700"/>
            <path id="Trazado_1973" data-name="Trazado 1973" d="M237.906,39.628l.562,1.14,1.254.181-.908.887.215,1.25-1.124-.59-1.124.59.215-1.25-.909-.887,1.257-.181Z" transform="translate(-212.191 -39.628)" fill="#ffe700"/>
          </g>
          <g id="Grupo_757" data-name="Grupo 757" transform="translate(0.41 18.741)">
            <g id="Grupo_756" data-name="Grupo 756" clip-path="url(#clip-path)">
              <g id="Grupo_754" data-name="Grupo 754" transform="translate(6.381 11.828)">
                <path id="Trazado_1974" data-name="Trazado 1974" d="M205.893,88.934c-.283-.188-2.483-.394-1.919,1.749s1.186,6.042,2.313,5.928S208.6,90.74,205.893,88.934Z" transform="translate(-190.362 -77.758)" fill="#ea9b00"/>
                <path id="Trazado_1975" data-name="Trazado 1975" d="M200.866,116.328s-1.582,6.039.225,10.216c.4,1.3-1.665.561-2.031-3.217C198.5,117.513,200.641,114.86,200.866,116.328Z" transform="translate(-188.382 -88.669)" fill="#f4bf59"/>
                <path id="Trazado_1976" data-name="Trazado 1976" d="M199.659,93.622s1.12,6.925-.587,12.584c-1.023,3.657.293,3.415,2.342.488s2.682-7.852,1.95-11.12S199.559,92.4,199.659,93.622Z" transform="translate(-188.282 -79.374)" fill="#ea9b00"/>
                <g id="Grupo_750" data-name="Grupo 750" transform="translate(6.096 12.923)">
                  <path id="Trazado_1977" data-name="Trazado 1977" d="M193.6,97.135a6.829,6.829,0,0,1,.828,4.876c-.488,3.073,1.367-1.706,1.317-3.756S194.914,96.061,193.6,97.135Z" transform="translate(-192.318 -93.761)" fill="#ea9b00"/>
                  <path id="Trazado_1978" data-name="Trazado 1978" d="M192.2,94.232a12.041,12.041,0,0,0,1.951-.731s-.878-2.049-1.853-1.464S191.077,93.451,192.2,94.232Z" transform="translate(-191.456 -91.932)" fill="#ea9b00"/>
                </g>
                <path id="Trazado_1979" data-name="Trazado 1979" d="M213.426,108.848s.961,10.274,1.3,15.241c0,.847-1.411,1.524-2.258-2.145S209.42,109.074,213.426,108.848Z" transform="translate(-193.266 -85.818)" fill="#ea9b00"/>
                <path id="Trazado_1980" data-name="Trazado 1980" d="M214.9,108a84.562,84.562,0,0,0,2.257,9.37c.622,1.468-.111,1.694-1.016.453s-2.594-6.663-2.652-9.146C214.274,108.336,214.9,108,214.9,108Z" transform="translate(-194.226 -85.476)" fill="#f4bf59"/>
                <path id="Trazado_1981" data-name="Trazado 1981" d="M211.324,109.51a42.988,42.988,0,0,0,1.353,14.223c.225,1.017-.79.452-1.862-3.216a28.667,28.667,0,0,1-1.016-7.45A17.362,17.362,0,0,1,211.324,109.51Z" transform="translate(-192.743 -86.085)" fill="#f4bf59"/>
                <g id="Grupo_751" data-name="Grupo 751">
                  <path id="Trazado_1982" data-name="Trazado 1982" d="M229.287,84.738c-3.639,1.608-4.2,1.945-5.8,5.7-.8,1.864-1.405,3.086-1.824,3.844a6.6,6.6,0,0,0,1.435-1.956c1.524-3.162,2.485-5.475,6.944-7.281s18.8-6.774,18.8-6.774l.009-.8C244.106,79.137,233.17,83.023,229.287,84.738Z" transform="translate(-197.518 -73.188)" fill="#afaeae"/>
                  <path id="Trazado_1983" data-name="Trazado 1983" d="M213.021,81.853c3.882-1.715,14.819-5.6,19.559-7.267l.048-4.283s-14.678,6.772-21.619,9.822c-4.516,2.032-4.291,1.806-7.45,1.241s-4.516-.394-12.421,2.6-10.048,4.627-9.877,5.419,4.291-1.243,7.621-2.541,10.779-4.008,11.4-2.991-8.862,4.459-15.3,7.112c-3.33,1.3-2.6,2.427,0,1.638s15.692-6.326,16.314-5.534-2.879,2.428-9.033,4.686-8.41,2.879-8.184,3.725,6.266-1.524,11.8-3.613,6.773-2.879,7.224-2.259-2.37,1.751-7,3.444-10.723,3.839-10.554,4.8,7.733-1.751,12.022-2.992c3.25-.94,6.011-1.752,7.822-3.463.419-.758,1.028-1.979,1.824-3.844C208.823,83.8,209.383,83.461,213.021,81.853Z" transform="translate(-181.252 -70.303)" fill="#eee"/>
                </g>
                <path id="Trazado_1984" data-name="Trazado 1984" d="M186.769,99.84s1.233,3.468.818,5.447a26.328,26.328,0,0,1-2.361,6.481c-1.054,2.034-1.368,4.43-.828,5.607.415.9,1.129.3.979-1.392s0-2.484,1.5-5.268,2.974-8.092,1.543-11.628Z" transform="translate(-182.414 -81.889)" fill="#ea9b00"/>
                <path id="Trazado_1985" data-name="Trazado 1985" d="M216.935,91.072c-.053-.075-.153.1-.125.157a22.152,22.152,0,0,1,1.994,6.338c.022.133.194-.076.193-.148A12.279,12.279,0,0,0,216.935,91.072Z" transform="translate(-195.563 -78.656)" fill="#afaeae"/>
                <path id="Trazado_1986" data-name="Trazado 1986" d="M200.634,86.211s.2.473,1.287-.1,2.95-.985,4,.068,2.237,5.261,1.145,10.061c-1.052,3.518-4.121,8.917-2.878,14.676.452,1.242.225-2.2,1.24-5.08s2.88-7.4,3.614-10.218,1.3-8.525-1.243-11.063S200.409,84.933,200.634,86.211Z" transform="translate(-189.051 -75.634)" fill="#f3d386"/>
                <path id="Trazado_1987" data-name="Trazado 1987" d="M202.451,88.433a3.27,3.27,0,0,1,3.1,1.862c1.3,2.146.339,4.008-.507,6.1s-1.13,7.789-1.13,7.789a10.87,10.87,0,0,0,3.556-6.66c.734-4.517.566-10.727-2.707-10.782C202.734,86.684,200.361,88.376,202.451,88.433Z" transform="translate(-189.459 -76.919)" fill="#f4bf59"/>
                <path id="Trazado_1988" data-name="Trazado 1988" d="M201.58,88.726a4.413,4.413,0,0,1,3.725,3.5c.622,3.16-.621,8.466-.96,12.024a27.54,27.54,0,0,0,.339,9.426c.734,3.16-1.184.226-1.636-3.049a27.954,27.954,0,0,1,0-8.694c.452-2.877.678-3.95.056-5.643S204.515,91.321,201.58,88.726Z" transform="translate(-189.435 -77.719)" fill="#f3d386"/>
                <g id="Grupo_752" data-name="Grupo 752" transform="translate(9.837 10.33)">
                  <path id="Trazado_1989" data-name="Trazado 1989" d="M199.485,87.6a2.3,2.3,0,0,0-1.768,1.493,9.256,9.256,0,0,1,.783,1.2,2.647,2.647,0,0,1,2.315,2.477c.2,2.155-.488,4.112-2,6.511-.568,4.127-.859,10.069-.427,8.127.452-2.032,1.355-4.008,3.33-9.654C203.469,91.543,200.83,87.408,199.485,87.6Z" transform="translate(-197.717 -87.592)" fill="#f4bf59"/>
                </g>
                <path id="Trazado_1990" data-name="Trazado 1990" d="M195.522,90.4s.32-1.2,1.363-.922,2.849,3.772,2.248,7.627-1.968,13.017-.556,18.209c.4,1.409-1.3,1.127-1.806-3.387a37.177,37.177,0,0,1,.394-11.741C197.9,95.785,197.828,93.431,195.522,90.4Z" transform="translate(-186.996 -78.004)" fill="#f3d386"/>
                <g id="Grupo_753" data-name="Grupo 753" transform="translate(3.61 14.025)">
                  <path id="Trazado_1991" data-name="Trazado 1991" d="M187.447,96.822l1.688-.805C187.555,95.137,187.447,96.822,187.447,96.822Z" transform="translate(-187.356 -94.576)" fill="#ea9b00"/>
                  <path id="Trazado_1992" data-name="Trazado 1992" d="M192.611,115.257c-1.127-2.936-1.184-6.661-.451-12.25s-.846-9-3.137-9.23c-1.66.087-1.9,1.171-1.638,2.246,0,0,.108-1.685,1.688-.805a5.264,5.264,0,0,1,2.052,5.043c-.414,3.463-1.092,7.187-1.015,10.2a13.781,13.781,0,0,0,2.031,7.113C193.045,118.7,193.741,118.191,192.611,115.257Z" transform="translate(-187.294 -93.777)" fill="#f3d386"/>
                </g>
                <path id="Trazado_1993" data-name="Trazado 1993" d="M190.807,92.15s.363-2.087,1.781-2.309,3.272,3.167,3.1,6.018-2.116,7.818-2.567,11.318-1.808.9-.622-3.838,1.893-7.939,1.166-10.314-2.123-1.044-2.312-.6Z" transform="translate(-185.098 -78.163)" fill="#f4bf59"/>
                <path id="Trazado_1994" data-name="Trazado 1994" d="M208.383,85.079c-.076-.023-.17.152-.1.179,1.409.517,1.645,2.512,1.713,3.8.007.155.174-.026.176-.109C210.2,87.63,209.862,85.511,208.383,85.079Z" transform="translate(-192.122 -76.25)" fill="#f4bf59"/>
              </g>
              <g id="Grupo_755" data-name="Grupo 755" transform="translate(48.549 14.631)">
                <path id="Trazado_1995" data-name="Trazado 1995" d="M258,75.252c.11.326-.518.832-1.405,1.134s-1.694.278-1.8-.046.52-.831,1.405-1.132S257.885,74.926,258,75.252Z" transform="translate(-253.013 -74.994)" fill="#fff"/>
                <path id="Trazado_1996" data-name="Trazado 1996" d="M253.076,77.807c.054.125-.183.345-.525.488s-.664.158-.716.033.183-.343.525-.488S253.024,77.681,253.076,77.807Z" transform="translate(-251.827 -76.092)" fill="#fff"/>
              </g>
            </g>
          </g>
          <g id="Grupo_761" data-name="Grupo 761" transform="translate(3.166 19.786)">
            <path id="Trazado_1997" data-name="Trazado 1997" d="M180.937,54.738a52.973,52.973,0,0,1-5.327-1.64c2.373,5.573,2.7,6.588,2.7,6.588l-3.125,4.428s4.2,1.965,6.492,1.979Z" transform="translate(-175.184 -52.594)" fill="#8a150c"/>
            <path id="Trazado_1998" data-name="Trazado 1998" d="M250.086,54.447a18.47,18.47,0,0,0,6.878-.8,58.234,58.234,0,0,0-4.286,6.306l4.27,3.911a42.885,42.885,0,0,1-6.978,2.267C249.969,60.036,250.086,54.447,250.086,54.447Z" transform="translate(-205.286 -52.816)" fill="#8a150c"/>
            <path id="Trazado_1999" data-name="Trazado 1999" d="M184.145,52.255l.136,14.594s23.146,3.461,40.047-.373l-.13-13.949S207.52,55.627,184.145,52.255Z" transform="translate(-178.791 -52.255)" fill="#f91921"/>
            <g id="Grupo_758" data-name="Grupo 758" transform="translate(7.64 4.04)">
              <path id="Trazado_2000" data-name="Trazado 2000" d="M190.648,62.8c-.762-.169-.863-.075-1.319-.389a1.907,1.907,0,0,1-.589-.851c-.028-.086-.055-.17-.082-.256-.108-1.764,1.664-1.367,1.374-.359-.343-.111-.3.219-.256.266.439.443.933-.118.818-.814-.154-.94-1.549-.97-1.99-.288a1.92,1.92,0,0,0,.373,2.563,2.464,2.464,0,0,0,.908.447c.667.161,1.3.258,1.656.877a2.056,2.056,0,0,1-1.5,2.855,1.461,1.461,0,0,1-.882-.241c-.911-.534-.332-1.933.229-1.235.1.131.3-.191.244-.319-.451-1.024-1.721-.247-1.662.681a2.072,2.072,0,0,0,3.131,1.615,2.72,2.72,0,0,0,1.013-3.413A2.544,2.544,0,0,0,190.648,62.8Z" transform="translate(-187.972 -59.269)" fill="#75080e"/>
              <path id="Trazado_2001" data-name="Trazado 2001" d="M210.812,68.943c-.2.47-.609.563-1.236.274a4.366,4.366,0,0,1-.157-.972c-.033-.386-.021-.776-.05-1.162a1.976,1.976,0,0,0-.789-1.465c-.926-.779-2.02.14-2.429,1-.049.107.035.156.1.052.766-1.27,1.837-1.236,2.646-.212a1.774,1.774,0,0,1,.3.9,1.993,1.993,0,0,0-1.654-.479,1.655,1.655,0,0,0-1.282,1.213.055.055,0,0,1,0,.015,1.63,1.63,0,0,0,.7,1.89,1.569,1.569,0,0,0,2.353-.475.651.651,0,0,0,.891.526c.416-.139.649-.7.81-1.056C211.1,68.8,210.9,68.8,210.812,68.943Zm-1.755.655a1.039,1.039,0,0,1-.156.167,1.376,1.376,0,0,1-1.44.109,2.209,2.209,0,0,1-.858-.689,1.263,1.263,0,0,1-.047-1.4.951.951,0,0,1,.219-.2,1.846,1.846,0,0,1,.238-.182,1.5,1.5,0,0,1,.557-.218,1.542,1.542,0,0,1,1.168.268,1.327,1.327,0,0,1,.413.41,1.262,1.262,0,0,1,.1.641A1.683,1.683,0,0,1,209.056,69.6Z" transform="translate(-195.284 -61.556)" fill="#75080e"/>
              <path id="Trazado_2002" data-name="Trazado 2002" d="M219.425,71.061a1.251,1.251,0,0,0-.735-.253c1.592-1,.3-3.955.529-5.382.026-.152-.114-.088-.161-.008a1.058,1.058,0,0,0-.131.358A2.238,2.238,0,0,0,215.2,67.24a2.836,2.836,0,0,0,1.363,2.874,2.094,2.094,0,0,0,2.5-.813,1.694,1.694,0,0,1-.513,1.25l-.02.024c-.691.42-1.709.729-1.872,1.558-.188.965,1.462,1.257,2.1,1.159a1.4,1.4,0,0,0,1.363-1.362C220.123,71.545,219.683,71.274,219.425,71.061Zm-2.106-1.218c-.908.052-1.449-.722-1.74-1.473a2.2,2.2,0,0,1,1.828-2.974,2.6,2.6,0,0,1,1.487.689c-.014.37.043.771.049,1.065.008.5.131,1.2.13,1.859A2.373,2.373,0,0,1,217.319,69.844Zm1.9,3.059a2.648,2.648,0,0,1-.937.108,2.336,2.336,0,0,1-.985-.36c-.632-.35-.066-1.1.369-1.337.11-.06.22-.12.327-.181a2.441,2.441,0,0,1,1.407.326,3.176,3.176,0,0,1,.371.324Q219.9,72.763,219.223,72.9Z" transform="translate(-198.929 -61.502)" fill="#75080e"/>
              <path id="Trazado_2003" data-name="Trazado 2003" d="M227.73,63.916c-1.084-.694-2.122.1-2.648,1.038a10.874,10.874,0,0,0-.386-3.584c-.039-.088-.148.087-.153.121a16.535,16.535,0,0,0,.176,3.762c.114,1.351-.077,2.708.045,4.049.027.28.312-.051.315-.2.039-1.3.087-2.587.016-3.89a1.817,1.817,0,0,1,2.261-1.111c.6.214.826,1.125.883,1.648.121,1.079.029,2.175.2,3.253.027.184.254-.109.258-.2.022-1.068-.092-2.163-.173-3.229A2.252,2.252,0,0,0,227.73,63.916Z" transform="translate(-202.666 -59.955)" fill="#75080e"/>
              <path id="Trazado_2004" data-name="Trazado 2004" d="M199.767,64.72a2.572,2.572,0,0,0-2.2.5c0-.17,0-.339,0-.509.007-.243-.364.03-.3.24a7.113,7.113,0,0,1,.046,1.632c.014.714,0,1.427.014,2.14a8.806,8.806,0,0,0,.231,2.7c.088.234.38-.151.331-.311a7.843,7.843,0,0,1-.225-2.234c1.443,1.338,3.7-.166,3.664-1.988A2.124,2.124,0,0,0,199.767,64.72Zm-.1,4.162a1.884,1.884,0,0,1-1.937-.468.066.066,0,0,0-.069-.007c0-.094,0-.19,0-.282-.025-.891-.084-1.8-.091-2.7a3,3,0,0,1,1.813-.437,1.789,1.789,0,0,1,1.536,1.273A1.955,1.955,0,0,1,199.67,68.882Z" transform="translate(-191.712 -61.27)" fill="#75080e"/>
              <path id="Trazado_2005" data-name="Trazado 2005" d="M235.982,69.369c-.469.463-.838,1.047-1.6.773a2,2,0,0,1-1.126-1.432,2.14,2.14,0,0,1-.043-.755,3.682,3.682,0,0,0,1.054.046c.467-.014.931-.035,1.4-.055.109,0,.223-.24.167-.31a1.534,1.534,0,0,0-1.175-1.8c-.807-.249-1.386,1.034-1.61,1.577a2.571,2.571,0,0,0,.7,2.8c1.041.687,1.622.219,2.329-.655C236.143,69.472,236.128,69.224,235.982,69.369Zm-1.274-3.15a1.441,1.441,0,0,1,.973,1.4c-.805.014-1.62.047-2.424.11a.05.05,0,0,0-.021.008C233.363,66.9,233.809,65.949,234.708,66.219Z" transform="translate(-206.052 -61.751)" fill="#75080e"/>
              <path id="Trazado_2006" data-name="Trazado 2006" d="M240.966,66.445c-.981,1.754-1.588-.113-1.675-1.019-.06-.646-.112-1.294-.149-1.939-.021-.35-.027-.7-.033-1.051a2.549,2.549,0,0,0,.627-.055c.092-.019.217-.258.084-.292a2.443,2.443,0,0,0-.71-.038c0-.917.019-1.833-.063-2.743-.015-.151-.17.027-.171.106-.014.886-.033,1.768-.036,2.648a4.213,4.213,0,0,0-.893.079c-.053.013-.171.2-.083.223a3.312,3.312,0,0,0,.841.066l.136,0a30.6,30.6,0,0,0,.229,3.947c.05.373.426,1.451,1.019,1.286.614-.171.848-.594,1.078-1.168C241.246,66.3,241.049,66.294,240.966,66.445Z" transform="translate(-208.041 -59.111)" fill="#75080e"/>
              <path id="Trazado_2007" data-name="Trazado 2007" d="M245.376,66.214c-.98,1.752-1.589-.114-1.673-1.02-.06-.646-.112-1.292-.151-1.94-.023-.349-.028-.7-.032-1.048a2.8,2.8,0,0,0,.626-.056c.091-.021.218-.26.082-.293a2.479,2.479,0,0,0-.709-.038c0-.915.017-1.831-.065-2.744-.013-.15-.17.027-.171.108-.013.887-.033,1.768-.035,2.647a4.124,4.124,0,0,0-.893.08c-.054.013-.171.2-.083.222a3.251,3.251,0,0,0,.841.066l.136,0a30.635,30.635,0,0,0,.229,3.949c.05.373.426,1.452,1.019,1.285.612-.172.848-.6,1.077-1.168C245.655,66.066,245.462,66.063,245.376,66.214Z" transform="translate(-209.816 -59.017)" fill="#75080e"/>
              <path id="Trazado_2008" data-name="Trazado 2008" d="M248.5,63.995c-.131,1.509-.057,3.1-.045,4.619,0,.272.314-.042.315-.2.026-1.518.036-3.026-.072-4.544C248.683,63.694,248.506,63.909,248.5,63.995Z" transform="translate(-212.304 -60.943)" fill="#75080e"/>
              <path id="Trazado_2009" data-name="Trazado 2009" d="M248.515,61a.556.556,0,1,0-.551.561A.554.554,0,0,0,248.515,61Z" transform="translate(-211.894 -59.595)" fill="#75080e"/>
            </g>
            <g id="Grupo_760" data-name="Grupo 760" transform="translate(7.441 3.533)">
              <path id="Trazado_2010" data-name="Trazado 2010" d="M191.75,63.054a2.514,2.514,0,0,0-1.457-1.131c-.756-.167-.857-.073-1.307-.383a1.9,1.9,0,0,1-.585-.847c-.029-.083-.055-.169-.081-.253-.106-1.749,1.65-1.355,1.361-.356-.34-.11-.3.217-.253.265.437.439.924-.117.812-.808-.153-.932-1.536-.962-1.975-.287a1.908,1.908,0,0,0,.373,2.543,2.426,2.426,0,0,0,.9.443c.662.16,1.292.255,1.642.871a2.04,2.04,0,0,1-1.484,2.832,1.454,1.454,0,0,1-.876-.242c-.9-.531-.329-1.917.226-1.222.105.13.3-.192.244-.317-.447-1.015-1.707-.245-1.65.676a2.059,2.059,0,0,0,3.106,1.6A2.7,2.7,0,0,0,191.75,63.054Z" transform="translate(-187.638 -58.417)" fill="#fff" stroke="#fff" stroke-miterlimit="10" stroke-width="0.985"/>
              <path id="Trazado_2011" data-name="Trazado 2011" d="M210.3,68.013q-.294.7-1.227.272a4.457,4.457,0,0,1-.153-.964c-.033-.383-.021-.771-.05-1.153a1.954,1.954,0,0,0-.783-1.452c-.92-.773-2,.137-2.407.992-.05.106.031.154.094.052.758-1.259,1.819-1.227,2.624-.209a1.774,1.774,0,0,1,.295.893,1.983,1.983,0,0,0-1.641-.474,1.635,1.635,0,0,0-1.271,1.2.05.05,0,0,1,0,.016,1.612,1.612,0,0,0,.7,1.876,1.559,1.559,0,0,0,2.334-.471.644.644,0,0,0,.883.52c.413-.139.642-.694.8-1.049C210.578,67.869,210.379,67.876,210.3,68.013Zm-1.9.815a1.363,1.363,0,0,1-1.429.109,2.2,2.2,0,0,1-.85-.685,1.256,1.256,0,0,1-.046-1.387.994.994,0,0,1,.217-.2,2.061,2.061,0,0,1,.234-.177,1.507,1.507,0,0,1,.554-.218,1.54,1.54,0,0,1,1.158.266,1.315,1.315,0,0,1,.409.406,1.234,1.234,0,0,1,.1.637,1.669,1.669,0,0,1-.19,1.086A.942.942,0,0,1,208.4,68.828Z" transform="translate(-194.892 -60.686)" fill="#fff" stroke="#fff" stroke-miterlimit="10" stroke-width="0.985"/>
              <path id="Trazado_2012" data-name="Trazado 2012" d="M218.837,70.116a1.24,1.24,0,0,0-.73-.252c1.58-1,.3-3.923.525-5.339.025-.151-.111-.086-.161-.007a1.033,1.033,0,0,0-.127.357,2.222,2.222,0,0,0-3.695,1.449A2.816,2.816,0,0,0,216,69.176a2.075,2.075,0,0,0,2.474-.806,1.682,1.682,0,0,1-.509,1.241.227.227,0,0,0-.019.022c-.688.418-1.7.724-1.858,1.544-.188.959,1.447,1.249,2.088,1.152a1.4,1.4,0,0,0,1.353-1.352C219.53,70.6,219.093,70.325,218.837,70.116Zm-2.089-1.209c-.9.05-1.438-.715-1.726-1.462a2.179,2.179,0,0,1,1.815-2.95,2.585,2.585,0,0,1,1.475.684c-.015.366.042.764.048,1.056.01.493.128,1.188.128,1.844A2.363,2.363,0,0,1,216.748,68.908Zm1.889,3.035a2.626,2.626,0,0,1-.929.105,2.315,2.315,0,0,1-.976-.355c-.626-.348-.066-1.086.364-1.325.11-.063.219-.121.326-.182a2.43,2.43,0,0,1,1.4.324,3.516,3.516,0,0,1,.367.321C219.269,71.479,219.088,71.849,218.637,71.943Z" transform="translate(-198.507 -60.633)" fill="#fff" stroke="#fff" stroke-miterlimit="10" stroke-width="0.985"/>
              <path id="Trazado_2013" data-name="Trazado 2013" d="M227.859,64.669a2.227,2.227,0,0,0-.786-1.641c-1.075-.691-2.1.1-2.624,1.029a10.854,10.854,0,0,0-.384-3.556c-.038-.085-.148.087-.152.121a16.352,16.352,0,0,0,.175,3.733c.113,1.34-.077,2.685.044,4.014.026.277.309-.05.314-.2.036-1.294.084-2.568.015-3.859a1.8,1.8,0,0,1,2.244-1.1c.592.212.817,1.114.874,1.633.118,1.069.029,2.159.195,3.229.027.183.253-.111.255-.2C228.053,66.811,227.938,65.728,227.859,64.669Z" transform="translate(-202.213 -59.097)" fill="#fff" stroke="#fff" stroke-miterlimit="10" stroke-width="0.985"/>
              <path id="Trazado_2014" data-name="Trazado 2014" d="M199.339,63.823a2.546,2.546,0,0,0-2.178.5c0-.169,0-.339,0-.507.006-.24-.36.031-.3.238a6.974,6.974,0,0,1,.045,1.62c.014.709,0,1.417.016,2.123a8.685,8.685,0,0,0,.229,2.676c.087.229.376-.151.326-.308a7.85,7.85,0,0,1-.22-2.218c1.43,1.327,3.673-.166,3.634-1.972A2.114,2.114,0,0,0,199.339,63.823Zm-.1,4.129a1.861,1.861,0,0,1-1.92-.466.065.065,0,0,0-.068,0c0-.094,0-.189-.005-.278-.023-.885-.082-1.784-.089-2.676a2.979,2.979,0,0,1,1.8-.433,1.773,1.773,0,0,1,1.522,1.262A1.936,1.936,0,0,1,199.242,67.952Z" transform="translate(-191.348 -60.402)" fill="#fff" stroke="#fff" stroke-miterlimit="10" stroke-width="0.985"/>
              <path id="Trazado_2015" data-name="Trazado 2015" d="M235.261,68.435c-.468.461-.834,1.038-1.592.766a1.983,1.983,0,0,1-1.118-1.42,2.117,2.117,0,0,1-.041-.749,3.638,3.638,0,0,0,1.044.046c.462-.014.924-.033,1.387-.055.108-.005.222-.237.167-.307a1.524,1.524,0,0,0-1.167-1.782c-.8-.246-1.374,1.026-1.6,1.565a2.548,2.548,0,0,0,.691,2.779c1.032.682,1.607.218,2.309-.649C235.422,68.537,235.406,68.292,235.261,68.435ZM234,65.31a1.431,1.431,0,0,1,.965,1.389c-.8.014-1.608.047-2.4.109a.062.062,0,0,0-.022.009C232.663,65.981,233.1,65.044,234,65.31Z" transform="translate(-205.572 -60.879)" fill="#fff" stroke="#fff" stroke-miterlimit="10" stroke-width="0.985"/>
              <path id="Trazado_2016" data-name="Trazado 2016" d="M240.2,65.536c-.973,1.737-1.576-.113-1.66-1.01-.061-.641-.112-1.282-.149-1.924-.02-.347-.029-.694-.032-1.042a2.689,2.689,0,0,0,.621-.054c.092-.02.216-.257.083-.292a2.513,2.513,0,0,0-.705-.036c0-.909.017-1.817-.065-2.721-.014-.148-.167.025-.169.106-.013.879-.032,1.753-.035,2.625a4.169,4.169,0,0,0-.885.079c-.054.014-.171.2-.082.22a3.311,3.311,0,0,0,.834.066l.134,0a30.351,30.351,0,0,0,.227,3.915c.05.369.422,1.44,1.012,1.274.606-.17.841-.59,1.068-1.159C240.479,65.391,240.287,65.387,240.2,65.536Z" transform="translate(-207.544 -58.261)" fill="#fff" stroke="#fff" stroke-miterlimit="10" stroke-width="0.985"/>
              <path id="Trazado_2017" data-name="Trazado 2017" d="M244.58,65.3c-.973,1.739-1.577-.112-1.66-1.011-.061-.639-.112-1.281-.149-1.923-.022-.346-.029-.694-.033-1.041a2.751,2.751,0,0,0,.621-.054c.091-.022.214-.258.084-.292a2.474,2.474,0,0,0-.705-.038c0-.908.017-1.817-.066-2.721-.013-.148-.167.027-.168.108-.013.878-.033,1.752-.035,2.626a4.16,4.16,0,0,0-.887.079c-.051.012-.169.2-.081.22a3.246,3.246,0,0,0,.835.065l.133,0a30.117,30.117,0,0,0,.228,3.916c.05.369.421,1.441,1.01,1.274.608-.169.842-.589,1.069-1.159C244.856,65.159,244.662,65.157,244.58,65.3Z" transform="translate(-209.306 -58.168)" fill="#fff" stroke="#fff" stroke-miterlimit="10" stroke-width="0.985"/>
              <g id="Grupo_759" data-name="Grupo 759" transform="translate(35.223 0.85)">
                <path id="Trazado_2018" data-name="Trazado 2018" d="M247.87,62.982c-.014-.175-.188.038-.195.123-.131,1.5-.057,3.08-.045,4.581,0,.27.309-.044.313-.2C247.969,65.984,247.977,64.487,247.87,62.982Z" transform="translate(-246.996 -60.929)" fill="#fff" stroke="#fff" stroke-miterlimit="10" stroke-width="0.985"/>
                <path id="Trazado_2019" data-name="Trazado 2019" d="M247.691,60.136a.55.55,0,1,1-.556-.545A.55.55,0,0,1,247.691,60.136Z" transform="translate(-246.59 -59.591)" fill="#fff" stroke="#fff" stroke-miterlimit="10" stroke-width="0.985"/>
              </g>
            </g>
          </g>
          <g id="Grupo_765" data-name="Grupo 765" transform="translate(32.711 51.138)">
            <g id="Grupo_763" data-name="Grupo 763">
              <g id="Grupo_762" data-name="Grupo 762">
                <path id="Trazado_2020" data-name="Trazado 2020" d="M245.582,111.352c0,3.5-4.562,6.337-10.191,6.337s-10.192-2.837-10.192-6.337,4.563-6.336,10.192-6.336S245.582,107.853,245.582,111.352Z" transform="translate(-224.861 -104.844)" fill="#3b5592"/>
                <path id="Trazado_2021" data-name="Trazado 2021" d="M245.354,111.237s0,.051,0,.151c0,.048,0,.111-.01.185s-.016.158-.029.252a4.7,4.7,0,0,1-.16.692,5.018,5.018,0,0,1-.394.875,6.741,6.741,0,0,1-1.74,1.916,11.068,11.068,0,0,1-2.977,1.571,15,15,0,0,1-3.92.815,16.424,16.424,0,0,1-4.48-.267,14.087,14.087,0,0,1-2.292-.679,10.558,10.558,0,0,1-2.168-1.182,8.265,8.265,0,0,1-.97-.82,6.22,6.22,0,0,1-.806-1.009,4.433,4.433,0,0,1,0-5,6.192,6.192,0,0,1,.8-1.009,8.117,8.117,0,0,1,.969-.82,10.492,10.492,0,0,1,2.169-1.182,13.866,13.866,0,0,1,2.293-.679,16.429,16.429,0,0,1,4.48-.269,15.049,15.049,0,0,1,3.92.816,11.063,11.063,0,0,1,2.978,1.574,6.71,6.71,0,0,1,1.739,1.914,4.951,4.951,0,0,1,.394.875,4.713,4.713,0,0,1,.16.692c.013.094.022.18.029.253s.007.136.01.185C245.354,111.185,245.354,111.237,245.354,111.237Zm0,0s0-.052,0-.152c0-.048-.006-.111-.011-.185s-.019-.156-.032-.253a4.568,4.568,0,0,0-.165-.688,4.955,4.955,0,0,0-.4-.871,6.315,6.315,0,0,0-1.755-1.877,10.349,10.349,0,0,0-3-1.478,14.9,14.9,0,0,0-3.886-.654,16.011,16.011,0,0,0-4.36.429,11.724,11.724,0,0,0-4.2,1.9,6.581,6.581,0,0,0-1.592,1.68,3.881,3.881,0,0,0,0,4.3,6.508,6.508,0,0,0,1.591,1.68,11.677,11.677,0,0,0,4.2,1.9,15.92,15.92,0,0,0,4.357.428,14.872,14.872,0,0,0,3.89-.655,10.37,10.37,0,0,0,2.995-1.476,6.342,6.342,0,0,0,1.755-1.879,4.936,4.936,0,0,0,.4-.871,4.489,4.489,0,0,0,.165-.689c.013-.094.022-.178.032-.252s.007-.137.011-.185C245.354,111.288,245.354,111.237,245.354,111.237Z" transform="translate(-224.633 -104.729)"/>
              </g>
              <path id="Trazado_2022" data-name="Trazado 2022" d="M244.824,112.326c0,2.7-3.523,4.89-7.866,4.89s-7.868-2.189-7.868-4.89,3.523-4.891,7.868-4.891S244.824,109.625,244.824,112.326Z" transform="translate(-226.427 -105.818)" fill="#fff"/>
            </g>
            <g id="Grupo_764" data-name="Grupo 764" transform="translate(4.709 4.174)">
              <path id="Trazado_2023" data-name="Trazado 2023" d="M232.514,113.229l.33-.029,2.521,2.368h.022l-.22-2.566.262-.021.307,3.592-.136.013-2.735-2.641h-.021l.238,2.772-.265.022Z" transform="translate(-232.514 -112.224)"/>
              <path id="Trazado_2024" data-name="Trazado 2024" d="M240.951,116.129a1.889,1.889,0,0,1-.528-.022,1.945,1.945,0,0,1-.479-.148,1.975,1.975,0,0,1-.417-.256,1.868,1.868,0,0,1-.33-.351,1.782,1.782,0,0,1-.342-.916,1.74,1.74,0,0,1,.028-.49,1.732,1.732,0,0,1,.422-.841,1.888,1.888,0,0,1,.367-.318,1.982,1.982,0,0,1,.448-.221,2.034,2.034,0,0,1,.516-.11,2.077,2.077,0,0,1,.526.02,1.945,1.945,0,0,1,.479.142,2.046,2.046,0,0,1,.416.25,1.823,1.823,0,0,1,.331.341,1.9,1.9,0,0,1,.228.416,1.7,1.7,0,0,1,.111.48,1.876,1.876,0,0,1-.026.5,1.988,1.988,0,0,1-.153.461,1.9,1.9,0,0,1-.269.4,1.944,1.944,0,0,1-.813.55A1.934,1.934,0,0,1,240.951,116.129Zm-.015-.175a1.114,1.114,0,0,0,.52-.173,1.145,1.145,0,0,0,.36-.384,1.656,1.656,0,0,0,.192-.552,2.573,2.573,0,0,0,.026-.681,2.514,2.514,0,0,0-.14-.656,1.638,1.638,0,0,0-.281-.5,1.2,1.2,0,0,0-1.491-.213,1.107,1.107,0,0,0-.362.37,1.633,1.633,0,0,0-.19.541,2.583,2.583,0,0,0-.023.669,2.769,2.769,0,0,0,.137.668,1.681,1.681,0,0,0,.281.511,1.1,1.1,0,0,0,.419.316A1.133,1.133,0,0,0,240.936,115.954Z" transform="translate(-235.064 -112.01)"/>
              <path id="Trazado_2025" data-name="Trazado 2025" d="M246.556,117.3a.318.318,0,0,1,.115.013.286.286,0,0,1,.1.05.3.3,0,0,1,.1.191.281.281,0,0,1-.066.206.328.328,0,0,1-.087.068.3.3,0,0,1-.11.03.36.36,0,0,1-.117-.01.351.351,0,0,1-.1-.054.263.263,0,0,1-.069-.084.26.26,0,0,1-.032-.108.221.221,0,0,1,.014-.11.262.262,0,0,1,.054-.093.255.255,0,0,1,.087-.066A.318.318,0,0,1,246.556,117.3Z" transform="translate(-238.058 -113.961)"/>
              <path id="Trazado_2026" data-name="Trazado 2026" d="M249.655,115.348l-.253-2.97-.592.05-.011-.148a.993.993,0,0,0,.5-.168.81.81,0,0,0,.268-.373l.274-.023.309,3.591Z" transform="translate(-239.069 -111.715)"/>
            </g>
          </g>
        </g>
        <path id="Trazado_2027" data-name="Trazado 2027" d="M182.621,18.3v66.71c1.89.39,4.075.739,6.483,1.025V18.3Z" transform="translate(-5.126 -4.236)" fill="#fff" opacity="0.5" style="mix-blend-mode: screen;isolation: isolate"/>
        <path id="Trazado_2028" data-name="Trazado 2028" d="M246.849,81.491V18.3h-28.8V86.851c15.622,0,28.339-2.626,28.792-5.147h.008v-.066a.523.523,0,0,0,.006-.074A.5.5,0,0,0,246.849,81.491Z" transform="translate(-19.387 -4.236)" fill="#8c959d" opacity="0.5" style="mix-blend-mode: multiply;isolation: isolate"/>
        <g id="Grupo_770" data-name="Grupo 770" transform="translate(169.885 7.775)">
          <g id="Grupo_767" data-name="Grupo 767">
            <path id="Trazado_2029" data-name="Trazado 2029" d="M227.885,15.958l0-1.459H227.1c-3.024-2.57-14.507-4.484-28.211-4.484-13.721,0-25.216,1.917-28.223,4.494h-.776v1.4h.011c.179,3.19,13.087,5.763,28.987,5.763,15.8,0,28.645-2.542,28.984-5.7Z" transform="translate(-169.885 -8.677)" fill="#fff"/>
            <path id="Trazado_2030" data-name="Trazado 2030" d="M227.885,15.958l0-1.459H227.1c-3.024-2.57-14.507-4.484-28.211-4.484-13.721,0-25.216,1.917-28.223,4.494h-.776v1.4h.011c.179,3.19,13.087,5.763,28.987,5.763,15.8,0,28.645-2.542,28.984-5.7Z" transform="translate(-169.885 -8.677)" fill="#7e8286"/>
            <path id="Trazado_2031" data-name="Trazado 2031" d="M246.821,14.5h-.785c-3.024-2.57-14.507-4.484-28.211-4.484-.3,0-.589,0-.884,0V21.674c.295,0,.587,0,.884,0,15.8,0,28.645-2.542,28.984-5.7l.017-.016Z" transform="translate(-188.826 -8.677)" fill="#8c959d" opacity="0.5" style="mix-blend-mode: multiply;isolation: isolate"/>
            <path id="Trazado_2032" data-name="Trazado 2032" d="M227.88,13.607c0,3.221-12.979,5.831-28.989,5.831S169.9,16.828,169.9,13.607s12.979-5.832,28.991-5.832,28.989,2.612,28.989,5.832Z" transform="translate(-169.891 -7.775)" fill="#b2b6ba"/>
            <path id="Trazado_2033" data-name="Trazado 2033" d="M227.5,13.74c0,2.9-12.452,5.254-27.811,5.254s-27.813-2.351-27.813-5.254,12.453-5.254,27.813-5.254S227.5,10.838,227.5,13.74Z" transform="translate(-170.684 -8.061)" fill="#73767a"/>
            <path id="Trazado_2034" data-name="Trazado 2034" d="M227.278,14.3c0,2.771-12.153,5.016-27.147,5.016s-27.15-2.246-27.15-5.016,12.155-5.018,27.15-5.018,27.147,2.247,27.147,5.018Z" transform="translate(-171.132 -8.38)" fill="#d2d5d4"/>
            <path id="Trazado_2035" data-name="Trazado 2035" d="M227.317,14.959c0,2.333-11.09,4.224-24.769,4.224s-24.77-1.89-24.77-4.224,11.091-4.222,24.77-4.222,24.769,1.891,24.769,4.222Z" transform="translate(-173.062 -8.967)" fill="#94989c"/>
            <path id="Trazado_2036" data-name="Trazado 2036" d="M226.976,15.293c0,2.2-10.62,3.978-23.723,3.978s-23.724-1.781-23.724-3.978,10.622-3.979,23.724-3.979,23.723,1.78,23.723,3.979Z" transform="translate(-173.767 -9.2)" fill="#d2d5d4"/>
            <path id="Trazado_2037" data-name="Trazado 2037" d="M227.249,15.984c0,1.634-8.377,2.955-18.71,2.955s-18.709-1.321-18.709-2.955,8.376-2.955,18.709-2.955,18.71,1.323,18.71,2.955Z" transform="translate(-177.913 -9.89)" fill="#94989c"/>
            <path id="Trazado_2038" data-name="Trazado 2038" d="M226.989,16.349c0,1.506-8.021,2.729-17.918,2.729s-17.92-1.222-17.92-2.729,8.024-2.728,17.92-2.728,17.918,1.222,17.918,2.728Z" transform="translate(-178.445 -10.128)" fill="#d2d5d4"/>
          </g>
          <path id="Trazado_2039" data-name="Trazado 2039" d="M181.476,16.4c.032.416-.6.8-1.42.859s-1.5-.229-1.531-.643.606-.8,1.42-.86,1.5.23,1.531.645Z" transform="translate(-173.362 -10.984)" fill="#fff"/>
          <g id="Grupo_769" data-name="Grupo 769" transform="translate(3.716 1.855)">
            <path id="Trazado_2040" data-name="Trazado 2040" d="M195.015,14.169a3.509,3.509,0,0,0-2.877-1.975c-2.524-.423-5.174.076-7.672.458-2.416.368-5.025.468-7.318,1.36-1.132.44-1.419,1.8-.477,2.337,1.385.8,8.712,1.694,10.664,1.825,1.071.071,2.146.1,3.22.066a9.218,9.218,0,0,0,2.673-.423,2.841,2.841,0,0,0,1.737-1.275,3.48,3.48,0,0,0,.05-2.374Zm-1.475,1.7a1.674,1.674,0,0,1-.769.958,2.433,2.433,0,0,1-1.113.251,8.685,8.685,0,0,1-1.35-.085c-.378-.051-.761-.139-1.134-.211-1.033-.2-4.885-1-3.048-2.769a4.121,4.121,0,0,1,2.428-.846,8.714,8.714,0,0,1,3.654-.038,1.8,1.8,0,0,1,1.266,1.265,3.176,3.176,0,0,1,.066,1.475Z" transform="translate(-176.105 -11.344)" fill="#73767a"/>
            <path id="Trazado_2041" data-name="Trazado 2041" d="M195.015,13.016a3.512,3.512,0,0,0-2.877-1.975c-2.524-.422-5.174.076-7.672.458-2.416.369-5.025.469-7.318,1.359-1.132.441-1.419,1.8-.477,2.338,1.385.8,8.712,1.7,10.664,1.827,1.071.071,2.146.1,3.22.063a9.078,9.078,0,0,0,2.673-.422,2.836,2.836,0,0,0,1.737-1.274,3.482,3.482,0,0,0,.05-2.374Zm-1.475,1.706a1.673,1.673,0,0,1-.769.956,2.427,2.427,0,0,1-1.113.253,8.759,8.759,0,0,1-1.35-.085c-.378-.053-.761-.139-1.134-.212-1.033-.2-4.885-1.006-3.048-2.771a4.136,4.136,0,0,1,2.428-.845,8.7,8.7,0,0,1,3.654-.037,1.8,1.8,0,0,1,1.266,1.264,3.179,3.179,0,0,1,.066,1.476Z" transform="translate(-176.105 -10.88)" fill="#b0b3b3"/>
            <g id="Grupo_768" data-name="Grupo 768" transform="translate(1.532 2.186)">
              <path id="Trazado_2042" data-name="Trazado 2042" d="M181.815,15.662c.014.442-.678.824-1.546.851s-1.584-.306-1.6-.748.679-.823,1.546-.852,1.585.307,1.6.749Z" transform="translate(-178.67 -14.689)" fill="#73767a"/>
              <path id="Trazado_2043" data-name="Trazado 2043" d="M181.814,15.23c.031.442-.645.85-1.512.914s-1.6-.244-1.628-.684.644-.851,1.511-.913,1.6.243,1.628.683Z" transform="translate(-178.672 -14.539)" fill="#d2d5d4"/>
            </g>
          </g>
        </g>
      </g>
    </g>
  </g>
</svg>
