<svg xmlns="http://www.w3.org/2000/svg" viewBox="0 0 58.24 58.25"><defs><style>.cls-1{fill:#fc4d3f;}.cls-2{fill:#fff;}</style></defs><title>Recurso 3</title><g id="Capa_2" data-name="Capa 2"><g id="Layer_1" data-name="Layer 1"><circle class="cls-1" cx="29.12" cy="29.13" r="25.04" transform="translate(-12.07 29.12) rotate(-45)"/><path class="cls-1" d="M29.15,58.25a.53.53,0,0,1-.53-.52.52.52,0,0,1,.53-.52,27.57,27.57,0,0,0,4.46-.36.52.52,0,0,1,.17,1,29.81,29.81,0,0,1-4.63.37Zm9-1.45a.53.53,0,0,1-.5-.35.52.52,0,0,1,.33-.66A27.86,27.86,0,0,0,44,52.92a.53.53,0,0,1,.72.17.52.52,0,0,1-.17.72,28.94,28.94,0,0,1-6.29,3ZM13.34,53.51a.52.52,0,0,1-.29-.09A29.12,29.12,0,0,1,2.3,40.5a.51.51,0,0,1,.27-.68.53.53,0,0,1,.69.27A28,28,0,0,0,13.63,52.55a.52.52,0,0,1,.14.72A.5.5,0,0,1,13.34,53.51ZM53,45.45a.52.52,0,0,1-.43-.81A28,28,0,0,0,57.2,29.12a.52.52,0,0,1,1,0,29,29,0,0,1-4.84,16.1A.53.53,0,0,1,53,45.45ZM.52,29h0A.53.53,0,0,1,0,28.41a29.61,29.61,0,0,1,1-6.89.52.52,0,0,1,.64-.36A.52.52,0,0,1,2,21.8a28.46,28.46,0,0,0-1,6.64A.52.52,0,0,1,.52,29ZM55.43,18.42A.53.53,0,0,1,55,18.1a27.69,27.69,0,0,0-2.08-4,.52.52,0,1,1,.88-.56,28.78,28.78,0,0,1,2.16,4.11.52.52,0,0,1-.48.73ZM3,17.89a.54.54,0,0,1-.21-.05.52.52,0,0,1-.26-.69,28.82,28.82,0,0,1,2.25-4.07.52.52,0,0,1,.72-.15.54.54,0,0,1,.15.73,26.75,26.75,0,0,0-2.17,3.92A.54.54,0,0,1,3,17.89Zm47.54-7.16a.56.56,0,0,1-.39-.17,28,28,0,0,0-5-4.47.52.52,0,0,1-.13-.73.54.54,0,0,1,.73-.13A29.31,29.31,0,0,1,51,9.87a.52.52,0,0,1-.4.86ZM17.92,3.32a.52.52,0,0,1-.2-1A28.87,28.87,0,0,1,29.12,0a29.35,29.35,0,0,1,5.3.48.53.53,0,0,1,.42.61.52.52,0,0,1-.61.42A28.08,28.08,0,0,0,29.12,1a27.78,27.78,0,0,0-11,2.24A.65.65,0,0,1,17.92,3.32Z"/><path class="cls-2" d="M23.25,26.84a1.21,1.21,0,0,0,0,.18v4.4h6.1a5.18,5.18,0,0,1-2.24,3.42,6.53,6.53,0,0,1-3.31,1.07,6.65,6.65,0,0,1-2.47-.29,6.86,6.86,0,0,1-4.7-5.92,6.58,6.58,0,0,1,.14-2.07,6.73,6.73,0,0,1,7.49-5.24A6.24,6.24,0,0,1,27.6,24l3.31-3.31a13.07,13.07,0,0,0-2-1.48,10.78,10.78,0,0,0-5.4-1.47c-.36,0-.73,0-1.09,0a8.56,8.56,0,0,0-1.88.29,11.38,11.38,0,0,0-3.93,20.28,11.06,11.06,0,0,0,6.08,2.15,12,12,0,0,0,3.73-.36A9.93,9.93,0,0,0,32,36.44a12.2,12.2,0,0,0,2-9.6Z"/><polygon class="cls-2" points="47.73 26.99 43.88 26.99 43.88 23.13 43.88 23.01 43.76 23.01 40.88 23.01 40.77 23.01 40.77 23.13 40.77 26.99 36.91 26.99 36.79 26.99 36.79 27.1 36.79 29.98 36.79 30.1 36.91 30.1 40.77 30.1 40.77 33.96 40.77 34.07 40.88 34.07 43.76 34.07 43.88 34.07 43.88 33.96 43.88 30.1 47.73 30.1 47.85 30.1 47.85 29.98 47.85 27.1 47.85 26.99 47.73 26.99"/></g></g></svg>