<svg xmlns="http://www.w3.org/2000/svg" width="38.868" height="36.438" viewBox="0 0 38.868 36.438">
  <g id="Grupo_2" data-name="Grupo 2" transform="translate(-1227.219 -1296.567)">
    <path id="Trazado_43" data-name="Trazado 43" d="M1265.576,1314.34l-17.69-17.273a1.773,1.773,0,0,0-2.468,0l-17.686,17.273a1.676,1.676,0,0,0,0,2.412,1.775,1.775,0,0,0,2.469,0l16.452-16.068,16.455,16.068a1.777,1.777,0,0,0,2.469,0A1.677,1.677,0,0,0,1265.576,1314.34Z" transform="translate(0 0)" fill="#3a4145"/>
    <path id="Trazado_44" data-name="Trazado 44" d="M1264.688,1336.011a1.726,1.726,0,0,0-1.747,1.7V1350h-6.469V1339.17h-9.27v.6l.177,10.234h-6.647v-12.286a1.745,1.745,0,0,0-3.49,0v13.99a1.723,1.723,0,0,0,1.745,1.7h25.7a1.724,1.724,0,0,0,1.746-1.7v-13.99A1.725,1.725,0,0,0,1264.688,1336.011Z" transform="translate(-5.184 -20.403)" fill="#3a4145"/>
  </g>
</svg>
