<svg xmlns="http://www.w3.org/2000/svg" width="123" height="118" viewBox="0 0 123 118">
  <g id="Grupo_1107" data-name="Grupo 1107" transform="translate(-205 -160)">
    <g id="Grupo_1041" data-name="Grupo 1041">
      <g id="Elipse_22" data-name="Elipse 22" transform="translate(205 160)" fill="#fff" stroke="#707070" stroke-width="1">
        <ellipse cx="61.5" cy="59" rx="61.5" ry="59" stroke="none"/>
        <ellipse cx="61.5" cy="59" rx="61" ry="58.5" fill="none"/>
      </g>
      <g id="Grupo_677" data-name="Grupo 677" transform="translate(103.05 -789.33)">
        <path id="Trazado_1615" data-name="Trazado 1615" d="M155.068,1026.18c-.533.4-10.007.267-10.808-.134a53.715,53.715,0,0,1-4.9-4.946l-.166.41.8,51.638c5.978,2.062,16.7,4.617,19.46,4.333.013-.038.022-.063.022-.063Z" transform="translate(-0.125 -29.112)" fill="#70cded"/>
        <path id="Trazado_1616" data-name="Trazado 1616" d="M154.943,1026.055l-.068-.092a.434.434,0,0,1-.113.039,9.62,9.62,0,0,1-1.458.136c-.688.03-1.538.044-2.441.044-1.432,0-3-.036-4.258-.1-.631-.033-1.187-.072-1.612-.118-.213-.023-.392-.047-.531-.073a1.224,1.224,0,0,1-.275-.072,1.835,1.835,0,0,1-.293-.214c-.465-.389-1.282-1.209-2.144-2.108s-1.773-1.88-2.434-2.6a.114.114,0,0,0-.19.035l-.167.409-.008.045.8,51.638a.115.115,0,0,0,.077.107c2.84.98,6.743,2.069,10.359,2.914a48.172,48.172,0,0,0,8.648,1.447,4.915,4.915,0,0,0,.5-.023.113.113,0,0,0,.1-.075c.013-.038.022-.064.022-.065l.006-.046-4.4-51.238a.114.114,0,0,0-.183-.082l.068.092-.114.01,4.4,51.238.114-.01-.108-.037-.021.061.108.038-.012-.114a4.672,4.672,0,0,1-.478.022,48.147,48.147,0,0,1-8.6-1.441c-3.609-.843-7.507-1.932-10.336-2.907l-.038.109.115,0-.8-51.615.157-.388-.106-.043-.084.078c.756.822,1.838,1.987,2.8,2.983.483.5.937.954,1.308,1.3.185.175.35.324.488.44a2,2,0,0,0,.337.243,1.362,1.362,0,0,0,.336.093,24.058,24.058,0,0,0,2.661.217c1.169.051,2.525.078,3.781.078,1.034,0,2-.019,2.738-.058.369-.02.681-.045.917-.076a2.945,2.945,0,0,0,.3-.052.559.559,0,0,0,.2-.078l-.069-.091-.114.01Z" transform="translate(0 -28.987)"/>
        <path id="Trazado_1617" data-name="Trazado 1617" d="M144.442,1004.339c.8.4,10.274.533,10.808.134,0,0-4.537-20.816-6-23.751-.472-.945-1.055-1.238-1.629-1.2l-8.079,19.875A53.707,53.707,0,0,0,144.442,1004.339Z" transform="translate(-0.306 -7.405)" fill="#70cded"/>
        <path id="Trazado_1618" data-name="Trazado 1618" d="M144.317,1004.214l-.052.1a1.356,1.356,0,0,0,.336.093,23.8,23.8,0,0,0,2.661.217c1.169.051,2.525.078,3.781.078,1.034,0,2-.019,2.738-.058.369-.02.681-.045.917-.076a2.959,2.959,0,0,0,.3-.052.559.559,0,0,0,.2-.078.114.114,0,0,0,.043-.116s-1.134-5.2-2.452-10.777c-.659-2.786-1.364-5.663-2-8.03-.316-1.183-.614-2.238-.879-3.091a14.3,14.3,0,0,0-.686-1.88,2.637,2.637,0,0,0-.77-.981,1.46,1.46,0,0,0-.874-.289l-.1,0a.115.115,0,0,0-.1.072l-8.078,19.875a.113.113,0,0,0,.022.12c.756.822,1.838,1.988,2.8,2.983.483.5.937.954,1.308,1.3.185.175.35.324.488.44a1.99,1.99,0,0,0,.337.243l.052-.1.051-.1a1.839,1.839,0,0,1-.293-.214c-.465-.389-1.282-1.209-2.144-2.108s-1.773-1.88-2.434-2.6l-.085.077.106.044,8.079-19.875-.106-.043.007.114.082,0a1.227,1.227,0,0,1,.739.246,2.4,2.4,0,0,1,.7.9,14.07,14.07,0,0,1,.673,1.847c.924,2.968,2.255,8.44,3.355,13.167.55,2.364,1.042,4.542,1.4,6.128.177.794.32,1.439.419,1.886s.152.7.152.7l.112-.024-.068-.092a.427.427,0,0,1-.113.039,9.6,9.6,0,0,1-1.458.136c-.688.03-1.538.044-2.441.044-1.432,0-3-.036-4.258-.1-.631-.032-1.187-.072-1.612-.118-.213-.023-.392-.047-.531-.073a1.226,1.226,0,0,1-.275-.072Z" transform="translate(-0.182 -7.279)"/>
        <path id="Trazado_1619" data-name="Trazado 1619" d="M192.957,1024.067c-6.805,1.2-20.015,1.868-20.549,2.269l4.4,51.238s-.008.025-.021.063c.352-.037.555-.063.555-.063l28.955-11.208V1021.4C206.034,1021.666,199.762,1022.866,192.957,1024.067Z" transform="translate(-17.465 -29.268)" fill="#a8def1"/>
        <path id="Trazado_1620" data-name="Trazado 1620" d="M192.833,1023.943l-.02-.113c-3.394.6-8.4,1.066-12.616,1.433-2.109.183-4.023.342-5.445.479-.711.069-1.3.132-1.727.192-.214.03-.389.059-.521.087-.066.014-.122.029-.169.043a.413.413,0,0,0-.12.056.113.113,0,0,0-.045.1l4.4,51.238.114-.01-.108-.037-.021.061a.112.112,0,0,0,.018.109.114.114,0,0,0,.1.043c.353-.037.557-.063.558-.063l.027-.007,28.955-11.208a.114.114,0,0,0,.073-.107v-44.967a.115.115,0,0,0-.2-.08l.025.024-.022-.027,0,0,.025.024-.022-.027a.552.552,0,0,1-.1.045,15.823,15.823,0,0,1-1.581.4c-2.367.52-6.855,1.358-11.6,2.2l.02.113.02.113c3.4-.6,6.673-1.2,9.125-1.685,1.227-.242,2.25-.455,2.983-.624.367-.085.662-.158.876-.22.107-.032.193-.059.26-.085.033-.013.062-.025.088-.038a.28.28,0,0,0,.071-.049l-.081-.081h-.115v44.889l-28.881,11.18.041.107-.015-.114s-.2.025-.553.062l.012.114.108.038c.013-.038.022-.064.022-.065l.006-.046-4.4-51.238-.114.01.069.091,0-.005,0,.006h0l0-.005,0,.006a.354.354,0,0,1,.067-.026,7.408,7.408,0,0,1,.978-.16c1.691-.207,5.118-.468,8.839-.805s7.737-.749,10.617-1.257Z" transform="translate(-17.34 -29.143)"/>
        <path id="Trazado_1621" data-name="Trazado 1621" d="M186.222,971.84l.134-6.272-29.756,1.2v5.071l-.162.4S181.018,970.239,186.222,971.84Z" transform="translate(-9.129 -0.124)" fill="#a8def1"/>
        <path id="Trazado_1622" data-name="Trazado 1622" d="M186.1,971.716l.115,0,.134-6.271a.114.114,0,0,0-.12-.117l-29.756,1.2a.114.114,0,0,0-.11.114v5.049l-.153.377a.117.117,0,0,0,.013.111.116.116,0,0,0,.1.046l.556-.044c2.521-.195,13.1-.975,21.027-.975,1.814,0,3.487.041,4.891.139a16,16,0,0,1,3.267.477.115.115,0,0,0,.148-.107l-.115,0,.034-.109a16.158,16.158,0,0,0-3.319-.487c-1.412-.1-3.09-.14-4.907-.14-9.069,0-21.6,1.019-21.6,1.019l.009.115.106.043.161-.4.009-.043v-4.961l29.524-1.192-.13,6.15.114,0,.034-.109Z" transform="translate(-9.004)"/>
        <path id="Trazado_1623" data-name="Trazado 1623" d="M158.067,979.612c1.468,2.935,6,23.751,6,23.751.534-.4,13.744-1.067,20.549-2.269s13.077-2.4,13.343-2.669L186.222,978.01c-5.2-1.6-29.784.4-29.784.4C157.012,978.373,157.595,978.667,158.067,979.612Z" transform="translate(-9.129 -6.295)" fill="#a8def1"/>
        <path id="Trazado_1624" data-name="Trazado 1624" d="M157.942,979.486l-.1.051a14.064,14.064,0,0,1,.673,1.847c.924,2.968,2.255,8.44,3.355,13.167.55,2.364,1.042,4.541,1.4,6.128.177.794.32,1.439.419,1.886s.152.7.152.7a.115.115,0,0,0,.072.083.114.114,0,0,0,.109-.016l0-.005,0,.006h0l0-.005,0,.006a.342.342,0,0,1,.067-.026,7.421,7.421,0,0,1,.978-.16c1.691-.206,5.118-.468,8.839-.805s7.737-.749,10.617-1.257c3.4-.6,6.673-1.2,9.126-1.685,1.227-.242,2.249-.455,2.983-.624.367-.085.662-.158.876-.22.107-.032.193-.059.26-.085.033-.013.062-.025.088-.038a.286.286,0,0,0,.071-.049.115.115,0,0,0,.019-.138L186.2,977.828a.115.115,0,0,0-.065-.052,16.162,16.162,0,0,0-3.319-.487c-1.412-.1-3.09-.14-4.907-.14-9.069,0-21.6,1.019-21.6,1.019a.115.115,0,0,0,.016.229l.082,0a1.227,1.227,0,0,1,.739.246,2.4,2.4,0,0,1,.7.9l.1-.051.1-.051a2.637,2.637,0,0,0-.77-.981,1.46,1.46,0,0,0-.874-.289l-.1,0,.007.115.009.114.556-.044c2.521-.195,13.1-.975,21.027-.975,1.814,0,3.487.041,4.891.139a16,16,0,0,1,3.267.478l.033-.109-.1.057,11.743,20.415.1-.058-.081-.08.025.024-.022-.027,0,0,.025.024-.022-.027a.554.554,0,0,1-.1.045,15.844,15.844,0,0,1-1.581.4c-2.367.52-6.855,1.358-11.6,2.2-3.394.6-8.4,1.067-12.616,1.433-2.109.184-4.023.342-5.445.479-.711.069-1.3.132-1.727.192-.214.03-.389.059-.521.087-.066.014-.122.029-.169.043a.413.413,0,0,0-.12.056l.068.092.112-.025s-1.134-5.2-2.452-10.777c-.659-2.786-1.364-5.663-2-8.03-.316-1.183-.614-2.238-.879-3.091a14.311,14.311,0,0,0-.686-1.88Z" transform="translate(-9.003 -6.17)"/>
        <path id="Trazado_1625" data-name="Trazado 1625" d="M140.739,1051.582a.114.114,0,0,1-.073-.2c1.548-1.29,4.568-1.409,6.24-1.364.2-3.206-1.988-45.215-2.011-45.645a.112.112,0,0,1,.027-.08c4.455-5.242,3.453-24.411,3.442-24.6a.114.114,0,0,1,.108-.12.112.112,0,0,1,.12.108c.043.79,1.014,19.373-3.466,24.731.121,2.335,2.261,43.506,2,45.741a.114.114,0,0,1-.113.1l-.1,0c-2.788-.077-5.008.4-6.1,1.31A.114.114,0,0,1,140.739,1051.582Z" transform="translate(-0.874 -7.431)"/>
        <path id="Trazado_1626" data-name="Trazado 1626" d="M206.2,1024.911c-2.508,1.515-8.724,5.029-12.787,5.268q-.41.024-.819.023a23.391,23.391,0,0,1-9.563-2.466c.108-.042.228-.083.36-.126l-1.243.108c1.937,7.571-4.575,42.4,5.436,42.4a5.975,5.975,0,0,0,2.148-.45C202.144,1064.856,208.545,1028.085,206.2,1024.911Z" transform="translate(-22.383 -31.101)" fill="#84cce9"/>
        <path id="Trazado_1627" data-name="Trazado 1627" d="M183.86,1030.481c-.506.057-.962.1-1.361.137l0,.007,1.243-.108Z" transform="translate(-22.733 -34.009)"/>
        <path id="Trazado_1628" data-name="Trazado 1628" d="M150.055,1031.786c.166,3.2,2.039,39.331,2.014,44.975.24.411.453.591.617.591a.234.234,0,0,0,.182-.093c.656-.787.537-40.937,6.118-45.184-.669.026-1.475.039-2.327.039-1.238,0-2.575-.027-3.734-.076l-.047,0-.382-.018a20.766,20.766,0,0,1-2.279-.2C150.156,1031.809,150.1,1031.8,150.055,1031.786Z" transform="translate(-5.797 -34.69)" fill="#59bde7"/>
        <path id="Trazado_1629" data-name="Trazado 1629" d="M155.16,1032.273l.382.018.047,0-.047,0Z" transform="translate(-8.462 -34.944)"/>
        <path id="Trazado_1630" data-name="Trazado 1630" d="M153.681,984.776c.125,5.306.028,17.882-3.475,22.252.038.009.082.019.13.027.139.026.318.05.531.073.424.046.98.086,1.612.118,1.262.065,2.826.1,4.258.1.817,0,1.591-.012,2.24-.036-2.516-1.017-3.9-16.675-4.985-22.107C153.883,985.055,153.779,984.913,153.681,984.776Z" transform="translate(-5.876 -10.151)" fill="#59bde7"/>
        <path id="Trazado_1631" data-name="Trazado 1631" d="M150.12,1031.329l-.078.1c0,.033,0,.074.006.122.047.012.1.023.162.034a20.759,20.759,0,0,0,2.279.2l.382.018.047,0c1.158.049,2.5.076,3.734.076.852,0,1.658-.013,2.327-.039a2.014,2.014,0,0,1,.287-.184.648.648,0,0,1-.114.01.689.689,0,0,1-.26-.052c-.649.024-1.423.036-2.24.036-1.432,0-3-.036-4.258-.1-.631-.032-1.187-.072-1.612-.118-.213-.023-.392-.047-.531-.073C150.2,1031.348,150.158,1031.338,150.12,1031.329Z" transform="translate(-5.79 -34.452)"/>
        <path id="Trazado_1632" data-name="Trazado 1632" d="M139.431,1022.054l.006.408a147.771,147.771,0,0,1,4.015,28.9c.551,12.034,1.861,17.743,2.842,19.872-.064-6.939-1.928-42.876-2.019-44.622a2.675,2.675,0,0,1-.277-.209c-.138-.116-.3-.264-.488-.44-.371-.351-.826-.807-1.308-1.3-.774-.8-1.622-1.7-2.318-2.457A4.225,4.225,0,0,1,139.431,1022.054Z" transform="translate(-0.251 -29.61)" fill="#59bde7"/>
        <path id="Trazado_1633" data-name="Trazado 1633" d="M139.19,1021.958s.043.154.121.454l-.006-.408Z" transform="translate(-0.125 -29.56)"/>
        <path id="Trazado_1634" data-name="Trazado 1634" d="M148.752,986.307c-.63,6.554-2.3,17.359-7.048,17.359a3.324,3.324,0,0,1-.512-.041c.536.577,1.143,1.225,1.728,1.835.862.9,1.679,1.719,2.144,2.108.085.072.16.129.217.168C148.579,1003.712,148.833,991.957,148.752,986.307Z" transform="translate(-1.17 -10.95)" fill="#59bde7"/>
        <path id="Trazado_1635" data-name="Trazado 1635" d="M140.378,1022.364c.7.752,1.544,1.659,2.318,2.457.483.5.937.954,1.308,1.3.185.175.35.324.488.44a2.689,2.689,0,0,0,.277.209l0-.063a.112.112,0,0,1,.027-.08l.062-.074c-.057-.039-.131-.1-.217-.168-.465-.389-1.282-1.209-2.144-2.109-.585-.609-1.192-1.257-1.728-1.834A3.758,3.758,0,0,1,140.378,1022.364Z" transform="translate(-0.745 -29.772)"/>
        <path id="Trazado_1636" data-name="Trazado 1636" d="M153.2,984.367q-.039.447-.085.927c.081,5.65-.172,17.4-3.472,21.429l-.062.074a.112.112,0,0,0-.027.08l0,.063c.091,1.746,1.956,37.683,2.019,44.622.079.172.156.32.23.446.025-5.644-1.848-41.779-2.014-44.975,0-.048,0-.089-.006-.122l.078-.1c3.5-4.371,3.6-16.946,3.475-22.252Q153.271,984.463,153.2,984.367Z" transform="translate(-5.537 -9.937)"/>
        <path id="Trazado_1637" data-name="Trazado 1637" d="M185.221,996.9c-5.188,0-5.857-8.7-5.857-8.7.3-1.4,1.088-1.886,2.049-1.886,2.265,0,5.482,2.723,5.482,2.723S190.409,996.9,185.221,996.9Zm-9.967-18.79-2.481.041c-.51.1-2.217.39-6.386.88-5.191.611-3.664,3.512-3.664,3.512a34.93,34.93,0,0,1,.551,3.761c.271,1.052.552,2.171.832,3.315,1.261,4.5,2.407,8.946,2.471,9.716a4.2,4.2,0,0,0,3.563,3.895c1.226-.115,2.757-.244,4.434-.389,3.759-.875,11.353-1.816,16.709-2.417,4.167-.686,7.412-1.222,7.851-1.222h.061l.179-.039c.233-.051.446-.1.637-.144.507-.253.644-.7.458-.884a34.382,34.382,0,0,1-5.689.56c-5.909,0-5.653-2.562-5.653-2.562s15.046-.194,1.649-7.408C184.647,985.426,175.9,979.08,175.254,978.11Z" transform="translate(-12.3 -6.671)" fill="#84cce9"/>
        <path id="Trazado_1638" data-name="Trazado 1638" d="M175.359,1011.79c-1.677.145-3.208.273-4.434.389a6.568,6.568,0,0,0,.974.109c.264-.008.585-.027.954-.058-.006-.025-.013-.05-.02-.075,0,0,.518-.022,1.4-.069C174.554,1011.989,174.932,1011.89,175.359,1011.79Zm25.437-3.823c-.19.044-.4.093-.637.144l-.179.039A1.933,1.933,0,0,0,200.8,1007.967Zm-36.737-12.714a.491.491,0,0,1-.04.264c.289.99.583,2.022.872,3.051C164.611,997.424,164.331,996.3,164.059,995.253Z" transform="translate(-13.086 -15.62)"/>
        <path id="Trazado_1639" data-name="Trazado 1639" d="M183.86,1030.467c-.885.046-1.4.069-1.4.069.007.025.014.05.02.075.4-.033.856-.08,1.361-.137Z" transform="translate(-22.711 -34.002)"/>
        <path id="Trazado_1640" data-name="Trazado 1640" d="M166.891,1132.478l-.043-.009-13.032-5.293a.115.115,0,0,1-.063-.15.113.113,0,0,1,.149-.062l13.032,5.293a.115.115,0,0,1-.043.22Z" transform="translate(-7.723 -84.369)"/>
        <path id="Trazado_1641" data-name="Trazado 1641" d="M184.94,1076.057a.227.227,0,0,1-.216-.179c-.076-.342-1.849-8.4-.381-10.166a1.015,1.015,0,0,1,.838-.386,2.7,2.7,0,0,1,2.429,2.331c.256-1.281.72-2.865,1.487-3.253a.9.9,0,0,1,.9.051c1.771,1.036,1.295,9.2,1.235,10.132a.229.229,0,0,1-.457-.03c.229-3.531.149-9.03-1.009-9.707a.439.439,0,0,0-.458-.038c-.882.447-1.382,3.465-1.5,4.59a.229.229,0,0,1-.456-.032c0-.035.092-3.506-2.182-3.586a.551.551,0,0,0-.47.22c-1.1,1.324-.03,7.5.476,9.774a.229.229,0,0,1-.174.273Z" transform="translate(-23.392 -51.666)"/>
        <path id="Trazado_1642" data-name="Trazado 1642" d="M205.159,1074.306a.229.229,0,0,1-.221-.233l.152-8.139a.229.229,0,0,1,.233-.225h0a.229.229,0,0,1,.221.233l-.151,8.14a.229.229,0,0,1-.234.224Z" transform="translate(-34.446 -52.398)"/>
        <path id="Trazado_1643" data-name="Trazado 1643" d="M213.6,1064.923a.229.229,0,0,1-.221-.233l.265-15.211a.229.229,0,0,1,.233-.225.235.235,0,0,1,.225.232l-.265,15.211a.228.228,0,0,1-.233.225Z" transform="translate(-38.85 -43.808)"/>
        <path id="Trazado_1644" data-name="Trazado 1644" d="M223.677,1064.172a.229.229,0,0,1-.221-.228l-.02-14.688a.229.229,0,0,1,.229-.229.237.237,0,0,1,.229.229l.02,14.688a.229.229,0,0,1-.229.229Z" transform="translate(-44.102 -43.69)"/>
        <path id="Trazado_1645" data-name="Trazado 1645" d="M229.409,1070.871a.23.23,0,0,1-.131-.047c-.913-.7-5.137-5.095-5.316-5.282a.23.23,0,0,1,.055-.359l4.356-2.384a.229.229,0,1,1,.219.4l-4.093,2.24c.88.911,4.283,4.425,5.056,5.02a.229.229,0,0,1-.147.411Z" transform="translate(-44.343 -50.863)"/>
        <path id="Trazado_1646" data-name="Trazado 1646" d="M206.549,1060.533a.467.467,0,0,1-.934-.033l.019-.533a.467.467,0,0,1,.934.032Z" transform="translate(-34.799 -49.165)"/>
        <path id="Trazado_1647" data-name="Trazado 1647" d="M156.523,978.52c0,.03-.008.059-.011.088l.011-.029Z" transform="translate(-9.167 -6.885)" fill="#c9e9f5"/>
        <path id="Trazado_1648" data-name="Trazado 1648" d="M156.554,979.8c.008.154.034.661.059,1.43a11.018,11.018,0,0,1,.337,1.355,16.062,16.062,0,0,1,2.306,3.873,6.91,6.91,0,0,0,.34.81c-.4-1.539-.776-2.932-1.109-4.045-.312-.969-.585-1.759-.793-2.273l-.024-.048-.014-.028-.006-.012h0a2.765,2.765,0,0,0-.47-.676l-.006-.006h0a1.7,1.7,0,0,0-.2-.175A1.272,1.272,0,0,0,156.554,979.8Zm-.322-.042h-.011l-.345.849a2.179,2.179,0,0,0,.519,1.2c-.029-1.229-.069-1.983-.071-2.021l0-.027C156.294,979.755,156.263,979.755,156.232,979.754Z" transform="translate(-8.834 -7.529)" fill="#59bde7"/>
        <path id="Trazado_1649" data-name="Trazado 1649" d="M157.66,980.861l.014.028.024.048-.024-.048,0,0,0,0Zm-.006-.013h0Zm-.476-.682.006.006Zm-.62-.379h0a1.272,1.272,0,0,1,.417.2,1.7,1.7,0,0,1,.2.175,1.7,1.7,0,0,0-.2-.175A1.272,1.272,0,0,0,156.557,979.788Zm-.458-.05a6.16,6.16,0,0,1-.2.754.454.454,0,0,0-.022.1l.345-.849-.071,0h-.007A.112.112,0,0,1,156.1,979.738Z" transform="translate(-8.837 -7.521)"/>
        <path id="Trazado_1650" data-name="Trazado 1650" d="M161.951,978.485c-2.647.049-4.569.086-5.044.1v0l-.009.043-.091.226C157.393,978.8,159.323,978.655,161.951,978.485Z" transform="translate(-9.321 -6.867)" fill="#84cce9"/>
        <path id="Trazado_1651" data-name="Trazado 1651" d="M156.591,975.7c-.027.533-.065.973-.115,1.347v.059l-.011.029q-.02.144-.043.276l.184-.014.091-.226.009-.043v0l-.115,0Z" transform="translate(-9.12 -5.415)"/>
        <path id="Trazado_1652" data-name="Trazado 1652" d="M158.332,978.885l-.272.021a1.6,1.6,0,0,1,.187.118h0A.248.248,0,0,1,158.332,978.885Zm10.85-.645-.794.014c-1.083.054-2.136.111-3.133.17C166.56,978.366,167.95,978.3,169.182,978.24Z" transform="translate(-9.975 -6.739)" fill="#84cce9"/>
        <path id="Trazado_1653" data-name="Trazado 1653" d="M158.73,982.443c.334,1.113.712,2.507,1.109,4.045.065.12.113.174.146.174l.024-.011C159.555,985.091,159.113,983.631,158.73,982.443Zm-.814-2.323,0,0,.024.048Zm9.573-1.851c-2.1.036-4.089.072-5.783.1-2.628.17-4.558.32-5.145.366l-.184.014c-.012.076-.026.148-.04.218a.112.112,0,0,0,.047.011h.007l.071,0h.011c.032,0,.063,0,.094,0a.113.113,0,0,1,.106-.093h.012a.114.114,0,0,1,.109.109v.023a1.272,1.272,0,0,1,.417.2,1.707,1.707,0,0,1,.2.175h0l.006.006a2.764,2.764,0,0,1,.47.676h0l.006.012.014.028,0,0a2.269,2.269,0,0,0-.3-.583c-.207-.207-.289-.369-.264-.5h0a1.616,1.616,0,0,0-.187-.118l.272-.021a4.749,4.749,0,0,1,2.316-.3c.69,0,2.542-.073,4.606-.164C165.354,978.38,166.407,978.323,167.49,978.269Z" transform="translate(-9.077 -6.754)"/>
        <path id="Trazado_1654" data-name="Trazado 1654" d="M156.936,979.565h-.012a.113.113,0,0,0-.106.093l0,.027c0,.038.042.792.071,2.021.034.05.069.1.106.153.026-.294.049-.577.071-.846.014.036.028.073.042.113-.025-.77-.051-1.276-.059-1.43v-.023A.114.114,0,0,0,156.936,979.565Z" transform="translate(-9.326 -7.431)"/>
        <path id="Trazado_1655" data-name="Trazado 1655" d="M157.421,982.834c.01.277.018.588.026.928.1.137.2.279.311.427A11.02,11.02,0,0,0,157.421,982.834Z" transform="translate(-9.642 -9.137)" fill="#47adde"/>
        <path id="Trazado_1656" data-name="Trazado 1656" d="M157.257,982.6c-.022.269-.045.552-.071.846q.067.1.139.2c-.008-.341-.017-.651-.026-.928C157.284,982.67,157.271,982.633,157.257,982.6Z" transform="translate(-9.519 -9.013)"/>
        <path id="Trazado_1657" data-name="Trazado 1657" d="M159.682,982.247c.208.514.481,1.3.793,2.273q-.074-.247-.145-.475A15,15,0,0,0,159.682,982.247Z" transform="translate(-10.822 -8.831)" fill="#47adde"/>
        <path id="Trazado_1658" data-name="Trazado 1658" d="M170.655,978.2l-1.266.021c-1.232.06-2.622.126-3.927.184-3.044.177-5.578.36-6.922.462a.248.248,0,0,0-.083.14,2.641,2.641,0,0,1,.767.98,14.315,14.315,0,0,1,.686,1.88c.265.852.563,1.908.879,3.091.12.449.242.916.367,1.4a34.928,34.928,0,0,0-.551-3.761s-1.526-2.9,3.664-3.512C168.438,978.586,170.145,978.293,170.655,978.2Z" transform="translate(-10.182 -6.716)" fill="#69bde3"/>
        <path id="Trazado_1659" data-name="Trazado 1659" d="M158.451,979.225c-.025.128.057.29.264.5a2.269,2.269,0,0,1,.3.583l.1-.049.1-.051-.1.051-.1.049.021.05a15,15,0,0,1,.649,1.8q.071.228.145.475c.382,1.188.824,2.647,1.28,4.208a.492.492,0,0,0,.04-.264c-.124-.481-.247-.947-.367-1.4-.316-1.183-.614-2.238-.879-3.091a14.309,14.309,0,0,0-.686-1.88A2.641,2.641,0,0,0,158.451,979.225Zm7.006-.6c-2.064.092-3.916.164-4.606.164a4.749,4.749,0,0,0-2.316.3C159.879,978.984,162.413,978.8,165.457,978.624Z" transform="translate(-10.177 -6.94)"/>
        <path id="Trazado_1660" data-name="Trazado 1660" d="M157.016,971.174v3.59c.476-.01,2.4-.047,5.044-.1,1.739-.112,3.785-.234,5.946-.341C164.507,973.995,157.739,973.106,157.016,971.174Z" transform="translate(-9.43 -3.051)" fill="#69bde3"/>
        <path id="Trazado_1661" data-name="Trazado 1661" d="M156.827,970.456c0,1.022-.017,1.839-.051,2.508v1.427l.115,0V970.8A.963.963,0,0,1,156.827,970.456Z" transform="translate(-9.305 -2.676)"/>
        <path id="Trazado_1662" data-name="Trazado 1662" d="M210.148,1023.617l-.182.036c-2.453.484-5.723,1.085-9.125,1.685-2.88.508-6.9.92-10.617,1.257-.944.085-1.868.166-2.75.242,5.226-.3,17.477-1.149,21.22-2.813a.422.422,0,0,1,.455.211C209.637,1023.941,209.984,1023.722,210.148,1023.617Z" transform="translate(-25.329 -30.426)" fill="#84cce9"/>
        <path id="Trazado_1663" data-name="Trazado 1663" d="M212.068,1023.9c-1.027.107-2.387.252-3.933.425-4.151.684-9.217,1.516-13.337,2.117,3.495-.323,7.158-.712,9.826-1.184S209.891,1024.318,212.068,1023.9Z" transform="translate(-29.153 -30.575)" fill="#84cce9"/>
        <path id="Trazado_1664" data-name="Trazado 1664" d="M209.242,1023.474s-.758.074-2.01.205c-2.177.415-4.769.887-7.443,1.359s-6.332.86-9.826,1.184c-1.674.244-3.192.45-4.429.592l.927-.051c.882-.077,1.807-.157,2.75-.242,3.721-.337,7.737-.749,10.617-1.257,3.4-.6,6.673-1.2,9.126-1.685l.182-.036Z" transform="translate(-24.317 -30.351)"/>
        <path id="Trazado_1665" data-name="Trazado 1665" d="M207.146,1024.452a.45.45,0,0,0-.083.009c-3.744,1.663-15.994,2.516-21.22,2.813l-1.133.1c-.131.042-.252.084-.36.126a23.391,23.391,0,0,0,9.563,2.467q.409,0,.819-.023c4.063-.239,10.279-3.753,12.787-5.268A.462.462,0,0,0,207.146,1024.452Z" transform="translate(-23.699 -30.862)" fill="#69bde3"/>
        <path id="Trazado_1666" data-name="Trazado 1666" d="M186.236,1030.354l-.927.051-.089.01-.117.036Z" transform="translate(-24.092 -33.943)"/>
        <path id="Trazado_1667" data-name="Trazado 1667" d="M204.452,1024.793c-5.356.6-12.951,1.542-16.709,2.417l.583-.051c.9-.078,1.84-.161,2.79-.25C195.236,1026.309,200.3,1025.477,204.452,1024.793Z" transform="translate(-25.47 -31.04)" fill="#69bde3"/>
        <path id="Trazado_1668" data-name="Trazado 1668" d="M189.889,1029.222c-.95.088-1.888.171-2.79.25l-.583.051c-.427.1-.8.2-1.124.295l.068,0C186.7,1029.672,188.215,1029.466,189.889,1029.222Z" transform="translate(-24.243 -33.352)"/>
        <path id="Trazado_1669" data-name="Trazado 1669" d="M185.436,1030.46l-.068,0-.022.007Z" transform="translate(-24.219 -33.998)"/>
        <path id="Trazado_1670" data-name="Trazado 1670" d="M199.814,995.268c-.961,0-1.749.49-2.049,1.886,0,0,.669,8.7,5.857,8.7s1.673-7.866,1.673-7.866S202.078,995.268,199.814,995.268Z" transform="translate(-30.701 -15.628)" fill="#69bde3"/>
        <path id="Trazado_1671" data-name="Trazado 1671" d="M210.972,997.492l-.346-1.189-4.217-8.764-3.88,1.821c-2.143.982-2.8,4.148-1.457,7.071s4.164,4.494,6.308,3.51a3.208,3.208,0,0,0,.853-.581Z" transform="translate(-32.064 -11.593)" fill="#d8dadb"/>
        <path id="Trazado_1672" data-name="Trazado 1672" d="M210.847,997.327l.11-.032-.349-1.2-4.27-8.875-3.983,1.868h0A3.539,3.539,0,0,0,200.7,990.7a5.383,5.383,0,0,0-.568,2.495,7.532,7.532,0,0,0,.706,3.116c1.085,2.363,3.126,3.867,5.048,3.87a3.361,3.361,0,0,0,1.412-.3,3.305,3.305,0,0,0,.883-.6l-.078-.083.065.094,2.808-1.914-.023-.08-.11.032-.065-.095-2.747,1.873-.006.006a3.089,3.089,0,0,1-.822.561,3.127,3.127,0,0,1-1.316.282c-1.8,0-3.786-1.437-4.84-3.737a7.306,7.306,0,0,1-.685-3.02,5.153,5.153,0,0,1,.542-2.388,3.306,3.306,0,0,1,1.543-1.51h0l3.777-1.773,4.163,8.653.344,1.18.11-.032-.065-.095Z" transform="translate(-31.94 -11.428)"/>
        <path id="Trazado_1673" data-name="Trazado 1673" d="M216.719,990.542c1.26,2.748.646,5.726-1.37,6.65s-4.673-.555-5.932-3.3-.646-5.725,1.369-6.65S215.459,987.794,216.719,990.542Z" transform="translate(-36.442 -11.293)" fill="#e8e7e7"/>
        <path id="Trazado_1674" data-name="Trazado 1674" d="M216.594,990.417l-.1.047a6.861,6.861,0,0,1,.644,2.839,4.846,4.846,0,0,1-.509,2.243,3.108,3.108,0,0,1-1.449,1.417,2.947,2.947,0,0,1-1.236.264c-1.688,0-3.556-1.349-4.546-3.511a6.863,6.863,0,0,1-.644-2.838,4.832,4.832,0,0,1,.509-2.242,3.1,3.1,0,0,1,1.448-1.418,2.948,2.948,0,0,1,1.236-.264c1.688,0,3.555,1.348,4.545,3.51l.1-.047.1-.048c-1.021-2.224-2.943-3.641-4.754-3.644a3.176,3.176,0,0,0-1.331.285,3.33,3.33,0,0,0-1.556,1.519,5.067,5.067,0,0,0-.535,2.349,7.1,7.1,0,0,0,.665,2.935c1.021,2.224,2.943,3.641,4.754,3.644a3.169,3.169,0,0,0,1.331-.286,3.336,3.336,0,0,0,1.556-1.519,5.075,5.075,0,0,0,.535-2.349,7.1,7.1,0,0,0-.665-2.934Z" transform="translate(-36.317 -11.168)"/>
        <path id="Trazado_1675" data-name="Trazado 1675" d="M218.654,991.943c.913,1.993.563,4.109-.786,4.726s-3.18-.5-4.094-2.49-.562-4.11.785-4.727S217.74,989.95,218.654,991.943Z" transform="translate(-38.793 -12.503)" fill="#f1f2f2"/>
        <path id="Trazado_1676" data-name="Trazado 1676" d="M200.663,995.536a.115.115,0,0,1-.047-.219l3.736-1.69a.114.114,0,0,1,.094.208l-3.736,1.69Z" transform="translate(-32.155 -14.766)"/>
        <path id="Trazado_1677" data-name="Trazado 1677" d="M201.221,1001.952a.114.114,0,0,1-.047-.218l3.954-1.78a.115.115,0,1,1,.094.209l-3.954,1.78Z" transform="translate(-32.446 -18.069)"/>
        <path id="Trazado_1678" data-name="Trazado 1678" d="M203.827,1006.727a.114.114,0,0,1-.056-.214l3.861-2.179a.115.115,0,1,1,.113.2l-3.861,2.178Z" transform="translate(-33.806 -20.352)"/>
        <path id="Trazado_1679" data-name="Trazado 1679" d="M208.636,1010.741a.114.114,0,0,1-.062-.21l3.661-2.379a.115.115,0,0,1,.125.192l-3.661,2.38A.115.115,0,0,1,208.636,1010.741Z" transform="translate(-36.316 -22.343)"/>
      </g>
    </g>
  </g>
</svg>
