<svg xmlns="http://www.w3.org/2000/svg" xmlns:xlink="http://www.w3.org/1999/xlink" width="123" height="118" viewBox="0 0 123 118">
  <defs>
    <clipPath id="clip-path">
      <path id="SVGID" d="M-41.937,289.574v13.685a.639.639,0,0,0-.007.076.681.681,0,0,0,.007.078v.064h.007c.461,2.56,13.376,5.226,29.243,5.226s28.782-2.666,29.244-5.226h.008v-.067c0-.025,0-.049,0-.075s0-.05,0-.073V290.956A76.611,76.611,0,0,0-41.937,289.574Z" transform="translate(41.944 -284.441)" fill="none"/>
    </clipPath>
  </defs>
  <g id="Grupo_1113" data-name="Grupo 1113" transform="translate(-33 -321)">
    <g id="Grupo_1048" data-name="Grupo 1048">
      <g id="Elipse_25" data-name="Elipse 25" transform="translate(33 321)" fill="#fff" stroke="#707070" stroke-width="1">
        <ellipse cx="61.5" cy="59" rx="61.5" ry="59" stroke="none"/>
        <ellipse cx="61.5" cy="59" rx="61" ry="58.5" fill="none"/>
      </g>
      <g id="Grupo_819" data-name="Grupo 819" transform="translate(107.636 142.758)">
        <g id="Grupo_814" data-name="Grupo 814" transform="translate(-42.636 205.189)">
          <g id="Grupo_772" data-name="Grupo 772" transform="translate(0 58.275)">
            <path id="Trazado_2044" data-name="Trazado 2044" d="M16.719,314.064l0-1.492h-.8c-3.094-2.631-14.845-4.59-28.87-4.59-14.044,0-25.807,1.964-28.882,4.6h-.795v1.438h.012c.183,3.266,13.393,5.9,29.666,5.9,16.167,0,29.315-2.6,29.66-5.837Z" transform="translate(42.636 -306.613)" fill="#7e8286"/>
            <path id="Trazado_2045" data-name="Trazado 2045" d="M35.358,312.572h-.8c-3.094-2.631-14.845-4.59-28.87-4.59-.305,0-.606,0-.907,0v11.929c.3,0,.6,0,.907,0,16.167,0,29.315-2.6,29.66-5.837l.018-.017Z" transform="translate(23.994 -306.613)" fill="#8c959d" opacity="0.5" style="mix-blend-mode: multiply;isolation: isolate"/>
            <path id="Trazado_2046" data-name="Trazado 2046" d="M16.716,311.693c0,3.3-13.284,5.971-29.669,5.971s-29.667-2.674-29.667-5.971,13.281-5.967,29.667-5.967,29.669,2.672,29.669,5.967Z" transform="translate(42.63 -305.726)" fill="#5b606c"/>
          </g>
          <g id="Grupo_774" data-name="Grupo 774" transform="translate(0.42 0)">
            <path id="Trazado_2047" data-name="Trazado 2047" d="M16.566,274.019c0-.025,0-.049,0-.075s0-.05,0-.073v-64.18h-58.5v64.177a.64.64,0,0,0-.007.076.681.681,0,0,0,.007.078v.064h.007c.461,2.56,13.376,5.226,29.243,5.226s28.782-2.666,29.244-5.226h.008Z" transform="translate(41.944 -209.691)" fill="#ffe700"/>
            <g id="Grupo_773" data-name="Grupo 773" transform="translate(0 14.506)">
              <path id="Trazado_2048" data-name="Trazado 2048" d="M-41.944,233.674a.683.683,0,0,0,.007.077V233.6A.638.638,0,0,0-41.944,233.674Z" transform="translate(41.944 -233.597)" fill="#fc8a07"/>
              <path id="Trazado_2049" data-name="Trazado 2049" d="M54.482,233.676c0-.025,0-.05,0-.075v.149C54.478,233.724,54.482,233.7,54.482,233.676Z" transform="translate(4.032 -233.599)" fill="#fc8a07"/>
            </g>
          </g>
          <g id="Grupo_775" data-name="Grupo 775" transform="translate(0.42 14.506)">
            <path id="Trazado_2050" data-name="Trazado 2050" d="M16.57,290.1v-1.314a76.607,76.607,0,0,0-58.5-1.383v1.316A76.611,76.611,0,0,1,16.57,290.1Z" transform="translate(41.94 -252.736)" fill="#fc3007"/>
            <path id="Trazado_2051" data-name="Trazado 2051" d="M-41.937,289.574v13.685a.639.639,0,0,0-.007.076.681.681,0,0,0,.007.078v.064h.007c.461,2.56,13.376,5.226,29.243,5.226s28.782-2.666,29.244-5.226h.008v-.067c0-.025,0-.049,0-.075s0-.05,0-.073V290.956A76.611,76.611,0,0,0-41.937,289.574Z" transform="translate(41.944 -253.588)" fill="#fc3007"/>
            <path id="Trazado_2052" data-name="Trazado 2052" d="M-41.944,233.674a.683.683,0,0,0,.007.077V233.6A.638.638,0,0,0-41.944,233.674Z" transform="translate(41.944 -233.597)" fill="#fc8a07"/>
            <path id="Trazado_2053" data-name="Trazado 2053" d="M54.482,233.676c0-.025,0-.05,0-.075v.149C54.478,233.724,54.482,233.7,54.482,233.676Z" transform="translate(4.032 -233.599)" fill="#fc8a07"/>
          </g>
          <g id="Grupo_803" data-name="Grupo 803" transform="translate(0.42 45.359)">
            <g id="Grupo_802" data-name="Grupo 802" clip-path="url(#clip-path)">
              <path id="Trazado_2054" data-name="Trazado 2054" d="M14.91,307.755c0,6.079-11.141,11.007-24.886,11.007s-24.883-4.928-24.883-11.007,11.142-11.006,24.883-11.006S14.91,301.677,14.91,307.755Z" transform="translate(39.159 -289.28)" fill="#db8305"/>
              <g id="Grupo_801" data-name="Grupo 801" transform="translate(1.821 1.947)">
                <path id="Trazado_2055" data-name="Trazado 2055" d="M-26.313,297.591s-4.873-4.587-3.04-6.02,5.791-2.867,6.594-.919S-22.529,300.284-26.313,297.591Z" transform="translate(35.334 -288.458)" fill="#ff9d00"/>
                <path id="Trazado_2056" data-name="Trazado 2056" d="M-35.258,302.292a3.245,3.245,0,0,0-2.751,1.663c-.689,1.605-1.434,2.924.113,3.9s6.652.172,7.052-2.064S-31.588,301.948-35.258,302.292Z" transform="translate(38.889 -293.389)" fill="#ff9d00"/>
                <g id="Grupo_776" data-name="Grupo 776" transform="translate(0.467 12.238)">
                  <path id="Trazado_2057" data-name="Trazado 2057" d="M-32.1,307.872s-3.369-.466-5.033,1.312-1.089,3.152,0,4.127,3.784,2.408,5.044,2.064S-29.415,308.682-32.1,307.872Z" transform="translate(38.172 -307.817)" fill="#ffb600"/>
                  <path id="Trazado_2058" data-name="Trazado 2058" d="M-34.941,316.494l.138.087c.086.058.217.13.368.219.078.038.16.088.249.132s.186.09.284.135.205.086.309.13.215.076.324.109a2.985,2.985,0,0,0,.331.082,2.542,2.542,0,0,0,.326.051,2.176,2.176,0,0,0,.309.018,1.813,1.813,0,0,0,.28-.011c.086-.01.165-.015.237-.022l.181-.039c.1-.021.163-.032.163-.032s-.052.029-.148.075l-.174.079c-.07.024-.149.047-.237.071a1.437,1.437,0,0,1-.292.05,1.6,1.6,0,0,1-.331.013,2.115,2.115,0,0,1-.353-.033c-.121-.015-.236-.055-.357-.081a3.527,3.527,0,0,1-.658-.28,3.362,3.362,0,0,1-.516-.339,3.586,3.586,0,0,1-.323-.292A1.073,1.073,0,0,1-34.941,316.494Z" transform="translate(36.902 -311.229)" fill="#ffc900" style="mix-blend-mode: multiply;isolation: isolate"/>
                </g>
                <path id="Trazado_2059" data-name="Trazado 2059" d="M33.093,294.882s.98-1.775,4.187-.5,3.374,2.362,2.626,3.334S31.13,298.945,33.093,294.882Z" transform="translate(10.74 -290.115)" fill="#ff9d00"/>
                <path id="Trazado_2060" data-name="Trazado 2060" d="M26.269,295.465s2.813-1.109,3.786-.962,3.232,1.932,3.23,3.078-3.677,2.2-5.483,1.989S23.713,296.86,26.269,295.465Z" transform="translate(13.751 -290.339)" fill="#ffb600"/>
                <g id="Grupo_777" data-name="Grupo 777" transform="translate(47.148 5.809)">
                  <path id="Trazado_2061" data-name="Trazado 2061" d="M39.21,300.607s1.357-3.09,2.506-3.345,3.064.811,3.835,1.389.366,2.123-.5,3.553-2.332,3.087-4.192,2.621S38.17,302.926,39.21,300.607Z" transform="translate(-38.756 -297.223)" fill="#ffb600"/>
                  <path id="Trazado_2062" data-name="Trazado 2062" d="M47.235,301.224a1.009,1.009,0,0,1-.016.153,2.926,2.926,0,0,1-.1.4,3.5,3.5,0,0,1-.241.526c-.055.092-.106.189-.166.281s-.133.18-.2.271-.135.183-.215.26-.155.154-.231.229-.149.145-.22.21-.15.114-.218.164c-.135.1-.256.173-.335.229s-.129.081-.129.081.035-.044.1-.116.158-.177.274-.294c.059-.058.122-.121.189-.187s.124-.15.191-.226.137-.158.212-.235.13-.171.2-.255.133-.171.2-.256.117-.177.175-.259a2.8,2.8,0,0,0,.158-.248c.046-.081.092-.157.133-.228.072-.146.147-.265.179-.356S47.235,301.224,47.235,301.224Z" transform="translate(-41.275 -298.796)" fill="#ffc900" style="mix-blend-mode: multiply;isolation: isolate"/>
                </g>
                <path id="Trazado_2063" data-name="Trazado 2063" d="M38.718,315.347a3.858,3.858,0,0,0-2.9,3.515c-.306,2.828,5.2,1.529,7.337.076S43.076,314.429,38.718,315.347Z" transform="translate(9.553 -298.474)" fill="#ff9d00"/>
                <path id="Trazado_2064" data-name="Trazado 2064" d="M44.636,306.511a6.035,6.035,0,0,1,4.205,2.676c1.757,2.521-1.071,4.967-4.205,4.509S40.049,306.74,44.636,306.511Z" transform="translate(7.228 -295.066)" fill="#ffc900"/>
                <g id="Grupo_778" data-name="Grupo 778" transform="translate(15.786 15.848)">
                  <path id="Trazado_2065" data-name="Trazado 2065" d="M-11.552,314.829a2.83,2.83,0,0,0-1.109,3.63c.993,2.447,5.122,2.523,6.575,1.034S-3.3,315.4-4.749,314.37-9.64,313.721-11.552,314.829Z" transform="translate(12.928 -313.767)" fill="#ffb600"/>
                  <path id="Trazado_2066" data-name="Trazado 2066" d="M-9.968,321s.047.032.129.08a2.924,2.924,0,0,0,.356.177,2.956,2.956,0,0,0,.521.175,2.642,2.642,0,0,0,.615.079,3.042,3.042,0,0,0,.316-.008l.3-.042c.1-.025.194-.046.284-.067s.17-.057.249-.081.15-.047.21-.076.117-.047.16-.067c.09-.037.144-.056.144-.056s-.041.036-.12.095l-.145.106a1.138,1.138,0,0,1-.2.118,1.892,1.892,0,0,1-.246.123c-.092.033-.19.072-.293.1s-.214.051-.327.066a2.916,2.916,0,0,1-.343.016A2.309,2.309,0,0,1-8.7,321.7a2.255,2.255,0,0,1-.323-.083,2.224,2.224,0,0,1-.288-.115c-.087-.046-.169-.09-.239-.137a2.058,2.058,0,0,1-.319-.259A.868.868,0,0,1-9.968,321Z" transform="translate(11.764 -316.609)" fill="#ffb600" style="mix-blend-mode: multiply;isolation: isolate"/>
                </g>
                <g id="Grupo_779" data-name="Grupo 779" transform="translate(0 3.875)">
                  <path id="Trazado_2067" data-name="Trazado 2067" d="M-30.553,298.72s-.171-1.72-2.809-3.956c-2.522-1.891-4.873.343-5.446,1.72a2.007,2.007,0,0,0,1.319,2.751,19.506,19.506,0,0,0,5.217.632C-30.952,299.7-30.438,299.581-30.553,298.72Z" transform="translate(38.942 -294.036)" fill="#ffb600"/>
                  <path id="Trazado_2068" data-name="Trazado 2068" d="M-35.167,301.191s.063.022.174.051c.057.015.122.038.2.053s.167.034.262.058.2.033.309.057.223.044.345.055.244.026.37.042a2.865,2.865,0,0,0,.382.024l.385.023.372-.012c.122,0,.24,0,.35-.007a2.657,2.657,0,0,0,.313-.026c.195-.022.358-.03.473-.042l.182-.011s-.061.023-.172.055-.269.081-.463.129a1.858,1.858,0,0,1-.314.067l-.356.038c-.126.01-.254.029-.385.032s-.265-.01-.4-.015a3.282,3.282,0,0,1-.394-.033c-.13-.019-.258-.046-.381-.064a2.844,2.844,0,0,1-.349-.087c-.109-.032-.212-.059-.306-.1s-.178-.072-.252-.1-.136-.068-.188-.094A1.177,1.177,0,0,1-35.167,301.191Z" transform="translate(37.458 -296.85)" fill="#ffc900"/>
                </g>
                <g id="Grupo_781" data-name="Grupo 781" transform="translate(35.645 15.515)">
                  <path id="Trazado_2069" data-name="Trazado 2069" d="M20.839,315.088a12.351,12.351,0,0,0-1.026,3.347c-.267,1.834,3.594,1.95,4.626.612S27,316.1,27.572,315.455s.5-1.569-1.262-1.95S22.093,312.737,20.839,315.088Z" transform="translate(-19.799 -313.218)" fill="#ffb600"/>
                  <g id="Grupo_780" data-name="Grupo 780" transform="translate(1.391 2.274)">
                    <path id="Trazado_2070" data-name="Trazado 2070" d="M22.091,321.6l.364.069a5.39,5.39,0,0,0,.779.095c.072,0,.141,0,.209,0s.138,0,.2-.014.129-.012.188-.029a1.631,1.631,0,0,0,.166-.038c.05-.016.1-.029.141-.041l.106-.042c.063-.024.1-.035.1-.035s-.025.027-.073.075a1.01,1.01,0,0,1-.223.166.89.89,0,0,1-.169.081,1.2,1.2,0,0,1-.2.063,1.838,1.838,0,0,1-.452.042,2.11,2.11,0,0,1-.447-.066,2.056,2.056,0,0,1-.365-.132A1.464,1.464,0,0,1,22.091,321.6Z" transform="translate(-22.091 -318.775)" fill="#ffb600" style="mix-blend-mode: multiply;isolation: isolate"/>
                    <path id="Trazado_2071" data-name="Trazado 2071" d="M28.2,318.877a1.873,1.873,0,0,1,.109-.37,2.727,2.727,0,0,1,.166-.36c.065-.129.154-.256.237-.388.048-.06.1-.121.144-.18a1.726,1.726,0,0,1,.15-.167,3.922,3.922,0,0,1,.3-.261,3.109,3.109,0,0,1,.344-.185,3.439,3.439,0,0,1-.255.283c-.036.04-.07.092-.113.141s-.081.1-.126.154-.082.116-.129.172l-.133.177c-.082.123-.171.242-.252.357s-.157.222-.219.317C28.295,318.752,28.2,318.877,28.2,318.877Z" transform="translate(-24.493 -316.966)" fill="#ffb600" style="mix-blend-mode: multiply;isolation: isolate"/>
                  </g>
                </g>
                <g id="Grupo_782" data-name="Grupo 782" transform="translate(29.37 13.432)">
                  <path id="Trazado_2072" data-name="Trazado 2072" d="M14.505,309.787s-2.18-.116-3.84,2.635-1.663,4.3.345,4.7,4.871-1.664,5.9-2.81S18.06,310.13,14.505,309.787Z" transform="translate(-9.458 -309.786)" fill="#ff9d00"/>
                  <path id="Trazado_2073" data-name="Trazado 2073" d="M10.786,318.78a2.612,2.612,0,0,0,.45.219c.069.03.147.049.227.076a2.176,2.176,0,0,0,.254.057l.137.021c.047,0,.093.006.14.011a2.128,2.128,0,0,0,.285,0c.1-.008.191-.022.285-.035s.186-.04.274-.065.169-.058.25-.084l.222-.095c.139-.052.245-.121.328-.158l.128-.062s-.039.036-.1.1a1.855,1.855,0,0,1-.29.235,2.383,2.383,0,0,1-.214.134c-.082.04-.167.082-.258.121s-.192.063-.292.09-.209.036-.314.047a2.422,2.422,0,0,1-.319-.007,1.553,1.553,0,0,1-.3-.055,1.834,1.834,0,0,1-.5-.213A1.382,1.382,0,0,1,10.786,318.78Z" transform="translate(-9.98 -313.277)" fill="#ffc900" style="mix-blend-mode: multiply;isolation: isolate"/>
                </g>
                <path id="Trazado_2074" data-name="Trazado 2074" d="M27.707,299.216a7.639,7.639,0,0,0-1.357,3.177c-.206,1.661,1.1,3.9,4.635,2.625s5.543-3.937,4.288-5.146S29.811,295.984,27.707,299.216Z" transform="translate(13.278 -291.593)" fill="#ffc900"/>
                <path id="Trazado_2075" data-name="Trazado 2075" d="M-10.2,298.138s-3.1,1.3-3.822-.8-1.606-6.191,1.338-6.536c2.407-.192,3.555.153,3.592,2.9S-9.127,297.6-10.2,298.138Z" transform="translate(29.424 -288.871)" fill="#ffc900"/>
                <g id="Grupo_783" data-name="Grupo 783" transform="translate(32.862 10.624)">
                  <path id="Trazado_2076" data-name="Trazado 2076" d="M17.6,311.314c-1.643-.24-2.1-.915-2.155-1.5a7.359,7.359,0,0,0-.227,1.666c-.153,1.108,2.56,1.835,5.5,2.293s3.594.267,4.013-1.834l.025-.083C23.5,312.55,20.348,311.716,17.6,311.314Z" transform="translate(-15.214 -306.987)" fill="#ffc900"/>
                  <path id="Trazado_2077" data-name="Trazado 2077" d="M24.735,305.252a11.249,11.249,0,0,0-2.138-.076,24.808,24.808,0,0,0-5.5,1.452A2.556,2.556,0,0,0,15.6,307.98c.059.589.513,1.265,2.155,1.5,2.745.4,5.9,1.236,7.16.538C25.425,308.257,25.45,305.4,24.735,305.252Z" transform="translate(-15.365 -305.157)" fill="#ffe700"/>
                </g>
                <g id="Grupo_785" data-name="Grupo 785" transform="translate(18.299 0.777)">
                  <path id="Trazado_2078" data-name="Trazado 2078" d="M-8.623,292.76s.709,1.652,1.419,3.07A2.583,2.583,0,0,0-4.182,297.3c1.277-.141,2.033-.992,2.459-3.26s1.038-4.866-.567-5.056A8.255,8.255,0,0,0-7.867,290.4,1.85,1.85,0,0,0-8.623,292.76Z" transform="translate(8.786 -288.93)" fill="#ffe700"/>
                  <g id="Grupo_784" data-name="Grupo 784" transform="translate(0.756 2.336)" style="mix-blend-mode: multiply;isolation: isolate">
                    <path id="Trazado_2079" data-name="Trazado 2079" d="M-7.541,292.779s.027.056.07.154l.171.411c.071.171.149.37.227.584l.254.672c.039.115.08.231.12.343s.072.229.113.336c.083.211.157.413.215.587s.1.321.138.424.047.163.047.163-.035-.051-.087-.144-.133-.225-.217-.39-.186-.357-.286-.567-.172-.444-.26-.674-.167-.464-.229-.686-.117-.43-.16-.609C-7.509,293.023-7.541,292.779-7.541,292.779Z" transform="translate(7.541 -292.779)" fill="#ffc900"/>
                    <path id="Trazado_2080" data-name="Trazado 2080" d="M-3.912,300.87s.129,0,.31,0c.09,0,.2,0,.308.005s.232.006.349,0,.237,0,.348-.013.219,0,.308-.02a2.424,2.424,0,0,1,.308-.022,1.955,1.955,0,0,1-.277.15,1.592,1.592,0,0,1-.313.093.879.879,0,0,1-.18.029l-.189.013a3.006,3.006,0,0,1-.37-.026A2.071,2.071,0,0,1-3.624,301,1.221,1.221,0,0,1-3.912,300.87Z" transform="translate(6.114 -295.94)" fill="#ffc900"/>
                    <path id="Trazado_2081" data-name="Trazado 2081" d="M-4.633,301.042a.429.429,0,0,1,.059.1.491.491,0,0,1,.046.2.625.625,0,0,1-.031.2c-.025.064-.042.106-.042.106a.294.294,0,0,1-.029-.016.285.285,0,0,1-.061-.064.424.424,0,0,1-.066-.22.488.488,0,0,1,.052-.217A.357.357,0,0,1-4.633,301.042Z" transform="translate(6.446 -296.028)" fill="#ffc900"/>
                  </g>
                  <path id="Trazado_2082" data-name="Trazado 2082" d="M-4.287,292.069c0,.445-.256.8-.573.8s-.573-.36-.573-.8.257-.8.573-.8S-4.287,291.626-4.287,292.069Z" transform="translate(7.468 -289.849)" fill="#fff" style="mix-blend-mode: screen;isolation: isolate"/>
                  <path id="Trazado_2083" data-name="Trazado 2083" d="M-3.937,295.423c0,.243-.14.44-.313.44s-.314-.2-.314-.44.14-.439.314-.439S-3.937,295.181-3.937,295.423Z" transform="translate(7.126 -291.31)" fill="#fff" style="mix-blend-mode: screen;isolation: isolate"/>
                </g>
                <g id="Grupo_787" data-name="Grupo 787" transform="translate(24.967)">
                  <path id="Trazado_2084" data-name="Trazado 2084" d="M5.24,288.336a21.7,21.7,0,0,0-2.341,3.2c-.958,1.661-.958,2.744.2,3.246s1.787.228,4-.856,3.9-1.687,4.406-2.569.63-1.208-1.058-2.164S7.025,286.774,5.24,288.336Z" transform="translate(-2.203 -287.65)" fill="#ffc900"/>
                  <g id="Grupo_786" data-name="Grupo 786" transform="translate(1.136 3.199)" style="mix-blend-mode: multiply;isolation: isolate">
                    <path id="Trazado_2085" data-name="Trazado 2085" d="M4.076,297.08s.09.059.223.127a1.954,1.954,0,0,0,.227.1,1.274,1.274,0,0,0,.262.069,1.962,1.962,0,0,0,.272.027c.087,0,.172,0,.249-.013s.138-.014.183-.016l.075,0s-.019.017-.056.045a.7.7,0,0,1-.167.1,1.027,1.027,0,0,1-.268.086c-.05,0-.106.013-.159.013a1.563,1.563,0,0,1-.167-.013,1.018,1.018,0,0,1-.309-.112.924.924,0,0,1-.221-.177A.632.632,0,0,1,4.076,297.08Z" transform="translate(-4.076 -294.556)" fill="#ffc900"/>
                    <path id="Trazado_2086" data-name="Trazado 2086" d="M10.076,294.7s.227-.166.587-.378c.178-.11.394-.226.625-.348s.485-.238.737-.358.514-.22.759-.308.48-.167.683-.226.373-.09.493-.12.187-.039.187-.039-.064.032-.174.082-.269.123-.463.2c-.377.168-.883.4-1.39.62l-.744.331c-.236.1-.462.2-.652.283s-.356.145-.467.19Z" transform="translate(-6.435 -292.921)" fill="#ffc900"/>
                  </g>
                  <path id="Trazado_2087" data-name="Trazado 2087" d="M9.384,289.713a.394.394,0,0,1-.529.11.465.465,0,1,1,.529-.11Z" transform="translate(-4.788 -288.225)" fill="#ffc900" opacity="0.5" style="mix-blend-mode: screen;isolation: isolate"/>
                </g>
                <g id="Grupo_790" data-name="Grupo 790" transform="translate(31.774 2.197)">
                  <path id="Trazado_2088" data-name="Trazado 2088" d="M13.422,294.859a3.907,3.907,0,0,0,.7,2.314c.772,1.006,1.342,1.308,3.79,1.141s4.729-.336,4.964-1.61a10.517,10.517,0,0,0-.7-4.662c-.471-1.14-1.343-.737-2.651-.536a22.613,22.613,0,0,0-4.829,1.946C13.792,293.921,13.456,294.321,13.422,294.859Z" transform="translate(-13.421 -291.27)" fill="#ffe700"/>
                  <g id="Grupo_788" data-name="Grupo 788" transform="translate(0.805 4.092)" style="mix-blend-mode: multiply;isolation: isolate">
                    <path id="Trazado_2089" data-name="Trazado 2089" d="M14.748,298.013s.082.152.211.36c.069.1.147.224.238.342.042.063.1.117.145.179s.106.118.166.171a2.154,2.154,0,0,0,.361.284,1.3,1.3,0,0,0,.186.1,1.382,1.382,0,0,0,.177.078c.057.019.109.044.157.058l.127.032c.071.023.112.035.112.035s-.042.006-.117.013l-.135.007a1.412,1.412,0,0,1-.177-.016.863.863,0,0,1-.206-.047c-.036-.01-.075-.022-.113-.035s-.072-.034-.109-.052a1.1,1.1,0,0,1-.219-.129,1.846,1.846,0,0,1-.205-.167,2.218,2.218,0,0,1-.317-.4,2.119,2.119,0,0,1-.188-.4A1.68,1.68,0,0,1,14.748,298.013Z" transform="translate(-14.748 -298.013)" fill="#ffc900"/>
                    <path id="Trazado_2090" data-name="Trazado 2090" d="M20.332,300.318l.2-.03.516-.073.732-.087.837-.087c.285-.022.568-.063.836-.083s.515-.062.731-.078.389-.056.513-.071.2-.025.2-.025-.067.027-.187.069c-.059.02-.133.044-.217.073a2.028,2.028,0,0,1-.286.083c-.211.046-.459.111-.726.149s-.553.083-.842.109l-.428.038c-.141.013-.282.016-.414.025-.27.013-.524.018-.741.016s-.4-.012-.522-.013S20.332,300.318,20.332,300.318Z" transform="translate(-16.944 -298.709)" fill="#ffc900"/>
                  </g>
                  <g id="Grupo_789" data-name="Grupo 789" transform="translate(2.264 1.381)" style="mix-blend-mode: screen;isolation: isolate">
                    <path id="Trazado_2091" data-name="Trazado 2091" d="M20.684,294.689a.719.719,0,0,1-.959-.235c-.117-.294.122-.666.533-.831a.72.72,0,0,1,.959.236C21.333,294.153,21.1,294.526,20.684,294.689Z" transform="translate(-18.152 -293.546)" fill="#fff"/>
                    <path id="Trazado_2092" data-name="Trazado 2092" d="M17.729,296.3a.393.393,0,0,1-.539-.026c-.095-.146,0-.371.2-.5a.332.332,0,1,1,.34.529Z" transform="translate(-17.152 -294.387)" fill="#fff"/>
                  </g>
                </g>
                <g id="Grupo_791" data-name="Grupo 791" transform="translate(43.906 11.932)">
                  <path id="Trazado_2093" data-name="Trazado 2093" d="M36.082,308.247a4.172,4.172,0,0,0-2.668,3.627c.051,1.761,1.294,2.408,3.523,1.709s5.31-2.357,4.868-3.523-2.564-2.979-3.574-2.721A10.639,10.639,0,0,0,36.082,308.247Z" transform="translate(-33.414 -307.314)" fill="#ffe700"/>
                  <path id="Trazado_2094" data-name="Trazado 2094" d="M34.451,314.935s.038.024.107.059a2.86,2.86,0,0,0,.289.126c.062.016.126.041.2.056s.148.033.225.05.16.019.243.031a4.032,4.032,0,0,0,.5.009c.086-.012.169-.006.249-.021l.231-.027c.074-.013.143-.025.208-.033.132-.018.24-.049.318-.059l.121-.018-.109.062a1.769,1.769,0,0,1-.294.14,2.242,2.242,0,0,1-.445.137,2,2,0,0,1-.261.04,2.283,2.283,0,0,1-.275.015,2.1,2.1,0,0,1-.536-.077,1.7,1.7,0,0,1-.433-.185,1.329,1.329,0,0,1-.261-.205A.727.727,0,0,1,34.451,314.935Z" transform="translate(-33.822 -310.31)" fill="#ffc900"/>
                </g>
                <g id="Grupo_792" data-name="Grupo 792" transform="translate(21.915 13.765)">
                  <path id="Trazado_2095" data-name="Trazado 2095" d="M-2.823,312.925a4.29,4.29,0,0,0,1.146,2.839c1.291,1.664,1.864,2.064,3.527,1.834,1.288-.2,1.374-1.289,1.719-3.441s.23-3.64-1.118-3.783S-2.708,310.346-2.823,312.925Z" transform="translate(2.828 -310.335)" fill="#ffc900"/>
                  <path id="Trazado_2096" data-name="Trazado 2096" d="M.11,319.611a1.1,1.1,0,0,0,.087.081,2.555,2.555,0,0,0,.249.174,1.948,1.948,0,0,0,.178.087,2.045,2.045,0,0,0,.205.076c.072.022.149.039.227.056a1.771,1.771,0,0,0,.24.03,1.651,1.651,0,0,0,.244.013c.08,0,.162,0,.237-.009s.154-.007.226-.018.14-.019.2-.027c.127-.015.231-.038.308-.048s.12-.013.12-.013l-.1.057a2.114,2.114,0,0,1-.29.131,2.14,2.14,0,0,1-.436.117,1.974,1.974,0,0,1-.525.026,2.073,2.073,0,0,1-.268-.042,1.949,1.949,0,0,1-.248-.082,1.3,1.3,0,0,1-.217-.117,1.246,1.246,0,0,1-.174-.132,1.2,1.2,0,0,1-.206-.249A.626.626,0,0,1,.11,319.611Z" transform="translate(1.673 -313.982)" fill="#ffc900" style="mix-blend-mode: multiply;isolation: isolate"/>
                </g>
                <g id="Grupo_795" data-name="Grupo 795" transform="translate(24.533 7.147)">
                  <path id="Trazado_2097" data-name="Trazado 2097" d="M1.856,303.19s.944,1.491,2.263,3.209,2.063,1.749,3.469,1.435a2.692,2.692,0,0,0,2.206-2.9c-.027-1.548-.083-5.417-2.578-5.5s-5.132.66-5.59,1.749A2.28,2.28,0,0,0,1.856,303.19Z" transform="translate(-1.488 -299.428)" fill="#ffe700"/>
                  <g id="Grupo_793" data-name="Grupo 793" transform="translate(0.884 2.788)" style="mix-blend-mode: multiply;isolation: isolate">
                    <path id="Trazado_2098" data-name="Trazado 2098" d="M2.944,304.023s.069.107.192.292.3.451.519.765c.109.157.229.325.357.5s.272.353.421.539.31.367.482.544a3.361,3.361,0,0,0,.548.47,2.1,2.1,0,0,0,.677.249,4.142,4.142,0,0,0,.714.057,6.584,6.584,0,0,0,.678-.035c.215-.02.417-.051.606-.084a8.764,8.764,0,0,0,.9-.206c.212-.063.331-.11.331-.11a2.635,2.635,0,0,1-.317.153c-.1.044-.231.09-.38.142s-.316.1-.5.147-.393.089-.61.126a5,5,0,0,1-.7.07A3.9,3.9,0,0,1,6.1,307.6a2.337,2.337,0,0,1-.747-.264,3.567,3.567,0,0,1-.6-.519,6.886,6.886,0,0,1-.48-.572,12.694,12.694,0,0,1-.728-1.094c-.2-.329-.345-.613-.448-.812S2.944,304.023,2.944,304.023Z" transform="translate(-2.944 -304.023)" fill="#ffc900"/>
                    <path id="Trazado_2099" data-name="Trazado 2099" d="M8.347,310.874s.026.061.05.137c.01.04.026.084.034.13s.015.1.03.142.012.1.019.143,0,.093.01.13a.7.7,0,0,1,0,.146.445.445,0,0,1-.122-.092.462.462,0,0,1-.084-.127.6.6,0,0,1-.052-.163A.612.612,0,0,1,8.265,311,.391.391,0,0,1,8.347,310.874Z" transform="translate(-5.021 -306.717)" fill="#ffc900"/>
                  </g>
                  <g id="Grupo_794" data-name="Grupo 794" transform="translate(2.078 0.969)" style="mix-blend-mode: screen;isolation: isolate">
                    <path id="Trazado_2100" data-name="Trazado 2100" d="M6.051,302.056c-.215.389-.612.579-.89.429a.717.717,0,0,1-.117-.98c.212-.388.61-.581.89-.428A.72.72,0,0,1,6.051,302.056Z" transform="translate(-4.913 -301.025)" fill="#fff"/>
                    <path id="Trazado_2101" data-name="Trazado 2101" d="M6.071,304.817c-.082.151-.236.225-.343.166a.276.276,0,0,1-.044-.378c.082-.15.235-.225.343-.167A.279.279,0,0,1,6.071,304.817Z" transform="translate(-5.196 -302.359)" fill="#fff"/>
                  </g>
                </g>
                <g id="Grupo_796" data-name="Grupo 796" transform="translate(4.858 7.266)">
                  <path id="Trazado_2102" data-name="Trazado 2102" d="M-25.623,299.624a6.88,6.88,0,0,0-3.067,1c-1.914,1.033-2.612,2.43-2.066,3.431s2.247,2.309,5.618,2.4,3.8-.97,3.766-2.7C-21.493,302.358-24.1,299.624-25.623,299.624Z" transform="translate(30.936 -299.624)" fill="#ffb600"/>
                  <path id="Trazado_2103" data-name="Trazado 2103" d="M-28.636,307.732l.3.064c.191.043.463.1.791.172s.709.153,1.117.238.844.178,1.281.251c.218.043.437.075.652.107s.427.059.631.066a2.821,2.821,0,0,0,.3.009,1.248,1.248,0,0,0,.279-.02c.042-.008.089-.013.129-.022l.13-.043.249-.08c.158-.055.308-.1.431-.146s.238-.087.326-.126l.205-.095.07-.039-.063.05c-.044.027-.108.07-.191.123s-.193.1-.314.166a3.63,3.63,0,0,1-.42.188l-.242.1-.129.051a1.408,1.408,0,0,1-.147.039,1.267,1.267,0,0,1-.306.044,1.775,1.775,0,0,1-.316.005c-.214,0-.431-.022-.654-.047s-.442-.06-.662-.1c-.442-.078-.879-.175-1.286-.28s-.782-.217-1.1-.31-.587-.191-.772-.254S-28.636,307.732-28.636,307.732Z" transform="translate(30.032 -302.812)" fill="#ffc900" style="mix-blend-mode: multiply;isolation: isolate"/>
                </g>
                <g id="Grupo_797" data-name="Grupo 797" transform="translate(8.9 3.095)">
                  <path id="Trazado_2104" data-name="Trazado 2104" d="M-24.2,295.394a13.36,13.36,0,0,0,3.082,4.757c.819.854,1.489.667,2.714.444s1.448-.928,1.412-2.972-.484-4.459-1.97-4.757a6.083,6.083,0,0,0-4.571.93A1.28,1.28,0,0,0-24.2,295.394Z" transform="translate(24.275 -292.75)" fill="#ffe700"/>
                  <path id="Trazado_2105" data-name="Trazado 2105" d="M-20.3,301.853l.13.147c.081.1.2.225.346.383s.318.334.512.508a3.354,3.354,0,0,0,.309.249,1.174,1.174,0,0,0,.341.177,1.986,1.986,0,0,0,.394.026c.137-.012.268-.008.4-.021.265-.018.513-.041.725-.059s.39-.033.516-.045.2-.014.2-.014-.272.092-.692.189c-.209.047-.456.093-.723.129-.134.019-.279.031-.424.041h-.211a.866.866,0,0,1-.24-.026,1.4,1.4,0,0,1-.408-.218,2.5,2.5,0,0,1-.319-.283,4.45,4.45,0,0,1-.473-.57c-.127-.175-.216-.332-.283-.439S-20.3,301.853-20.3,301.853Z" transform="translate(22.712 -296.329)" fill="#ffc900"/>
                </g>
                <g id="Grupo_798" data-name="Grupo 798" transform="translate(6.199 13.113)">
                  <path id="Trazado_2106" data-name="Trazado 2106" d="M-26.3,309.7a15.061,15.061,0,0,0-2.065,2.55c-.76,1.276-.455,2.4,2.338,3.1s7.715.516,8.291-.03a1.7,1.7,0,0,0-.365-2.673C-19.317,311.7-24.36,308-26.3,309.7Z" transform="translate(28.726 -309.26)" fill="#ffc900"/>
                  <path id="Trazado_2107" data-name="Trazado 2107" d="M-26.884,316.292l.3.062c.189.046.465.088.791.154.163.036.342.058.53.09s.385.068.592.1l.635.089c.215.037.434.058.657.079s.439.049.657.075.43.032.637.05.409.032.6.049.371.022.536.026c.334.006.611.026.806.033l.306.018s-.112.011-.305.026-.473.038-.808.053c-.167.007-.348.018-.542.01s-.394-.007-.6-.014-.427-.006-.646-.031l-.663-.067c-.223-.024-.445-.049-.661-.088l-.638-.11c-.208-.031-.4-.088-.592-.129s-.363-.082-.524-.128A10.218,10.218,0,0,1-26.884,316.292Z" transform="translate(28.002 -312.025)" fill="#ffc900" style="mix-blend-mode: multiply;isolation: isolate"/>
                </g>
                <g id="Grupo_800" data-name="Grupo 800" transform="translate(13.814 8.864)">
                  <path id="Trazado_2108" data-name="Trazado 2108" d="M-12.521,303.765a43.134,43.134,0,0,0-3.451,4.584,2.044,2.044,0,0,0,1.844,2.931c1.654.048,6.568-1.37,7.56-3.023s.757-3.026-.944-4.586S-10.2,301.45-12.521,303.765Z" transform="translate(16.177 -302.257)" fill="#ffe700"/>
                  <g id="Grupo_799" data-name="Grupo 799" transform="translate(0.682 4.969)">
                    <path id="Trazado_2109" data-name="Trazado 2109" d="M-15.054,312.667s.058.055.162.144a5.181,5.181,0,0,0,.445.347,3.82,3.82,0,0,0,.678.391c.065.029.133.049.2.073s.14.038.21.053a1.359,1.359,0,0,0,.433.013c.156-.015.313-.032.467-.049s.3-.024.448-.05c.288-.038.559-.076.791-.106s.429-.055.566-.075.215-.026.215-.026l-.205.07c-.134.039-.322.1-.55.159s-.5.117-.793.177-.6.084-.917.126a1.571,1.571,0,0,1-.5-.022,1.975,1.975,0,0,1-.448-.161,2.912,2.912,0,0,1-.677-.471,3.993,3.993,0,0,1-.4-.419A1.858,1.858,0,0,1-15.054,312.667Z" transform="translate(15.054 -311.32)" fill="#ffc900"/>
                    <path id="Trazado_2110" data-name="Trazado 2110" d="M-3.53,311.421s.12-.078.3-.177c.09-.05.194-.107.307-.162s.235-.12.357-.177c.061-.03.121-.059.18-.087s.122-.052.178-.082c.112-.058.221-.107.315-.147a2.932,2.932,0,0,1,.313-.143,2.481,2.481,0,0,1-.242.254c-.081.067-.179.138-.288.213s-.232.133-.357.2-.252.114-.376.153a2.566,2.566,0,0,1-.341.1A1.928,1.928,0,0,1-3.53,311.421Z" transform="translate(10.523 -310.447)" fill="#ffc900"/>
                    <path id="Trazado_2111" data-name="Trazado 2111" d="M-12.553,315.4a.581.581,0,0,1,.046.141.954.954,0,0,1,0,.293.872.872,0,0,1-.093.28.526.526,0,0,1-.086.121.624.624,0,0,1-.044-.141.926.926,0,0,1-.005-.294.919.919,0,0,1,.093-.28A.511.511,0,0,1-12.553,315.4Z" transform="translate(14.144 -312.393)" fill="#ffc900"/>
                  </g>
                </g>
                <path id="Trazado_2112" data-name="Trazado 2112" d="M-20.649,294.9a.717.717,0,0,1-.283.945c-.3.1-.657-.153-.8-.572a.718.718,0,0,1,.282-.945C-21.152,294.222-20.794,294.479-20.649,294.9Z" transform="translate(32.199 -290.266)" fill="#fff" style="mix-blend-mode: screen;isolation: isolate"/>
                <path id="Trazado_2113" data-name="Trazado 2113" d="M-19.288,298.015c.078.23.011.462-.154.518s-.362-.084-.44-.313a.394.394,0,0,1,.153-.518C-19.562,297.646-19.368,297.786-19.288,298.015Z" transform="translate(31.461 -291.597)" fill="#fff" style="mix-blend-mode: screen;isolation: isolate"/>
                <path id="Trazado_2114" data-name="Trazado 2114" d="M-7.047,304.894a.986.986,0,0,1-1.354-.035.987.987,0,0,1,.472-1.269.983.983,0,0,1,1.353.035A.985.985,0,0,1-7.047,304.894Z" transform="translate(26.973 -293.82)" fill="#fff" style="mix-blend-mode: screen;isolation: isolate"/>
                <path id="Trazado_2115" data-name="Trazado 2115" d="M-10.154,307.761a.545.545,0,0,1-.743-.018.543.543,0,0,1,.26-.7.538.538,0,0,1,.742.018C-9.762,307.263-9.878,307.574-10.154,307.761Z" transform="translate(27.937 -295.223)" fill="#fff" style="mix-blend-mode: screen;isolation: isolate"/>
              </g>
            </g>
          </g>
          <g id="Grupo_804" data-name="Grupo 804" transform="translate(0.427 0)">
            <path id="Trazado_2116" data-name="Trazado 2116" d="M43,209.691v47.892c2.291.755,4.614,1.638,6.964,2.668V209.691Z" transform="translate(8.538 -209.691)" fill="#fc3007"/>
            <path id="Trazado_2117" data-name="Trazado 2117" d="M-41.933,209.691v49.176a62.325,62.325,0,0,1,7.166-2.407V209.691Z" transform="translate(41.933 -209.691)" fill="#fc3007"/>
          </g>
          <g id="Grupo_805" data-name="Grupo 805" transform="translate(8.721 11.856)" style="mix-blend-mode: multiply;isolation: isolate">
            <path id="Trazado_2118" data-name="Trazado 2118" d="M13.381,246.026c.057.05.113.1.166.15-.745-1.9-3.68-4.159-8.867-5.166.191.026.381.05.57.077h0c.225.032.447.066.672.1a18.252,18.252,0,0,0,1.479-1.1l.013.015-.01-.015a11.337,11.337,0,0,0,2.8-3.218.049.049,0,0,1,.012.013l-.007-.019a3.041,3.041,0,0,0,.419-2.668c-.341-.651-1.389-1.286-3.4-1.749v-.012a.052.052,0,0,1,0,.012c-.547-.126-1.163-.24-1.859-.337a.137.137,0,0,1,0-.015l-.006.014a45.945,45.945,0,0,0-5.515-.379c-.321,0-.647,0-.974,0a.035.035,0,0,1,0-.018l-.008.018a40.526,40.526,0,0,0-5.236.451l0-.013a.115.115,0,0,0-.007.014,54.58,54.58,0,0,0-7.469,1.663v0c-.811.241-1.589.5-2.324.758.926-1.882.7-3.648-1.492-4.783a8.346,8.346,0,0,0-1.53-.593c.509,1.805.879,4.257-3.055,6.9-3.753,2.518-7.459,5.162-5.462,9.458a.263.263,0,0,0,.021.044,3.46,3.46,0,0,0,.3.589s2.23.133,9.4-2.046c7.112-2.161,23.374-5.453,31.35,1.843a1.954,1.954,0,0,0-2.57.069,2.847,2.847,0,0,0-.428.353A5.944,5.944,0,0,0,8.9,248.756c-1.107,3.058-1.8,3.822-2.485,3.669s-.955-3.935-1.03-6.229-1.529-2.408-2.791.879-1.492,5.427-1.453,3.784.65-5.7.038-5.771S-2.1,247.8-2.753,250.132c0,0,2.024-1.948,2.522-2.407s-.765,1.918.25,5.593c.789,2.3,1.149,1.639,1.411-.46s1.543-5.938,2.265-6.233-.678,6.717,2.15,7.367,3.553-3.706,4.357-5.426,2.6-3.1,3.517-2.1A2.019,2.019,0,0,0,13.381,246.026Zm-23.929-4.57c-2.629.467-5.023,1.012-7.131,1.561,0,0-.01-.018-.023-.037C-15.548,242.413-13.13,241.872-10.548,241.456ZM-27.342,246.2l.024-.011Zm.058-.025c.477-.2,2.746-1.155,6.15-2.212a.048.048,0,0,0,.008.011l-.008-.011q.735-.228,1.538-.46l.013.018a.108.108,0,0,0-.01-.02c.6-.174,1.231-.348,1.884-.519.016.02.026.032.031.037A71.9,71.9,0,0,0-27.284,246.175Z" transform="translate(28.264 -229.23)" fill="#b7b7b7"/>
            <path id="Trazado_2119" data-name="Trazado 2119" d="M-1.883,258.426a1.889,1.889,0,0,0-.994-2.446c-.878-.19-2.178,1.07-3.4,6.88.422-4.854-.238-5.742-.927-5.629a12.357,12.357,0,0,0-2.607,1.462l0,0c.023-.073.019-.138-.048-.111a2.017,2.017,0,0,0-2.3-1.09c-1.806.315-2.466,2.064-4.157,4.27-2.981,3.442-7.165,2.008-6.334-.688s2.294-3.468,3.382-3.468.6,1.032,1.405,1.262,1.577-1.433.086-2.465-4.128-.113-5.59,2.78c-1.663,3.584-2.583,4.945-3.71,5.226s-1.042-1.155-1.042-1.155a1.464,1.464,0,0,0,1.4,1.977,2.582,2.582,0,0,0,2.446-1.72,3.072,3.072,0,0,0,3.211,2.37c2.867.114,4.816-2.064,6.421-4.434-.115.153-1.232,4.674,2.656,4.759,3.621.078,3.535-3.726,2.465-6.976,2.33-2.369,2.98-1.374,2.9,1.491s-.152,4.817-.152,4.817A40.485,40.485,0,0,1-4.94,260.72c.993-2.063,1.605-2.407,1.949-2.254S-2.378,259.038-1.883,258.426Zm-7.835,4.816c-.306,1.759-2.867,2.484-3.44.153a3.8,3.8,0,0,1,.917-3.67,1.991,1.991,0,0,0,.308.271.2.2,0,0,1,.018.015.143.143,0,0,1,.021.012,1.809,1.809,0,0,0,.893.308,1.2,1.2,0,0,0,.674-.2A4.729,4.729,0,0,1-9.718,263.243Z" transform="translate(28.235 -239.741)" fill="#b7b7b7"/>
          </g>
          <g id="Grupo_806" data-name="Grupo 806" transform="translate(8.721 10.824)">
            <path id="Trazado_2120" data-name="Trazado 2120" d="M13.381,244.325c.057.051.113.1.166.152-.745-1.9-3.68-4.157-8.867-5.166.191.025.381.049.57.078h0c.225.03.447.064.672.1a18.254,18.254,0,0,0,1.479-1.1l.013.013-.01-.016a11.325,11.325,0,0,0,2.8-3.216.038.038,0,0,1,.012.012.18.18,0,0,0-.007-.018,3.045,3.045,0,0,0,.419-2.669c-.341-.651-1.389-1.286-3.4-1.749v-.011a.036.036,0,0,1,0,.011c-.547-.126-1.163-.24-1.859-.337,0-.007,0-.016,0-.016l-.006.016a45.79,45.79,0,0,0-5.515-.38c-.321,0-.647,0-.974,0a.039.039,0,0,1,0-.018l-.008.018a40.209,40.209,0,0,0-5.236.451.1.1,0,0,0,0-.015l-.007.015a54.489,54.489,0,0,0-7.469,1.663v0c-.811.243-1.589.5-2.324.759.926-1.881.7-3.647-1.492-4.783a8.523,8.523,0,0,0-1.53-.593c.509,1.8.879,4.257-3.055,6.9-3.753,2.516-7.459,5.16-5.462,9.455a.312.312,0,0,0,.021.046,3.427,3.427,0,0,0,.3.588s2.23.134,9.4-2.046c7.112-2.162,23.374-5.453,31.35,1.843a1.955,1.955,0,0,0-2.57.067,2.83,2.83,0,0,0-.428.356,5.929,5.929,0,0,0-1.464,2.32c-1.107,3.058-1.8,3.821-2.485,3.669s-.955-3.936-1.03-6.23-1.529-2.407-2.791.879-1.492,5.428-1.453,3.783.65-5.693.038-5.77S-2.1,246.1-2.753,248.432c0,0,2.024-1.95,2.522-2.407s-.765,1.918.25,5.592c.789,2.3,1.149,1.639,1.411-.46s1.543-5.938,2.265-6.233-.678,6.717,2.15,7.368,3.553-3.707,4.357-5.427,2.6-3.1,3.517-2.1A2.069,2.069,0,0,0,13.381,244.325Zm-23.929-4.57c-2.629.468-5.023,1.012-7.131,1.563,0-.005-.01-.019-.023-.039C-15.548,240.713-13.13,240.172-10.548,239.755ZM-27.342,244.5l.024-.01A.2.2,0,0,0-27.342,244.5Zm.058-.025c.477-.205,2.746-1.155,6.15-2.211a.065.065,0,0,0,.008.01l-.008-.011q.735-.228,1.538-.46c.007.012.013.019.013.019a.1.1,0,0,0-.01-.019c.6-.174,1.231-.35,1.884-.52l.031.036A72.244,72.244,0,0,0-27.284,244.474Z" transform="translate(28.264 -227.529)" fill="#fff"/>
            <path id="Trazado_2121" data-name="Trazado 2121" d="M-1.883,256.726a1.891,1.891,0,0,0-.994-2.448c-.878-.189-2.178,1.072-3.4,6.881.422-4.853-.238-5.743-.927-5.628a12.337,12.337,0,0,0-2.607,1.461l0,0c.023-.073.019-.138-.048-.111a2.017,2.017,0,0,0-2.3-1.089c-1.806.315-2.466,2.064-4.157,4.27-2.981,3.441-7.165,2.006-6.334-.688s2.294-3.469,3.382-3.469.6,1.032,1.405,1.262,1.577-1.434.086-2.465-4.128-.115-5.59,2.779c-1.663,3.584-2.583,4.945-3.71,5.228s-1.042-1.157-1.042-1.157a1.464,1.464,0,0,0,1.4,1.978,2.582,2.582,0,0,0,2.446-1.72,3.072,3.072,0,0,0,3.211,2.369c2.867.115,4.816-2.063,6.421-4.434-.115.152-1.232,4.673,2.656,4.759,3.621.078,3.535-3.725,2.465-6.975,2.33-2.369,2.98-1.376,2.9,1.491s-.152,4.814-.152,4.814A40.4,40.4,0,0,1-4.94,259.02c.993-2.063,1.605-2.407,1.949-2.256S-2.378,257.337-1.883,256.726Zm-7.835,4.816c-.306,1.758-2.867,2.483-3.44.152a3.792,3.792,0,0,1,.917-3.669,1.923,1.923,0,0,0,.308.271.135.135,0,0,1,.018.015.086.086,0,0,1,.021.013,1.833,1.833,0,0,0,.893.308,1.184,1.184,0,0,0,.674-.2A4.733,4.733,0,0,1-9.718,261.543Z" transform="translate(28.235 -238.04)" fill="#fff"/>
          </g>
          <g id="Grupo_813" data-name="Grupo 813" transform="translate(8.721 10.253)">
            <path id="Trazado_2122" data-name="Trazado 2122" d="M-26.807,250.865s2.23.132,9.4-2.046,23.62-5.5,31.531,2.007c-1.26-3.211-8.77-7.452-22.874-4.93A81.678,81.678,0,0,0-26.807,250.865Z" transform="translate(27.691 -233.878)" fill="#037213"/>
            <g id="Grupo_810" data-name="Grupo 810">
              <path id="Trazado_2123" data-name="Trazado 2123" d="M-17.307,227.568c2.247,2.479-1.477,5.628-6.3,9.773-3.4,2.892-3.885,4.878-3.749,5.986.095.207.2.418.325.634,0,0,1.064-2.916,6.2-6.435C-16.167,234.333-13.069,229.769-17.307,227.568Z" transform="translate(27.915 -226.973)" fill="#6d9b16"/>
              <path id="Trazado_2124" data-name="Trazado 2124" d="M-27.154,245.193s17.25-7.608,33.3-5.028c4.186-2.809,5.332-5.79,4.7-6.993s-3.671-2.35-10.779-2.464-16.109,2.407-20.179,4.7C-24.178,237.643-29.384,241.733-27.154,245.193Z" transform="translate(28.038 -228.206)" fill="#ffc900"/>
              <g id="Grupo_807" data-name="Grupo 807" transform="translate(1.83 2.485)">
                <path id="Trazado_2125" data-name="Trazado 2125" d="M30.077,231.873s-.016.1-.03.285-.029.441-.033.752c0,.157,0,.325.009.5s.03.363.04.557c.029.192.043.391.084.589a5.63,5.63,0,0,0,.125.6c.023.1.042.2.073.3s.061.2.091.292c.055.193.133.378.2.557s.154.347.227.508c.041.079.074.16.114.232s.083.142.123.208c.082.132.147.261.217.367l.188.269c.1.152.161.24.161.24l-.194-.212c-.064-.067-.138-.152-.223-.248a3.748,3.748,0,0,1-.257-.346l-.143-.2c-.046-.071-.087-.148-.133-.228a4.242,4.242,0,0,1-.265-.507,5.249,5.249,0,0,1-.228-.569c-.033-.1-.065-.2-.1-.3s-.054-.205-.08-.307a6.221,6.221,0,0,1-.121-.621c-.04-.205-.042-.411-.065-.609-.007-.2-.016-.389-.006-.57s.013-.353.029-.51a6.323,6.323,0,0,1,.115-.754A2.675,2.675,0,0,1,30.077,231.873Z" transform="translate(3.582 -231.151)" fill="#e58703"/>
                <path id="Trazado_2126" data-name="Trazado 2126" d="M26.974,231.308s-.024.133-.048.367c-.016.116-.024.259-.04.419s-.021.347-.023.546c0,.1-.005.205-.009.313s0,.219.007.333c0,.229.03.469.041.718.027.247.05.5.095.761a7.647,7.647,0,0,0,.153.775l.09.386c.042.126.082.251.124.375s.072.25.121.367.1.235.144.351a5.667,5.667,0,0,0,.3.649c.05.1.1.2.15.3s.113.177.167.262c.11.165.2.327.293.46l.258.334c.14.189.22.295.22.295l-.255-.266c-.079-.087-.178-.191-.291-.311s-.214-.277-.333-.439c-.059-.083-.122-.17-.187-.258s-.111-.192-.17-.292a4.765,4.765,0,0,1-.342-.648,5.774,5.774,0,0,1-.292-.73c-.041-.127-.084-.254-.127-.384l-.1-.394c-.07-.262-.106-.531-.15-.8s-.053-.527-.075-.779c-.007-.255-.019-.5-.007-.732,0-.117.009-.229.013-.338s.018-.214.025-.316c.012-.2.047-.384.069-.547s.052-.3.081-.418C26.932,231.436,26.974,231.308,26.974,231.308Z" transform="translate(4.827 -230.929)" fill="#e58703"/>
                <path id="Trazado_2127" data-name="Trazado 2127" d="M22.853,230.933s0,.153,0,.419.022.646.05,1.1c.016.228.032.474.063.732s.063.532.1.813.093.57.137.865c.061.29.116.589.188.882s.138.589.236.87.166.567.276.829.191.524.306.757.2.465.317.659.211.381.3.545.189.289.263.4c.144.224.227.351.227.351s-.095-.117-.265-.323c-.081-.108-.187-.232-.3-.382s-.218-.332-.34-.527-.229-.419-.357-.652a7.011,7.011,0,0,1-.341-.756c-.115-.265-.206-.548-.3-.836s-.162-.587-.246-.883-.124-.6-.184-.9c-.042-.3-.093-.592-.121-.878-.064-.573-.084-1.107-.092-1.566s.016-.842.033-1.108S22.853,230.933,22.853,230.933Z" transform="translate(6.365 -230.781)" fill="#e58703"/>
                <path id="Trazado_2128" data-name="Trazado 2128" d="M19.423,230.746s-.009.148-.014.405-.008.626,0,1.065c.007.22.007.459.027.71s.035.517.061.791.065.553.1.839.092.575.143.863.114.572.194.847.138.553.241.808.165.515.276.738.184.454.3.643.2.368.286.526.185.277.255.384l.228.337-.262-.31c-.08-.1-.189-.217-.293-.364s-.211-.322-.329-.511-.215-.41-.336-.637a6.438,6.438,0,0,1-.313-.739c-.025-.066-.05-.132-.078-.2s-.042-.133-.062-.2c-.04-.137-.082-.279-.126-.418-.081-.28-.135-.572-.205-.862-.047-.294-.1-.586-.136-.876s-.066-.576-.078-.854c-.008-.14-.016-.275-.024-.407s0-.266,0-.394c-.007-.254.005-.494.009-.716A11.386,11.386,0,0,1,19.423,230.746Z" transform="translate(7.745 -230.708)" fill="#e58703"/>
                <path id="Trazado_2129" data-name="Trazado 2129" d="M16.2,230.683s-.033.143-.071.4c-.022.128-.038.282-.061.459s-.041.376-.053.594c-.008.11-.015.223-.024.34s0,.241-.007.365c-.015.25.008.515.007.787.019.271.035.552.067.837s.066.571.131.854l.084.425c.038.14.074.279.113.416s.069.275.117.407.095.262.14.39a6.759,6.759,0,0,0,.3.723l.15.331q.088.153.172.294c.113.187.2.366.3.515s.192.273.266.377l.228.333-.263-.306-.3-.354c-.112-.142-.22-.314-.341-.5l-.189-.289-.171-.328c-.06-.114-.121-.23-.182-.349s-.1-.249-.158-.377-.1-.26-.155-.394-.084-.274-.127-.415-.079-.281-.122-.422l-.087-.436c-.064-.29-.089-.587-.126-.876s-.035-.577-.049-.853c.005-.277,0-.546.026-.8.01-.128.02-.251.027-.37s.029-.232.043-.344c.021-.219.067-.418.1-.593s.067-.329.1-.454A3.62,3.62,0,0,1,16.2,230.683Z" transform="translate(9.114 -230.683)" fill="#e58703"/>
                <path id="Trazado_2130" data-name="Trazado 2130" d="M13.014,230.933s-.019.143-.041.394-.048.607-.066,1.036-.015.931.009,1.465a13.923,13.923,0,0,0,.18,1.664c.049.28.1.559.177.829a8.129,8.129,0,0,0,.236.786c.041.127.089.249.138.366s.093.236.147.348.1.217.154.319.1.2.161.291c.106.185.218.349.314.493s.195.261.269.363c.164.189.257.3.257.3l-.292-.271c-.081-.094-.188-.2-.3-.338A4.889,4.889,0,0,1,14,238.5c-.063-.09-.12-.188-.18-.288s-.121-.206-.176-.319-.118-.224-.171-.345-.107-.243-.155-.372a7.251,7.251,0,0,1-.259-.8c-.076-.277-.136-.562-.188-.848s-.087-.575-.112-.859-.036-.565-.044-.837a12.793,12.793,0,0,1,.065-1.48c.038-.431.1-.787.147-1.035S13.014,230.933,13.014,230.933Z" transform="translate(10.322 -230.781)" fill="#e58703"/>
                <path id="Trazado_2131" data-name="Trazado 2131" d="M10.274,231.121s-.024.138-.055.382-.067.592-.1,1.01c-.016.209-.027.436-.027.677s0,.492,0,.752.03.53.048.8c.036.271.048.55.106.824s.087.549.157.813c.031.133.061.266.093.4s.078.254.117.378.077.248.115.367.092.23.135.342a4.657,4.657,0,0,0,.271.616c.095.188.18.359.256.511l.234.376c.129.21.2.331.2.331s-.087-.11-.238-.306l-.268-.354c-.092-.146-.192-.312-.3-.5a5.335,5.335,0,0,1-.311-.613l-.157-.341c-.043-.12-.087-.243-.129-.369s-.088-.255-.132-.384-.069-.268-.1-.4a7.9,7.9,0,0,1-.167-.83c-.056-.28-.066-.564-.1-.842s-.027-.552-.03-.817.008-.523.03-.763.039-.471.066-.681.061-.4.089-.571.061-.316.093-.435C10.23,231.255,10.274,231.121,10.274,231.121Z" transform="translate(11.428 -230.855)" fill="#e58703"/>
                <path id="Trazado_2132" data-name="Trazado 2132" d="M7.427,231.433s-.054.13-.128.365c-.031.118-.078.26-.112.428s-.065.357-.1.563c-.021.209-.059.433-.063.674-.005.12-.011.24-.016.367s0,.254.008.385c-.007.262.041.527.057.8.04.269.079.546.136.818s.114.546.2.807.152.524.249.767.187.48.272.705c.1.217.2.423.292.614a5.271,5.271,0,0,0,.257.512l.212.391c.117.217.183.342.183.342l-.219-.32c-.07-.1-.153-.228-.252-.371-.046-.072-.1-.146-.15-.229s-.1-.173-.145-.267c-.1-.187-.211-.39-.326-.6-.1-.225-.2-.46-.312-.7s-.181-.512-.271-.776-.141-.548-.212-.823c-.056-.281-.093-.563-.133-.843-.01-.14-.018-.279-.029-.416,0-.069-.007-.138-.012-.205s0-.134,0-.2c0-.134,0-.265.005-.393s.025-.254.036-.376c.019-.244.069-.471.1-.681s.093-.4.149-.561.107-.307.152-.422A3.14,3.14,0,0,1,7.427,231.433Z" transform="translate(12.643 -230.978)" fill="#e58703"/>
                <path id="Trazado_2133" data-name="Trazado 2133" d="M4.655,232.058a8.379,8.379,0,0,0-.215,1.333c-.026.2-.03.42-.044.65s-.009.475,0,.728c.007.126.012.252.018.383s.026.258.038.39c.018.263.065.526.11.791a3.656,3.656,0,0,0,.078.394c.03.129.061.26.089.388.064.257.149.5.22.745s.174.463.25.681a6.268,6.268,0,0,0,.266.6c.093.179.154.357.242.5s.152.27.208.372c.113.21.179.33.179.33l-.217-.3c-.069-.1-.15-.218-.243-.353a4.908,4.908,0,0,1-.284-.481,6.355,6.355,0,0,1-.3-.587c-.091-.217-.206-.439-.288-.683s-.178-.491-.244-.754c-.031-.132-.064-.263-.095-.4a3.23,3.23,0,0,1-.084-.4c-.042-.271-.089-.541-.1-.811a7.028,7.028,0,0,1-.036-.791c-.008-.257.018-.5.03-.74.027-.234.046-.455.083-.657a5.435,5.435,0,0,1,.107-.549c.039-.161.079-.3.112-.415A3.187,3.187,0,0,1,4.655,232.058Z" transform="translate(13.67 -231.224)" fill="#e58703"/>
                <path id="Trazado_2134" data-name="Trazado 2134" d="M2.106,232.5s-.033.13-.073.362-.087.564-.12.964c-.025.2-.029.417-.042.646s-.006.471,0,.72.017.509.046.769c.013.13.021.263.038.393l.059.4c.029.265.1.523.148.78s.132.5.193.744.156.467.223.684a6.445,6.445,0,0,0,.24.6c.086.181.143.359.221.5s.138.272.193.377l.162.333-.2-.309-.229-.362a5.065,5.065,0,0,1-.261-.487,5.678,5.678,0,0,1-.279-.595c-.081-.217-.193-.44-.262-.684s-.165-.493-.215-.756-.127-.526-.16-.8l-.057-.4c-.016-.133-.022-.268-.033-.4-.027-.267-.024-.53-.026-.785s.018-.5.033-.732.044-.453.079-.652.066-.384.1-.546.071-.3.1-.413A3.43,3.43,0,0,1,2.106,232.5Z" transform="translate(14.664 -231.397)" fill="#e58703"/>
                <path id="Trazado_2135" data-name="Trazado 2135" d="M-1.021,233.185s-.031.13-.07.363c-.024.113-.041.256-.066.417s-.041.344-.056.544c-.009.1-.018.205-.026.313s-.008.22-.013.333c-.015.229,0,.471,0,.72.017.249.026.507.056.765a7.371,7.371,0,0,0,.117.782l.074.391c.036.127.07.254.1.378a6.339,6.339,0,0,0,.237.73,6.248,6.248,0,0,0,.279.659c.048.106.1.205.14.3s.108.183.157.269c.106.169.189.334.279.47s.178.249.246.343c.135.195.213.3.213.3L.4,240.993c-.078-.089-.174-.2-.28-.321s-.2-.285-.319-.451c-.055-.086-.114-.173-.178-.266s-.1-.2-.16-.3a4.965,4.965,0,0,1-.318-.663,5.7,5.7,0,0,1-.26-.74c-.038-.13-.074-.26-.112-.39l-.079-.4a7.471,7.471,0,0,1-.111-.8c-.033-.267-.029-.53-.039-.785.008-.254.008-.5.036-.732.01-.115.022-.228.033-.336s.03-.215.042-.314c.025-.2.073-.383.1-.545s.072-.3.1-.413A3.685,3.685,0,0,1-1.021,233.185Z" transform="translate(15.892 -231.667)" fill="#e58703"/>
                <path id="Trazado_2136" data-name="Trazado 2136" d="M-4.581,234.185s0,.129,0,.354.005.545.01.928.033.832.073,1.31c.016.238.044.484.072.733s.066.5.1.755.09.5.133.745c.061.244.112.485.174.716s.131.45.2.657.153.4.222.573c.086.172.161.329.227.472a2.942,2.942,0,0,0,.2.348c.115.193.183.3.183.3s-.08-.1-.219-.277a2.868,2.868,0,0,1-.238-.331c-.082-.135-.174-.288-.268-.458s-.171-.368-.263-.572-.16-.428-.24-.658-.133-.477-.194-.725-.106-.5-.145-.759-.076-.512-.1-.765-.042-.505-.053-.747c-.026-.482-.01-.935,0-1.322s.049-.708.074-.931S-4.581,234.185-4.581,234.185Z" transform="translate(17.175 -232.06)" fill="#e58703"/>
                <path id="Trazado_2137" data-name="Trazado 2137" d="M-7.468,235.187s-.015.124-.032.343-.032.53-.042.906c0,.186-.005.388,0,.6s.021.438.031.671.044.473.067.716c.039.242.061.49.117.731s.091.488.161.721c.032.118.062.235.093.35s.076.228.112.335.074.22.11.326l.126.3a4.745,4.745,0,0,0,.252.547c.089.162.166.316.237.454s.154.237.214.331l.184.291-.221-.266c-.07-.087-.153-.191-.25-.311s-.178-.274-.277-.436a4.336,4.336,0,0,1-.291-.539c-.049-.1-.1-.2-.149-.3s-.082-.216-.126-.327-.087-.225-.126-.34-.067-.236-.1-.357c-.075-.239-.121-.488-.174-.736s-.073-.5-.11-.749-.041-.493-.049-.729a11.1,11.1,0,0,1,.038-1.294,8.485,8.485,0,0,1,.129-.905C-7.5,235.308-7.468,235.187-7.468,235.187Z" transform="translate(18.354 -232.454)" fill="#e58703"/>
                <path id="Trazado_2138" data-name="Trazado 2138" d="M-10.849,236.374s-.026.12-.056.333c-.018.1-.03.236-.05.382s-.03.316-.041.5-.021.379-.019.589.013.429.013.657c.019.226.032.46.063.7a7.126,7.126,0,0,0,.12.712l.072.354.1.345a6.174,6.174,0,0,0,.223.661,5.365,5.365,0,0,0,.259.6c.043.095.086.188.129.275l.145.245c.1.155.172.305.255.428s.162.226.225.313c.123.175.193.279.193.279l-.228-.25-.258-.291c-.1-.114-.189-.257-.3-.409l-.165-.24-.15-.271a4.614,4.614,0,0,1-.3-.6A5.187,5.187,0,0,1-10.86,241c-.036-.117-.072-.234-.107-.353l-.078-.363c-.057-.242-.081-.488-.114-.732s-.031-.482-.044-.715c0-.232,0-.458.021-.669s.034-.412.059-.6.058-.35.084-.5.061-.276.09-.379A2.335,2.335,0,0,1-10.849,236.374Z" transform="translate(19.726 -232.921)" fill="#e58703"/>
                <path id="Trazado_2139" data-name="Trazado 2139" d="M-13.606,237.624s-.026.117-.06.32a8.319,8.319,0,0,0-.092.843c-.017.177-.019.367-.024.568s.01.413.019.63.03.442.067.669c.015.115.032.228.048.343l.072.339a6.363,6.363,0,0,0,.171.672c.056.223.149.429.219.637a2.791,2.791,0,0,0,.124.3c.042.1.086.19.126.282a4.128,4.128,0,0,0,.26.5c.091.15.158.3.24.416s.149.224.208.309l.177.272-.212-.246c-.068-.079-.148-.177-.242-.285a4.436,4.436,0,0,1-.28-.4,4.785,4.785,0,0,1-.3-.493,5.24,5.24,0,0,1-.288-.578l-.127-.317-.066-.161-.05-.167a7.009,7.009,0,0,1-.184-.691l-.07-.351c-.016-.119-.03-.236-.044-.353a6.591,6.591,0,0,1-.049-.689c0-.224,0-.44.016-.646s.032-.4.061-.572a4.263,4.263,0,0,1,.087-.479c.031-.14.063-.263.091-.363A2.74,2.74,0,0,1-13.606,237.624Z" transform="translate(20.811 -233.412)" fill="#e58703"/>
                <path id="Trazado_2140" data-name="Trazado 2140" d="M-16.531,239.248s-.024.106-.052.294c-.013.093-.029.208-.036.339s-.013.28-.024.441c0,.163,0,.336.012.521s.029.378.05.579.063.4.09.611c.042.206.084.417.137.626s.1.416.174.616.127.4.2.588.145.37.211.543.149.328.215.476.127.283.191.4.112.22.154.3l.132.27s-.061-.09-.171-.246l-.191-.287a3.2,3.2,0,0,1-.229-.383c-.078-.144-.167-.3-.253-.467s-.164-.349-.246-.538-.15-.39-.223-.592-.124-.419-.186-.631-.093-.43-.135-.642c-.026-.215-.062-.425-.071-.632-.007-.1-.012-.2-.018-.3s0-.2,0-.291c0-.189.018-.368.027-.532a5.2,5.2,0,0,1,.144-.78A2.4,2.4,0,0,1-16.531,239.248Z" transform="translate(21.926 -234.051)" fill="#e58703"/>
                <path id="Trazado_2141" data-name="Trazado 2141" d="M-18.886,240.753s-.022.1-.048.275a7.13,7.13,0,0,0-.066.729c-.013.15-.007.315-.009.487s.009.354.03.542c.008.092.018.188.026.285s.027.193.041.289c.022.2.07.391.11.587s.1.388.15.578.126.37.185.549.143.34.205.5.147.3.212.438.124.263.192.367.115.2.162.277c.087.155.137.243.137.243s-.064-.078-.175-.218c-.055-.071-.122-.157-.2-.256a2.964,2.964,0,0,1-.231-.348c-.077-.134-.177-.269-.251-.429s-.169-.323-.244-.5-.147-.363-.209-.557-.12-.391-.163-.594-.086-.4-.1-.606c-.012-.1-.024-.2-.035-.3s-.009-.2-.014-.294c-.017-.194,0-.38,0-.556.018-.177.023-.344.048-.5a3.772,3.772,0,0,1,.073-.413c.026-.121.056-.227.078-.314A2.725,2.725,0,0,1-18.886,240.753Z" transform="translate(22.865 -234.642)" fill="#e58703"/>
                <path id="Trazado_2142" data-name="Trazado 2142" d="M-21.3,242.753s0,.089-.009.245-.006.374,0,.638c0,.132.007.274.016.426s.021.308.033.47.042.331.057.5c.03.168.053.343.09.512s.066.342.12.5a4.96,4.96,0,0,0,.147.479,3.913,3.913,0,0,0,.171.439,3.9,3.9,0,0,0,.177.383c.065.113.121.221.17.316s.11.167.153.232c.086.128.132.205.132.205s-.062-.063-.167-.179l-.188-.21c-.065-.087-.136-.187-.211-.3a3.035,3.035,0,0,1-.221-.376,3.3,3.3,0,0,1-.2-.44,4.3,4.3,0,0,1-.174-.492c-.056-.167-.086-.345-.129-.519s-.058-.354-.086-.53-.035-.347-.039-.516a6.886,6.886,0,0,1,.021-.914A5.5,5.5,0,0,1-21.3,242.753Z" transform="translate(23.764 -235.429)" fill="#e58703"/>
                <path id="Trazado_2143" data-name="Trazado 2143" d="M-23.046,244.318s-.01.081-.023.219-.027.34-.036.578-.008.517.009.812c0,.148.025.3.038.454s.036.312.074.464a4.152,4.152,0,0,0,.1.456c.021.073.042.149.061.221s.051.141.076.21l.073.2.086.189a3.116,3.116,0,0,0,.172.34c.058.1.113.2.161.283l.144.206c.082.114.124.183.124.183s-.058-.055-.158-.154c-.049-.051-.11-.111-.179-.183s-.131-.165-.2-.265a2.093,2.093,0,0,1-.211-.332c-.033-.061-.071-.124-.108-.188s-.058-.139-.089-.209-.059-.143-.088-.217-.048-.15-.072-.229a3.835,3.835,0,0,1-.118-.474c-.036-.16-.046-.325-.069-.482s-.02-.32-.02-.471a5.426,5.426,0,0,1,.063-.829A4.172,4.172,0,0,1-23.046,244.318Z" transform="translate(24.482 -236.044)" fill="#e58703"/>
                <path id="Trazado_2144" data-name="Trazado 2144" d="M-24.913,246.445s-.012.067-.031.184-.039.286-.058.487a6.578,6.578,0,0,0-.034.683c0,.124.008.252.01.384s.016.263.041.394a2.749,2.749,0,0,0,.069.386c.013.064.028.127.04.19s.038.121.056.179.038.117.055.174.045.109.067.162a2.229,2.229,0,0,0,.131.293c.047.09.089.172.125.244s.083.129.115.18c.063.1.1.16.1.16s-.05-.047-.132-.133c-.041-.044-.093-.1-.15-.159s-.107-.141-.167-.225a1.7,1.7,0,0,1-.174-.287l-.086-.164c-.027-.057-.046-.118-.07-.179s-.047-.124-.07-.186-.036-.131-.052-.2a3.234,3.234,0,0,1-.082-.408c-.023-.137-.021-.276-.033-.412s0-.272.007-.4a4.3,4.3,0,0,1,.107-.7A3.337,3.337,0,0,1-24.913,246.445Z" transform="translate(25.248 -236.88)" fill="#e58703"/>
                <path id="Trazado_2145" data-name="Trazado 2145" d="M33.585,233.031s.005.063.017.168.031.26.052.441c.048.363.115.845.217,1.316.027.116.05.234.082.348s.055.23.095.336.059.213.1.309.066.191.1.274.069.159.1.228.064.125.086.172c.05.1.075.153.075.153s-.041-.046-.11-.127a2.476,2.476,0,0,1-.265-.367,2.791,2.791,0,0,1-.143-.266,2.95,2.95,0,0,1-.135-.309,5.354,5.354,0,0,1-.211-.7,6.3,6.3,0,0,1-.1-.722,5.007,5.007,0,0,1-.016-.634c0-.187.022-.34.032-.448A1.574,1.574,0,0,1,33.585,233.031Z" transform="translate(2.14 -231.606)" fill="#e58703"/>
              </g>
              <g id="Grupo_808" data-name="Grupo 808" transform="translate(0.534 2.731)">
                <path id="Trazado_2146" data-name="Trazado 2146" d="M-22.375,239.228s.393-.235,1.1-.609c.354-.189.787-.408,1.286-.66s1.066-.529,1.694-.807c.313-.144.635-.3.975-.445l1.054-.455c.723-.316,1.5-.614,2.3-.931.4-.149.814-.3,1.228-.451s.836-.312,1.266-.449c.856-.285,1.722-.588,2.6-.84q.659-.194,1.317-.389c.442-.115.885-.228,1.32-.341s.87-.229,1.3-.329l1.281-.276c.421-.088.831-.186,1.24-.263l1.2-.2,1.132-.189c.366-.061.724-.091,1.065-.136.682-.082,1.308-.155,1.863-.212.556-.035,1.042-.064,1.444-.086l1.258-.073-1.254.115c-.4.035-.883.078-1.438.129l-1.857.255c-.339.051-.692.086-1.057.154s-.738.137-1.127.207l-1.191.22-1.231.27-1.274.285c-.429.1-.86.223-1.294.334l-1.315.35L-8.8,233.8c-.88.245-1.745.544-2.6.823-.428.136-.846.291-1.263.441l-1.227.442c-.8.319-1.578.6-2.3.9l-1.059.438c-.341.141-.666.289-.982.425-1.257.549-2.293,1.036-3.012,1.391-.358.178-.641.316-.831.416Z" transform="translate(25.415 -231.087)" fill="#e58703"/>
                <path id="Trazado_2147" data-name="Trazado 2147" d="M-26.25,243.308s.556-.255,1.538-.68,2.388-1.027,4.1-1.7c.855-.338,1.782-.695,2.766-1.063s2.028-.747,3.112-1.124,2.208-.75,3.356-1.113c.574-.184,1.153-.366,1.737-.54s1.17-.35,1.76-.517c1.176-.334,2.363-.641,3.532-.928.586-.143,1.17-.269,1.746-.4l1.712-.353c.566-.1,1.12-.212,1.666-.3s1.078-.172,1.6-.233c1.045-.135,2.036-.231,2.953-.283.459-.017.9-.053,1.318-.051s.816,0,1.188.008c.373.023.723.043,1.045.061s.615.067.881.1a11.261,11.261,0,0,1,1.226.2l.432.084-.434-.076a11.851,11.851,0,0,0-1.228-.173c-.267-.021-.56-.067-.88-.075s-.671-.025-1.042-.036-.768.011-1.185.019-.854.046-1.311.069c-.912.064-1.9.172-2.939.32-.521.067-1.052.167-1.593.254s-1.1.2-1.659.306l-1.705.359c-.573.136-1.155.265-1.739.411-1.168.289-2.348.6-3.524.939-.587.164-1.175.332-1.757.51s-1.163.35-1.736.53c-1.149.358-2.272.731-3.357,1.1s-2.131.734-3.118,1.092-1.919.7-2.776,1.025c-1.715.653-3.138,1.208-4.129,1.613S-26.25,243.308-26.25,243.308Z" transform="translate(26.938 -232.243)" fill="#e58703"/>
                <path id="Trazado_2148" data-name="Trazado 2148" d="M-27.384,245.467l5.978-1.635,6.134-1.658c2.245-.6,4.641-1.232,7.032-1.884l7.035-1.874,3.24-.855,2.894-.795,5.984-1.619-5.947,1.743-2.887.832-3.231.884c-2.245.607-4.636,1.256-7.03,1.9s-4.793,1.266-7.04,1.856l-6.152,1.59c-1.8.465-3.3.831-4.357,1.1Z" transform="translate(27.384 -232.684)" fill="#e58703"/>
                <path id="Trazado_2149" data-name="Trazado 2149" d="M15.887,241.823l.556-.163c.355-.1.859-.262,1.461-.447.3-.1.626-.2.972-.314l1.076-.37c.372-.132.759-.263,1.144-.413l.585-.221.584-.238c.393-.149.777-.319,1.157-.484s.745-.347,1.1-.513.684-.357,1.008-.52.6-.354.877-.513a4.328,4.328,0,0,0,.377-.248l.337-.232c.1-.072.208-.137.293-.206l.233-.2.449-.368-.42.4c-.067.063-.14.135-.222.211s-.181.143-.283.225c-.206.154-.425.351-.695.519s-.55.368-.863.552-.645.38-1,.552-.721.367-1.1.53-.765.346-1.159.5c-.2.078-.394.154-.59.232l-.59.215c-.39.146-.779.272-1.154.4s-.744.232-1.09.34l-.984.277c-.611.169-1.127.286-1.486.369S15.887,241.823,15.887,241.823Z" transform="translate(10.37 -233.167)" fill="#e58703"/>
              </g>
              <g id="Grupo_809" data-name="Grupo 809" transform="translate(28.13 3.101)">
                <path id="Trazado_2150" data-name="Trazado 2150" d="M23.313,232.239c0,.3-.646.553-1.445.559s-1.451-.238-1.453-.541.646-.555,1.446-.561S23.311,231.936,23.313,232.239Z" transform="translate(-19.006 -231.697)" fill="#fff"/>
                <path id="Trazado_2151" data-name="Trazado 2151" d="M19.154,232.723c.016.113-.206.238-.5.281s-.546-.011-.561-.122.206-.237.5-.281S19.137,232.612,19.154,232.723Z" transform="translate(-18.093 -232.046)" fill="#fff"/>
              </g>
              <path id="Trazado_2152" data-name="Trazado 2152" d="M-23.956,236.955c4.822-4.145,8.546-7.293,6.3-9.773a8.565,8.565,0,0,0-1.53-.6c.509,1.805.879,4.257-3.055,6.9C-26,236-29.7,238.644-27.7,242.94-27.841,241.833-27.357,239.847-23.956,236.955Z" transform="translate(28.264 -226.587)" fill="#91c53d"/>
            </g>
            <g id="Grupo_812" data-name="Grupo 812" transform="translate(0.046 15.304)">
              <path id="Trazado_2153" data-name="Trazado 2153" d="M13.778,257.408S15.8,255.458,16.3,255s-.765,1.918.25,5.592c.789,2.3,1.149,1.641,1.411-.46S19.5,254.2,20.227,253.9s-.678,6.719,2.15,7.368,3.553-3.706,4.357-5.426,2.6-3.1,3.517-2.1c-1.072-1.834-3.709-.763-4.816,2.293s-1.8,3.822-2.485,3.671-.955-3.937-1.03-6.231-1.529-2.408-2.791.88-1.492,5.428-1.453,3.783.65-5.695.038-5.772S14.427,255.076,13.778,257.408Z" transform="translate(11.688 -251.808)" fill="#037213"/>
              <g id="Grupo_811" data-name="Grupo 811" transform="translate(0 0.918)">
                <path id="Trazado_2154" data-name="Trazado 2154" d="M7.447,253.339c-.878-.191-2.178,1.07-3.4,6.88.422-4.853-.238-5.742-.927-5.628a12.33,12.33,0,0,0-2.607,1.462s-.917.774-1.376.229.459-1.2.459-1.2-1.7.487-1.51,2.007a1.49,1.49,0,0,0,1.873.343,3.816,3.816,0,0,0,.84-.841c2.33-2.37,2.98-1.375,2.9,1.491S3.55,262.9,3.55,262.9a40.37,40.37,0,0,1,1.834-4.816c.993-2.064,1.605-2.408,1.949-2.255s.613.573,1.108-.038A1.889,1.889,0,0,0,7.447,253.339Z" transform="translate(17.865 -253.321)" fill="#037213"/>
                <path id="Trazado_2155" data-name="Trazado 2155" d="M-10.368,257.448a4.728,4.728,0,0,1,.65,3.173c-.306,1.756-2.867,2.484-3.44.152a3.79,3.79,0,0,1,.917-3.668c-.191-1.519,1.51-2.007,1.51-2.007s-.918.659-.459,1.2,1.376-.229,1.376-.229a2.025,2.025,0,0,0-2.35-1.2c-1.806.316-2.466,2.064-4.157,4.271-2.981,3.439-7.165,2.005-6.334-.688s2.294-3.468,3.382-3.468.6,1.032,1.405,1.262,1.577-1.435.086-2.467-4.128-.115-5.59,2.78c-1.663,3.584-2.583,4.945-3.71,5.227s-1.042-1.156-1.042-1.156a1.463,1.463,0,0,0,1.4,1.977,2.582,2.582,0,0,0,2.446-1.72,3.073,3.073,0,0,0,3.211,2.37c2.867.114,4.816-2.064,6.421-4.435-.115.154-1.232,4.674,2.656,4.76,3.621.078,3.535-3.726,2.465-6.976A3.816,3.816,0,0,1-10.368,257.448Z" transform="translate(28.189 -253.34)" fill="#037213"/>
              </g>
              <path id="Trazado_2156" data-name="Trazado 2156" d="M.613,257.87c-.671.453-1.211.867-2.028.431a.8.8,0,0,1-.253-1.333,4.311,4.311,0,0,1,.741-.549c.048-.033.106-.2,0-.151-.6.289-1.577,1.007-1.155,1.808a1.582,1.582,0,0,0,1.3.771c.512.039,1.053-.456,1.412-.757C.7,258.036.75,257.778.613,257.87Z" transform="translate(17.964 -253.558)" fill="#034d13"/>
              <path id="Trazado_2157" data-name="Trazado 2157" d="M1.1,257.094c-.269.127-.534.311-.843.21A.462.462,0,0,1-.089,257c-.072-.245.161-.439.308-.59.049-.052.065-.215-.032-.129a1.369,1.369,0,0,0-.437.523.67.67,0,0,0,.048.607.7.7,0,0,0,.584.241,1.456,1.456,0,0,0,.685-.3C1.134,257.312,1.228,257.032,1.1,257.094Z" transform="translate(17.224 -253.556)" fill="#034d13"/>
              <path id="Trazado_2158" data-name="Trazado 2158" d="M-14.446,254.129c-1.446-1.772-4.075.582-4.956,1.834-.086.121-.231.345-.1.175.934-1.257,3.365-3.252,4.938-1.825C-14.512,254.365-14.4,254.182-14.446,254.129Z" transform="translate(24.795 -252.47)" fill="#fff"/>
              <path id="Trazado_2159" data-name="Trazado 2159" d="M-2.693,256.027c-1.944.224-3.27,2.876-3.03,4.651.017.126.016.077.017.01.022-1.795,1.11-3.95,2.956-4.471C-2.694,256.2-2.611,256.017-2.693,256.027Z" transform="translate(19.367 -253.467)" fill="#fff"/>
              <path id="Trazado_2160" data-name="Trazado 2160" d="M11.982,253.574a.872.872,0,0,0-.876.271,6.889,6.889,0,0,0-1.681,3.049c-.047.179-.05.269-.015.163a14.119,14.119,0,0,1,.886-1.792,5.942,5.942,0,0,1,.607-.909,1.222,1.222,0,0,1,.8-.545.461.461,0,0,1,.468.3c-.01.1.107,0,.123-.039C12.4,253.813,12.224,253.694,11.982,253.574Z" transform="translate(13.415 -252.485)" fill="#fff"/>
              <path id="Trazado_2161" data-name="Trazado 2161" d="M18.408,253.128c-.271-.24-.919.524-1.092.7a7.885,7.885,0,0,0-1.709,2.436c-.062.149-.113.3-.048.191a18.5,18.5,0,0,1,1.556-2.144c.141-.164.94-1.137,1.2-1.021C18.385,253.315,18.461,253.174,18.408,253.128Z" transform="translate(10.999 -252.309)" fill="#fff"/>
              <path id="Trazado_2162" data-name="Trazado 2162" d="M25.824,252.718c-.254-.717-.791-.326-1.144,0-.058.053-.066.225.034.136.812-.74.993.175,1.067.788.069.574.172,1.406.192,1.982.007.162.074-.285.078-.373A7.1,7.1,0,0,0,25.824,252.718Z" transform="translate(7.418 -252.007)" fill="#fff"/>
              <path id="Trazado_2163" data-name="Trazado 2163" d="M36.512,253.68c-1.891-.138-2.734,1.451-3.371,2.967-.07.172-.174.47-.119.353.656-1.41,1.655-3.095,3.411-3.112C36.512,253.886,36.609,253.687,36.512,253.68Z" transform="translate(4.127 -252.54)" fill="#fff"/>
            </g>
          </g>
        </g>
        <path id="Trazado_2164" data-name="Trazado 2164" d="M-29.259,209.714v67.751c1.919.4,4.135.75,6.584,1.041V209.714Z" transform="translate(-5.26 -4.511)" fill="#fff" opacity="0.5" style="mix-blend-mode: screen;isolation: isolate"/>
        <path id="Trazado_2165" data-name="Trazado 2165" d="M35.418,273.894v-64.18H6.166v69.622c15.867,0,28.783-2.668,29.244-5.228h.008v-.067c0-.026.006-.049.006-.075A.7.7,0,0,0,35.418,273.894Z" transform="translate(-19.189 -4.511)" fill="#8c959d" opacity="0.5" style="mix-blend-mode: multiply;isolation: isolate"/>
        <g id="Grupo_818" data-name="Grupo 818" transform="translate(-42.636 198.242)">
          <g id="Grupo_815" data-name="Grupo 815">
            <path id="Trazado_2166" data-name="Trazado 2166" d="M16.719,206.58l0-1.493h-.8c-3.094-2.631-14.845-4.589-28.87-4.589-14.044,0-25.807,1.961-28.882,4.6h-.795v1.439h.012c.183,3.264,13.393,5.9,29.666,5.9,16.167,0,29.315-2.6,29.66-5.837Z" transform="translate(42.636 -199.129)" fill="#fff"/>
            <path id="Trazado_2167" data-name="Trazado 2167" d="M16.719,206.58l0-1.493h-.8c-3.094-2.631-14.845-4.589-28.87-4.589-14.044,0-25.807,1.961-28.882,4.6h-.795v1.439h.012c.183,3.264,13.393,5.9,29.666,5.9,16.167,0,29.315-2.6,29.66-5.837Z" transform="translate(42.636 -199.129)" fill="#7e8286"/>
            <path id="Trazado_2168" data-name="Trazado 2168" d="M35.358,205.087h-.8c-3.094-2.631-14.845-4.589-28.87-4.589-.305,0-.606,0-.907,0V212.43c.3,0,.6,0,.907,0,16.167,0,29.315-2.6,29.66-5.837l.018-.015Z" transform="translate(23.994 -199.129)" fill="#8c959d" opacity="0.5" style="mix-blend-mode: multiply;isolation: isolate"/>
            <path id="Trazado_2169" data-name="Trazado 2169" d="M16.716,204.208c0,3.3-13.284,5.97-29.669,5.97s-29.667-2.673-29.667-5.97,13.281-5.966,29.667-5.966,29.669,2.671,29.669,5.966Z" transform="translate(42.63 -198.242)" fill="#b2b6ba"/>
            <path id="Trazado_2170" data-name="Trazado 2170" d="M16.291,204.335c0,2.969-12.744,5.376-28.463,5.376s-28.462-2.407-28.462-5.376,12.743-5.378,28.462-5.378,28.463,2.408,28.463,5.378Z" transform="translate(41.849 -198.523)" fill="#73767a"/>
            <path id="Trazado_2171" data-name="Trazado 2171" d="M16.051,204.89c0,2.835-12.438,5.134-27.782,5.134s-27.783-2.3-27.783-5.134,12.438-5.135,27.783-5.135,27.782,2.3,27.782,5.135Z" transform="translate(41.408 -198.837)" fill="#d2d5d4"/>
            <path id="Trazado_2172" data-name="Trazado 2172" d="M16.016,205.547c0,2.387-11.349,4.321-25.349,4.321s-25.347-1.934-25.347-4.321,11.348-4.321,25.347-4.321,25.349,1.935,25.349,4.321Z" transform="translate(39.508 -199.415)" fill="#94989c"/>
            <path id="Trazado_2173" data-name="Trazado 2173" d="M15.64,205.878c0,2.249-10.872,4.072-24.28,4.072s-24.277-1.823-24.277-4.072,10.869-4.072,24.277-4.072,24.28,1.823,24.28,4.072Z" transform="translate(38.815 -199.643)" fill="#d2d5d4"/>
            <path id="Trazado_2174" data-name="Trazado 2174" d="M15.754,206.558c0,1.671-8.573,3.024-19.148,3.024s-19.146-1.353-19.146-3.024,8.571-3.023,19.146-3.023,19.148,1.353,19.148,3.023Z" transform="translate(34.734 -200.323)" fill="#94989c"/>
            <path id="Trazado_2175" data-name="Trazado 2175" d="M15.47,206.923c0,1.543-8.211,2.791-18.34,2.791s-18.338-1.248-18.338-2.791,8.211-2.791,18.338-2.791,18.34,1.249,18.34,2.791Z" transform="translate(34.211 -200.558)" fill="#d2d5d4"/>
          </g>
          <path id="Trazado_2176" data-name="Trazado 2176" d="M-30.909,206.942c.03.425-.621.819-1.455.879s-1.537-.234-1.567-.658.619-.819,1.453-.879,1.538.233,1.569.658Z" transform="translate(39.214 -201.401)" fill="#fff"/>
          <g id="Grupo_817" data-name="Grupo 817" transform="translate(3.803 1.897)">
            <path id="Trazado_2177" data-name="Trazado 2177" d="M-17.017,204.717a3.6,3.6,0,0,0-2.945-2.022c-2.583-.433-5.293.077-7.852.47-2.471.377-5.141.478-7.489,1.393-1.159.448-1.45,1.839-.488,2.39,1.419.814,8.918,1.735,10.915,1.869,1.1.073,2.195.1,3.295.066a9.313,9.313,0,0,0,2.733-.432,2.907,2.907,0,0,0,1.779-1.3,3.567,3.567,0,0,0,.052-2.43Zm-1.51,1.745a1.719,1.719,0,0,1-.785.98,2.531,2.531,0,0,1-1.14.257,9.05,9.05,0,0,1-1.382-.087c-.384-.053-.779-.143-1.162-.217-1.056-.206-5-1.027-3.12-2.834a4.246,4.246,0,0,1,2.487-.865,8.934,8.934,0,0,1,3.74-.039A1.842,1.842,0,0,1-18.6,204.95a3.224,3.224,0,0,1,.069,1.511Z" transform="translate(36.369 -201.825)" fill="#73767a"/>
            <path id="Trazado_2178" data-name="Trazado 2178" d="M-17.017,203.555a3.6,3.6,0,0,0-2.945-2.022c-2.583-.431-5.293.078-7.852.47-2.471.378-5.141.479-7.489,1.393-1.159.45-1.45,1.84-.488,2.391,1.419.814,8.918,1.735,10.915,1.868,1.1.075,2.195.1,3.295.067a9.315,9.315,0,0,0,2.733-.433,2.9,2.9,0,0,0,1.779-1.3,3.57,3.57,0,0,0,.052-2.431Zm-1.51,1.745a1.724,1.724,0,0,1-.785.981,2.507,2.507,0,0,1-1.14.257,9.048,9.048,0,0,1-1.382-.087c-.384-.053-.779-.141-1.162-.216-1.056-.206-5-1.03-3.12-2.835a4.247,4.247,0,0,1,2.487-.865,8.925,8.925,0,0,1,3.74-.038A1.837,1.837,0,0,1-18.6,203.79a3.22,3.22,0,0,1,.069,1.51Z" transform="translate(36.369 -201.369)" fill="#b0b3b3"/>
            <g id="Grupo_816" data-name="Grupo 816" transform="translate(1.57 2.237)">
              <path id="Trazado_2179" data-name="Trazado 2179" d="M-30.567,206.2c.017.453-.692.841-1.582.87s-1.62-.313-1.634-.765.692-.843,1.581-.87,1.621.312,1.634.766Z" transform="translate(33.782 -205.204)" fill="#73767a"/>
              <path id="Trazado_2180" data-name="Trazado 2180" d="M-30.567,205.763c.033.453-.66.87-1.546.935s-1.634-.25-1.666-.7.66-.869,1.546-.935,1.633.249,1.666.7Z" transform="translate(33.781 -205.055)" fill="#d2d5d4"/>
            </g>
          </g>
        </g>
      </g>
    </g>
  </g>
</svg>
