<svg xmlns="http://www.w3.org/2000/svg" xmlns:xlink="http://www.w3.org/1999/xlink" width="123" height="118" viewBox="0 0 123 118">
  <defs>
    <linearGradient id="linear-gradient" x1="0.5" y1="1.04" x2="0.5" y2="-0.063" gradientUnits="objectBoundingBox">
      <stop offset="0.261" stop-color="#fff" stop-opacity="0"/>
      <stop offset="0.384" stop-color="#fff" stop-opacity="0.012"/>
      <stop offset="0.481" stop-color="#fff" stop-opacity="0.051"/>
      <stop offset="0.568" stop-color="#fff" stop-opacity="0.118"/>
      <stop offset="0.651" stop-color="#fff" stop-opacity="0.208"/>
      <stop offset="0.73" stop-color="#fff" stop-opacity="0.329"/>
      <stop offset="0.806" stop-color="#fff" stop-opacity="0.475"/>
      <stop offset="0.88" stop-color="#fff" stop-opacity="0.647"/>
      <stop offset="0.951" stop-color="#fff" stop-opacity="0.843"/>
      <stop offset="1" stop-color="#fff"/>
    </linearGradient>
    <radialGradient id="radial-gradient" cx="0.013" cy="0.633" r="0.749" gradientTransform="translate(0.007) scale(0.985 1)" gradientUnits="objectBoundingBox">
      <stop offset="0"/>
      <stop offset="0.999" stop-color="#242422" stop-opacity="0"/>
    </radialGradient>
  </defs>
  <g id="Grupo_1117" data-name="Grupo 1117" transform="translate(-205 -321)">
    <g id="Grupo_1055" data-name="Grupo 1055">
      <g id="Elipse_30" data-name="Elipse 30" transform="translate(205 321)" fill="#fff" stroke="#707070" stroke-width="1">
        <ellipse cx="61.5" cy="59" rx="61.5" ry="59" stroke="none"/>
        <ellipse cx="61.5" cy="59" rx="61" ry="58.5" fill="none"/>
      </g>
      <g id="Grupo_718" data-name="Grupo 718" transform="translate(-993.068 -160.427)">
        <path id="Trazado_1818" data-name="Trazado 1818" d="M1293.2,512.964c16.751,10.547,25.236-5.136,25.236-5.136C1297.127,497.864,1293.2,512.964,1293.2,512.964Z" transform="translate(-19.372 0)" fill="#7bd917"/>
        <path id="Trazado_1819" data-name="Trazado 1819" d="M1266.3,513.774s6.866,9.8,18.4,1.5C1284.695,515.273,1281.139,505.51,1266.3,513.774Z" transform="translate(-12.146 -1.618)" fill="#7bd917"/>
        <path id="Trazado_1820" data-name="Trazado 1820" d="M1289.789,509.583s1.592,3.174,1.244,11.1h1.232s.354-10.337.708-11.629C1292.973,509.055,1290.673,508.077,1289.789,509.583Z" transform="translate(-18.455 -1.159)" fill="#8c5200"/>
        <path id="Trazado_1821" data-name="Trazado 1821" d="M1282.206,523.719c-13.943,0-25.246,10.567-25.246,24.51a25.246,25.246,0,1,0,50.493,0C1307.453,534.286,1296.15,523.719,1282.206,523.719Z" transform="translate(-9.639 -5.181)" fill="#ffb700"/>
        <path id="Trazado_1822" data-name="Trazado 1822" d="M1282.206,523.719c-13.943,0-25.246,10.567-25.246,24.51a25.246,25.246,0,1,0,50.493,0C1307.453,534.286,1296.15,523.719,1282.206,523.719Z" transform="translate(-9.639 -5.181)" opacity="0.4" fill="url(#linear-gradient)"/>
        <path id="Trazado_1823" data-name="Trazado 1823" d="M1282.206,523.719c-13.943,0-25.246,10.567-25.246,24.51a25.246,25.246,0,1,0,50.493,0C1307.453,534.286,1296.15,523.719,1282.206,523.719Z" transform="translate(-9.639 -5.181)" opacity="0.6" fill="url(#radial-gradient)"/>
        <circle id="Elipse_75" data-name="Elipse 75" cx="25.246" cy="25.246" r="25.246" transform="translate(1221.874 524.575)" fill="#ffb700"/>
        <circle id="Elipse_76" data-name="Elipse 76" cx="22.536" cy="22.536" r="22.536" transform="translate(1224.584 527.285)" fill="#fef9e7"/>
        <circle id="Elipse_77" data-name="Elipse 77" cx="18.515" cy="18.515" r="18.515" transform="matrix(0.235, -0.972, 0.972, 0.235, 1224.766, 563.458)" fill="#cef037"/>
        <line id="Línea_10" data-name="Línea 10" y2="37.051" transform="translate(1247.12 531.296)" fill="none" stroke="#fffcde" stroke-linecap="round" stroke-linejoin="round" stroke-width="2"/>
        <circle id="Elipse_78" data-name="Elipse 78" cx="18.515" cy="18.515" r="18.515" transform="translate(1228.605 531.306)" fill="#cef037"/>
        <line id="Línea_11" data-name="Línea 11" x2="26.199" y2="26.199" transform="translate(1234.021 536.722)" fill="none" stroke="#fffcde" stroke-linecap="round" stroke-linejoin="round" stroke-width="2"/>
        <line id="Línea_12" data-name="Línea 12" y1="26.199" x2="26.199" transform="translate(1234.021 536.722)" fill="none" stroke="#fffcde" stroke-linecap="round" stroke-linejoin="round" stroke-width="2"/>
        <circle id="Elipse_79" data-name="Elipse 79" cx="18.515" cy="18.515" r="18.515" transform="matrix(0.632, -0.775, 0.775, 0.632, 1221.068, 552.46)" fill="#cef037"/>
        <line id="Línea_13" data-name="Línea 13" x2="37.051" transform="translate(1228.594 549.821)" fill="none" stroke="#fffcde" stroke-linecap="round" stroke-linejoin="round" stroke-width="2"/>
        <line id="Línea_14" data-name="Línea 14" y1="37.051" transform="translate(1247.12 531.296)" fill="none" stroke="#fffcde" stroke-linecap="round" stroke-linejoin="round" stroke-width="2"/>
        <circle id="Elipse_80" data-name="Elipse 80" cx="20.094" cy="20.094" r="20.094" transform="translate(1227.026 529.727)" fill="#ff8a14"/>
        <g id="Grupo_716" data-name="Grupo 716" transform="translate(1232.904 535.605)">
          <line id="Línea_15" data-name="Línea 15" x2="28.433" y2="28.433" fill="none" stroke="#fef9e7" stroke-linecap="round" stroke-linejoin="round" stroke-width="2"/>
          <line id="Línea_16" data-name="Línea 16" y1="28.433" x2="28.433" fill="none" stroke="#fef9e7" stroke-linecap="round" stroke-linejoin="round" stroke-width="2"/>
        </g>
        <g id="Grupo_717" data-name="Grupo 717" transform="translate(1227.015 529.716)">
          <line id="Línea_17" data-name="Línea 17" y2="40.211" transform="translate(20.105 0)" fill="none" stroke="#fef9e7" stroke-linecap="round" stroke-linejoin="round" stroke-width="2"/>
          <line id="Línea_18" data-name="Línea 18" x2="40.211" transform="translate(0 20.105)" fill="none" stroke="#fef9e7" stroke-linecap="round" stroke-linejoin="round" stroke-width="2"/>
        </g>
        <path id="Trazado_1824" data-name="Trazado 1824" d="M1254.662,559.555l1.5,1.5h2.121v2.121l1.5,1.5-1.5,1.5V568.3h-2.121l-1.5,1.5-1.5-1.5h-2.121v-2.121l-1.5-1.5,1.5-1.5v-2.121h2.121Z" transform="translate(-7.646 -14.805)" fill="#fef9e7"/>
      </g>
    </g>
  </g>
</svg>
