<svg xmlns="http://www.w3.org/2000/svg" width="123" height="118" viewBox="0 0 123 118">
  <g id="Grupo_1101" data-name="Grupo 1101" transform="translate(-205 -160)">
    <g id="Grupo_1036" data-name="Grupo 1036">
      <g id="Elipse_46" data-name="Elipse 46" transform="translate(205 160)" fill="#fff" stroke="#707070" stroke-width="1">
        <ellipse cx="61.5" cy="59" rx="61.5" ry="59" stroke="none"/>
        <ellipse cx="61.5" cy="59" rx="61" ry="58.5" fill="none"/>
      </g>
      <g id="Grupo_386" data-name="Grupo 386" transform="translate(-716.697 -390.924)">
        <g id="Grupo_376" data-name="Grupo 376" transform="translate(938.651 595.955)">
          <path id="Trazado_894" data-name="Trazado 894" d="M946.36,629.747c-3.454,4.594-9.645,17.935-.482,23.3s58.187,5.518,71.851,5.058,16.878-16.555,12.216-22.84-14.145-16.249-24.593-14.1c0,0-21.7-3.219-28.29-2.146a56.958,56.958,0,0,0-9.484,2.146S952.468,621.623,946.36,629.747Z" transform="translate(-941.09 -618.798)" fill="#ffcf79"/>
        </g>
        <g id="Grupo_377" data-name="Grupo 377" transform="translate(958.375 596.622)">
          <path id="Trazado_895" data-name="Trazado 895" d="M973.582,622.494c-2.547,2.393,3.5,2.913,8.748,8.584s6.521,5.825,10.656,5.365,2.545-7.511-1.591-10.883S979.944,616.516,973.582,622.494Z" transform="translate(-972.981 -619.877)" fill="#fcb85d"/>
        </g>
        <g id="Grupo_378" data-name="Grupo 378" transform="translate(991.696 594.706)">
          <path id="Trazado_896" data-name="Trazado 896" d="M1027.458,619.4c-2.546,2.393,3.5,2.912,8.748,8.584s6.521,5.825,10.656,5.365,2.544-7.511-1.591-10.884S1033.82,613.418,1027.458,619.4Z" transform="translate(-1026.857 -616.779)" fill="#fcb85d"/>
        </g>
        <g id="Grupo_379" data-name="Grupo 379" transform="translate(936.534 612.654)">
          <path id="Trazado_897" data-name="Trazado 897" d="M941.659,646.027c2.027-1.771,6.68,7.358,16.542,6.9s14.156-3.526,22.9-1.073,17.814,5.978,26.243,1.533,9.066-3.985,13.838-2.452,8.589-3.833,10.975-1.687,1.272,16.249-12.088,19.315-61.394,1.686-72.368-3.526S934.82,652.006,941.659,646.027Z" transform="translate(-937.667 -645.799)" fill="#fcb85d"/>
        </g>
        <g id="Grupo_380" data-name="Grupo 380" transform="translate(962.837 568.559)">
          <path id="Trazado_898" data-name="Trazado 898" d="M986.879,580.793a11.489,11.489,0,0,0-5.657-6.231c-.638-.283-1.244.5-.95,1.078a21.107,21.107,0,0,0,2.783,3.728c1.908,2.315,1.981,4.514,1.464,7.313-.552,2.984.545,5.005,2.813,6.889.863.717,1.756-.585,1.2-1.367a9.164,9.164,0,0,1-1.925-4.284c.027-1.082.688-2.113.769-3.2A8.057,8.057,0,0,0,986.879,580.793Z" transform="translate(-980.196 -574.503)" fill="#80491f"/>
        </g>
        <g id="Grupo_381" data-name="Grupo 381" transform="translate(987.559 567.534)">
          <path id="Trazado_899" data-name="Trazado 899" d="M1025.935,581.046a11.5,11.5,0,0,0-2.667-7.983.781.781,0,0,0-1.3.6,21.069,21.069,0,0,0,1.045,4.533c.813,2.888-.006,4.929-1.607,7.283-1.707,2.509-1.518,4.8-.2,7.439.5,1,1.842.172,1.649-.767a9.165,9.165,0,0,1-.036-4.7c.461-.98,1.481-1.657,1.991-2.615A8.056,8.056,0,0,0,1025.935,581.046Z" transform="translate(-1020.168 -572.845)" fill="#80491f"/>
        </g>
        <g id="Grupo_382" data-name="Grupo 382" transform="translate(975.084 558.924)">
          <path id="Trazado_900" data-name="Trazado 900" d="M1006.683,569.524c-.75-4.1-2.35-7.975-5.273-10.423-.692-.579-1.594.372-1.379,1.267a33.426,33.426,0,0,0,2.44,6.068c1.729,3.819,1.3,6.962.04,10.794-1.348,4.086-.515,7.262,1.742,10.568.859,1.258,2.222-.343,1.744-1.609a15.408,15.408,0,0,1-1.293-6.619c.283-1.53,1.309-2.811,1.656-4.326A13.839,13.839,0,0,0,1006.683,569.524Z" transform="translate(-999.999 -558.924)" fill="#80491f"/>
        </g>
        <g id="Grupo_383" data-name="Grupo 383" transform="translate(934.697 591.261)">
          <path id="Trazado_901" data-name="Trazado 901" d="M973.06,654.119c-17.917,0-35.617-1.182-38.066-15.313a16.2,16.2,0,0,1,2.714-12.708c5.571-7.707,17.015-10,19.151-10.371,4.533-3,10.964-4.518,19.124-4.518a84.05,84.05,0,0,1,17.69,2.026,29.9,29.9,0,0,1,6.1-.55c8.624,0,24.615,2.907,29.844,13.806,3.169,6.6,3.3,12.8.362,17.463-4.125,6.555-13.752,9.88-28.611,9.88l-.792,0c-5.219-.046-10.447.052-15.549.144C980.927,654.049,976.914,654.119,973.06,654.119Zm2.923-40.047c-7.733,0-13.715,1.413-17.772,4.2a1.465,1.465,0,0,1-.6.237c-.121.017-12.275,1.916-17.589,9.278a13.433,13.433,0,0,0-2.206,10.533c1.868,10.775,14.871,12.939,35.244,12.939,3.838,0,7.834-.071,11.912-.145,5.123-.092,10.38-.186,15.621-.144l.77,0c13.616,0,22.672-2.954,26.187-8.542,3.065-4.87,1.409-10.682-.518-14.7-4.018-8.369-16.95-12.18-27.265-12.18a26.175,26.175,0,0,0-5.776.55,1.518,1.518,0,0,1-.671,0A82.156,82.156,0,0,0,975.983,614.072Z" transform="translate(-934.697 -611.209)" fill="#80491f"/>
        </g>
        <g id="Grupo_384" data-name="Grupo 384" transform="translate(955.97 595.711)">
          <path id="Trazado_902" data-name="Trazado 902" d="M987.7,631.286a1.427,1.427,0,0,1-1.055-.464,31.293,31.293,0,0,0-16.343-9.573,1.432,1.432,0,0,1,.439-2.829,33.587,33.587,0,0,1,18.014,10.468,1.431,1.431,0,0,1-1.055,2.4Z" transform="translate(-969.092 -618.404)" fill="#80491f"/>
        </g>
        <g id="Grupo_385" data-name="Grupo 385" transform="translate(992.232 593.323)">
          <path id="Trazado_903" data-name="Trazado 903" d="M1043.231,628.382a1.436,1.436,0,0,1-1.119-.537,42.265,42.265,0,0,0-13.552-10.568,1.43,1.43,0,0,1,1.189-2.6,44.542,44.542,0,0,1,14.6,11.381,1.431,1.431,0,0,1-1.118,2.326Z" transform="translate(-1027.724 -614.543)" fill="#80491f"/>
        </g>
      </g>
    </g>
  </g>
</svg>
