<svg xmlns="http://www.w3.org/2000/svg" width="123" height="118" viewBox="0 0 123 118">
  <g id="Grupo_1072" data-name="Grupo 1072" transform="translate(-119 -203)">
    <g id="Elipse_3" data-name="Elipse 3" transform="translate(119 203)" fill="#fff" stroke="#707070" stroke-width="3">
      <ellipse cx="61.5" cy="59" rx="61.5" ry="59" stroke="none"/>
      <ellipse cx="61.5" cy="59" rx="60" ry="57.5" fill="none"/>
    </g>
    <g id="Grupo_343" data-name="Grupo 343" transform="translate(-243.133 -652.485)">
      <g id="Grupo_292" data-name="Grupo 292" transform="translate(370.133 887.485)">
        <g id="Grupo_270" data-name="Grupo 270" transform="translate(16.337 10.448)">
          <path id="Trazado_798" data-name="Trazado 798" d="M428.975,943.2c7.748-.2,11.391-3.068,11.437-9.409s-8.917-15.72-12.231-16.738-7.972-.171-10.292,8.019S411.77,943.642,428.975,943.2Z" transform="translate(-415.834 -916.714)" fill="#ffcf79"/>
        </g>
        <g id="Grupo_271" data-name="Grupo 271" transform="translate(15.885 10.42)">
          <path id="Trazado_799" data-name="Trazado 799" d="M439.6,933.746a12.944,12.944,0,0,0-9.909-8.468c-7.821-1.417-14.174,6.575-14.969,6.241s1.507-11.151,6.9-13.747S430.532,915.718,439.6,933.746Z" transform="translate(-414.571 -916.636)" fill="#fcb85d"/>
        </g>
        <g id="Grupo_272" data-name="Grupo 272" transform="translate(6.591 15.38)">
          <path id="Trazado_800" data-name="Trazado 800" d="M396.766,946.081s-6.359-2.673-7.725-6.988.355-7.52,3.634-8.2,9.644-.248,9.644-.248S396.085,939.247,396.766,946.081Z" transform="translate(-388.57 -930.51)" fill="#ffcf79"/>
        </g>
        <g id="Grupo_273" data-name="Grupo 273" transform="translate(3.264 9.448)">
          <path id="Trazado_801" data-name="Trazado 801" d="M381.8,923.412s-3.165-5.82-2.43-7.569,7.025-2.472,10.722-1.479,5.481,3.426,5.557,4.581S383.3,923.855,381.8,923.412Z" transform="translate(-379.263 -913.916)" fill="#ffcf79"/>
        </g>
        <g id="Grupo_274" data-name="Grupo 274" transform="translate(3.432 1.506)">
          <path id="Trazado_802" data-name="Trazado 802" d="M379.734,900.1s1.092-5.714,4.654-7.957,6.644,4.663,7.3,7.557S381.282,901.308,379.734,900.1Z" transform="translate(-379.734 -891.698)" fill="#ffcf79"/>
        </g>
        <g id="Grupo_275" data-name="Grupo 275" transform="translate(7.982 1.737)">
          <path id="Trazado_803" data-name="Trazado 803" d="M400.945,915.342s-3.241-6.974-7.416-8.168c0,0,1.687-4.9-1.066-6.808,0,0,2.3-5.02.1-7.812,0,0,5.034-2.186,7.3,7.557a8.764,8.764,0,0,1,4.269,4.975C405.542,908.857,400.945,915.342,400.945,915.342Z" transform="translate(-392.463 -892.344)" fill="#fcb85d"/>
        </g>
        <g id="Grupo_276" data-name="Grupo 276" transform="translate(32.442 1.019)">
          <path id="Trazado_804" data-name="Trazado 804" d="M469.314,919.633s3.027-.972,5.468-5,1.544-5.9,1.544-5.9,3.592-7.655-.1-10.891c0,0-1.175-6.105-4.036-7.308s-5.82,3.165-7.608,6.529a12.939,12.939,0,0,0-3.694,6.117S467.626,908.074,469.314,919.633Z" transform="translate(-460.889 -890.335)" fill="#ffcf79"/>
        </g>
        <g id="Grupo_277" data-name="Grupo 277" transform="translate(32.442 1.299)">
          <path id="Trazado_805" data-name="Trazado 805" d="M468.666,915s-1.61-6.849,1.04-10.038c0,0-1.709-4.833,1.443-7.437,0,0-2.269-3.947-.113-6.407a8.727,8.727,0,0,0-6.453,6.453s-3.387,1.382-3.694,6.117C460.889,903.688,466.973,909.238,468.666,915Z" transform="translate(-460.889 -891.118)" fill="#fcb85d"/>
        </g>
        <g id="Grupo_278" data-name="Grupo 278" transform="translate(31.771 31.233)">
          <path id="Trazado_806" data-name="Trazado 806" d="M459.9,976.758a2.938,2.938,0,0,0,1.41-1.211c.224-.42-.279-.794-.657-.665a7.285,7.285,0,0,0-1.381.767C458.65,976.037,459.247,977.062,459.9,976.758Z" transform="translate(-459.011 -974.856)" fill="#fcb85d"/>
        </g>
        <g id="Grupo_279" data-name="Grupo 279" transform="translate(22.857 31.903)">
          <path id="Trazado_807" data-name="Trazado 807" d="M434.327,978.55l.047.041a.648.648,0,0,0,.907-.108.61.61,0,0,0,.065-.168c0,.03.035.018.145-.076.157-.086.31-.175.461-.272a.977.977,0,0,0,.553-.82.289.289,0,0,0-.171-.3,1.18,1.18,0,0,0-1.171.1,1.754,1.754,0,0,0-1.037.825A.673.673,0,0,0,434.327,978.55Z" transform="translate(-434.074 -976.732)" fill="#fcb85d"/>
        </g>
        <g id="Grupo_280" data-name="Grupo 280" transform="translate(27.352 27.672)">
          <path id="Trazado_808" data-name="Trazado 808" d="M447.4,966.393a6.586,6.586,0,0,0,1.159-.637c.494-.324.019-.985-.475-.838a5.928,5.928,0,0,0-1.111.428A.565.565,0,0,0,447.4,966.393Z" transform="translate(-446.648 -964.897)" fill="#fcb85d"/>
        </g>
        <g id="Grupo_281" data-name="Grupo 281" transform="translate(30.831 22.564)">
          <path id="Trazado_809" data-name="Trazado 809" d="M456.383,952.027a.372.372,0,0,0,.222.386c.435.177.766-.058,1.135-.286.419-.259.956-.53,1.154-1a.379.379,0,0,0-.3-.518,2.285,2.285,0,0,0-1.242.45C456.941,951.278,456.431,951.513,456.383,952.027Z" transform="translate(-456.381 -950.606)" fill="#fcb85d"/>
        </g>
        <g id="Grupo_282" data-name="Grupo 282" transform="translate(21.128 25.509)">
          <path id="Trazado_810" data-name="Trazado 810" d="M430.134,960.507c.567-.233,1.358-.461,1.6-1.078a.381.381,0,0,0-.2-.492c-.606-.27-1.332.12-1.9.35A.659.659,0,0,0,430.134,960.507Z" transform="translate(-429.238 -958.845)" fill="#fcb85d"/>
        </g>
        <g id="Grupo_283" data-name="Grupo 283" transform="translate(33.457 27.241)">
          <path id="Trazado_811" data-name="Trazado 811" d="M463.76,965.331a.472.472,0,0,0,.155.206.491.491,0,0,0,.5.071,5.3,5.3,0,0,0,1.806-1.349c.176-.221-.011-.635-.319-.56a5.275,5.275,0,0,0-1.981,1.037A.52.52,0,0,0,463.76,965.331Z" transform="translate(-463.728 -963.69)" fill="#fcb85d"/>
        </g>
        <g id="Grupo_284" data-name="Grupo 284" transform="translate(19.251 29.665)">
          <path id="Trazado_812" data-name="Trazado 812" d="M423.992,971.542c.114.86,1.516.234,1.941.062.607-.246.368-1.251-.3-1.124C425.1,970.584,423.887,970.75,423.992,971.542Z" transform="translate(-423.986 -970.47)" fill="#fcb85d"/>
        </g>
        <g id="Grupo_285" data-name="Grupo 285" transform="translate(14.589 11.874)">
          <path id="Trazado_813" data-name="Trazado 813" d="M428.123,922h0c.507.213,1.025.448,1.554.7,3.31,1.581,6.283,6.98,7.508,11.5.654,2.411,1.455,6.894-.538,9.836-3.955,5.838-15.234,6.073-20.96,3.667a7.568,7.568,0,0,1-3.3-2.368c-3.451-4.789-.14-16.761,3.81-21.268C420.183,919.522,424.286,920.389,428.123,922Zm-11.834,24.27c5.32,2.236,15.671,1.916,19.074-3.107,1.2-1.773,1.321-4.893.325-8.559-1.3-4.789-4.171-9.3-6.68-10.5-.506-.241-1-.466-1.486-.671h0c-3.925-1.65-6.994-1.948-10.153,1.657-3.472,3.961-6.68,15.228-3.719,19.338A6.191,6.191,0,0,0,416.29,946.272Z" transform="translate(-410.946 -920.703)" fill="#80491f"/>
        </g>
        <g id="Grupo_286" data-name="Grupo 286" transform="translate(32.211 13.192)">
          <path id="Trazado_814" data-name="Trazado 814" d="M470.234,926.1c.311.131.577.248.785.343,3.354,1.53,7.326,4.085,7.482,6.243.549,7.63-9.457,12.613-9.883,12.821a.776.776,0,0,1-.682-1.394c.1-.046,9.491-4.731,9.016-11.315-.069-.965-2.6-3.13-6.577-4.943-4.049-1.841-7.607-2.429-8.891-1.468a.776.776,0,1,1-.932-1.242C462.918,923.38,467.881,925.116,470.234,926.1Z" transform="translate(-460.243 -924.388)" fill="#80491f"/>
        </g>
        <g id="Grupo_287" data-name="Grupo 287" transform="translate(33.636 7.158)">
          <path id="Trazado_815" data-name="Trazado 815" d="M479.568,908.329a5.072,5.072,0,0,1,1.877,1.284c2.956,3.367-.077,11.634-.432,12.565a.776.776,0,0,1-1,.448l-.025-.009a.776.776,0,0,1-.425-.992c.873-2.29,2.7-8.727.716-10.988-1.055-1.2-4-1.795-7.507-1.5-3.26.271-5.119,1.113-5.348,1.484a17.647,17.647,0,0,0-1.669,3.975.776.776,0,0,1-1.5-.4A19,19,0,0,1,466.1,909.8c.8-1.3,4.026-2,6.541-2.212A16.178,16.178,0,0,1,479.568,908.329Z" transform="translate(-464.227 -907.508)" fill="#80491f"/>
        </g>
        <g id="Grupo_288" data-name="Grupo 288" transform="translate(36.418)">
          <path id="Trazado_816" data-name="Trazado 816" d="M481.562,887.711a3.016,3.016,0,0,1,.386.2c3.31,2.008,3.991,8.321,4.019,8.589a.776.776,0,0,1-1.544.158c-.167-1.611-1.081-6.086-3.281-7.42a1.645,1.645,0,0,0-1.5-.04c-2.405.907-5.369,5.255-6.116,7.632a.776.776,0,1,1-1.481-.465c.847-2.693,4.09-7.5,7.05-8.619A3.27,3.27,0,0,1,481.562,887.711Z" transform="translate(-472.01 -887.485)" fill="#80491f"/>
        </g>
        <g id="Grupo_289" data-name="Grupo 289" transform="translate(2.643 13.813)">
          <path id="Trazado_817" data-name="Trazado 817" d="M394.482,926.681a5.547,5.547,0,0,1,1.315.775.776.776,0,0,1-.968,1.213c-2.362-1.882-7.225-.8-10.8,1.246-3.251,1.862-5.184,4.237-4.923,6.052.571,3.977,9.452,9.811,12.827,11.723a.777.777,0,0,1,.293,1.058.791.791,0,0,1-1.058.293c-.522-.3-12.8-7.314-13.6-12.854-.426-2.972,2.66-5.884,5.689-7.618C386.766,926.56,391.337,925.36,394.482,926.681Z" transform="translate(-377.527 -926.126)" fill="#80491f"/>
        </g>
        <g id="Grupo_290" data-name="Grupo 290" transform="translate(0 9.019)">
          <path id="Trazado_818" data-name="Trazado 818" d="M384.282,914.216c2.2.923,3.894,2.281,3.951,4.093a.776.776,0,1,1-1.551.05c-.049-1.576-3.16-3.235-7.237-3.86-3.778-.579-7.09-.025-7.537,1.262-1.007,2.887,1.7,7.318,2.826,8.781a.776.776,0,0,1-1.229.948c-.186-.243-4.549-5.978-3.063-10.24.905-2.593,5.543-2.852,9.239-2.285A20,20,0,0,1,384.282,914.216Z" transform="translate(-370.133 -912.715)" fill="#80491f"/>
        </g>
        <g id="Grupo_291" data-name="Grupo 291" transform="translate(0.864 0.906)">
          <path id="Trazado_819" data-name="Trazado 819" d="M380.41,890.284c.036.015.072.03.107.047,3.376,1.546,5.34,8.428,5.7,9.793a.776.776,0,0,1-1.5.4c-.946-3.592-2.866-7.871-4.845-8.777a1.652,1.652,0,0,0-1.538.025c-3.291,1.606-4.229,7.772-4.239,7.835a.775.775,0,0,1-1.535-.223c.041-.286,1.063-7.041,5.092-9.007A3.25,3.25,0,0,1,380.41,890.284Z" transform="translate(-372.551 -890.019)" fill="#80491f"/>
        </g>
      </g>
      <g id="Grupo_327" data-name="Grupo 327" transform="translate(419.615 891.792)">
        <g id="Grupo_309" data-name="Grupo 309" transform="translate(0 2.113)">
          <g id="Grupo_293" data-name="Grupo 293" transform="translate(5.403 11.396)">
            <path id="Trazado_820" data-name="Trazado 820" d="M523.671,947.523s1.228,8.62,11.305,7.992,17.22-6.042,18.837-10.617-.411-7.575-.411-7.575-2.591,2.55-4.906,2.968-3.448.491-4.852,3.594-3.73,4.805-7.049,3.977-5.121-2.612-7.485-1.923Z" transform="translate(-523.671 -937.323)" fill="#ffcf79"/>
          </g>
          <g id="Grupo_294" data-name="Grupo 294" transform="translate(5.284 11.396)">
            <path id="Trazado_821" data-name="Trazado 821" d="M523.456,947.523c-.823,1.137,2.772,2.912,5.8,2.287s4.166,1.095,7.343.554,8.073-2.223,9.822-4.144,3.561-1.422,4.073-.545-2.425,5.323-3.149,5.919,5.882-4.022,6.863-7.257-1.017-7.014-1.017-7.014-2.355,2.482-4.906,2.968a6.126,6.126,0,0,0-4.852,3.594,8.374,8.374,0,0,1-6.271,4.007c-2.62.25-4.526-1.888-6.826-1.859A33.982,33.982,0,0,0,523.456,947.523Z" transform="translate(-523.337 -937.323)" fill="#fcb85d"/>
          </g>
          <g id="Grupo_295" data-name="Grupo 295" transform="translate(2.382 1.964)">
            <path id="Trazado_822" data-name="Trazado 822" d="M528.431,912.724c-8.07,2.351-11.724,5.98-12.7,10.112s-.766,8.816,2.509,7.733,7.57-1.307,9.219.393,6.067,2.336,8.727.023c1.149-1,3.44-5.362,5.095-5.845a18.231,18.231,0,0,0,5.719-2.82c1.33-1.157,1.844-6.436-1.08-9.432S535.169,910.761,528.431,912.724Z" transform="translate(-515.218 -910.937)" fill="#a76231"/>
          </g>
          <g id="Grupo_296" data-name="Grupo 296" transform="translate(10.458 7.052)">
            <path id="Trazado_823" data-name="Trazado 823" d="M538,929.084c-1.209,1.235,3.8,2.484,7.446.909s5.738-2.313,5.562-3.8S542.74,924.24,538,929.084Z" transform="translate(-537.811 -925.173)" fill="#945629"/>
          </g>
          <g id="Grupo_297" data-name="Grupo 297" transform="translate(4.926 11.376)">
            <path id="Trazado_824" data-name="Trazado 824" d="M524.044,937.464a.384.384,0,0,0-.357-.2.413.413,0,0,0-.355.214c-.277.438-.722.784-.961,1.237a.306.306,0,0,0,.352.438,3,3,0,0,0,1.332-1.278A.407.407,0,0,0,524.044,937.464Z" transform="translate(-522.336 -937.268)" fill="#fff"/>
          </g>
          <g id="Grupo_298" data-name="Grupo 298" transform="translate(11.195 5.769)">
            <path id="Trazado_825" data-name="Trazado 825" d="M541.686,921.583c-.39-.019-.623.473-.855.732-.3.331-.764.631-.942,1.043-.048.112.013.279.159.265a2.268,2.268,0,0,0,1.175-.748c.279-.257.838-.7.688-1.127A.237.237,0,0,0,541.686,921.583Z" transform="translate(-539.874 -921.582)" fill="#fff"/>
          </g>
          <g id="Grupo_299" data-name="Grupo 299" transform="translate(7.761 16.088)">
            <path id="Trazado_826" data-name="Trazado 826" d="M531.692,950.454a2.49,2.49,0,0,0-1.408,1.25c-.06.106.049.268.173.216a2.506,2.506,0,0,0,1.436-1.271C531.939,950.525,531.8,950.429,531.692,950.454Z" transform="translate(-530.267 -950.45)" fill="#fff"/>
          </g>
          <g id="Grupo_300" data-name="Grupo 300" transform="translate(15.123 13.839)">
            <path id="Trazado_827" data-name="Trazado 827" d="M552.711,944.163c-.409.082-.7.539-.972.829a4.028,4.028,0,0,0-.861,1.064.178.178,0,0,0,.247.235,4.084,4.084,0,0,0,1.059-.878c.288-.28.734-.565.812-.976A.231.231,0,0,0,552.711,944.163Z" transform="translate(-550.86 -944.157)" fill="#fff"/>
          </g>
          <g id="Grupo_301" data-name="Grupo 301" transform="translate(20.664 16.232)">
            <path id="Trazado_828" data-name="Trazado 828" d="M567.714,950.856c-.326.055-.519.4-.7.652a8.338,8.338,0,0,0-.628.982c-.121.234.208.5.384.28.243-.3.468-.619.716-.918.2-.245.476-.472.482-.808A.2.2,0,0,0,567.714,950.856Z" transform="translate(-566.361 -950.853)" fill="#fff"/>
          </g>
          <g id="Grupo_302" data-name="Grupo 302" transform="translate(24.726 9.85)">
            <path id="Trazado_829" data-name="Trazado 829" d="M579.391,933c-.367-.009-.578.357-.8.606a7.2,7.2,0,0,0-.834,1.019.229.229,0,0,0,.319.3,6.4,6.4,0,0,0,.875-.789c.252-.252.691-.533.661-.927A.221.221,0,0,0,579.391,933Z" transform="translate(-577.726 -932.998)" fill="#fff"/>
          </g>
          <g id="Grupo_303" data-name="Grupo 303" transform="translate(30.826 6.599)">
            <path id="Trazado_830" data-name="Trazado 830" d="M596.384,924.01a.218.218,0,0,0-.19-.1c-.37-.025-.53.382-.709.646a7.15,7.15,0,0,0-.671,1.1.267.267,0,0,0,.425.31A7.005,7.005,0,0,0,596,925C596.228,924.69,596.558,924.4,596.384,924.01Z" transform="translate(-594.788 -923.905)" fill="#fff"/>
          </g>
          <g id="Grupo_304" data-name="Grupo 304" transform="translate(26.507 4.597)">
            <path id="Trazado_831" data-name="Trazado 831" d="M583.967,918.315c-.3.11-.4.423-.567.677-.192.3-.487.526-.665.83a.224.224,0,0,0,.257.32,1.913,1.913,0,0,0,.845-.682c.208-.262.527-.659.381-1.008A.205.205,0,0,0,583.967,918.315Z" transform="translate(-582.706 -918.304)" fill="#fff"/>
          </g>
          <g id="Grupo_305" data-name="Grupo 305" transform="translate(19.521 3.548)">
            <path id="Trazado_832" data-name="Trazado 832" d="M564.6,915.452a.307.307,0,0,0-.132-.072.288.288,0,0,0-.286.083c-.331.377-.683.777-.981,1.179-.1.129-.006.37.183.3a2.6,2.6,0,0,0,1.271-1.134A.3.3,0,0,0,564.6,915.452Z" transform="translate(-563.164 -915.368)" fill="#fff"/>
          </g>
          <g id="Grupo_306" data-name="Grupo 306">
            <path id="Trazado_833" data-name="Trazado 833" d="M529.4,927.527a6.372,6.372,0,0,1-5.665-.8,6.306,6.306,0,0,0-2.761-1.013,8.486,8.486,0,0,0-3.13.431c-.266.078-.532.16-.8.243a13.86,13.86,0,0,1-5.232.845c-1.619-.086-2.9-1.841-3.194-4.367-.6-5.176,2.916-12.448,14.792-15.907,14.023-4.085,18.739,1.128,20.116,3.559,1.566,2.764,1.179,5.731-.077,6.893a12.034,12.034,0,0,1-4.911,2.656,10.471,10.471,0,0,0-2.55,1.091,6.163,6.163,0,0,0-1.669,2.1A8.076,8.076,0,0,1,529.4,927.527Zm-11.866-2.448a9.664,9.664,0,0,1,3.524-.472,7.283,7.283,0,0,1,3.221,1.154,5.256,5.256,0,0,0,4.811.7c2.448-.713,3.377-2.269,4.276-3.773a7.046,7.046,0,0,1,2.012-2.457,11.336,11.336,0,0,1,2.811-1.218A10.958,10.958,0,0,0,542.7,916.6c.93-.862,1.1-3.347-.135-5.534s-5.579-6.905-18.842-3.042c-11.213,3.266-14.55,9.969-14,14.716.221,1.908,1.126,3.333,2.153,3.388a12.864,12.864,0,0,0,4.846-.8C516.994,925.243,517.266,925.158,517.537,925.079Z" transform="translate(-508.555 -905.444)" fill="#80491f"/>
          </g>
          <g id="Grupo_307" data-name="Grupo 307" transform="translate(2.734 10.022)">
            <path id="Trazado_834" data-name="Trazado 834" d="M535.756,950.893c-6.428,1.872-11.528,1.722-15.158-.447a9.43,9.43,0,0,1-4.382-5.638.568.568,0,0,1,.426-.658.554.554,0,0,1,.657.425,8.477,8.477,0,0,0,3.891,4.933c3.354,1.991,8.151,2.1,14.256.321,5.8-1.689,9.714-4.366,11.642-7.959a10.8,10.8,0,0,0,1-7.671.553.553,0,0,1,.364-.694l.01,0a.554.554,0,0,1,.684.367,11.8,11.8,0,0,1-1.084,8.525C545.991,946.259,541.85,949.118,535.756,950.893Z" transform="translate(-516.204 -933.481)" fill="#80491f"/>
          </g>
          <g id="Grupo_308" data-name="Grupo 308" transform="translate(10.07 6.26)">
            <path id="Trazado_835" data-name="Trazado 835" d="M544.359,929.117h0c-1.592.464-6.842,1.785-7.562-.685s4.419-4.175,6.011-4.639c2.748-.8,7.563-1.6,8.175.506.267.915-.388,1.869-1.946,2.836A19.857,19.857,0,0,1,544.359,929.117Zm-1.242-4.26c-3.582,1.044-5.485,2.479-5.257,3.265s2.606.974,6.187-.069h0a18.691,18.691,0,0,0,4.4-1.859c1.205-.748,1.543-1.321,1.467-1.584C549.727,923.958,546.984,923.731,543.116,924.857Z" transform="translate(-536.727 -922.955)" fill="#80491f"/>
          </g>
        </g>
        <g id="Grupo_326" data-name="Grupo 326" transform="translate(25.469)">
          <g id="Grupo_310" data-name="Grupo 310" transform="translate(0.059 10.445)">
            <path id="Trazado_836" data-name="Trazado 836" d="M581.37,928.753s-4.753,7.3,3.242,13.46,16.937,6.8,21.167,4.418,4.68-5.971,4.68-5.971-3.63.212-5.647-1-2.918-1.9-6.018-.492-5.972,1.159-7.924-1.651-2.133-5.338-4.365-6.378Z" transform="translate(-579.967 -928.753)" fill="#ffcf79"/>
          </g>
          <g id="Grupo_311" data-name="Grupo 311" transform="translate(0.951 10.445)">
            <path id="Trazado_837" data-name="Trazado 837" d="M582.975,928.753c-1.368.314.168,4.017,2.855,5.539s2.414,3.568,5.161,5.254,7.539,3.644,10.12,3.351,3.617,1.276,3.424,2.273-5.331,2.408-6.268,2.38,7.075.848,9.944-.94,3.854-5.947,3.854-5.947-3.406.316-5.647-1a6.127,6.127,0,0,0-6.018-.492,8.374,8.374,0,0,1-7.358-1.115c-2.136-1.538-2.162-4.4-3.911-5.895A33.983,33.983,0,0,0,582.975,928.753Z" transform="translate(-582.465 -928.753)" fill="#fcb85d"/>
          </g>
          <g id="Grupo_312" data-name="Grupo 312" transform="translate(0.097 1.094)">
            <path id="Trazado_838" data-name="Trazado 838" d="M600.861,905.23c-7.62-3.547-12.76-3.222-16.216-.756s-6.383,6.128-3.205,7.471,6.557,4,6.679,6.368,3.026,5.754,6.552,5.765c1.523.005,6.12-1.769,7.683-1.042a18.232,18.232,0,0,0,6.161,1.645c1.763.006,5.627-3.628,5.4-7.809S607.224,908.192,600.861,905.23Z" transform="translate(-580.076 -902.595)" fill="#ef7561"/>
          </g>
          <g id="Grupo_313" data-name="Grupo 313" transform="translate(13.19 7.022)">
            <path id="Trazado_839" data-name="Trazado 839" d="M617.205,919.211c-1.723.133,1.224,4.373,5,5.588s5.841,2.039,6.688.8S623.966,918.691,617.205,919.211Z" transform="translate(-616.701 -919.178)" fill="#ec5249"/>
          </g>
          <g id="Grupo_314" data-name="Grupo 314" transform="translate(7.996 4.396)">
            <path id="Trazado_840" data-name="Trazado 840" d="M604.452,912.308a.384.384,0,0,0-.14-.383.412.412,0,0,0-.408-.073c-.5.147-1.06.114-1.537.3a.307.307,0,0,0-.024.561,3,3,0,0,0,1.844-.084A.408.408,0,0,0,604.452,912.308Z" transform="translate(-602.171 -911.83)" fill="#fff"/>
          </g>
          <g id="Grupo_315" data-name="Grupo 315" transform="translate(16.255 4.572)">
            <path id="Trazado_841" data-name="Trazado 841" d="M627.917,912.456c-.281-.271-.781-.054-1.126-.012a4.649,4.649,0,0,0-1.4.165.181.181,0,0,0-.055.3,2.269,2.269,0,0,0,1.376.211c.379-.01,1.094.022,1.259-.4A.238.238,0,0,0,627.917,912.456Z" transform="translate(-625.276 -912.322)" fill="#fff"/>
          </g>
          <g id="Grupo_316" data-name="Grupo 316" transform="translate(7.24 9.775)">
            <path id="Trazado_842" data-name="Trazado 842" d="M602.038,927.058a2.489,2.489,0,0,0-1.882.013.151.151,0,0,0-.012.277,2.508,2.508,0,0,0,1.918-.011C602.177,927.274,602.135,927.11,602.038,927.058Z" transform="translate(-600.058 -926.877)" fill="#fff"/>
          </g>
          <g id="Grupo_317" data-name="Grupo 317" transform="translate(13.823 13.288)">
            <path id="Trazado_843" data-name="Trazado 843" d="M621.211,936.811c-.362-.207-.878-.053-1.277-.016a4.03,4.03,0,0,0-1.349.233.178.178,0,0,0,.031.339,4.071,4.071,0,0,0,1.375.037c.4-.02.924.059,1.254-.2A.231.231,0,0,0,621.211,936.811Z" transform="translate(-618.473 -936.705)" fill="#fff"/>
          </g>
          <g id="Grupo_318" data-name="Grupo 318" transform="translate(16.557 18.429)">
            <path id="Trazado_844" data-name="Trazado 844" d="M628.344,951.172c-.282-.173-.654-.041-.955.031a8.334,8.334,0,0,0-1.119.325c-.245.1-.172.513.1.464.382-.068.76-.158,1.143-.219a1.4,1.4,0,0,0,.894-.29A.2.2,0,0,0,628.344,951.172Z" transform="translate(-626.121 -951.087)" fill="#fff"/>
          </g>
          <g id="Grupo_319" data-name="Grupo 319" transform="translate(23.831 16.446)">
            <path id="Trazado_845" data-name="Trazado 845" d="M648.917,945.685c-.271-.249-.671-.112-1-.073a7.192,7.192,0,0,0-1.3.218.229.229,0,0,0,.04.439,6.445,6.445,0,0,0,1.177-.017c.356-.024.871.054,1.108-.262A.221.221,0,0,0,648.917,945.685Z" transform="translate(-646.47 -945.539)" fill="#fff"/>
          </g>
          <g id="Grupo_320" data-name="Grupo 320" transform="translate(30.455 17.861)">
            <path id="Trazado_846" data-name="Trazado 846" d="M667.432,949.833a.219.219,0,0,0-.074-.2c-.262-.263-.651-.062-.959.02a7.168,7.168,0,0,0-1.232.389.267.267,0,0,0,.116.513,7.058,7.058,0,0,0,1.211-.223C666.867,950.242,667.3,950.244,667.432,949.833Z" transform="translate(-665 -949.498)" fill="#fff"/>
          </g>
          <g id="Grupo_321" data-name="Grupo 321" transform="translate(28.703 13.514)">
            <path id="Trazado_847" data-name="Trazado 847" d="M662.161,937.376c-.3-.114-.583.052-.873.136-.342.1-.712.075-1.046.187a.224.224,0,0,0-.018.41,1.91,1.91,0,0,0,1.085.043c.329-.06.831-.149.951-.508A.205.205,0,0,0,662.161,937.376Z" transform="translate(-660.098 -937.337)" fill="#fff"/>
          </g>
          <g id="Grupo_322" data-name="Grupo 322" transform="translate(24.284 8.064)">
            <path id="Trazado_848" data-name="Trazado 848" d="M649.738,922.361a.3.3,0,0,0-.051-.141.289.289,0,0,0-.27-.126c-.5.065-1.025.135-1.515.241-.157.034-.248.275-.06.346a2.593,2.593,0,0,0,1.7-.016A.3.3,0,0,0,649.738,922.361Z" transform="translate(-647.736 -922.093)" fill="#fff"/>
          </g>
          <g id="Grupo_323" data-name="Grupo 323" transform="translate(0.252)">
            <path id="Trazado_849" data-name="Trazado 849" d="M594.306,921.677a6.372,6.372,0,0,1-3.735-4.335,6.307,6.307,0,0,0-1.41-2.58,8.48,8.48,0,0,0-2.638-1.737c-.251-.117-.506-.229-.764-.345a13.879,13.879,0,0,1-4.494-2.81c-1.161-1.131-.971-3.3.473-5.39,2.959-4.289,10.393-7.446,21.608-2.227,13.242,6.162,13.357,13.191,12.792,15.928-.642,3.111-2.888,5.088-4.6,5.136a12.041,12.041,0,0,1-5.445-1.236,10.465,10.465,0,0,0-2.637-.858,6.159,6.159,0,0,0-2.639.481A8.075,8.075,0,0,1,594.306,921.677Zm-7.316-9.657a9.669,9.669,0,0,1,2.962,1.966,7.284,7.284,0,0,1,1.664,2.99,5.255,5.255,0,0,0,3.158,3.7c2.311,1.076,4.036.518,5.7-.023a7.034,7.034,0,0,1,3.131-.524,11.317,11.317,0,0,1,2.918.935,10.957,10.957,0,0,0,4.982,1.149c1.267-.036,3.035-1.791,3.544-4.253.512-2.478.35-8.87-12.174-14.7-10.589-4.927-17.515-2.082-20.228,1.851-1.091,1.581-1.348,3.249-.611,3.967a12.866,12.866,0,0,0,4.172,2.592C586.473,911.785,586.733,911.9,586.99,912.02Z" transform="translate(-580.508 -899.533)" fill="#80491f"/>
          </g>
          <g id="Grupo_324" data-name="Grupo 324" transform="translate(0 9.392)">
            <path id="Trazado_850" data-name="Trazado 850" d="M591.41,943.533c-6.07-2.825-9.809-6.3-11.111-10.32a9.429,9.429,0,0,1,.416-7.128.567.567,0,0,1,.753-.214.554.554,0,0,1,.215.753,8.477,8.477,0,0,0-.322,6.274c1.212,3.707,4.75,6.948,10.516,9.631,5.475,2.548,10.185,3.112,14,1.679a10.8,10.8,0,0,0,5.806-5.111.554.554,0,0,1,.732-.282l.009,0a.554.554,0,0,1,.273.727,11.792,11.792,0,0,1-6.431,5.7C602.164,946.788,597.165,946.212,591.41,943.533Z" transform="translate(-579.804 -925.807)" fill="#80491f"/>
          </g>
          <g id="Grupo_325" data-name="Grupo 325" transform="translate(12.649 6.235)">
            <path id="Trazado_851" data-name="Trazado 851" d="M620.586,923.543h0c-1.5-.7-6.324-3.163-5.238-5.5s6.075-.231,7.578.468c2.6,1.208,6.742,3.781,5.818,5.766-.4.864-1.523,1.151-3.332.853A19.867,19.867,0,0,1,620.586,923.543Zm1.871-4.023c-3.382-1.574-5.761-1.747-6.106-1.006s1.319,2.449,4.7,4.023h0a18.672,18.672,0,0,0,4.537,1.5c1.4.231,2.031.022,2.147-.226C628.023,923.2,626.109,921.219,622.456,919.519Z" transform="translate(-615.188 -916.975)" fill="#80491f"/>
          </g>
        </g>
      </g>
      <g id="Grupo_342" data-name="Grupo 342" transform="translate(387.324 913.929)">
        <g id="Grupo_328" data-name="Grupo 328" transform="translate(6.041 18.48)">
          <path id="Trazado_852" data-name="Trazado 852" d="M435.123,1016.565s2.942,8.457,5.7,10.664,14.157,2.022,23.718,2.574,20.592-1.471,21.512-2.206,4.228-9.745,4.045-11.583c0,0-3.126-1.839-4.413-1.655s-2.023,2.39-5.884,2.942-4.78-.919-6.435-2.942-4.964-1.1-6.619.552-2.206,2.942-6.435,2.206-4.964-1.655-7.906-3.493-3.677,2.206-5.883,4.045-4.6,1.471-5.516-.368S438.065,1013.808,435.123,1016.565Z" transform="translate(-435.123 -1013.155)" fill="#ffcf79"/>
        </g>
        <g id="Grupo_329" data-name="Grupo 329" transform="translate(6.041 18.581)">
          <path id="Trazado_853" data-name="Trazado 853" d="M435.123,1016.749s2.39-.184,4.413,2.574,5.148,4.6,7.722,2.758,6.619-3.309,9.377-1.1,9.377,2.022,11.4-.184,2.758.552,6.619-.184,7.17-.92,7.722.919-5.332,6.8-7.171,7.722,9.009-1.1,10.848-1.471,4.045-8.09,4.045-11.583c0,0-2.758-2.758-4.413-1.655s-3.309,3.493-7.171,3.309-3.861-2.942-6.619-4.045-4.413.368-7.722,3.31-7.906-.736-9.928-2.39-5.516-2.206-7.17,1.471-4.229,3.31-6.067,1.287S437.513,1013.991,435.123,1016.749Z" transform="translate(-435.123 -1013.44)" fill="#fcb85d"/>
        </g>
        <g id="Grupo_330" data-name="Grupo 330" transform="translate(2.003 3.32)">
          <path id="Trazado_854" data-name="Trazado 854" d="M455.444,970.747c-19.489,0-29.417,11.767-31.072,15.628s.735,5.332,3.493,2.942,3.677-.736,5.884.735,4.413,1.1,6.067-1.287,4.413-3.309,7.17-1.471,5.516,3.677,9.561,1.655,6.067-4.229,8.825-2.574,3.677,5.148,7.171,3.677,4.413-4.413,7.171-3.31a25.223,25.223,0,0,0,6.435,1.655C487.619,988.581,486.148,970.747,455.444,970.747Z" transform="translate(-423.827 -970.747)" fill="#dd5b47"/>
        </g>
        <g id="Grupo_331" data-name="Grupo 331" transform="translate(1.895 13.252)">
          <path id="Trazado_855" data-name="Trazado 855" d="M431.348,998.9c-3.087-1.973-8.642,5.148-7.722,7.906s3.677-1.287,6.251-1.471,4.229,5.516,7.538,3.494,4.229-5.332,7.538-4.6,4.6,3.494,9.377,3.126,7.354-3.493,10.112-3.126,3.677,4.964,7.906,3.677,4.045-5.332,7.17-3.309,5.7,2.574,6.435,1.655-.919-6.435-2.39-7.171-7.171-1.287-8.825,2.206-7.906-2.574-12.686-1.655-6.435,5.148-10.3,2.942-6.8-4.78-10.112-3.677S437.967,1003.125,431.348,998.9Z" transform="translate(-423.524 -998.533)" fill="#db423a"/>
        </g>
        <g id="Grupo_332" data-name="Grupo 332" transform="translate(25.945 4.743)">
          <path id="Trazado_856" data-name="Trazado 856" d="M496.271,974.96c-2.435-1.826-6.987,7.722-4.964,9.009S499.213,977.167,496.271,974.96Z" transform="translate(-490.803 -974.729)" fill="#db423a"/>
        </g>
        <g id="Grupo_333" data-name="Grupo 333" transform="translate(37.165 5.005)">
          <path id="Trazado_857" data-name="Trazado 857" d="M522.691,975.614c-2.061,1.03,2.758,10.3,5.332,9.193S525.633,974.144,522.691,975.614Z" transform="translate(-522.192 -975.461)" fill="#db423a"/>
        </g>
        <g id="Grupo_334" data-name="Grupo 334" transform="translate(47.479 6.386)">
          <path id="Trazado_858" data-name="Trazado 858" d="M551.526,979.383c-1.931.773,2.39,8.825,5.148,7.171S553.364,978.648,551.526,979.383Z" transform="translate(-551.044 -979.323)" fill="#db423a"/>
        </g>
        <g id="Grupo_335" data-name="Grupo 335" transform="translate(14.608 7.437)">
          <path id="Trazado_859" data-name="Trazado 859" d="M464.311,982.377c-1.892-1.009-6.987,5.148-4.6,6.251S467.069,983.848,464.311,982.377Z" transform="translate(-459.089 -982.266)" fill="#db423a"/>
        </g>
        <g id="Grupo_336" data-name="Grupo 336">
          <path id="Trazado_860" data-name="Trazado 860" d="M432.456,986.379c-1.93,0-2.693-1.255-3.307-2.263-.6-.985-1.032-1.7-2.409-1.7a3.9,3.9,0,0,0-2.793,1.414,3.383,3.383,0,0,1-2.267,1.242c-.868,0-1.711-.515-2.731-1.671-.971-1.1-.966-2.9.013-5.071,2.942-6.524,14.767-16.874,33.978-16.874,24.787,0,32.323,11.924,32.845,18.23.189,2.273-.526,3.882-1.821,4.1a6.793,6.793,0,0,1-1.112.091h0a12.331,12.331,0,0,1-4.52-1.119,9.767,9.767,0,0,0-3.328-.892c-.753,0-.975.266-1.463.849-.8.962-1.907,2.281-5.668,2.459-3.622.182-4.527-1.289-5.288-2.453a2.943,2.943,0,0,0-2.8-1.684,3.838,3.838,0,0,0-3.527,1.506,6.8,6.8,0,0,1-5.525,2.356c-4.672,0-6.59-1.578-7.99-2.731-1.006-.828-1.629-1.319-2.924-1.139-1.49.214-1.886.982-2.433,2.046a5.076,5.076,0,0,1-3.865,3.187A5.484,5.484,0,0,1,432.456,986.379Zm-5.716-5.614a4.149,4.149,0,0,1,3.822,2.491c.6.991.937,1.468,1.894,1.468a3.839,3.839,0,0,0,.74-.082,3.467,3.467,0,0,0,2.718-2.322,4.506,4.506,0,0,1,3.67-2.925c2.068-.3,3.094.58,4.21,1.5,1.341,1.1,2.86,2.354,6.939,2.354a5.2,5.2,0,0,0,4.354-1.87,5.493,5.493,0,0,1,4.8-1.99,4.543,4.543,0,0,1,4.085,2.43c.7,1.069,1.234,1.842,3.825,1.707,3.036-.144,3.8-1.06,4.478-1.868A3.191,3.191,0,0,1,475,980.213a11.067,11.067,0,0,1,3.929,1.005,11.078,11.078,0,0,0,3.919,1.005h0a5.085,5.085,0,0,0,.841-.069c.111-.019.579-.683.443-2.328-.478-5.781-7.613-16.712-31.2-16.712-17.451,0-29.493,9.3-32.47,15.9-.676,1.5-.78,2.73-.28,3.3.853.966,1.3,1.111,1.49,1.111.3,0,.682-.366,1.13-.789A5.441,5.441,0,0,1,426.74,980.765Z" transform="translate(-418.224 -961.46)" fill="#80491f"/>
        </g>
        <g id="Grupo_337" data-name="Grupo 337" transform="translate(3.275 20.653)">
          <path id="Trazado_861" data-name="Trazado 861" d="M458.056,1032.082c-11.717,0-23.409-.546-25.06-1.647-2.62-1.746-5.257-8.2-5.549-8.93a.827.827,0,1,1,1.536-.614c.741,1.852,3.072,6.929,4.931,8.168,3.041,1.68,46.018,1.722,48.394.038,2.084-1.667,3.92-7.239,4.453-9.246a.827.827,0,1,1,1.6.424c-.083.315-2.084,7.768-5.021,10.118C481.933,1031.515,469.983,1032.082,458.056,1032.082Z" transform="translate(-427.387 -1019.235)" fill="#80491f"/>
        </g>
        <g id="Grupo_338" data-name="Grupo 338" transform="translate(15.686 7.998)">
          <path id="Trazado_862" data-name="Trazado 862" d="M462.931,989.122a.827.827,0,0,1-.706-1.257l2.206-3.634a.827.827,0,0,1,1.413.86l-2.206,3.634A.825.825,0,0,1,462.931,989.122Z" transform="translate(-462.105 -983.833)" fill="#80491f"/>
        </g>
        <g id="Grupo_339" data-name="Grupo 339" transform="translate(26.718 5.792)">
          <path id="Trazado_863" data-name="Trazado 863" d="M493.792,985.157a.828.828,0,0,1-.719-1.236l3.309-5.84a.827.827,0,1,1,1.439.816l-3.309,5.84A.827.827,0,0,1,493.792,985.157Z" transform="translate(-492.965 -977.662)" fill="#80491f"/>
        </g>
        <g id="Grupo_340" data-name="Grupo 340" transform="translate(37.75 5.792)">
          <path id="Trazado_864" data-name="Trazado 864" d="M528.24,985.158a.825.825,0,0,1-.706-.394l-3.585-5.84a.827.827,0,1,1,1.409-.866l3.585,5.84a.827.827,0,0,1-.7,1.26Z" transform="translate(-523.826 -977.664)" fill="#80491f"/>
        </g>
        <g id="Grupo_341" data-name="Grupo 341" transform="translate(48.781 7.998)">
          <path id="Trazado_865" data-name="Trazado 865" d="M558.547,989.123a.828.828,0,0,1-.636-.3l-3.034-3.634a.828.828,0,0,1,1.271-1.06l3.034,3.634a.827.827,0,0,1-.636,1.357Z" transform="translate(-554.686 -983.835)" fill="#80491f"/>
        </g>
      </g>
    </g>
  </g>
</svg>
