<svg xmlns="http://www.w3.org/2000/svg" width="123" height="118" viewBox="0 0 123 118">
  <g id="Grupo_1104" data-name="Grupo 1104" transform="translate(-205 -482)">
    <g id="Grupo_1038" data-name="Grupo 1038">
      <g id="Elipse_41" data-name="Elipse 41" transform="translate(205 482)" fill="#fff" stroke="#707070" stroke-width="1">
        <ellipse cx="61.5" cy="59" rx="61.5" ry="59" stroke="none"/>
        <ellipse cx="61.5" cy="59" rx="61" ry="58.5" fill="none"/>
      </g>
      <g id="Grupo_477" data-name="Grupo 477" transform="translate(-800.16 131.766)">
        <g id="Grupo_460" data-name="Grupo 460" transform="translate(1047.437 416.542)">
          <path id="Trazado_972" data-name="Trazado 972" d="M1055.268,447.035s5.471,24.318,7.295,25.533,22.1,1.893,24.723-.2c1.013-.81,7.3-22.7,7.9-26.546,0,0-5.066,1.013-7.9-.405,0,0-5.674,5.269-11.956,5.066s-11.348-5.674-11.348-5.674S1060.942,446.832,1055.268,447.035Z" transform="translate(-1055.268 -444.806)" fill="#fff7a2"/>
        </g>
        <g id="Grupo_461" data-name="Grupo 461" transform="translate(1057.546 417.96)">
          <path id="Trazado_973" data-name="Trazado 973" d="M1071.849,447.737c-.405.405,4.786,26.2,6.431,26.776,1.832.641,5.953.761,7.784-.305,1.614-.94,6.657-27.078,6.657-27.078a14.689,14.689,0,0,1-9.119,4.661C1078.131,452.2,1071.849,447.737,1071.849,447.737Z" transform="translate(-1071.826 -447.13)" fill="#ffdd80"/>
        </g>
        <g id="Grupo_462" data-name="Grupo 462" transform="translate(1037.099 377.837)">
          <path id="Trazado_974" data-name="Trazado 974" d="M1066.3,381.411c-16.212,0-19.251,18.238-19.251,18.846s-13.78,8.916-6.687,19.049c5.119,7.312,16.414,4.053,16.414,4.053s3.648,5.472,12.767,5.472,10.943-4.459,10.943-4.459,7.3,1.014,12.766-1.418,7.093-9.119,5.674-13.374-10.74-8.106-10.74-8.106S1089.607,381.411,1066.3,381.411Z" transform="translate(-1038.336 -381.411)" fill="#a76231"/>
        </g>
        <g id="Grupo_463" data-name="Grupo 463" transform="translate(1036.293 396.683)">
          <path id="Trazado_975" data-name="Trazado 975" d="M1046.538,412.279s.2,6.484,4.255,8.714a6.4,6.4,0,0,0,7.3-.811s2.229,5.269,11.146,5.674,9.726-6.282,9.726-6.282,5.877,2.837,8.714-6.08a15.515,15.515,0,0,1,10.74,8.106c3.647,7.093-2.635,12.361-5.674,14.185s-13.172,1.418-13.172,1.418-1.824,4.255-10.537,4.458a15.007,15.007,0,0,1-12.767-6.282s-4.661,4.458-13.172,0S1034.379,418.561,1046.538,412.279Z" transform="translate(-1037.016 -412.279)" fill="#995a2b"/>
        </g>
        <g id="Grupo_464" data-name="Grupo 464" transform="translate(1057.095 383.54)">
          <path id="Trazado_976" data-name="Trazado 976" d="M1073.973,390.8a1.322,1.322,0,0,0-1.357.415,6.634,6.634,0,0,0-1.423,1.452c-.353.578.24,1.5.937,1.219a5.249,5.249,0,0,0,1.4-.9c.53-.429,1.031-.72.99-1.47A.751.751,0,0,0,1073.973,390.8Z" transform="translate(-1071.088 -390.753)" fill="#995a2b"/>
        </g>
        <g id="Grupo_465" data-name="Grupo 465" transform="translate(1065.216 381.648)">
          <path id="Trazado_977" data-name="Trazado 977" d="M1086.907,387.773c-.834.452-2.032.872-2.458,1.782a.526.526,0,0,0,.31.763c1.063.23,2.157-.5,3.095-.926C1088.937,388.9,1087.985,387.189,1086.907,387.773Z" transform="translate(-1084.39 -387.653)" fill="#995a2b"/>
        </g>
        <g id="Grupo_466" data-name="Grupo 466" transform="translate(1062.664 388.97)">
          <path id="Trazado_978" data-name="Trazado 978" d="M1082.528,399.648a3.161,3.161,0,0,0-2.237,1.55.587.587,0,0,0,.658.855,4.456,4.456,0,0,0,2.191-1.338A.713.713,0,0,0,1082.528,399.648Z" transform="translate(-1080.209 -399.647)" fill="#995a2b"/>
        </g>
        <g id="Grupo_467" data-name="Grupo 467" transform="translate(1073.198 384.318)">
          <path id="Trazado_979" data-name="Trazado 979" d="M1099.961,392.038a4.127,4.127,0,0,0-2.277,1.452.789.789,0,0,0,.952,1.233,21.4,21.4,0,0,0,2.039-.993A.931.931,0,0,0,1099.961,392.038Z" transform="translate(-1097.462 -392.026)" fill="#995a2b"/>
        </g>
        <g id="Grupo_468" data-name="Grupo 468" transform="translate(1054.833 392.479)">
          <path id="Trazado_980" data-name="Trazado 980" d="M1070.63,405.45a2.094,2.094,0,0,0-1.851.578c-.559.4-1.112.7-1.369,1.354-.117.3.173.558.441.58l.235.02c.043,0,.07-.024.107-.034a4.451,4.451,0,0,0,1.382-.557c.638-.316,1.218-.606,1.391-1.347A.488.488,0,0,0,1070.63,405.45Z" transform="translate(-1067.384 -405.394)" fill="#995a2b"/>
        </g>
        <g id="Grupo_469" data-name="Grupo 469" transform="translate(1071.31 390.988)">
          <path id="Trazado_981" data-name="Trazado 981" d="M1096.63,403.175a6.606,6.606,0,0,0-2.222,2.185c-.16.38.229.692.556.73,1.058.119,2.286-.887,3.018-1.563C1098.909,403.668,1097.573,402.442,1096.63,403.175Z" transform="translate(-1094.37 -402.951)" fill="#995a2b"/>
        </g>
        <g id="Grupo_470" data-name="Grupo 470" transform="translate(1064.631 396.434)">
          <path id="Trazado_982" data-name="Trazado 982" d="M1086.968,412.044c-.75-.482-1.542.156-2.164.582s-1.5.992-1.358,1.832a.425.425,0,0,0,.3.3c.682.207,1.3-.437,1.857-.765.592-.347,1.488-.57,1.612-1.341A.561.561,0,0,0,1086.968,412.044Z" transform="translate(-1083.431 -411.872)" fill="#995a2b"/>
        </g>
        <g id="Grupo_471" data-name="Grupo 471" transform="translate(1079.25 392.64)">
          <path id="Trazado_983" data-name="Trazado 983" d="M1109.053,405.919a19.587,19.587,0,0,0-1.468,1.528.794.794,0,0,0,.556,1.343.876.876,0,0,0,.705-.337c.529-.382,1.057-.766,1.568-1.172C1111.37,406.522,1109.979,405.063,1109.053,405.919Z" transform="translate(-1107.376 -405.658)" fill="#995a2b"/>
        </g>
        <g id="Grupo_472" data-name="Grupo 472" transform="translate(1050.255 391.177)">
          <path id="Trazado_984" data-name="Trazado 984" d="M1062.546,403.366c-1.081-.542-2.883,1.152-2.641,2.252a.4.4,0,0,0,.385.293c.565-.039.908-.485,1.336-.825.509-.4,1.059-.658,1.121-1.37A.394.394,0,0,0,1062.546,403.366Z" transform="translate(-1059.884 -403.261)" fill="#995a2b"/>
        </g>
        <g id="Grupo_473" data-name="Grupo 473" transform="translate(1035.16 372.234)">
          <path id="Trazado_985" data-name="Trazado 985" d="M1067.776,423.5a15.1,15.1,0,0,1-11.533-5.593,19.965,19.965,0,0,1-7.24,1.437,14.282,14.282,0,0,1-10.9-4.746,11.01,11.01,0,0,1-2.517-10.684,22.1,22.1,0,0,1,5.793-9.683c.019-.137.04-.31.065-.514,2.229-17.759,15.548-21.485,26.327-21.485,21.417,0,23.819,19.77,24.083,23.652,1.667,1.18,6.647,5.1,7.242,10.205.328,2.818-.714,5.486-3.1,7.925-3.384,3.466-7.116,5.221-11.095,5.221h0a13.342,13.342,0,0,1-5.651-1.265A15.081,15.081,0,0,1,1067.776,423.5Zm-11.145-8.308a1.215,1.215,0,0,1,1.017.549,12.758,12.758,0,0,0,10.129,5.328,12.9,12.9,0,0,0,10.129-5.328,1.216,1.216,0,0,1,1.691-.345,10.6,10.6,0,0,0,5.312,1.407c3.3,0,6.448-1.509,9.354-4.486,1.873-1.919,2.665-3.865,2.423-5.948-.567-4.873-6.6-8.754-6.662-8.794a1.22,1.22,0,0,1-.563-1.013c-.01-.894-.483-21.9-21.683-21.9-14.256,0-22.3,6.513-23.915,19.357-.128,1.021-.21,1.673-.839,1.982-.927.756-4.944,5.481-5.392,10.3a8.3,8.3,0,0,0,2.264,6.643,11.943,11.943,0,0,0,9.11,3.964,17.346,17.346,0,0,0,7.075-1.588A1.215,1.215,0,0,1,1056.631,415.195Z" transform="translate(-1035.16 -372.234)" fill="#80491f"/>
        </g>
        <g id="Grupo_474" data-name="Grupo 474" transform="translate(1042.219 415.776)">
          <path id="Trazado_986" data-name="Trazado 986" d="M1071.786,471.35c-6.88,0-13.767-.454-15.478-1.368-3.257-1.737-8.13-19.5-9.545-24.9a1.216,1.216,0,0,1,2.353-.618c2.742,10.461,6.709,22.375,8.34,23.377,2.628,1.4,26.158,1.413,28.609.014,1.509-1.086,4.821-12.96,7.018-23.334a1.215,1.215,0,1,1,2.378.5c-1.466,6.931-5.2,23.234-8.19,24.943C1085.656,470.888,1078.723,471.35,1071.786,471.35Z" transform="translate(-1046.723 -443.552)" fill="#80491f"/>
        </g>
        <g id="Grupo_475" data-name="Grupo 475" transform="translate(1055.415 415.195)">
          <path id="Trazado_987" data-name="Trazado 987" d="M1076.238,470.97a1.218,1.218,0,0,1-1.177-.911l-6.687-25.938a1.216,1.216,0,0,1,2.355-.608l6.687,25.938a1.217,1.217,0,0,1-.874,1.482A1.253,1.253,0,0,1,1076.238,470.97Z" transform="translate(-1068.335 -442.6)" fill="#80491f"/>
        </g>
        <g id="Grupo_476" data-name="Grupo 476" transform="translate(1071.452 415.194)">
          <path id="Trazado_988" data-name="Trazado 988" d="M1095.819,470.88a1.232,1.232,0,0,1-.288-.035,1.214,1.214,0,0,1-.894-1.468l6.255-25.848a1.215,1.215,0,0,1,2.362.573L1097,469.95A1.216,1.216,0,0,1,1095.819,470.88Z" transform="translate(-1094.602 -442.599)" fill="#80491f"/>
        </g>
      </g>
    </g>
  </g>
</svg>
