<svg xmlns="http://www.w3.org/2000/svg" width="123" height="118" viewBox="0 0 123 118">
  <g id="Grupo_1105" data-name="Grupo 1105" transform="translate(-32 -482)">
    <g id="Grupo_1039" data-name="Grupo 1039">
      <g id="Elipse_44" data-name="Elipse 44" transform="translate(32 482)" fill="#fff" stroke="#707070" stroke-width="1">
        <ellipse cx="61.5" cy="59" rx="61.5" ry="59" stroke="none"/>
        <ellipse cx="61.5" cy="59" rx="61" ry="58.5" fill="none"/>
      </g>
      <g id="Grupo_459" data-name="Grupo 459" transform="translate(-840.656 -398.115)">
        <g id="Grupo_445" data-name="Grupo 445" transform="translate(893.867 940.236)">
          <path id="Trazado_958" data-name="Trazado 958" d="M902.555,971.447s4,11.5,7.747,14.5,19.245,2.749,32.241,3.5,27.992-2,29.242-3,5.748-13.246,5.5-15.745c0,0-4.249-2.5-6-2.249s-2.749,3.249-8,4-6.5-1.25-8.747-4-6.749-1.5-9,.75-3,4-8.747,3-6.748-2.249-10.747-4.748-5,3-8,5.5-6.248,2-7.5-.5S906.554,967.7,902.555,971.447Z" transform="translate(-902.555 -966.812)" fill="#ffcf79"/>
        </g>
        <g id="Grupo_446" data-name="Grupo 446" transform="translate(893.867 940.374)">
          <path id="Trazado_959" data-name="Trazado 959" d="M902.555,971.593s3.249-.25,6,3.5,7,6.248,10.5,3.749,9-4.5,12.746-1.5,12.746,2.749,15.5-.25,3.749.75,9-.25,9.747-1.249,10.5,1.25-7.248,9.247-9.747,10.5,12.246-1.5,14.746-2,5.5-11,5.5-15.745c0,0-3.749-3.749-6-2.249s-4.5,4.749-9.747,4.5-5.248-4-9-5.5-6,.5-10.5,4.5-10.747-1-13.5-3.249-7.5-3-9.747,2-5.748,4.5-8.248,1.75S905.8,967.844,902.555,971.593Z" transform="translate(-902.555 -967.096)" fill="#fcb85d"/>
        </g>
        <g id="Grupo_447" data-name="Grupo 447" transform="translate(888.378 919.628)">
          <path id="Trazado_960" data-name="Trazado 960" d="M934.237,924.4c-26.492,0-39.989,16-42.238,21.244s1,7.248,4.749,4,5-1,8,1,6,1.5,8.248-1.75,6-4.5,9.747-2,7.5,5,13,2.249,8.248-5.748,12-3.5,5,7,9.747,5,6-6,9.747-4.5a34.3,34.3,0,0,0,8.748,2.249C977.974,948.645,975.975,924.4,934.237,924.4Z" transform="translate(-891.259 -924.402)" fill="#dd5b47"/>
        </g>
        <g id="Grupo_448" data-name="Grupo 448" transform="translate(888.231 933.13)">
          <path id="Trazado_961" data-name="Trazado 961" d="M901.59,952.682c-4.2-2.681-11.746,7-10.5,10.747s5-1.75,8.5-2,5.748,7.5,10.247,4.748,5.748-7.248,10.247-6.248,6.249,4.748,12.746,4.249,10-4.749,13.746-4.249,5,6.748,10.747,5,5.5-7.248,9.747-4.5,7.748,3.5,8.748,2.249-1.25-8.748-3.249-9.747-9.747-1.75-12,3-10.747-3.5-17.245-2.249-8.747,7-14,4-9.248-6.5-13.746-5S910.588,958.431,901.59,952.682Z" transform="translate(-890.956 -952.188)" fill="#db423a"/>
        </g>
        <g id="Grupo_449" data-name="Grupo 449" transform="translate(920.924 921.563)">
          <path id="Trazado_962" data-name="Trazado 962" d="M965.669,928.7c-3.31-2.482-9.5,10.5-6.748,12.247S969.667,931.7,965.669,928.7Z" transform="translate(-958.235 -928.384)" fill="#db423a"/>
        </g>
        <g id="Grupo_450" data-name="Grupo 450" transform="translate(936.176 921.919)">
          <path id="Trazado_963" data-name="Trazado 963" d="M990.3,929.325c-2.8,1.4,3.749,14,7.248,12.5S994.3,927.326,990.3,929.325Z" transform="translate(-989.623 -929.117)" fill="#db423a"/>
        </g>
        <g id="Grupo_451" data-name="Grupo 451" transform="translate(950.196 923.795)">
          <path id="Trazado_964" data-name="Trazado 964" d="M1019.131,933.06c-2.625,1.05,3.249,12,7,9.747S1021.63,932.06,1019.131,933.06Z" transform="translate(-1018.476 -932.979)" fill="#db423a"/>
        </g>
        <g id="Grupo_452" data-name="Grupo 452" transform="translate(905.513 925.225)">
          <path id="Trazado_965" data-name="Trazado 965" d="M933.62,936.072c-2.572-1.371-9.5,7-6.248,8.5S937.369,938.072,933.62,936.072Z" transform="translate(-926.521 -935.921)" fill="#db423a"/>
        </g>
        <g id="Grupo_453" data-name="Grupo 453" transform="translate(885.656 915.115)">
          <path id="Trazado_966" data-name="Trazado 966" d="M905,948.989c-2.623,0-3.661-1.706-4.5-3.077-.814-1.338-1.4-2.3-3.275-2.3a5.3,5.3,0,0,0-3.8,1.921,4.6,4.6,0,0,1-3.081,1.689c-1.18,0-2.326-.7-3.713-2.271-1.319-1.494-1.314-3.942.017-6.893,4-8.869,20.075-22.938,46.188-22.938,33.693,0,43.939,16.21,44.647,24.781.257,3.09-.716,5.276-2.475,5.571a9.235,9.235,0,0,1-1.511.123h0a16.76,16.76,0,0,1-6.145-1.52,13.27,13.27,0,0,0-4.524-1.212c-1.023,0-1.325.362-1.988,1.154-1.094,1.308-2.592,3.1-7.7,3.344-4.923.247-6.154-1.753-7.189-3.335a4,4,0,0,0-3.8-2.289c-2.577-.17-3.507.759-4.795,2.047a9.239,9.239,0,0,1-7.511,3.2c-6.351,0-8.958-2.145-10.862-3.712-1.367-1.124-2.214-1.792-3.974-1.548-2.025.29-2.564,1.334-3.308,2.781-.84,1.63-1.884,3.658-5.253,4.332A7.463,7.463,0,0,1,905,948.989Zm-7.77-7.631c3.136,0,4.328,1.956,5.2,3.385.821,1.347,1.274,2,2.574,2a5.264,5.264,0,0,0,1.006-.111c2.307-.462,2.92-1.651,3.695-3.157.808-1.57,1.814-3.523,4.989-3.976,2.811-.4,4.206.788,5.723,2.037,1.823,1.5,3.888,3.2,9.432,3.2a7.061,7.061,0,0,0,5.919-2.542,7.468,7.468,0,0,1,6.518-2.7,6.176,6.176,0,0,1,5.553,3.3c.951,1.452,1.677,2.5,5.2,2.32,4.126-.2,5.169-1.441,6.088-2.539a4.336,4.336,0,0,1,3.713-1.961,15.054,15.054,0,0,1,5.341,1.366,15.046,15.046,0,0,0,5.328,1.366h0a6.849,6.849,0,0,0,1.144-.094c.151-.025.788-.929.6-3.164-.65-7.858-10.349-22.718-42.405-22.718-23.722,0-40.092,12.638-44.137,21.612-.918,2.036-1.06,3.711-.381,4.481,1.16,1.313,1.768,1.51,2.025,1.51.4,0,.927-.5,1.536-1.072A7.4,7.4,0,0,1,897.232,941.358Z" transform="translate(-885.656 -915.115)" fill="#80491f"/>
        </g>
        <g id="Grupo_454" data-name="Grupo 454" transform="translate(890.108 943.19)">
          <path id="Trazado_967" data-name="Trazado 967" d="M936.508,990.354c-15.927,0-31.82-.742-34.065-2.239-3.561-2.374-7.147-11.147-7.543-12.14a1.124,1.124,0,0,1,2.088-.834c1.007,2.517,4.177,9.419,6.7,11.1,4.134,2.285,62.554,2.342,65.784.053,2.832-2.265,5.329-9.841,6.053-12.569a1.124,1.124,0,0,1,2.173.577c-.113.429-2.833,10.56-6.826,13.754C968.965,989.584,952.721,990.354,936.508,990.354Z" transform="translate(-894.818 -972.891)" fill="#80491f"/>
        </g>
        <g id="Grupo_455" data-name="Grupo 455" transform="translate(906.979 925.987)">
          <path id="Trazado_968" data-name="Trazado 968" d="M930.661,944.677a1.125,1.125,0,0,1-.959-1.709l3-4.939a1.124,1.124,0,1,1,1.921,1.169l-3,4.939A1.122,1.122,0,0,1,930.661,944.677Z" transform="translate(-929.537 -937.488)" fill="#80491f"/>
        </g>
        <g id="Grupo_456" data-name="Grupo 456" transform="translate(921.975 922.988)">
          <path id="Trazado_969" data-name="Trazado 969" d="M961.521,941.505a1.124,1.124,0,0,1-.977-1.68l4.5-7.939A1.125,1.125,0,1,1,967,933l-4.5,7.939A1.124,1.124,0,0,1,961.521,941.505Z" transform="translate(-960.398 -931.317)" fill="#80491f"/>
        </g>
        <g id="Grupo_457" data-name="Grupo 457" transform="translate(936.971 922.989)">
          <path id="Trazado_970" data-name="Trazado 970" d="M997.258,941.506a1.122,1.122,0,0,1-.959-.536l-4.874-7.939a1.124,1.124,0,1,1,1.915-1.177l4.874,7.939a1.123,1.123,0,0,1-.956,1.713Z" transform="translate(-991.258 -931.319)" fill="#80491f"/>
        </g>
        <g id="Grupo_458" data-name="Grupo 458" transform="translate(951.966 925.988)">
          <path id="Trazado_971" data-name="Trazado 971" d="M1027.366,944.679a1.124,1.124,0,0,1-.864-.4l-4.124-4.939a1.125,1.125,0,1,1,1.728-1.441l4.124,4.939a1.125,1.125,0,0,1-.864,1.845Z" transform="translate(-1022.118 -937.491)" fill="#80491f"/>
        </g>
      </g>
    </g>
  </g>
</svg>
