<svg xmlns="http://www.w3.org/2000/svg" xmlns:xlink="http://www.w3.org/1999/xlink" width="123" height="118" viewBox="0 0 123 118">
  <defs>
    <linearGradient id="linear-gradient" x1="-0.016" y1="0.417" x2="0.383" y2="1.346" gradientUnits="objectBoundingBox">
      <stop offset="0" stop-color="#fff"/>
      <stop offset="0.031" stop-color="#fff" stop-opacity="0.906"/>
      <stop offset="0.107" stop-color="#fff" stop-opacity="0.694"/>
      <stop offset="0.185" stop-color="#fff" stop-opacity="0.51"/>
      <stop offset="0.265" stop-color="#fff" stop-opacity="0.353"/>
      <stop offset="0.347" stop-color="#fff" stop-opacity="0.224"/>
      <stop offset="0.431" stop-color="#fff" stop-opacity="0.125"/>
      <stop offset="0.518" stop-color="#fff" stop-opacity="0.055"/>
      <stop offset="0.61" stop-color="#fff" stop-opacity="0.012"/>
      <stop offset="0.715" stop-color="#fff" stop-opacity="0"/>
    </linearGradient>
    <linearGradient id="linear-gradient-2" x1="0.288" y1="0.895" x2="0.548" y2="0.097" gradientUnits="objectBoundingBox">
      <stop offset="0"/>
      <stop offset="0.585" stop-color="#242422" stop-opacity="0"/>
    </linearGradient>
    <linearGradient id="linear-gradient-3" x1="0.292" y1="-2.054" x2="0.698" y2="-1.294" xlink:href="#linear-gradient"/>
    <linearGradient id="linear-gradient-4" x1="0.35" y1="0.89" x2="0.488" y2="0.411" gradientUnits="objectBoundingBox">
      <stop offset="0"/>
      <stop offset="0.887" stop-color="#242422" stop-opacity="0"/>
    </linearGradient>
    <linearGradient id="linear-gradient-5" x1="-12.413" y1="-2.185" x2="-12.303" y2="-2.767" gradientUnits="objectBoundingBox">
      <stop offset="0.146" stop-color="#fff" stop-opacity="0"/>
      <stop offset="0.288" stop-color="#fff" stop-opacity="0.012"/>
      <stop offset="0.4" stop-color="#fff" stop-opacity="0.051"/>
      <stop offset="0.501" stop-color="#fff" stop-opacity="0.118"/>
      <stop offset="0.597" stop-color="#fff" stop-opacity="0.208"/>
      <stop offset="0.688" stop-color="#fff" stop-opacity="0.329"/>
      <stop offset="0.776" stop-color="#fff" stop-opacity="0.475"/>
      <stop offset="0.862" stop-color="#fff" stop-opacity="0.647"/>
      <stop offset="0.943" stop-color="#fff" stop-opacity="0.843"/>
      <stop offset="1" stop-color="#fff"/>
    </linearGradient>
    <radialGradient id="radial-gradient" cx="0.061" cy="0.738" r="0.317" gradientTransform="matrix(0.853, 0.434, -0.412, 0.904, -0.849, -0.326)" gradientUnits="objectBoundingBox">
      <stop offset="0"/>
      <stop offset="1" stop-color="#242422" stop-opacity="0"/>
    </radialGradient>
  </defs>
  <g id="Grupo_1116" data-name="Grupo 1116" transform="translate(-32 -321)">
    <g id="Grupo_1054" data-name="Grupo 1054">
      <g id="Elipse_31" data-name="Elipse 31" transform="translate(32 321)" fill="#fff" stroke="#707070" stroke-width="1">
        <ellipse cx="61.5" cy="59" rx="61.5" ry="59" stroke="none"/>
        <ellipse cx="61.5" cy="59" rx="61" ry="58.5" fill="none"/>
      </g>
      <g id="Grupo_701" data-name="Grupo 701" transform="translate(-1023.029 -67.492)">
        <g id="Grupo_696" data-name="Grupo 696" transform="translate(1086.753 423.546)">
          <g id="Grupo_695" data-name="Grupo 695" transform="translate(0)">
            <path id="Trazado_1708" data-name="Trazado 1708" d="M1092.953,427.3c-4.9.679-7.517,32.849,22.374,39.843,37.942,8.876,52.573-22.789,49.355-32.633-.537-1.641-3.936-.673-10.054,3.612s-17.941,12.567-37.412,7.088C1099.489,440.219,1097.786,426.628,1092.953,427.3Z" transform="translate(-1089.933 -427.273)" fill="#ffcb2d"/>
            <path id="Trazado_1709" data-name="Trazado 1709" d="M1092.012,428.076c-.658,12.026,8.819,35.13,41.215,33.233,20.914-1.225,29.31-17.531,31.762-25.223,1.648,11.073-13.3,39.795-49.661,31.288C1087.433,460.847,1087.849,432.4,1092.012,428.076Z" transform="translate(-1089.934 -427.507)" fill="#fdb822"/>
            <path id="Trazado_1710" data-name="Trazado 1710" d="M1094.007,427.33a1.114,1.114,0,0,1,.135-.033c4.833-.669,6.536,12.922,24.264,17.91,19.471,5.478,31.295-2.8,37.412-7.088,4.939-3.46,8.1-4.754,9.423-4.263-2.178,4.1-10.867,18.119-28.412,19.043C1109.607,454.332,1096.321,439.007,1094.007,427.33Z" transform="translate(-1091.122 -427.273)" fill="#ffd539"/>
            <path id="Trazado_1711" data-name="Trazado 1711" d="M1193.529,438.124c.443.612,1.123.875,1.518.587s.354-1.018-.09-1.63-1.124-.875-1.518-.587S1193.085,437.512,1193.529,438.124Z" transform="translate(-1120.043 -429.929)" fill="#9e7d1b"/>
            <path id="Trazado_1712" data-name="Trazado 1712" d="M1134.991,458.456a.8.8,0,1,0,.769-.834A.8.8,0,0,0,1134.991,458.456Z" transform="translate(-1103.075 -436.125)" fill="#9e7d1b" opacity="0.6"/>
            <path id="Trazado_1713" data-name="Trazado 1713" d="M1112.565,460.812a2.216,2.216,0,1,0,2.617-.585A1.934,1.934,0,0,0,1112.565,460.812Z" transform="translate(-1096.5 -436.812)" fill="#9e7d1b" opacity="0.4"/>
            <path id="Trazado_1714" data-name="Trazado 1714" d="M1169.831,465.035a1.812,1.812,0,1,0,1.154-1.864A1.572,1.572,0,0,0,1169.831,465.035Z" transform="translate(-1113.217 -437.699)" fill="#9e7d1b" opacity="0.4"/>
            <path id="Trazado_1715" data-name="Trazado 1715" d="M1167.643,454.972a.55.55,0,1,0,.528-.574A.549.549,0,0,0,1167.643,454.972Z" transform="translate(-1112.598 -435.184)" fill="#9e7d1b" opacity="0.6"/>
            <path id="Trazado_1716" data-name="Trazado 1716" d="M1107.029,455.221a.55.55,0,1,0,.528-.573A.549.549,0,0,0,1107.029,455.221Z" transform="translate(-1094.919 -435.257)" fill="#9e7d1b" opacity="0.6"/>
            <path id="Trazado_1717" data-name="Trazado 1717" d="M1120.567,466.363a.55.55,0,1,0,.529-.573A.55.55,0,0,0,1120.567,466.363Z" transform="translate(-1098.868 -438.507)" fill="#9e7d1b" opacity="0.6"/>
            <path id="Trazado_1718" data-name="Trazado 1718" d="M1157.718,478.107a.55.55,0,1,0,.489-.608A.548.548,0,0,0,1157.718,478.107Z" transform="translate(-1109.703 -441.921)" fill="#9e7d1b" opacity="0.6"/>
            <path id="Trazado_1719" data-name="Trazado 1719" d="M1154.006,479.443a.378.378,0,1,0,.337-.417A.377.377,0,0,0,1154.006,479.443Z" transform="translate(-1108.62 -442.367)" fill="#9e7d1b" opacity="0.6"/>
            <path id="Trazado_1720" data-name="Trazado 1720" d="M1159.4,479.864a.378.378,0,1,0,.364-.395A.378.378,0,0,0,1159.4,479.864Z" transform="translate(-1110.195 -442.497)" fill="#9e7d1b" opacity="0.6"/>
            <path id="Trazado_1721" data-name="Trazado 1721" d="M1144.841,468.331a.378.378,0,1,0,.363-.394A.378.378,0,0,0,1144.841,468.331Z" transform="translate(-1105.948 -439.133)" fill="#9e7d1b" opacity="0.6"/>
            <path id="Trazado_1722" data-name="Trazado 1722" d="M1097.271,442.072a.378.378,0,1,0,.363-.394A.377.377,0,0,0,1097.271,442.072Z" transform="translate(-1092.073 -431.474)" fill="#9e7d1b" opacity="0.6"/>
            <path id="Trazado_1723" data-name="Trazado 1723" d="M1111.026,470.756a.378.378,0,1,0,.363-.394A.378.378,0,0,0,1111.026,470.756Z" transform="translate(-1096.085 -439.84)" fill="#9e7d1b" opacity="0.6"/>
            <path id="Trazado_1724" data-name="Trazado 1724" d="M1131.52,468.968a.55.55,0,1,0,.528-.573A.549.549,0,0,0,1131.52,468.968Z" transform="translate(-1102.062 -439.267)" fill="#9e7d1b" opacity="0.6"/>
            <path id="Trazado_1725" data-name="Trazado 1725" d="M1145.775,470.667a.55.55,0,1,0,.528-.573A.549.549,0,0,0,1145.775,470.667Z" transform="translate(-1106.22 -439.762)" fill="#9e7d1b" opacity="0.6"/>
            <path id="Trazado_1726" data-name="Trazado 1726" d="M1176.013,461.738a.55.55,0,1,0,.529-.573A.55.55,0,0,0,1176.013,461.738Z" transform="translate(-1115.039 -437.158)" fill="#9e7d1b" opacity="0.6"/>
            <path id="Trazado_1727" data-name="Trazado 1727" d="M1168.02,463.139a.55.55,0,1,0,.528-.573A.549.549,0,0,0,1168.02,463.139Z" transform="translate(-1112.708 -437.567)" fill="#9e7d1b" opacity="0.6"/>
            <path id="Trazado_1728" data-name="Trazado 1728" d="M1103.9,444.241a.55.55,0,1,0,.528-.573A.549.549,0,0,0,1103.9,444.241Z" transform="translate(-1094.006 -432.055)" fill="#9e7d1b" opacity="0.6"/>
            <path id="Trazado_1729" data-name="Trazado 1729" d="M1110.458,456.216a.55.55,0,1,0,.528-.573A.549.549,0,0,0,1110.458,456.216Z" transform="translate(-1095.919 -435.547)" fill="#9e7d1b" opacity="0.6"/>
            <path id="Trazado_1730" data-name="Trazado 1730" d="M1172.046,452.406a.55.55,0,1,0,.528-.573A.549.549,0,0,0,1172.046,452.406Z" transform="translate(-1113.882 -434.436)" fill="#9e7d1b" opacity="0.6"/>
          </g>
          <path id="Trazado_1731" data-name="Trazado 1731" d="M1165.053,436.375c-.013-.132-.026-.263-.043-.391a1.286,1.286,0,0,0-.161-1.558,1.35,1.35,0,0,0-1.36-.668h-.068c-.064,0-.133,0-.2.008s-.14.011-.214.021-.144.018-.22.032-.176.035-.266.056c-.074.017-.144.03-.221.051-.163.043-.333.094-.512.154-.069.023-.146.053-.218.079-.126.045-.253.092-.386.146-.087.035-.179.074-.269.112-.131.055-.264.113-.4.176-.093.042-.187.086-.283.132-.154.073-.313.152-.474.234-.086.043-.169.084-.256.13-.249.13-.506.268-.772.417l-.151.087c-.226.129-.458.264-.7.406l-.3.182q-.3.184-.614.382l-.33.21c-.22.142-.446.29-.675.442l-.305.2c-.333.225-.673.456-1.024.7a58.134,58.134,0,0,1-8.41,5.114q-.481.232-.981.456c-.667.3-1.359.588-2.077.861q-.538.206-1.1.4-1.115.388-2.308.72-.6.165-1.213.313a39.081,39.081,0,0,1-14.38.669,49.5,49.5,0,0,1-6.947-1.444,31.991,31.991,0,0,1-16.34-10.331c-.432-.5-.837-1-1.219-1.475-1.336-1.679-2.392-3.188-3.369-4.289-1.116-1.258-2.128-1.982-3.337-1.815a1.129,1.129,0,0,0-.135.033h0a1.746,1.746,0,0,0-.807.512h0a6.58,6.58,0,0,0-1.329,2.639l-.009.03c-.039.132-.076.268-.112.406l-.021.076q-.05.2-.1.4c-.009.036-.017.072-.025.108-.029.131-.056.265-.083.4l-.026.134q-.037.2-.072.405c-.009.051-.016.1-.025.155q-.032.2-.06.41c-.008.058-.015.116-.023.174-.018.137-.035.276-.05.417-.007.062-.013.125-.019.188-.014.14-.028.281-.04.425,0,.067-.01.136-.015.2-.01.143-.021.287-.03.433,0,.069-.006.14-.01.21-.007.149-.015.3-.02.449,0,.064,0,.13,0,.194,0,.16-.008.32-.009.484v.086c0,.363,0,.735.016,1.111,0,.06,0,.118.006.178.005.131.013.263.02.4.006.113.011.225.018.339s.018.247.027.371.019.252.03.38.023.241.035.361.026.267.041.4c.013.118.028.237.043.356.017.14.034.281.054.422.016.116.033.233.05.35.021.145.043.29.067.437q.028.174.059.349.038.223.08.448c.021.115.044.232.067.347.031.154.062.307.095.461.024.113.048.227.074.341.035.159.073.319.111.478.026.111.052.221.08.332.042.166.086.332.13.5.028.106.056.21.086.316.048.174.1.349.15.523.03.1.058.2.089.3.058.188.119.376.18.565.028.086.055.171.083.257.074.223.153.446.234.669.018.052.035.1.054.156q.307.838.668,1.676c.016.038.034.077.05.114q.155.356.32.71c.035.074.071.147.107.222.095.2.191.4.291.6.045.089.092.177.137.266.095.184.191.368.29.551.052.1.105.191.159.287.1.176.2.351.3.526.058.1.118.2.177.3q.152.254.309.507c.064.1.129.2.194.306.106.165.213.33.323.494q.1.154.208.307.168.244.342.486.108.153.22.3c.119.162.241.322.363.482.076.1.151.2.229.3q.191.242.39.482c.078.094.155.19.235.283.137.163.279.324.421.485.079.089.156.179.237.268.152.169.31.335.468.5.074.079.147.157.222.235.182.188.37.373.56.557.055.055.109.11.165.164q.749.718,1.569,1.4c.064.053.131.1.2.157.209.171.419.341.635.508.1.075.2.148.3.222.188.142.377.285.572.424.115.082.232.162.349.243.184.128.368.256.557.382.127.084.256.166.385.249.184.119.37.237.558.353.137.084.276.166.414.249.188.111.377.222.569.331.144.082.291.163.438.244q.289.157.584.312.229.119.461.235.3.15.6.295c.159.076.319.152.48.225.206.095.416.187.627.279.164.072.329.143.5.212.216.091.436.178.657.265.169.066.336.133.506.2.229.086.463.169.7.253.169.06.337.121.509.18.248.084.5.164.754.244.164.052.326.106.493.157.286.086.577.168.87.249.14.04.278.081.42.119q.656.176,1.335.336.871.2,1.725.378c.191.04.377.072.567.109.378.074.755.149,1.128.215.222.039.439.072.659.108.334.055.669.112,1,.161.234.034.463.062.7.094.313.042.625.086.934.122.234.028.465.05.7.074.3.032.6.064.9.091.234.021.465.036.7.054.29.021.58.044.867.06.232.013.461.023.691.033.282.013.565.025.844.033.227.006.453.009.678.011.276,0,.551.007.823.006.224,0,.445,0,.667-.009.269,0,.538-.011.8-.02.219-.008.435-.018.652-.029q.4-.019.788-.045.32-.021.636-.048c.259-.021.516-.044.771-.069.208-.021.414-.043.62-.067q.381-.044.758-.094.3-.04.6-.084.376-.055.747-.118.292-.049.581-.1c.247-.045.492-.093.737-.142.187-.038.374-.075.56-.115.244-.052.486-.108.728-.165.18-.043.36-.085.538-.13.241-.06.48-.125.719-.189.172-.047.345-.093.516-.142.24-.069.477-.141.713-.214.164-.05.33-.1.492-.152.239-.077.474-.158.709-.239.155-.054.312-.106.465-.161.24-.086.477-.177.713-.268.142-.055.287-.108.428-.164.248-.1.492-.2.736-.3.125-.052.251-.1.375-.157.263-.115.521-.234.779-.354.1-.047.2-.091.3-.138.305-.145.606-.3.9-.447.049-.026.1-.049.148-.074q1.048-.54,2.034-1.133l.154-.1c.272-.165.541-.332.805-.5.094-.06.185-.123.278-.184.22-.145.439-.289.654-.437.107-.074.212-.15.318-.225.195-.138.39-.276.582-.416.115-.085.227-.171.34-.256.178-.135.356-.269.531-.406.116-.091.23-.185.345-.277.167-.134.333-.268.5-.4.117-.1.231-.2.346-.295.157-.134.313-.267.466-.4.117-.1.231-.208.346-.312.146-.132.291-.265.434-.4.116-.109.231-.22.345-.329.137-.132.273-.264.407-.4.115-.113.227-.227.339-.342.13-.132.259-.265.386-.4.112-.118.222-.235.331-.353s.243-.264.363-.4.218-.245.326-.368.227-.262.339-.393.214-.254.32-.381.212-.259.317-.39.209-.261.312-.392.2-.255.295-.383.2-.27.305-.406.182-.25.272-.375.2-.279.3-.42c.084-.12.167-.242.249-.363.1-.146.2-.291.294-.438.076-.114.149-.229.222-.344.1-.153.2-.306.292-.46.066-.106.13-.212.194-.319.1-.162.2-.324.292-.487.055-.093.107-.187.161-.28.1-.175.2-.35.3-.525.041-.075.08-.149.12-.224.1-.194.209-.387.31-.581.021-.041.04-.082.062-.123a31.063,31.063,0,0,0,2.343-5.974l0-.016c.062-.23.12-.457.174-.682l.012-.047q.079-.33.147-.655l.013-.057q.066-.321.122-.634l.011-.064q.055-.312.1-.617l.009-.064c.029-.2.054-.4.076-.6l.007-.062q.032-.3.053-.587l0-.054c.013-.195.024-.386.031-.574V438.1q.01-.285.008-.561V437.5q0-.278-.015-.548l0-.029c-.009-.181-.022-.36-.039-.534Z" transform="translate(-1089.934 -427.273)" opacity="0.4" fill="url(#linear-gradient)"/>
        </g>
        <path id="Trazado_1732" data-name="Trazado 1732" d="M1164.69,441.4c.044-.212.084-.421.121-.628l.013-.071c.036-.206.069-.411.1-.613l.01-.066q.042-.3.075-.6l.007-.067q.032-.3.053-.583l0-.058q.02-.289.03-.569v-.053q.01-.283.008-.556V437.5c0-.184-.006-.365-.015-.543v0h0l0-.031c-.009-.18-.022-.357-.038-.53l0-.018v0c-.013-.13-.026-.259-.042-.385h0a.67.67,0,0,0,.163-.3v0a1.068,1.068,0,0,0,.025-.376l0-.022a1.637,1.637,0,0,0-.1-.41c0-.009-.009-.019-.013-.029a2.069,2.069,0,0,0-.232-.417h0a2,2,0,0,0-.294-.321c-.015-.013-.028-.028-.044-.04a1.671,1.671,0,0,0-.31-.206l-.057-.028a1.138,1.138,0,0,0-.312-.1c-.015,0-.028,0-.042,0a.73.73,0,0,0-.3.026h-.069c-.064,0-.132,0-.2.008s-.139.011-.212.021h0c-.072.009-.144.018-.219.032h0c-.085.015-.176.035-.266.056-.074.017-.145.03-.222.051h0c-.162.043-.332.094-.51.153h0c-.07.023-.146.053-.218.079h0l-.005,0c-.124.045-.249.091-.38.143-.088.035-.18.074-.271.113q-.193.082-.4.174h0l-.282.131h0c-.152.072-.309.15-.468.23l-.005,0h0l-.253.128h0c-.248.13-.5.267-.769.416h0l-.145.084-.006,0-.01.006c-.222.127-.45.259-.685.4-.1.058-.2.12-.3.182h0l-.006,0c-.2.12-.4.244-.6.375-.112.07-.224.142-.339.216-.217.14-.44.285-.666.436-.1.069-.2.135-.309.205h0c-.328.22-.662.449-1.008.691l-.015.011-.7.49-.221.153c-.2.139-.406.28-.616.424l-.226.154q-.412.28-.851.57l-.155.1c-.244.161-.5.322-.752.486l-.065.041-.215.135q-.39.245-.8.492l-.191.116c-.33.2-.671.395-1.019.591l-.187.1-.084.047q-.413.23-.842.456c-.108.057-.216.115-.326.171-.378.2-.762.391-1.16.582q-.481.232-.981.456c-.667.3-1.359.588-2.077.861q-.538.206-1.1.4-1.115.388-2.308.72-.6.165-1.213.313c-.468.113-.948.215-1.434.312-.151.03-.305.057-.458.085-.345.064-.693.125-1.048.18q-.265.041-.533.079c-.358.051-.722.1-1.089.137-.164.018-.326.039-.491.055-1.059.1-2.154.167-3.286.182-.174,0-.353,0-.528,0q-.6,0-1.217-.018-.306-.01-.615-.023c-.413-.018-.832-.045-1.254-.077-.19-.014-.378-.026-.57-.043-.611-.054-1.228-.118-1.857-.2q-.825-.109-1.671-.251a50.888,50.888,0,0,1-5.276-1.193q-.807-.227-1.568-.478c-.171-.056-.332-.116-.5-.174-.332-.113-.664-.227-.983-.346-.192-.072-.375-.149-.564-.223-.282-.112-.566-.222-.838-.339-.194-.082-.38-.168-.568-.252-.254-.114-.509-.227-.755-.344-.189-.091-.372-.183-.556-.276-.233-.116-.466-.233-.691-.353-.181-.1-.357-.194-.533-.293-.218-.121-.433-.242-.644-.366-.172-.1-.339-.2-.506-.3-.2-.125-.405-.251-.6-.378-.161-.1-.32-.21-.478-.316-.191-.129-.38-.258-.564-.389q-.227-.16-.45-.322c-.18-.132-.356-.266-.531-.4-.142-.108-.283-.217-.421-.327-.17-.135-.336-.271-.5-.408-.132-.109-.264-.219-.393-.329-.162-.139-.319-.278-.474-.418-.122-.109-.244-.217-.363-.327-.155-.143-.305-.286-.455-.43-.11-.106-.222-.211-.33-.317-.153-.151-.3-.3-.446-.451-.1-.1-.2-.2-.29-.3-.159-.167-.312-.333-.464-.5-.075-.081-.152-.162-.225-.243-.222-.247-.439-.491-.648-.734-.432-.5-.837-1-1.218-1.475-.313-.394-.608-.776-.893-1.148l-.145-.188c-.284-.372-.557-.732-.82-1.075-.222-.291-.44-.575-.65-.841l-.063-.079-.1-.126c-.237-.3-.469-.577-.694-.832h0a10.265,10.265,0,0,0-.822-.838c-.135-.121-.27-.232-.405-.334a2.981,2.981,0,0,0-1.665-.665,2.423,2.423,0,0,0-.445.022,1.29,1.29,0,0,0-.135.032h0a1.41,1.41,0,0,0-.409.181l-.006,0a2.154,2.154,0,0,0-.392.327h0a6.571,6.571,0,0,0-1.33,2.639h0v0l-.008.027q-.058.2-.113.409c-.006.024-.014.047-.019.072-.034.131-.066.266-.1.4-.008.035-.016.071-.024.107q-.042.2-.083.4l-.026.135h0c-.025.132-.049.268-.072.4-.008.051-.016.1-.024.152v0q-.032.2-.06.405v0c-.008.056-.015.113-.022.169v.006c-.017.137-.034.274-.049.414-.007.061-.013.124-.019.186h0c-.014.14-.028.281-.04.425h0c-.005.066-.01.132-.015.2-.01.145-.021.29-.03.439,0,.067-.006.135-.009.2v.009c-.007.147-.015.295-.019.445,0,.069,0,.14-.005.21,0,.155-.008.31-.009.468,0,.041,0,.083,0,.125,0,.349,0,.706.016,1.067v.008h0c0,.06,0,.118.006.178,0,.129.013.26.019.39v.008c.006.111.011.222.018.334h0v0c.008.122.018.246.027.369s.018.251.03.379h0c.011.118.023.237.035.356.013.136.026.271.042.408.013.116.028.234.042.351v0h0c.017.14.034.279.053.419v0h0c.016.117.033.234.05.35.021.145.043.29.067.435h0c.019.115.038.232.058.347h0q.038.224.08.449c.021.115.043.229.066.344.03.155.063.31.1.465.024.113.048.225.073.337h0q.053.237.111.474v.006c.026.109.052.218.079.328.042.166.086.333.13.5.028.1.055.21.084.315.049.175.1.349.152.525.029.1.057.2.088.3.058.189.119.378.181.568.027.084.053.169.082.254.074.223.153.446.234.669h0c.019.052.035.1.055.154h0q.307.838.668,1.678l.045.1q.157.361.324.721h0c.035.074.071.147.106.22.1.2.192.4.293.6.044.088.091.176.137.265.094.184.19.368.289.551.052.1.107.193.161.29.1.174.194.348.3.521.059.1.119.2.179.3.1.169.2.338.307.506.064.1.129.2.194.305q.158.248.323.493h0c.069.1.138.205.208.308.111.162.225.324.341.484.073.1.146.2.22.3.119.162.241.322.364.482.076.1.151.2.229.3.127.161.259.322.39.482.078.095.155.189.234.283.139.164.281.326.424.488.078.088.154.176.233.263.154.171.314.339.473.507.073.077.144.154.218.23.184.189.373.375.563.562.054.053.107.107.162.16q.749.718,1.57,1.4c.062.051.126.1.188.151.212.173.424.345.643.514.1.074.195.146.292.219.191.143.381.287.577.427.113.081.229.16.344.239.186.13.372.259.562.385.126.084.254.165.383.247.185.119.371.238.561.355.136.084.275.166.414.248.188.112.377.222.569.331h0c.145.082.292.163.438.243q.289.158.584.312.229.119.463.236.3.149.6.294c.159.076.318.152.479.225h0c.206.094.417.187.628.278.164.072.327.143.494.212.217.09.437.178.659.265.168.067.335.133.505.2.229.086.463.169.7.252.17.06.338.122.511.181.246.084.5.163.751.243.165.052.328.107.5.157.283.086.572.166.861.247.144.04.283.083.429.122q.657.175,1.334.335.871.2,1.726.379c.186.038.369.069.554.106.382.074.764.15,1.141.217.219.039.433.071.651.107.337.056.676.113,1.009.162.231.034.458.062.687.093.315.043.632.086.943.123.233.028.463.05.694.074.3.032.6.064.9.091.233.021.463.036.693.053.292.022.584.045.873.061.229.013.455.022.683.033h.008c.282.013.564.025.842.033.227.006.451.009.675.011.278,0,.555.007.829.006.221,0,.441,0,.66-.009.271,0,.542-.011.81-.02.217-.008.431-.018.645-.029h.005c.264-.013.528-.028.788-.045.212-.014.423-.03.633-.047q.39-.032.775-.07c.208-.021.413-.043.618-.067.255-.029.508-.06.76-.094.2-.027.4-.055.6-.084q.376-.055.748-.118.291-.049.579-.1c.248-.045.494-.093.738-.142.187-.038.373-.075.558-.115.244-.052.486-.108.727-.165h0c.181-.043.36-.084.538-.129.241-.06.478-.124.715-.188.174-.047.348-.093.52-.142.239-.069.475-.141.711-.214.164-.05.329-.1.49-.152h0c.241-.077.477-.159.713-.24.153-.053.307-.1.458-.159.243-.087.482-.178.721-.27.14-.055.283-.106.422-.162.246-.1.489-.2.73-.3l.006,0,0,0c.123-.052.248-.1.37-.155h0c.261-.114.516-.232.771-.35.1-.048.208-.093.31-.142.3-.144.6-.293.9-.443.051-.026.1-.05.154-.077q1.048-.541,2.034-1.134c.05-.03.1-.062.149-.092.273-.166.545-.334.811-.505.094-.06.183-.123.276-.183.219-.144.439-.289.654-.437.109-.075.215-.152.323-.228.193-.137.387-.273.577-.413h0c.113-.084.224-.169.336-.254.179-.135.358-.27.534-.408.116-.091.229-.183.344-.275h0c.166-.134.333-.268.5-.4.117-.1.231-.2.346-.295.156-.133.312-.267.464-.4h0c.116-.1.23-.207.345-.311.146-.133.293-.266.436-.4.115-.108.229-.218.344-.328.137-.132.274-.265.409-.4.114-.113.227-.228.339-.342q.194-.2.385-.4.168-.177.332-.355c.122-.132.243-.264.362-.4s.218-.245.325-.368h0c.114-.13.227-.261.339-.392s.214-.254.319-.38.213-.26.317-.39.209-.261.312-.392.2-.257.3-.385.2-.268.3-.4.182-.25.273-.375h0c.1-.14.2-.279.3-.419.085-.121.167-.243.25-.364.1-.146.2-.291.293-.436.075-.115.149-.23.222-.344.1-.153.2-.306.292-.46.067-.106.13-.212.194-.319.1-.162.2-.324.292-.486.055-.094.108-.188.162-.283.1-.174.2-.348.3-.523h0c.042-.076.081-.152.122-.227.1-.192.208-.385.307-.577l.067-.132a31.1,31.1,0,0,0,2.335-5.956l.008-.029c.062-.228.119-.453.173-.678l.012-.049h0c.052-.219.1-.436.146-.652C1164.681,441.441,1164.686,441.421,1164.69,441.4Z" transform="translate(-3.181 -3.728)" opacity="0.6" fill="url(#linear-gradient-2)"/>
        <g id="Grupo_698" data-name="Grupo 698" transform="translate(1083.566 423.686)">
          <g id="Grupo_697" data-name="Grupo 697">
            <path id="Trazado_1733" data-name="Trazado 1733" d="M1091.812,427.481c-4.905-.628-15.829,29.75,11.183,44.335,34.287,18.513,56.671-8.229,56.137-18.578-.089-1.726-3.622-1.681-10.642.854s-20.59,7.434-37.945-2.959C1094.744,441.671,1096.649,428.1,1091.812,427.481Z" transform="translate(-1085.434 -427.471)" fill="#ffcb2d"/>
            <path id="Trazado_1734" data-name="Trazado 1734" d="M1090.761,427.879c-3.775,11.44-.664,36.232,31.086,42.889,20.5,4.3,32.856-9.249,37.229-16.033-1.3,11.124-23.224,34.94-56.081,17.2C1077.787,458.324,1085.616,430.962,1090.761,427.879Z" transform="translate(-1085.434 -427.59)" fill="#fdb822"/>
            <path id="Trazado_1735" data-name="Trazado 1735" d="M1094.222,427.48a1.124,1.124,0,0,1,.138,0c4.837.62,2.932,14.19,18.733,23.652,17.355,10.393,30.925,5.493,37.945,2.959,5.667-2.046,9.059-2.468,10.2-1.647-3.173,3.392-15.216,14.648-32.383,10.943C1102.222,457.642,1093.405,439.362,1094.222,427.48Z" transform="translate(-1087.982 -427.474)" fill="#ffd539"/>
            <path id="Trazado_1736" data-name="Trazado 1736" d="M1187.347,464.018c.268.707.856,1.139,1.311.964s.608-.89.339-1.6-.856-1.139-1.312-.965S1187.079,463.311,1187.347,464.018Z" transform="translate(-1115.119 -437.654)" fill="#9e7d1b"/>
            <path id="Trazado_1737" data-name="Trazado 1737" d="M1130.889,470.854a.8.8,0,1,0,.96-.6A.8.8,0,0,0,1130.889,470.854Z" transform="translate(-1098.685 -439.942)" fill="#9e7d1b" opacity="0.6"/>
            <path id="Trazado_1738" data-name="Trazado 1738" d="M1103.243,464.795a2.217,2.217,0,1,0,2.677.121A1.936,1.936,0,0,0,1103.243,464.795Z" transform="translate(-1090.54 -438.216)" fill="#9e7d1b" opacity="0.4"/>
            <path id="Trazado_1739" data-name="Trazado 1739" d="M1157.365,483.92a1.572,1.572,0,0,0,1.868,1.135c.958-.1,1.674-.771,1.6-1.5a1.571,1.571,0,0,0-1.868-1.135C1158.007,482.523,1157.29,483.193,1157.365,483.92Z" transform="translate(-1106.412 -443.495)" fill="#9e7d1b" opacity="0.4"/>
            <path id="Trazado_1740" data-name="Trazado 1740" d="M1140.742,471.845a.55.55,0,1,0,.659-.415A.55.55,0,0,0,1140.742,471.845Z" transform="translate(-1101.561 -440.288)" fill="#9e7d1b" opacity="0.6"/>
            <path id="Trazado_1741" data-name="Trazado 1741" d="M1099.461,457.853a.55.55,0,1,0,.659-.414A.551.551,0,0,0,1099.461,457.853Z" transform="translate(-1089.521 -436.207)" fill="#9e7d1b" opacity="0.6"/>
            <path id="Trazado_1742" data-name="Trazado 1742" d="M1109.614,472.159a.55.55,0,1,0,.659-.415A.55.55,0,0,0,1109.614,472.159Z" transform="translate(-1092.482 -440.38)" fill="#9e7d1b" opacity="0.6"/>
            <path id="Trazado_1743" data-name="Trazado 1743" d="M1142.389,493.234a.55.55,0,1,0,.63-.458A.549.549,0,0,0,1142.389,493.234Z" transform="translate(-1102.043 -446.516)" fill="#9e7d1b" opacity="0.6"/>
            <path id="Trazado_1744" data-name="Trazado 1744" d="M1138.481,493.535a.378.378,0,1,0,.433-.315A.377.377,0,0,0,1138.481,493.535Z" transform="translate(-1100.904 -446.646)" fill="#9e7d1b" opacity="0.6"/>
            <path id="Trazado_1745" data-name="Trazado 1745" d="M1143.579,495.356a.378.378,0,1,0,.453-.285A.378.378,0,0,0,1143.579,495.356Z" transform="translate(-1102.39 -447.185)" fill="#9e7d1b" opacity="0.6"/>
            <path id="Trazado_1746" data-name="Trazado 1746" d="M1132.54,480.4a.378.378,0,1,0,.453-.285A.378.378,0,0,0,1132.54,480.4Z" transform="translate(-1099.17 -442.824)" fill="#9e7d1b" opacity="0.6"/>
            <path id="Trazado_1747" data-name="Trazado 1747" d="M1093.5,442.583a.378.378,0,1,0,.453-.285A.378.378,0,0,0,1093.5,442.583Z" transform="translate(-1087.784 -431.793)" fill="#9e7d1b" opacity="0.6"/>
            <path id="Trazado_1748" data-name="Trazado 1748" d="M1099.283,473.885a.378.378,0,1,0,.453-.285A.379.379,0,0,0,1099.283,473.885Z" transform="translate(-1089.47 -440.922)" fill="#9e7d1b" opacity="0.6"/>
            <path id="Trazado_1749" data-name="Trazado 1749" d="M1119.5,477.544a.55.55,0,1,0,.66-.415A.55.55,0,0,0,1119.5,477.544Z" transform="translate(-1095.365 -441.95)" fill="#9e7d1b" opacity="0.6"/>
            <path id="Trazado_1750" data-name="Trazado 1750" d="M1132.809,482.919a.55.55,0,1,0,.66-.415A.55.55,0,0,0,1132.809,482.919Z" transform="translate(-1099.247 -443.518)" fill="#9e7d1b" opacity="0.6"/>
            <path id="Trazado_1751" data-name="Trazado 1751" d="M1164.314,482.221a.55.55,0,1,0,.66-.415A.55.55,0,0,0,1164.314,482.221Z" transform="translate(-1108.436 -443.315)" fill="#9e7d1b" opacity="0.6"/>
            <path id="Trazado_1752" data-name="Trazado 1752" d="M1156.237,481.48a.55.55,0,1,0,.659-.414A.549.549,0,0,0,1156.237,481.48Z" transform="translate(-1106.08 -443.098)" fill="#9e7d1b" opacity="0.6"/>
            <path id="Trazado_1753" data-name="Trazado 1753" d="M1099.307,446.43a.55.55,0,1,0,.659-.415A.55.55,0,0,0,1099.307,446.43Z" transform="translate(-1089.476 -432.876)" fill="#9e7d1b" opacity="0.6"/>
            <path id="Trazado_1754" data-name="Trazado 1754" d="M1102.51,459.712a.55.55,0,1,0,.66-.415A.55.55,0,0,0,1102.51,459.712Z" transform="translate(-1090.41 -436.75)" fill="#9e7d1b" opacity="0.6"/>
            <path id="Trazado_1755" data-name="Trazado 1755" d="M1147.681,474.929a.55.55,0,1,0,.66-.415A.55.55,0,0,0,1147.681,474.929Z" transform="translate(-1103.585 -441.188)" fill="#9e7d1b" opacity="0.6"/>
          </g>
          <path id="Trazado_1756" data-name="Trazado 1756" d="M1159,455.141c.022-.13.043-.261.06-.388a1.289,1.289,0,0,0,.251-1.546c-.236-.621-.716-1.029-1.138-1-.021-.006-.044-.011-.066-.017-.062-.017-.129-.032-.2-.045s-.138-.026-.212-.037-.144-.02-.221-.027-.178-.011-.271-.016c-.075,0-.147-.008-.227-.009-.169,0-.346,0-.534.015-.074,0-.155.013-.232.02-.133.011-.268.022-.41.039-.094.011-.191.024-.289.038q-.21.029-.432.065l-.307.052c-.167.03-.341.065-.519.1-.094.019-.184.037-.281.058-.274.06-.557.126-.854.2l-.168.045c-.252.065-.511.135-.778.21l-.336.1c-.226.066-.456.135-.693.208l-.373.116c-.249.079-.506.163-.766.25l-.348.115c-.38.13-.769.264-1.171.41a58.073,58.073,0,0,1-9.449,2.735c-.35.064-.706.126-1.066.183-.722.114-1.465.212-2.229.288q-.573.057-1.162.1-1.176.082-2.414.09-.619,0-1.252-.016a39.027,39.027,0,0,1-14.048-3.122,49.454,49.454,0,0,1-6.325-3.215,32.026,32.026,0,0,1-13.067-14.257c-.286-.6-.547-1.181-.791-1.744-.85-1.971-1.475-3.706-2.13-5.025-.748-1.507-1.536-2.471-2.745-2.627a1.124,1.124,0,0,0-.138,0h0a1.75,1.75,0,0,0-.912.283h0a6.575,6.575,0,0,0-1.972,2.2l-.017.027c-.072.117-.143.239-.214.363l-.039.068c-.067.118-.132.239-.2.362l-.052.1q-.094.179-.185.366c-.02.04-.04.081-.06.123q-.088.183-.175.373l-.064.143q-.083.187-.165.38l-.067.162q-.08.192-.157.39c-.023.059-.045.118-.067.177-.05.132-.1.264-.15.4-.023.064-.045.128-.068.193-.047.136-.1.271-.142.41-.022.066-.042.134-.064.2-.046.142-.092.283-.136.428-.019.062-.036.125-.055.186-.046.154-.092.307-.136.465-.008.028-.015.056-.022.084q-.146.526-.275,1.077c-.013.059-.028.115-.042.174-.029.127-.056.257-.084.386-.024.111-.049.221-.072.333s-.047.243-.071.366-.048.248-.07.374-.041.239-.061.358-.045.264-.065.4c-.018.117-.035.236-.052.354-.02.14-.04.28-.058.421-.015.116-.029.234-.043.351-.017.146-.034.292-.05.439-.012.118-.023.235-.035.353q-.021.226-.04.453c-.009.118-.018.234-.026.353q-.016.234-.029.47c-.006.116-.012.232-.018.349-.007.162-.013.326-.018.49,0,.113-.006.227-.009.341,0,.171-.005.343-.005.515,0,.109,0,.218,0,.328,0,.181.005.362.009.544,0,.1,0,.207.007.312.006.2.016.395.026.592,0,.091.008.18.014.271.014.234.031.47.05.707,0,.055.008.109.013.164q.077.889.206,1.793c.006.041.013.082.019.123q.056.385.122.77c.014.08.031.161.045.242.04.218.08.436.125.655.02.1.042.2.063.293.043.2.088.405.135.608.025.106.052.212.078.318.049.2.1.39.15.586.03.112.062.223.093.335q.08.285.166.571c.035.115.071.231.107.346.059.187.12.374.183.561q.059.175.121.351c.065.186.133.373.2.559.044.117.088.234.133.351.072.187.148.374.225.56.047.115.094.23.144.345.081.19.165.379.251.567.05.112.1.225.152.336.09.193.185.386.28.578.053.107.1.214.159.321.1.2.212.405.322.607.051.095.1.191.153.285.127.229.259.457.394.685.04.067.076.135.117.2q.534.889,1.147,1.764c.048.068.1.135.148.2.156.22.315.439.48.657.074.1.152.195.228.292.145.187.29.374.441.56.089.109.181.217.273.326.144.172.288.344.438.514.1.115.2.228.307.342.147.163.295.326.446.487.11.117.222.232.335.348q.228.236.462.469.178.175.36.35c.159.152.319.3.482.454q.189.175.383.349.248.223.506.443.2.172.4.344.261.218.532.433c.14.113.281.225.424.336.185.144.374.286.564.428.145.108.289.216.437.323.2.144.4.285.6.426.148.1.294.205.445.307.217.147.441.29.664.434.145.094.287.188.435.28.252.158.513.313.774.468.125.075.247.151.374.225.392.228.791.453,1.2.674q.788.425,1.566.817c.173.088.345.169.518.254.345.171.691.342,1.033.5.2.1.405.185.609.278.308.141.617.283.923.417.217.094.431.182.647.273.29.123.581.246.869.363.219.089.436.17.655.255.282.109.564.22.844.323.22.081.439.157.659.234.274.1.548.194.82.285.22.074.439.142.658.212.269.086.538.172.806.253.218.065.434.127.651.188.265.076.53.151.793.222.216.057.431.111.645.166.261.066.522.131.781.191.213.05.425.1.636.143q.388.085.772.163c.21.042.418.081.626.12q.383.07.762.135.309.052.616.1.379.057.756.108c.2.027.4.052.6.077.251.03.5.057.751.082.2.019.393.038.587.055q.376.032.748.056c.191.013.38.026.57.035.25.013.5.023.745.031.185.006.37.013.554.016.249,0,.5,0,.742,0,.178,0,.358,0,.535,0,.25,0,.5-.011.743-.019.172-.006.344-.011.514-.018.251-.012.5-.028.747-.045.164-.011.328-.02.491-.033.254-.021.506-.046.759-.072.152-.015.3-.028.455-.045.265-.03.528-.066.79-.1.135-.018.27-.034.4-.053.284-.042.565-.09.844-.137.109-.019.22-.035.329-.055.332-.06.661-.126.988-.195l.161-.033q1.152-.247,2.258-.562c.059-.016.115-.035.174-.052q.458-.132.908-.273c.106-.034.21-.071.315-.1.25-.082.5-.164.745-.251.123-.043.244-.089.366-.134.224-.082.448-.164.669-.249.133-.052.264-.106.4-.159.207-.084.414-.166.618-.253.136-.057.27-.118.405-.176.2-.086.391-.171.584-.26.138-.064.275-.129.412-.194.186-.088.37-.176.553-.267.14-.069.278-.14.417-.211.175-.09.35-.18.523-.271.141-.075.28-.152.419-.228.167-.092.333-.183.5-.278.14-.079.278-.16.416-.242.159-.094.319-.188.476-.284.139-.084.275-.169.411-.255.152-.1.3-.191.453-.288s.275-.179.411-.27.287-.193.429-.291.273-.188.407-.284.273-.194.407-.293.27-.2.4-.3.257-.195.385-.293.269-.208.4-.312.241-.193.361-.291.267-.217.4-.327c.113-.094.224-.19.335-.285.133-.115.267-.229.4-.345.1-.091.2-.183.3-.274.135-.122.27-.244.4-.367.091-.085.181-.171.271-.257.137-.13.275-.261.409-.393l.229-.229c.142-.143.285-.285.424-.429l.174-.185c.151-.159.3-.319.45-.48.031-.034.061-.068.091-.1a31.014,31.014,0,0,0,3.82-5.155l.008-.015c.12-.205.234-.409.346-.613l.023-.043q.162-.3.313-.594l.027-.052c.1-.195.193-.388.283-.581l.028-.058q.134-.287.256-.569l.026-.06q.121-.282.229-.56l.023-.057q.109-.279.2-.553l.019-.051q.1-.276.179-.547l.014-.045c.055-.182.107-.362.154-.54l.01-.036c.047-.179.09-.357.128-.532l.006-.029q.059-.267.1-.526Z" transform="translate(-1085.435 -427.474)" opacity="0.4" fill="url(#linear-gradient-3)"/>
        </g>
        <path id="Trazado_1757" data-name="Trazado 1757" d="M1159.428,453.671a2.058,2.058,0,0,0-.115-.465v0a2.014,2.014,0,0,0-.107-.234c-.013-.025-.028-.048-.043-.072-.028-.048-.056-.1-.087-.14-.019-.026-.038-.049-.057-.074s-.059-.074-.091-.108-.043-.045-.065-.066a1.251,1.251,0,0,0-.1-.083c-.023-.019-.047-.037-.071-.054a1.156,1.156,0,0,0-.1-.06c-.024-.013-.048-.027-.073-.038a.85.85,0,0,0-.106-.037c-.023-.007-.046-.016-.069-.021a.7.7,0,0,0-.132-.011c-.013,0-.028,0-.041,0l-.065-.017h0c-.062-.018-.129-.032-.2-.045s-.137-.026-.21-.036h0c-.072-.01-.144-.02-.221-.027s-.177-.011-.269-.016c-.076,0-.148-.008-.228-.009h0c-.168,0-.345,0-.533.015h0c-.074,0-.157.013-.234.02-.132.011-.266.023-.407.039-.094.011-.193.025-.291.038-.139.018-.281.04-.428.064l-.31.053h0c-.165.03-.336.064-.511.1-.1.02-.188.038-.287.059-.273.06-.555.126-.851.2h0l-.162.043h-.006l-.016,0c-.247.064-.5.132-.76.2l-.343.1c-.222.065-.45.132-.683.2h-.006l-.37.115h0l-.006,0q-.369.117-.755.246l-.006,0h0c-.117.039-.231.076-.349.116-.373.127-.755.26-1.15.4l-.019.007-.8.289-.254.091c-.232.082-.47.166-.713.251l-.247.086q-.473.164-.973.329l-.171.055c-.28.091-.567.183-.859.273l-.314.1q-.441.134-.9.266l-.215.062q-.557.156-1.139.3c-.1.026-.2.05-.3.074-.306.077-.618.15-.935.222l-.355.079c-.416.09-.838.177-1.271.258-.35.064-.706.126-1.066.183-.722.114-1.465.212-2.229.288q-.573.057-1.162.1-1.176.082-2.414.09-.619,0-1.252-.016c-.482-.013-.971-.04-1.465-.074-.154-.01-.31-.025-.464-.038q-.525-.043-1.058-.1-.267-.03-.535-.063-.539-.068-1.086-.154c-.163-.025-.325-.048-.489-.076q-1.574-.265-3.218-.685c-.169-.043-.34-.093-.51-.139q-.58-.157-1.169-.336c-.195-.059-.391-.12-.588-.183q-.591-.19-1.191-.4c-.178-.063-.356-.123-.536-.19-.575-.212-1.155-.436-1.74-.681q-1.534-.642-3.116-1.441t-3.209-1.774c-.479-.287-.941-.578-1.388-.872-.151-.1-.293-.2-.441-.3-.289-.2-.579-.392-.854-.59-.169-.121-.327-.244-.49-.365-.242-.181-.484-.361-.716-.543-.166-.131-.324-.264-.486-.4-.215-.176-.43-.351-.635-.528-.159-.137-.311-.274-.465-.412-.195-.174-.389-.347-.575-.522-.15-.141-.295-.282-.44-.424-.177-.173-.354-.346-.524-.52-.14-.143-.276-.286-.411-.43q-.244-.259-.479-.519c-.13-.145-.256-.288-.381-.433q-.225-.26-.441-.521c-.119-.144-.237-.288-.351-.431q-.208-.261-.407-.523c-.109-.142-.217-.285-.322-.428-.129-.175-.253-.349-.375-.524-.1-.14-.2-.28-.293-.421-.12-.177-.235-.353-.349-.528-.089-.137-.179-.273-.264-.409-.113-.18-.22-.358-.328-.537-.078-.13-.159-.261-.234-.39-.108-.186-.211-.37-.314-.555-.067-.12-.137-.24-.2-.358-.11-.2-.214-.4-.318-.6-.051-.1-.1-.2-.154-.294q-.221-.432-.423-.856l-.01-.021c-.286-.6-.547-1.179-.789-1.742l0-.008c-.2-.461-.384-.907-.561-1.34l-.087-.212c-.178-.436-.348-.857-.512-1.258-.139-.339-.275-.67-.407-.981-.014-.033-.028-.062-.041-.094-.021-.049-.043-.1-.064-.145a11.471,11.471,0,0,0-1.334-2.441,3.712,3.712,0,0,0-.664-.672,2.445,2.445,0,0,0-1.2-.5,1.124,1.124,0,0,0-.138,0h0a1.424,1.424,0,0,0-.442.068l-.006,0a2.2,2.2,0,0,0-.463.212h0a6.563,6.563,0,0,0-1.971,2.2h0l-.017.028c-.072.116-.143.237-.214.361h0l-.038.067h0c-.067.118-.132.238-.2.361l-.052.1h0c-.062.119-.123.241-.184.364l-.059.121v0q-.087.181-.173.37l-.065.145c-.056.124-.11.25-.164.378h0c-.023.052-.045.106-.067.159v0q-.079.191-.156.387l-.068.177c-.05.132-.1.264-.149.4-.023.064-.045.129-.069.193-.047.135-.094.271-.14.409h0c-.021.064-.042.13-.063.194v.006l0,.006c-.045.14-.09.278-.134.421h0c-.019.06-.036.122-.054.182v0l0,.015c-.044.148-.088.3-.13.448-.013.047-.025.095-.038.142q-.131.479-.249.98c-.017.072-.035.142-.052.214h0c-.028.119-.052.241-.079.362l-.005.023,0,.013c-.023.106-.047.212-.069.319h0v0c-.024.119-.047.24-.069.361s-.048.249-.071.375h0c-.021.118-.041.238-.06.357s-.045.265-.065.4h0c-.018.117-.035.234-.052.352-.02.14-.04.28-.058.421-.015.118-.029.236-.043.354-.017.146-.034.292-.05.439-.012.115-.023.232-.034.348-.015.152-.028.306-.04.46-.009.115-.018.232-.026.348q-.016.236-.029.474c-.006.115-.012.23-.018.345v0h0c-.007.164-.013.328-.018.493q-.005.168-.009.338-.005.257-.005.516c0,.109,0,.217,0,.327,0,.181.005.363.009.546,0,.1,0,.206.007.31.006.2.016.4.026.594,0,.09.008.179.014.27.014.238.032.478.051.718,0,.05.007.1.011.152q.078.891.207,1.8c0,.037.012.074.017.111.039.26.08.52.125.781.013.079.029.159.044.238.04.22.081.44.125.66.02.1.042.192.062.288.043.2.088.407.136.611.025.107.052.214.079.32.048.195.1.39.149.584.03.111.062.222.093.334q.08.286.166.573c.035.115.071.229.107.344q.088.282.183.563c.039.116.079.233.12.349q.1.281.2.561.065.174.132.348c.073.188.15.375.227.563.047.114.094.229.142.343.081.189.166.378.251.567.05.112.1.224.152.336.091.195.186.389.282.583.052.1.1.21.156.314.1.2.213.409.324.612.05.094.1.188.151.283.129.232.263.463.4.693.038.064.073.128.111.192q.534.889,1.148,1.764c.048.069.1.137.149.206.156.219.315.438.479.655.074.1.152.193.227.29.145.188.291.375.442.56.089.109.181.217.273.326.144.171.288.344.437.514.1.115.2.228.307.343.147.163.295.325.447.487.109.116.222.232.334.348.152.157.306.314.463.47h0c.117.117.237.232.358.349q.238.228.484.455.189.174.383.348c.166.149.335.3.506.443.133.115.268.23.4.343h0q.263.218.533.434c.139.112.279.224.422.334.185.145.375.287.566.429.145.108.288.216.437.322.2.144.4.285.6.426.148.1.294.206.445.308.217.145.44.289.663.432.145.094.288.188.436.281.251.157.509.311.767.465.128.076.252.154.382.229q.587.341,1.2.673.788.425,1.566.818c.175.088.348.169.522.255.343.169.687.34,1.028.5.205.1.408.186.613.279.307.14.615.283.92.416.215.094.428.181.642.271.292.123.584.248.873.364.22.089.437.171.655.255.282.109.564.22.844.323.219.081.437.156.655.233.276.1.552.2.827.288.219.073.436.142.655.211.269.086.539.172.806.253.219.066.436.128.654.19.264.075.528.151.791.221.216.057.431.112.647.166.26.066.521.131.779.191.214.05.426.1.638.143.257.057.514.111.769.163.21.042.42.081.628.12q.382.071.762.135.308.052.614.1c.254.039.507.075.759.109.2.026.4.052.6.076.251.03.5.057.751.082.2.019.393.038.588.055q.375.032.746.056c.191.013.381.026.571.035.249.013.5.023.744.031.186.006.371.013.555.016.248,0,.494,0,.74,0,.179,0,.359,0,.537,0,.249,0,.5-.011.743-.019.171-.006.344-.011.513-.018.251-.012.5-.028.75-.045.162-.011.325-.02.487-.033.256-.021.509-.046.761-.072.151-.016.3-.028.453-.045.263-.03.523-.066.783-.1.137-.019.274-.035.409-.055h0c.281-.041.558-.089.836-.136.111-.019.225-.035.335-.055.33-.06.656-.125.98-.193l.17-.034q1.152-.247,2.257-.561l.181-.055c.3-.087.6-.177.9-.271.108-.034.213-.072.32-.106.248-.081.5-.163.74-.249.126-.045.25-.092.375-.137.222-.081.443-.162.661-.246h0c.135-.052.266-.107.4-.16.205-.083.411-.165.613-.251.137-.058.271-.118.407-.177h0c.194-.085.387-.169.579-.257.14-.064.279-.131.418-.2.183-.087.366-.174.547-.263.141-.07.28-.142.419-.213.176-.089.351-.179.524-.271l.417-.227c.167-.092.334-.184.5-.278q.209-.12.417-.242c.159-.094.317-.187.474-.283q.209-.128.415-.257c.152-.095.3-.191.451-.287s.273-.179.409-.269.29-.195.433-.293.271-.187.4-.281.274-.2.409-.295.269-.2.4-.3.257-.195.385-.293.268-.207.4-.312h0c.121-.1.24-.193.359-.29h0c.133-.108.266-.217.4-.327.113-.094.224-.19.335-.285.133-.115.267-.229.4-.345h0c.1-.091.2-.183.305-.275.135-.122.269-.243.4-.366.092-.086.182-.173.273-.259.137-.13.273-.26.406-.391l.23-.231c.142-.142.285-.285.423-.429.059-.06.115-.122.174-.183.152-.16.3-.319.45-.48.033-.035.063-.072.1-.107a31.018,31.018,0,0,0,3.814-5.148l.011-.018q.179-.307.345-.612h0l.023-.041h0c.108-.2.212-.4.312-.593l.026-.052h0c.1-.195.193-.387.283-.579h0l0,0,.025-.052c.09-.193.176-.384.258-.574l.024-.055c.081-.19.158-.378.232-.565l.021-.054c.073-.186.141-.371.205-.554l.019-.052q.1-.275.179-.545h0l.013-.044q.084-.273.154-.54h0l.009-.035c.047-.18.09-.358.128-.533h0l.006-.025v0h0q.057-.267.1-.525l0-.013v-.009c.021-.128.043-.256.06-.382h0a.673.673,0,0,0,.234-.245l0,0a1.073,1.073,0,0,0,.123-.356l0-.023a1.61,1.61,0,0,0,.008-.422C1159.432,453.691,1159.429,453.681,1159.428,453.671Z" transform="translate(-1.869 -3.788)" opacity="0.6" fill="url(#linear-gradient-4)"/>
        <g id="Grupo_700" data-name="Grupo 700" transform="translate(1079.029 414.492)">
          <g id="Grupo_699" data-name="Grupo 699">
            <path id="Trazado_1758" data-name="Trazado 1758" d="M1089.666,427.19c-4.642-1.7-22.016,25.5,1.082,45.733,29.32,25.677,57.059,4.562,58.83-5.651.3-1.7-3.158-2.444-10.561-1.531s-21.716,2.677-36.329-11.316C1089.382,441.683,1094.245,428.869,1089.666,427.19Z" transform="translate(-1079.029 -418.173)" fill="#ffcb2d"/>
            <path id="Trazado_1759" data-name="Trazado 1759" d="M1088.581,427.276c-6.213,10.321-8.672,35.2,20.8,48.744,19.027,8.746,34.072-1.723,39.837-7.369-3.733,10.563-30.374,28.924-58.471,4.319C1069.192,454.092,1082.883,429.14,1088.581,427.276Z" transform="translate(-1079.029 -418.221)" fill="#fdb822"/>
            <path id="Trazado_1760" data-name="Trazado 1760" d="M1093.443,427.172a1.161,1.161,0,0,1,.134.035c4.578,1.679-.285,14.493,13.021,27.234,14.614,13.993,28.925,12.229,36.329,11.316,5.978-.737,9.376-.395,10.31.66-3.844,2.6-18.075,10.909-33.987,3.481C1094.561,458.372,1090.016,438.581,1093.443,427.172Z" transform="translate(-1082.939 -418.19)" fill="#ffd539"/>
            <path id="Trazado_1761" data-name="Trazado 1761" d="M1091.823,424.6l1.621-9.632s3-1.587,6.583,1.064c0,0-4.748,5.488-6.394,9.176Z" transform="translate(-1082.76 -414.492)" fill="#ffcb2d"/>
            <path id="Trazado_1762" data-name="Trazado 1762" d="M1176.409,483.555c.106.75.582,1.3,1.065,1.232s.789-.733.684-1.483-.582-1.3-1.065-1.232S1176.3,482.806,1176.409,483.555Z" transform="translate(-1107.425 -434.201)" fill="#9e7d1b"/>
            <path id="Trazado_1763" data-name="Trazado 1763" d="M1129.825,484.044a.8.8,0,1,0,1.069-.375A.8.8,0,0,0,1129.825,484.044Z" transform="translate(-1093.821 -434.645)" fill="#9e7d1b" opacity="0.6"/>
            <path id="Trazado_1764" data-name="Trazado 1764" d="M1094.224,465.685a2.218,2.218,0,1,0,2.583.713A1.94,1.94,0,0,0,1094.224,465.685Z" transform="translate(-1083.306 -429.345)" fill="#9e7d1b" opacity="0.4"/>
            <path id="Trazado_1765" data-name="Trazado 1765" d="M1142.745,496.4c-.089.725.613,1.407,1.569,1.522a1.58,1.58,0,0,0,1.891-1.106c.089-.725-.614-1.408-1.569-1.522A1.58,1.58,0,0,0,1142.745,496.4Z" transform="translate(-1097.61 -438.053)" fill="#9e7d1b" opacity="0.4"/>
            <path id="Trazado_1766" data-name="Trazado 1766" d="M1129.3,480.825a.55.55,0,1,0,.734-.258A.551.551,0,0,0,1129.3,480.825Z" transform="translate(-1093.675 -433.748)" fill="#9e7d1b" opacity="0.6"/>
            <path id="Trazado_1767" data-name="Trazado 1767" d="M1092.161,458.005a.55.55,0,1,0,.735-.259A.551.551,0,0,0,1092.161,458.005Z" transform="translate(-1082.843 -427.092)" fill="#9e7d1b" opacity="0.6"/>
            <path id="Trazado_1768" data-name="Trazado 1768" d="M1098.889,474.216a.55.55,0,1,0,.735-.259A.55.55,0,0,0,1098.889,474.216Z" transform="translate(-1084.805 -431.82)" fill="#9e7d1b" opacity="0.6"/>
            <path id="Trazado_1769" data-name="Trazado 1769" d="M1126.168,502.056a.55.55,0,1,0,.715-.307A.549.549,0,0,0,1126.168,502.056Z" transform="translate(-1092.766 -439.93)" fill="#9e7d1b" opacity="0.6"/>
            <path id="Trazado_1770" data-name="Trazado 1770" d="M1122.31,501.467a.378.378,0,1,0,.492-.21A.378.378,0,0,0,1122.31,501.467Z" transform="translate(-1091.644 -439.79)" fill="#9e7d1b" opacity="0.6"/>
            <path id="Trazado_1771" data-name="Trazado 1771" d="M1126.875,504.376a.378.378,0,1,0,.505-.178A.378.378,0,0,0,1126.875,504.376Z" transform="translate(-1092.973 -440.645)" fill="#9e7d1b" opacity="0.6"/>
            <path id="Trazado_1772" data-name="Trazado 1772" d="M1119.427,487.338a.378.378,0,1,0,.505-.177A.379.379,0,0,0,1119.427,487.338Z" transform="translate(-1090.8 -435.675)" fill="#9e7d1b" opacity="0.6"/>
            <path id="Trazado_1773" data-name="Trazado 1773" d="M1089.752,441.771a.378.378,0,1,0,.505-.178A.379.379,0,0,0,1089.752,441.771Z" transform="translate(-1082.146 -422.385)" fill="#9e7d1b" opacity="0.6"/>
            <path id="Trazado_1774" data-name="Trazado 1774" d="M1088.455,473.59a.378.378,0,1,0,.505-.178A.379.379,0,0,0,1088.455,473.59Z" transform="translate(-1081.767 -431.666)" fill="#9e7d1b" opacity="0.6"/>
            <path id="Trazado_1775" data-name="Trazado 1775" d="M1107.333,481.665a.55.55,0,1,0,.735-.258A.551.551,0,0,0,1107.333,481.665Z" transform="translate(-1087.268 -433.993)" fill="#9e7d1b" opacity="0.6"/>
            <path id="Trazado_1776" data-name="Trazado 1776" d="M1119.115,489.866a.55.55,0,1,0,.735-.259A.55.55,0,0,0,1119.115,489.866Z" transform="translate(-1090.704 -436.384)" fill="#9e7d1b" opacity="0.6"/>
            <path id="Trazado_1777" data-name="Trazado 1777" d="M1149.976,496.183a.55.55,0,1,0,.735-.258A.551.551,0,0,0,1149.976,496.183Z" transform="translate(-1099.705 -438.227)" fill="#9e7d1b" opacity="0.6"/>
            <path id="Trazado_1778" data-name="Trazado 1778" d="M1142.268,493.666a.55.55,0,1,0,.735-.259A.55.55,0,0,0,1142.268,493.666Z" transform="translate(-1097.457 -437.493)" fill="#9e7d1b" opacity="0.6"/>
            <path id="Trazado_1779" data-name="Trazado 1779" d="M1094.54,446.828a.55.55,0,1,0,.735-.259A.55.55,0,0,0,1094.54,446.828Z" transform="translate(-1083.537 -423.832)" fill="#9e7d1b" opacity="0.6"/>
            <path id="Trazado_1780" data-name="Trazado 1780" d="M1094.721,460.5a.55.55,0,1,0,.735-.258A.552.552,0,0,0,1094.721,460.5Z" transform="translate(-1083.59 -427.818)" fill="#9e7d1b" opacity="0.6"/>
            <path id="Trazado_1781" data-name="Trazado 1781" d="M1135.379,485.375a.55.55,0,1,0,.735-.258A.551.551,0,0,0,1135.379,485.375Z" transform="translate(-1095.448 -435.075)" fill="#9e7d1b" opacity="0.6"/>
          </g>
          <path id="Trazado_1782" data-name="Trazado 1782" d="M1080.2,453.374c-.03-.1-.056-.205-.085-.309-.062-.222-.123-.445-.179-.667-.03-.116-.056-.232-.083-.348-.05-.209-.1-.418-.145-.626-.026-.12-.05-.241-.075-.361-.041-.2-.082-.407-.118-.609-.023-.123-.043-.246-.064-.369q-.051-.3-.1-.6c-.018-.125-.035-.248-.052-.372q-.04-.3-.074-.591c-.014-.123-.028-.244-.04-.367q-.03-.3-.054-.591c-.01-.12-.02-.239-.028-.359-.014-.2-.026-.4-.035-.6-.006-.115-.012-.229-.016-.344-.008-.2-.013-.4-.016-.606,0-.109,0-.219-.006-.327,0-.21,0-.418,0-.625,0-.1,0-.2,0-.3,0-.224.013-.446.023-.668,0-.082.006-.164.01-.246.014-.261.031-.519.05-.778,0-.041.006-.083.009-.125q.073-.909.2-1.8c.007-.053.016-.106.023-.159.034-.237.069-.472.108-.706.015-.089.031-.176.047-.263.034-.2.069-.392.106-.586.02-.1.041-.2.062-.306.036-.178.072-.355.111-.531.024-.108.049-.216.074-.324.039-.167.078-.334.119-.5q.04-.166.084-.33.062-.239.126-.475c.031-.113.062-.224.094-.335.044-.152.088-.3.133-.453.034-.113.068-.225.1-.337.045-.146.092-.29.139-.434.038-.113.074-.225.112-.336q.072-.21.146-.419c.04-.111.079-.222.12-.332.049-.134.1-.266.15-.4q.064-.168.128-.334.075-.189.152-.375c.046-.113.091-.225.138-.336s.1-.234.152-.35.1-.228.15-.34.1-.206.143-.309c.056-.12.11-.241.167-.358l.079-.16c.166-.339.335-.671.507-.992l.039-.075c.078-.144.157-.284.236-.424.031-.056.062-.113.094-.169.075-.132.152-.26.228-.388.035-.06.071-.121.106-.18.076-.125.153-.247.229-.369l.108-.173c.078-.122.156-.24.234-.358.035-.052.069-.106.1-.157.079-.118.159-.232.24-.346.034-.047.067-.1.1-.142q.123-.171.246-.335l.094-.125q.127-.167.253-.326l.085-.1q.131-.163.261-.317l.072-.083c.091-.106.183-.21.273-.31l.052-.057c.1-.106.193-.209.29-.307l.021-.021a7.4,7.4,0,0,1,2.076-1.576l1.466-8.717s3-1.587,6.583,1.064a58.908,58.908,0,0,0-5.8,8,4.49,4.49,0,0,1,1.11,2.066c.11.375.208.786.3,1.227.136.661.257,1.393.387,2.185.172,1.057.359,2.222.614,3.474a38.63,38.63,0,0,0,1.023,3.992,30.959,30.959,0,0,0,4.569,9.014q.43.59.906,1.183c.634.791,1.328,1.586,2.09,2.381q.573.6,1.2,1.194a41.521,41.521,0,0,0,18.454,10.709q1.227.318,2.415.539.593.113,1.176.2,1.165.182,2.284.286a42.285,42.285,0,0,0,5.256.164c2.611-.075,4.894-.356,6.745-.584.424-.052.832-.1,1.231-.14.125-.013.245-.024.368-.036.272-.026.54-.051.8-.073l.392-.031q.367-.028.718-.047c.118-.007.237-.015.352-.021.276-.014.541-.024.8-.032.059,0,.121,0,.178-.006.3-.007.595-.009.875-.006.1,0,.193,0,.29.006.179,0,.356.009.524.016.107,0,.211.011.313.016.149.009.293.021.433.033.1.009.2.018.292.028.141.016.273.033.4.052.078.011.16.021.234.033q.277.047.522.1c.079.018.148.04.222.06s.177.049.259.075.143.05.21.076.135.054.2.082.125.057.182.088c.02.011.041.021.06.032a1.352,1.352,0,0,1,.887,1.23,1.29,1.29,0,0,1-.587,1.453c-.045.12-.095.243-.145.365l-.006.013c-.067.162-.139.325-.215.49l-.013.027c-.076.162-.157.326-.243.491l-.017.033q-.129.244-.27.492l-.023.041c-.095.164-.193.328-.3.494l-.028.045c-.1.164-.212.33-.324.5l-.033.047c-.113.166-.229.331-.35.5l-.037.05q-.182.25-.376.5l-.04.05q-.2.252-.4.5l-.037.044c-.142.171-.287.341-.438.511l-.031.034q-.231.262-.474.523l-.013.013a30.977,30.977,0,0,1-4.871,4.184l-.1.075c-.18.125-.364.247-.549.37l-.208.139c-.169.111-.341.219-.512.327-.09.057-.178.113-.268.169-.162.1-.326.2-.49.3-.106.063-.21.126-.317.188-.157.091-.316.181-.475.271-.118.066-.235.132-.354.2-.154.084-.311.167-.468.25-.129.068-.257.136-.387.2-.152.079-.307.155-.462.232q-.206.1-.415.2c-.152.073-.306.144-.46.216s-.29.134-.437.2-.307.135-.462.2-.305.13-.46.195-.306.125-.46.186-.321.127-.483.188-.306.115-.46.172-.335.121-.5.18q-.229.081-.46.158c-.173.059-.349.115-.526.171-.152.048-.305.1-.459.143-.181.055-.363.108-.546.16-.152.044-.3.088-.459.13-.189.051-.379.1-.57.149-.15.038-.3.077-.452.113-.2.048-.4.093-.6.137-.149.033-.3.067-.446.1-.206.043-.414.083-.623.123-.146.028-.291.057-.438.084-.217.038-.437.074-.657.108-.14.023-.28.046-.422.067-.233.034-.469.064-.7.094-.13.016-.259.035-.39.05-.259.03-.521.055-.783.079-.11.011-.218.023-.329.033-.311.026-.625.047-.939.064l-.188.013q-1.146.061-2.324.046l-.167,0c-.333-.006-.668-.014-1-.03-.112,0-.225-.014-.337-.02-.282-.016-.564-.031-.849-.053-.135-.011-.271-.026-.406-.038-.264-.023-.527-.047-.793-.077-.149-.017-.3-.038-.449-.056-.253-.031-.505-.062-.76-.1-.16-.023-.322-.051-.482-.076-.246-.04-.492-.079-.74-.123-.168-.03-.337-.064-.506-.1-.242-.047-.484-.094-.728-.146-.174-.037-.349-.078-.523-.118-.24-.055-.481-.111-.723-.171-.178-.044-.357-.091-.535-.139-.24-.063-.479-.127-.719-.2-.183-.052-.366-.106-.548-.161-.238-.072-.477-.145-.716-.221-.186-.06-.373-.122-.56-.185q-.356-.119-.713-.246-.285-.1-.569-.208-.356-.133-.713-.273c-.192-.077-.385-.154-.578-.233-.237-.1-.475-.2-.713-.3-.195-.084-.389-.169-.584-.256q-.357-.16-.716-.33c-.2-.092-.392-.185-.588-.281-.239-.117-.48-.238-.72-.361-.2-.1-.395-.2-.592-.305-.241-.128-.482-.259-.724-.392-.2-.108-.395-.216-.592-.329-.243-.138-.487-.282-.73-.426-.2-.117-.4-.232-.594-.353-.245-.149-.491-.306-.737-.461-.2-.125-.393-.247-.59-.375-.25-.163-.5-.333-.752-.5-.194-.131-.387-.259-.582-.394-.255-.177-.511-.363-.767-.547-.19-.137-.38-.27-.569-.41-.269-.2-.538-.407-.807-.612-.177-.136-.354-.267-.531-.406-.3-.233-.6-.477-.895-.72-.15-.122-.3-.239-.449-.363q-.672-.557-1.345-1.145-.524-.459-1.021-.924c-.108-.1-.209-.2-.315-.3-.219-.21-.439-.419-.651-.629-.123-.123-.241-.247-.361-.37-.186-.19-.372-.379-.551-.57-.124-.132-.244-.266-.365-.4-.167-.183-.335-.366-.5-.55-.12-.137-.236-.274-.353-.412-.154-.181-.308-.363-.457-.544-.114-.14-.225-.279-.336-.419-.144-.181-.286-.363-.425-.544-.107-.141-.212-.282-.316-.422q-.2-.273-.4-.546c-.1-.141-.2-.283-.3-.424q-.189-.275-.37-.552c-.091-.14-.183-.279-.271-.419-.12-.188-.235-.375-.349-.563-.083-.137-.167-.275-.247-.412-.113-.193-.222-.385-.329-.578-.074-.133-.15-.266-.222-.4-.108-.2-.212-.4-.314-.6-.064-.125-.13-.25-.192-.375-.106-.215-.207-.431-.307-.646-.052-.111-.106-.222-.156-.334-.113-.251-.22-.5-.325-.754-.031-.074-.065-.149-.1-.225q-.4-.989-.728-1.976c-.025-.074-.045-.147-.069-.221C1080.351,453.879,1080.272,453.626,1080.2,453.374Z" transform="translate(-1079.03 -414.492)" opacity="0.4" fill="url(#linear-gradient-5)"/>
        </g>
        <path id="Trazado_1783" data-name="Trazado 1783" d="M1149.46,464.862l0,0a1.064,1.064,0,0,0,.2-.321l.008-.021a1.613,1.613,0,0,0,.1-.409c0-.011,0-.022,0-.033a2,2,0,0,0-.009-.477h0a2.236,2.236,0,0,0-.053-.256c-.007-.027-.017-.052-.026-.078-.017-.054-.034-.107-.055-.157-.012-.03-.026-.057-.039-.084-.021-.043-.042-.086-.065-.126s-.033-.052-.05-.079-.049-.07-.075-.1-.037-.045-.057-.067a1.141,1.141,0,0,0-.085-.082c-.021-.018-.04-.036-.062-.052a.764.764,0,0,0-.1-.06c-.021-.012-.041-.025-.062-.035a.7.7,0,0,0-.127-.04c-.013,0-.025-.008-.037-.011h0c-.019-.011-.04-.021-.06-.032-.057-.03-.119-.059-.182-.088s-.129-.056-.2-.082-.137-.052-.211-.076-.169-.051-.259-.075h0c-.073-.02-.142-.041-.221-.06-.164-.038-.337-.073-.522-.1h0c-.074-.012-.155-.021-.232-.033h0c-.131-.019-.263-.037-.4-.052h0c-.094-.011-.193-.018-.293-.028-.14-.012-.283-.023-.431-.032h0c-.1-.006-.206-.012-.314-.016-.168-.008-.344-.013-.522-.016-.1,0-.191,0-.292-.006-.28,0-.57,0-.874.006-.059,0-.123,0-.183.006-.257.007-.521.017-.794.031-.116.006-.237.013-.355.021-.232.013-.47.029-.714.047l-.4.031c-.258.022-.524.046-.795.073-.124.012-.245.023-.372.036-.4.042-.805.087-1.23.14-1.387.171-3.017.372-4.845.493h-.008c-.609.04-1.24.072-1.891.091-.371.011-.751.016-1.135.018-.12,0-.242,0-.363,0q-.409,0-.827-.011c-.14,0-.281-.007-.422-.012q-.424-.014-.856-.038c-.13-.007-.258-.013-.388-.021-.417-.026-.837-.057-1.265-.1q-1.119-.106-2.284-.286-.582-.09-1.176-.2-1.187-.223-2.415-.539c-.385-.1-.773-.208-1.163-.322-.125-.037-.253-.079-.379-.117-.266-.081-.533-.164-.8-.253-.152-.05-.3-.1-.457-.157-.246-.085-.494-.172-.742-.264-.161-.06-.324-.122-.487-.185-.244-.094-.489-.191-.734-.291-.163-.067-.327-.135-.491-.2-.252-.107-.505-.22-.759-.334-.158-.071-.315-.141-.474-.215-.277-.129-.555-.266-.833-.4-.136-.067-.271-.132-.408-.2q-1.241-.635-2.5-1.4c-.136-.082-.272-.17-.408-.254-.286-.177-.571-.356-.858-.543-.162-.106-.325-.217-.487-.327-.263-.177-.525-.356-.788-.542-.171-.12-.344-.245-.516-.37q-.387-.281-.774-.574c-.174-.132-.346-.263-.519-.4-.264-.206-.528-.419-.793-.635-.166-.135-.332-.269-.5-.409-.288-.242-.577-.492-.866-.746-.142-.124-.283-.244-.425-.371-.43-.385-.86-.781-1.291-1.194s-.814-.8-1.2-1.194c-.762-.8-1.456-1.59-2.09-2.381q-.476-.593-.906-1.183a30.937,30.937,0,0,1-4.568-9.014c-.314-.987-.565-1.942-.776-2.857-.089-.385-.173-.764-.248-1.134-.191-.939-.344-1.829-.482-2.661l-.132-.812c-.055-.339-.11-.662-.164-.978-.015-.085-.03-.172-.045-.256-.058-.329-.117-.651-.178-.952-.091-.441-.188-.851-.3-1.227-.062-.211-.13-.409-.2-.6-.016-.04-.033-.078-.049-.118q-.091-.226-.194-.431c-.016-.032-.033-.062-.05-.094a3.767,3.767,0,0,0-.247-.4l-.036-.051a2.863,2.863,0,0,0-.333-.378,58.908,58.908,0,0,1,5.8-8,8.7,8.7,0,0,0-1.312-.807,6.051,6.051,0,0,0-5.271-.257l-1.466,8.717a5.338,5.338,0,0,0-.993.611l-.009.006a9.98,9.98,0,0,0-1.075.959h0l-.021.021c-.1.1-.193.2-.29.307l-.052.056h0c-.091.1-.182.2-.273.31h0l-.072.083q-.131.154-.261.317c-.028.035-.057.069-.084.1h0q-.127.158-.253.325h0l-.093.123h0c-.081.11-.164.22-.245.334-.034.047-.067.095-.1.142-.079.113-.159.228-.24.346h0l-.1.157c-.078.118-.156.235-.234.357h0c-.036.056-.072.114-.108.171-.077.121-.153.243-.229.368h0l-.106.179h0c-.077.128-.153.256-.228.388h0c-.032.055-.063.112-.094.168-.079.14-.158.281-.236.424l-.039.075q-.258.481-.507.992h0l0,.009-.075.152c-.055.115-.11.234-.164.353l0,.006,0,.006c-.047.1-.094.2-.14.3h0c-.05.112-.1.226-.148.339h0c-.051.115-.1.231-.152.349s-.092.223-.138.336-.1.249-.152.375c-.043.11-.086.222-.128.333h0q-.077.2-.15.4c-.04.11-.08.221-.12.332-.049.139-.1.278-.146.418h0c-.037.111-.075.223-.112.335-.047.144-.094.288-.139.434-.035.112-.069.223-.1.336h0q-.067.223-.132.45v0h0q-.048.166-.094.334-.065.236-.126.475h0c-.028.109-.057.218-.084.329h0c-.041.166-.08.332-.118.5h0v0c-.024.106-.049.211-.072.317v0h0c-.038.175-.075.352-.11.529h0v0c-.021.1-.042.2-.061.3-.038.193-.072.387-.105.583v.006c-.015.087-.031.174-.046.261h0q-.057.351-.108.706c-.008.053-.016.106-.023.159q-.122.885-.2,1.8c0,.04-.006.081-.009.122v.006c-.02.256-.037.515-.05.774h0c0,.081-.006.164-.01.245-.01.222-.018.444-.023.668,0,.1,0,.2,0,.3,0,.208,0,.416,0,.625,0,.108,0,.218.006.327,0,.2.008.4.016.606,0,.115.011.23.016.344.01.2.021.4.035.6h0q.013.18.028.359.025.3.054.591c.013.123.026.244.04.367h0q.033.3.074.591h0c.017.123.034.246.052.37h0q.044.3.095.6h0c.021.123.041.245.064.368.037.2.077.406.118.609.025.12.049.241.075.361.045.208.094.417.145.626.028.116.054.232.083.348h0c.056.222.118.445.179.667.029.1.055.205.085.308h0c.074.252.152.505.233.758.024.074.045.147.069.221q.324.987.728,1.976c.03.074.064.149.095.222v0c.105.251.212.5.325.752.05.111.1.221.154.331v.006c.1.215.2.429.306.642h0c.062.125.127.25.191.375.1.2.206.4.314.6.072.133.147.266.222.4.108.193.216.385.329.578.08.137.163.273.246.41h0c.114.188.229.375.348.562h0c.089.14.18.278.271.418h0q.182.276.37.552c.1.142.2.283.3.424.129.182.261.364.4.545h0c.1.141.209.281.316.421h0c.139.181.281.362.424.543h0c.11.14.221.279.335.418.149.181.3.363.457.544h0c.117.137.233.275.353.412h0c.161.183.327.365.494.548l0,0v0c.121.132.239.264.363.4h0c.179.191.365.38.55.569.12.123.238.247.361.37h0c.211.21.431.419.65.629.106.1.207.2.315.3h0q.5.464,1.02.924.674.589,1.344,1.145h0c.149.124.3.24.448.362.3.242.6.487.895.72.178.139.354.27.531.406h0c.269.205.538.413.807.611h0c.188.14.378.272.566.407l0,0,0,0c.254.183.509.368.764.545h0c.193.135.387.263.581.394.251.169.5.339.752.5h0c.2.128.393.251.59.375.246.155.492.311.737.46h0c.2.12.4.236.593.352h0c.243.144.486.288.728.425.2.113.394.22.591.328h0c.241.132.482.265.723.392.2.1.4.2.592.305.24.123.48.244.719.361h0c.2.1.392.188.587.28h0c.239.112.477.222.715.329h0c.195.088.389.173.584.256h0q.357.154.713.3h0q.289.119.578.232h0q.356.14.712.273h0q.285.106.569.208.357.127.713.246h0c.186.062.373.125.56.184.239.077.478.149.717.221.183.055.365.109.547.161.241.069.48.132.72.2.178.047.358.095.535.139h0c.241.06.481.115.72.17h0c.173.039.346.079.519.116h0c.243.052.485.1.728.146.169.033.337.066.5.1h0c.248.045.494.084.741.123.16.025.321.052.481.076.255.037.509.068.762.1.149.018.3.039.447.056.266.03.531.053.8.077.134.012.269.027.4.038h0c.286.022.57.038.853.053.11.006.222.015.332.02h0c.337.016.672.024,1.006.03l.165,0h0q1.177.015,2.325-.046l.172-.011h.023c.312-.018.623-.039.932-.064h0c.107-.009.213-.022.319-.032h.01c.261-.025.523-.049.781-.079.128-.015.254-.033.382-.049h.012c.234-.03.468-.059.7-.094.141-.021.281-.045.421-.067.22-.035.44-.07.659-.109.145-.026.288-.055.431-.081h.01c.207-.04.414-.079.618-.122h0c.149-.031.3-.064.443-.1h0q.3-.066.6-.137h0c.149-.036.3-.074.446-.113h.006c.19-.048.38-.1.568-.148h0c.152-.041.3-.084.454-.128h.005c.183-.052.364-.1.544-.16h0l.457-.142h0c.175-.056.35-.112.523-.17h0c.154-.052.305-.1.457-.157h0q.253-.088.5-.179h0c.152-.056.3-.113.455-.171h0q.243-.094.484-.189t.456-.185h0c.155-.064.308-.129.461-.195s.307-.132.458-.2.294-.132.439-.2.307-.142.46-.215.277-.135.414-.2h0c.154-.076.306-.152.457-.229h0c.13-.067.257-.134.385-.2h0l.005,0c.154-.081.309-.163.461-.246.121-.066.239-.133.359-.2.158-.089.315-.177.47-.268.107-.062.212-.125.317-.188h0l0,0c.162-.1.324-.193.484-.292h0c.093-.057.183-.115.274-.173.169-.107.339-.214.505-.323.073-.047.144-.1.217-.145.181-.121.363-.242.54-.365l.117-.083a31.044,31.044,0,0,0,4.859-4.176h0l.013-.013q.242-.259.472-.52l.033-.036h0c.15-.17.295-.339.436-.509h0l.037-.044c.139-.168.273-.335.4-.5h0l.04-.05q.193-.251.375-.5l.038-.052q.18-.248.347-.494l0,0h0l.032-.047h0q.168-.249.322-.494h0l.028-.044h0q.155-.248.3-.492h0l.023-.04q.141-.248.27-.492h0l.017-.033c.086-.165.167-.329.243-.491h0l.012-.025h0c.077-.165.149-.328.215-.49h0l.005-.013h0v0c.05-.122.1-.244.144-.363A.68.68,0,0,0,1149.46,464.862Z" transform="translate(-0.001)" opacity="0.4" fill="url(#radial-gradient)"/>
      </g>
    </g>
  </g>
</svg>
