<svg xmlns="http://www.w3.org/2000/svg" width="123" height="118" viewBox="0 0 123 118">
  <g id="Grupo_1112" data-name="Grupo 1112" transform="translate(-206 -321)">
    <g id="Grupo_1049" data-name="Grupo 1049">
      <g id="Elipse_24" data-name="Elipse 24" transform="translate(206 321)" fill="#fff" stroke="#707070" stroke-width="1">
        <ellipse cx="61.5" cy="59" rx="61.5" ry="59" stroke="none"/>
        <ellipse cx="61.5" cy="59" rx="61" ry="58.5" fill="none"/>
      </g>
      <g id="Grupo_848" data-name="Grupo 848" transform="translate(12.586 161.532)">
        <g id="Grupo_825" data-name="Grupo 825" transform="translate(224.414 184.677)">
          <g id="Grupo_824" data-name="Grupo 824">
            <g id="Grupo_820" data-name="Grupo 820" transform="translate(0 60.457)">
              <path id="Trazado_2181" data-name="Trazado 2181" d="M285.992,293.52l0-1.551h-.833c-3.21-2.728-15.4-4.76-29.952-4.76-14.569,0-26.772,2.037-29.966,4.771h-.823v1.492h.014c.187,3.384,13.893,6.119,30.774,6.119,16.774,0,30.413-2.7,30.771-6.056Z" transform="translate(-224.414 -285.79)" fill="#7e8286"/>
              <path id="Trazado_2182" data-name="Trazado 2182" d="M303.554,291.97h-.833c-3.21-2.728-15.4-4.76-29.952-4.76-.316,0-.628,0-.941,0v12.377h.941c16.774,0,30.413-2.7,30.771-6.056l.018-.016Z" transform="translate(-241.98 -285.79)" fill="#8c959d" opacity="0.5" style="mix-blend-mode: multiply;isolation: isolate"/>
              <path id="Trazado_2183" data-name="Trazado 2183" d="M285.991,291.146c0,3.418-13.781,6.191-30.782,6.191s-30.778-2.774-30.778-6.191,13.78-6.191,30.778-6.191,30.782,2.772,30.782,6.191Z" transform="translate(-224.42 -284.955)" fill="#5b606c"/>
            </g>
            <g id="Grupo_823" data-name="Grupo 823" transform="translate(0.438)">
              <path id="Trazado_2184" data-name="Trazado 2184" d="M285.808,255.655c0-.025.006-.05.006-.079s-.006-.05-.006-.076V188.919H225.114V255.5c0,.026-.005.052-.005.079s0,.054.005.082v.066h.009c.478,2.658,13.878,5.423,30.338,5.423s29.86-2.765,30.339-5.423h.009Z" transform="translate(-225.109 -188.919)" fill="#ffd117"/>
              <g id="Grupo_821" data-name="Grupo 821">
                <path id="Trazado_2185" data-name="Trazado 2185" d="M225.109,212.9c0,.027,0,.053.005.081v-.161C225.112,212.849,225.109,212.877,225.109,212.9Z" transform="translate(-225.109 -197.775)" fill="#fc8a07"/>
                <path id="Trazado_2186" data-name="Trazado 2186" d="M321.535,212.906c0-.026-.006-.051-.006-.077v.154C321.529,212.957,321.535,212.932,321.535,212.906Z" transform="translate(-260.83 -197.777)" fill="#fc8a07"/>
                <path id="Trazado_2187" data-name="Trazado 2187" d="M255.463,209.617c16.463,0,29.86-2.766,30.339-5.422h.009V188.919H225.117v15.276h.009C225.6,206.85,239,209.617,255.463,209.617Z" transform="translate(-225.112 -188.919)" fill="#be2322"/>
              </g>
              <g id="Grupo_822" data-name="Grupo 822" transform="translate(0 57.256)">
                <path id="Trazado_2188" data-name="Trazado 2188" d="M225.109,289.271c0,.03,0,.054.005.082v.066h.009c.478,2.658,13.878,5.423,30.338,5.423s29.86-2.765,30.339-5.423h.009v-.069c0-.025.006-.05.006-.079s-.006-.05-.006-.076v-6.738a173.511,173.511,0,0,0-60.694.174v6.561C225.112,289.218,225.109,289.244,225.109,289.271Z" transform="translate(-225.109 -279.869)" fill="#be2322"/>
              </g>
            </g>
          </g>
        </g>
        <path id="Trazado_2189" data-name="Trazado 2189" d="M232.079,211.341s25.626,8.791,51.8-.342c-2.589,4.976-2.727,12.2.341,16.22-7.156,2.113-32.984,7.769-53.159-.545C233.851,222.857,233.715,214.475,232.079,211.341Z" transform="translate(-2.461 -12.422)" fill="#0f5b00"/>
        <g id="Grupo_826" data-name="Grupo 826" transform="translate(231.429 194.791)">
          <path id="Trazado_2190" data-name="Trazado 2190" d="M237.074,206.122s6.407,9.524-.713,22.965c14.095,5.187,40.5,3.382,45.131.178-4.183-6.853-3.649-18.781-1.157-22.431C273.836,209.414,249.447,210.661,237.074,206.122Z" transform="translate(-235.855 -205.407)" fill="#fff7c8"/>
          <path id="Trazado_2191" data-name="Trazado 2191" d="M259.631,232.288c-5.512,0-15.919-.428-23.69-3.287l-.383-.14.189-.361c6.942-13.1.8-22.506.732-22.6l-.614-.913,1.036.379c7.133,2.618,17.325,3.008,22.766,3.008,8.516,0,16.84-.942,20.24-2.291l1.084-.432-.659.964c-2.445,3.579-2.91,15.364,1.166,22.045l.177.288-.278.192C278.759,230.962,269.607,232.288,259.631,232.288Zm-23.062-3.818c5.671,2,13.835,3.1,23.062,3.1,9.355,0,18.237-1.212,21.08-2.847-3.814-6.582-3.588-17.22-1.454-21.663-3.907,1.223-11.539,2.024-19.59,2.024-5.264,0-14.937-.365-22.1-2.735a20.026,20.026,0,0,1,1.879,5.729A25.752,25.752,0,0,1,236.569,228.47Z" transform="translate(-235.558 -204.986)" fill="#0f5b00"/>
        </g>
        <g id="Grupo_828" data-name="Grupo 828" transform="translate(235.358 210.865)">
          <g id="Grupo_827" data-name="Grupo 827">
            <path id="Trazado_2192" data-name="Trazado 2192" d="M249.113,238.12a3.92,3.92,0,1,1-1.436-5.354A3.921,3.921,0,0,1,249.113,238.12Z" transform="translate(-241.798 -231.156)" fill="#fc3007"/>
            <path id="Trazado_2193" data-name="Trazado 2193" d="M249.816,230.553s-.275-.124-.23.1a2.125,2.125,0,0,1-.189,1.383,1.257,1.257,0,0,1-.269-1.37,1.387,1.387,0,0,0-.118,1.448s-1.127-.592-1.211-1.313c0,0-.334.8.915,1.466a1.761,1.761,0,0,0-1.084.833,1.9,1.9,0,0,1,1.592-.47s.043,1.147,1.573,1.405a1.523,1.523,0,0,1-.835-1.141,2.113,2.113,0,0,1,1.9.275,1.787,1.787,0,0,0-1.788-.628s.837-.327.883-1.007c0,0-.66.684-1.275.584,0,0,.66-1.18.465-1.374s-.3-.174-.3-.174Z" transform="translate(-243.958 -230.518)" fill="#21a92f"/>
          </g>
          <path id="Trazado_2194" data-name="Trazado 2194" d="M246.425,233.477c.039-.4-.343-.589-.686-.536a.958.958,0,0,0-.718.577,1.087,1.087,0,0,0-.023.543c.155.32.628.255.878.127A1,1,0,0,0,246.425,233.477Z" transform="translate(-242.965 -231.413)" fill="#fffaee" style="mix-blend-mode: screen;isolation: isolate"/>
          <path id="Trazado_2195" data-name="Trazado 2195" d="M244.446,234.262a.193.193,0,0,0-.1-.237.268.268,0,0,0-.292.043.247.247,0,0,0-.065.1.2.2,0,0,0,.02.164v.005a.2.2,0,0,0,.082.071.26.26,0,0,0,.177.014h.006A.253.253,0,0,0,244.446,234.262Z" transform="translate(-242.605 -231.808)" fill="#fffaee" style="mix-blend-mode: screen;isolation: isolate"/>
        </g>
        <g id="Grupo_830" data-name="Grupo 830" transform="translate(265.901 210.912)">
          <g id="Grupo_829" data-name="Grupo 829" transform="translate(0)">
            <path id="Trazado_2196" data-name="Trazado 2196" d="M297.995,235.081a3.919,3.919,0,1,1-4.869-2.648A3.92,3.92,0,0,1,297.995,235.081Z" transform="translate(-290.315 -231.215)" fill="#fc3007"/>
            <path id="Trazado_2197" data-name="Trazado 2197" d="M292.23,230.742s-.28.113-.087.235a2.1,2.1,0,0,1,.87,1.09,1.257,1.257,0,0,1-1.178-.749,1.39,1.39,0,0,0,.968,1.083s-1.206.41-1.784-.026c0,0,.349.8,1.692.348a1.755,1.755,0,0,0-.143,1.358s.042-1.1.755-1.476a1.632,1.632,0,0,0,2.1-.173,1.516,1.516,0,0,1-1.4-.182,2.122,2.122,0,0,1,1.512-1.187,1.792,1.792,0,0,0-1.69.864,1.4,1.4,0,0,0-.122-1.333s.041.95-.455,1.326c0,0-.4-1.294-.677-1.285s-.334.1-.334.1Z" transform="translate(-290.576 -230.594)" fill="#21a92f"/>
          </g>
          <path id="Trazado_2198" data-name="Trazado 2198" d="M292.053,235.712a.539.539,0,0,0-.862.128.957.957,0,0,0-.076.917.465.465,0,0,0,.066.1.5.5,0,0,0,.31.293c.339.11.619-.28.7-.548A1,1,0,0,0,292.053,235.712Z" transform="translate(-290.581 -232.428)" fill="#fffaee" style="mix-blend-mode: screen;isolation: isolate"/>
          <path id="Trazado_2199" data-name="Trazado 2199" d="M291.087,238.041a.193.193,0,0,0-.242-.089.269.269,0,0,0-.171.242.238.238,0,0,0,.026.114.2.2,0,0,0,.132.1h0a.19.19,0,0,0,.108-.01.254.254,0,0,0,.132-.116s0-.005.005-.007A.253.253,0,0,0,291.087,238.041Z" transform="translate(-290.448 -233.315)" fill="#fffaee" style="mix-blend-mode: screen;isolation: isolate"/>
        </g>
        <path id="Trazado_2200" data-name="Trazado 2200" d="M243.157,223.9c.121-.55.223-1.107.308-1.664.045-.278.081-.559.121-.837s.068-.56.1-.84.052-.561.079-.84.043-.564.062-.845.033-.562.037-.844.018-.562.014-.844l-.011-.843c-.006-.282-.028-.562-.039-.844l-.022-.419-.041-.419c-.03-.28-.049-.56-.091-.837l-.13-.832c-.037-.278-.115-.547-.171-.82a8.1,8.1,0,0,0-.2-.814l-.245-.8-.082-.279.281.069,2.23.526,2.251.432,2.265.356,2.276.28c.76.085,1.522.144,2.286.217s1.525.1,2.287.158,1.529.069,2.291.1c.384.011.766.033,1.146.036l1.148.016,1.148.019,1.147-.009c.767-.006,1.53-.009,2.293-.042s1.53-.044,2.293-.1,1.527-.079,2.288-.156,1.525-.123,2.283-.222l1.138-.134c.381-.043.757-.107,1.136-.159s.755-.108,1.133-.17l1.125-.212.562-.106c.187-.04.371-.087.557-.131l1.111-.266.3-.072-.112.282-.281.7-.239.719c-.074.24-.134.488-.2.732s-.112.495-.169.741-.1.5-.146.748-.087.5-.121.752-.08.5-.1.754-.059.505-.081.759l-.061.762-.037.761c-.011.256-.011.511-.016.764s0,.51,0,.765.022.509.03.763.041.508.062.761.055.508.108.757c.026.124.044.251.075.375l.11.368-.123-.364c-.035-.123-.058-.249-.09-.373-.062-.249-.091-.5-.139-.756-.026-.253-.064-.506-.083-.761s-.043-.511-.052-.766-.027-.511-.027-.767-.008-.512,0-.767l.017-.767.041-.767c.014-.256.04-.511.06-.766s.055-.509.082-.764.064-.51.107-.764.08-.505.134-.757.092-.505.161-.754.119-.5.19-.746l.233-.738.276-.726.183.211-1.12.289c-.187.046-.371.1-.56.143l-.564.115-1.134.232c-.379.069-.757.127-1.138.19s-.757.133-1.139.178l-1.145.14c-.762.105-1.529.163-2.293.235s-1.535.116-2.3.171-1.534.079-2.3.11-1.537.046-2.305.055l-1.152.015-1.153-.011c-.767-.006-1.537-.022-2.3-.06s-1.537-.052-2.3-.115-1.535-.093-2.3-.171-1.53-.141-2.3-.229l-2.287-.3-2.276-.371-2.26-.47-2.238-.569.2-.212.235.824a8.415,8.415,0,0,1,.2.832c.053.28.128.555.161.838l.117.845c.039.282.05.565.077.849l.035.424.015.425c.007.283.023.567.022.851l-.014.849c0,.283-.025.566-.038.85s-.035.565-.059.847-.048.563-.084.843-.061.563-.1.842-.075.561-.124.838-.091.559-.15.837C243.423,222.8,243.3,223.355,243.157,223.9Z" transform="translate(-6.829 -12.156)" fill="#0f5b00"/>
        <g id="Grupo_831" data-name="Grupo 831" transform="translate(239.804 202.234)">
          <path id="Trazado_2201" data-name="Trazado 2201" d="M249.123,218.522l-.254-.008c-.005-.208-.008-.391-.008-.551a3.588,3.588,0,0,1,.022-.428.742.742,0,0,1,.1-.3.424.424,0,0,1,.213-.169,1.062,1.062,0,0,1,.371-.053c.1,0,.21,0,.335.007l.4.016.433.015c.147,0,.29.007.43.007h.616c.179,0,.337,0,.475,0l.366-.008c.1,0,.2-.008.286-.015s.167-.016.241-.024.15-.021.227-.035a.614.614,0,0,1,.043.2.288.288,0,0,1-.142.26.8.8,0,0,1-.423.091c-.174,0-.385-.01-.622-.033s-.509-.042-.81-.063c0,.256-.009.524-.018.813s-.016.585-.025.893-.017.622-.027.944-.02.641-.03.962-.021.64-.028.955-.02.621-.03.915l-.606.077-.048-.006c.014-.326.026-.641.038-.942s.025-.6.033-.885.021-.579.03-.867.013-.585.021-.891.008-.622.012-.951.005-.681.005-1.051l-.3-.011c-.1,0-.2,0-.307,0s-.2,0-.294,0a1.075,1.075,0,0,0-.249.037.6.6,0,0,0-.2.1.535.535,0,0,0-.152.185,1.116,1.116,0,0,0-.1.3,2.938,2.938,0,0,0-.031.453Z" transform="translate(-248.861 -216.871)" fill="#fc3007"/>
          <path id="Trazado_2202" data-name="Trazado 2202" d="M258.07,222.993a2.43,2.43,0,0,1-.948-.18,2,2,0,0,1-.744-.535,2.481,2.481,0,0,1-.485-.881,3.905,3.905,0,0,1-.173-1.228,5.254,5.254,0,0,1,.071-.863,4.047,4.047,0,0,1,.217-.8,3.281,3.281,0,0,1,.358-.686,2.42,2.42,0,0,1,.5-.538,2.218,2.218,0,0,1,.638-.351,2.334,2.334,0,0,1,.781-.126,2.466,2.466,0,0,1,.948.179,2.012,2.012,0,0,1,.742.535,2.467,2.467,0,0,1,.485.884,3.891,3.891,0,0,1,.174,1.224,4.894,4.894,0,0,1-.072.865,4.037,4.037,0,0,1-.215.794,3.2,3.2,0,0,1-.358.685,2.411,2.411,0,0,1-.5.54,2.207,2.207,0,0,1-.64.351A2.283,2.283,0,0,1,258.07,222.993Zm.116-.334a1.443,1.443,0,0,0,.541-.1,1.4,1.4,0,0,0,.436-.275,1.7,1.7,0,0,0,.332-.429,2.543,2.543,0,0,0,.234-.562,4.278,4.278,0,0,0,.135-.667,5.932,5.932,0,0,0,.045-.749,4.7,4.7,0,0,0-.138-1.214,2.659,2.659,0,0,0-.374-.853,1.57,1.57,0,0,0-.55-.5,1.433,1.433,0,0,0-1.649.206,1.737,1.737,0,0,0-.332.429,2.511,2.511,0,0,0-.231.56,4.237,4.237,0,0,0-.139.668,6.1,6.1,0,0,0-.044.749,4.671,4.671,0,0,0,.138,1.214,2.625,2.625,0,0,0,.374.854,1.561,1.561,0,0,0,.55.5A1.429,1.429,0,0,0,258.185,222.659Z" transform="translate(-251.402 -216.809)" fill="#fc3007"/>
          <path id="Trazado_2203" data-name="Trazado 2203" d="M271.042,222.73q-.186.08-.341.137c-.1.039-.2.07-.288.1a2.475,2.475,0,0,1-.251.056,1.453,1.453,0,0,1-.223.018.572.572,0,0,1-.259-.055.448.448,0,0,1-.182-.181,1.013,1.013,0,0,1-.108-.332,2.81,2.81,0,0,1-.038-.507v-.227c0-.106,0-.229,0-.37s0-.286,0-.444,0-.316.006-.478.006-.321.009-.472.006-.294.011-.425.007-.245.011-.338c.008-.2.018-.4.027-.6s.028-.395.048-.587l-.023-.007c-.028.077-.062.164-.1.263s-.094.217-.157.355c-.151.334-.3.677-.461,1.034s-.316.72-.476,1.089-.321.749-.485,1.129-.323.762-.483,1.142l-.127-.005c-.038-.117-.081-.253-.133-.411s-.107-.331-.167-.515-.129-.378-.2-.583-.143-.412-.214-.621-.143-.421-.217-.63-.144-.41-.212-.6-.132-.375-.192-.547-.116-.322-.163-.455c-.055-.157-.1-.293-.144-.414s-.074-.226-.1-.319l-.017.008c0,.052,0,.1,0,.153s0,.105,0,.163v.424q0,.409-.013.834c-.01.285-.02.563-.035.838s-.031.541-.049.8-.036.493-.059.711q-.024.27-.047.46a2.5,2.5,0,0,1-.05.317.813.813,0,0,1-.064.2.3.3,0,0,1-.1.111.327.327,0,0,1-.141.05,1.839,1.839,0,0,1-.2.009h-.133c-.023,0-.05,0-.084,0l-.033-.026a3.983,3.983,0,0,0,.212-.555,6.1,6.1,0,0,0,.164-.651c.048-.23.089-.468.123-.715s.064-.49.086-.735.043-.487.058-.724.023-.465.032-.679.011-.413.014-.594,0-.34,0-.475a1.133,1.133,0,0,0-.017-.216.276.276,0,0,0-.064-.134.249.249,0,0,0-.123-.071,1.014,1.014,0,0,0-.2-.018c-.058,0-.122,0-.2.011s-.156.019-.243.032l-.03-.226c.314-.071.572-.125.774-.161a3.12,3.12,0,0,1,.482-.053.66.66,0,0,1,.16.018.274.274,0,0,1,.115.056.383.383,0,0,1,.093.1,1.526,1.526,0,0,1,.072.164c.091.254.186.523.288.809s.2.578.308.876.212.6.317.9.208.589.305.871c.035.111.071.213.1.3s.059.177.086.254.053.153.075.224.046.141.067.212h.018c.026-.074.054-.146.084-.217s.059-.145.093-.222l.106-.244c.04-.088.082-.186.13-.3.12-.274.246-.559.373-.854s.263-.6.4-.9.274-.621.414-.938.282-.635.424-.952a.223.223,0,0,1,.063-.085.348.348,0,0,1,.086-.054.514.514,0,0,1,.1-.027.789.789,0,0,1,.1-.007.711.711,0,0,1,.162.02.831.831,0,0,1,.171.054c-.025.281-.048.551-.066.808s-.037.506-.05.75-.026.484-.037.72-.018.477-.023.718-.01.487-.013.74,0,.516,0,.789a3.853,3.853,0,0,0,.021.466,1.06,1.06,0,0,0,.081.314.387.387,0,0,0,.156.179.483.483,0,0,0,.243.057l.1,0a.992.992,0,0,0,.106-.011c.036-.008.076-.016.12-.028s.093-.026.15-.045Z" transform="translate(-254.549 -216.877)" fill="#fc3007"/>
          <path id="Trazado_2204" data-name="Trazado 2204" d="M275.737,221.522c-.06.174-.113.327-.159.456s-.085.242-.118.337-.066.179-.092.248-.048.132-.072.189a.513.513,0,0,1-.092.152.349.349,0,0,1-.11.077.4.4,0,0,1-.129.028c-.045,0-.094,0-.147,0h-.109c-.043,0-.084,0-.12,0l-.036-.025c.206-.445.4-.871.585-1.277s.363-.8.534-1.166a.293.293,0,0,1-.054-.142c0-.069.055-.1.164-.1.314-.689.594-1.3.839-1.821s.46-.965.647-1.316a.255.255,0,0,1,.067-.081.377.377,0,0,1,.089-.051.528.528,0,0,1,.1-.026.864.864,0,0,1,.106-.007.986.986,0,0,1,.148.012.648.648,0,0,1,.152.05c.108.595.206,1.129.3,1.6s.172.9.249,1.27.15.7.219.973.135.514.2.712a4.031,4.031,0,0,0,.189.49,1.3,1.3,0,0,0,.2.3.589.589,0,0,0,.214.154.658.658,0,0,0,.246.045.8.8,0,0,0,.178-.021,1.808,1.808,0,0,0,.2-.06l.072.212a3.4,3.4,0,0,1-.567.222,1.774,1.774,0,0,1-.477.077.558.558,0,0,1-.222-.044.576.576,0,0,1-.2-.149,1.355,1.355,0,0,1-.188-.287,3.758,3.758,0,0,1-.183-.452c-.062-.182-.126-.4-.191-.649s-.132-.543-.2-.875c-.317,0-.632.011-.939.022s-.628.027-.959.044c-.069.178-.128.339-.182.487S275.777,221.41,275.737,221.522Zm2.154-1.259c-.036-.17-.074-.357-.115-.563s-.084-.425-.125-.656-.087-.47-.131-.72-.088-.5-.132-.761h-.014q-.372.766-.66,1.457t-.518,1.273q.443-.011.856-.018Z" transform="translate(-258.379 -216.877)" fill="#fc3007"/>
          <path id="Trazado_2205" data-name="Trazado 2205" d="M282.509,218.522l-.253-.008c-.005-.208-.008-.391-.008-.551a3.318,3.318,0,0,1,.023-.428.7.7,0,0,1,.1-.3.42.42,0,0,1,.212-.169,1.062,1.062,0,0,1,.371-.053c.1,0,.21,0,.337.007l.4.016.432.015c.15,0,.292.007.431.007h.618c.178,0,.337,0,.474,0l.365-.008c.106,0,.2-.008.288-.015s.166-.016.24-.024.15-.021.228-.035a.614.614,0,0,1,.043.2.288.288,0,0,1-.142.26.8.8,0,0,1-.422.091c-.178,0-.385-.01-.624-.033s-.507-.042-.808-.063c-.005.256-.011.524-.018.813s-.017.585-.025.893-.02.622-.027.944-.021.641-.03.962-.021.64-.028.955-.021.621-.028.915l-.609.077-.047-.006c.014-.326.027-.641.04-.942s.022-.6.033-.885.019-.579.027-.867.018-.585.021-.891.009-.622.013-.951,0-.681,0-1.051l-.3-.011c-.1,0-.2,0-.307,0s-.2,0-.293,0a1.087,1.087,0,0,0-.251.037.587.587,0,0,0-.2.1.516.516,0,0,0-.152.185,1.039,1.039,0,0,0-.093.3,2.623,2.623,0,0,0-.033.453Z" transform="translate(-261.23 -216.871)" fill="#fc3007"/>
          <path id="Trazado_2206" data-name="Trazado 2206" d="M291.454,222.993a2.443,2.443,0,0,1-.948-.18,2.005,2.005,0,0,1-.744-.535,2.511,2.511,0,0,1-.485-.881,3.979,3.979,0,0,1-.174-1.228,5.055,5.055,0,0,1,.073-.863,4.271,4.271,0,0,1,.216-.8,3.365,3.365,0,0,1,.356-.686,2.465,2.465,0,0,1,.5-.538,2.219,2.219,0,0,1,.641-.351,2.318,2.318,0,0,1,.777-.126,2.464,2.464,0,0,1,.949.179,2.017,2.017,0,0,1,.743.535,2.53,2.53,0,0,1,.487.884,3.988,3.988,0,0,1,.172,1.224,5.018,5.018,0,0,1-.074.865,4.078,4.078,0,0,1-.214.794,3.28,3.28,0,0,1-.358.685,2.427,2.427,0,0,1-.5.54,2.23,2.23,0,0,1-.641.351A2.283,2.283,0,0,1,291.454,222.993Zm.115-.334a1.451,1.451,0,0,0,.543-.1,1.434,1.434,0,0,0,.436-.275,1.748,1.748,0,0,0,.333-.429,2.847,2.847,0,0,0,.232-.562,4.141,4.141,0,0,0,.136-.667,6.31,6.31,0,0,0,.046-.749,4.787,4.787,0,0,0-.138-1.214,2.7,2.7,0,0,0-.374-.853,1.573,1.573,0,0,0-.551-.5,1.472,1.472,0,0,0-1.212-.069,1.409,1.409,0,0,0-.435.275,1.652,1.652,0,0,0-.332.429,2.819,2.819,0,0,0-.235.56,4.556,4.556,0,0,0-.133.668,5.852,5.852,0,0,0-.046.749,4.788,4.788,0,0,0,.137,1.214,2.737,2.737,0,0,0,.374.854,1.568,1.568,0,0,0,.552.5A1.425,1.425,0,0,0,291.569,222.659Z" transform="translate(-263.77 -216.809)" fill="#fc3007"/>
        </g>
        <g id="Grupo_832" data-name="Grupo 832" transform="translate(245.903 212.584)">
          <path id="Trazado_2207" data-name="Trazado 2207" d="M258.839,237.522c-.005.038-.008.077-.01.111s0,.072,0,.105a1.35,1.35,0,0,0,.072.47.775.775,0,0,0,.212.314.839.839,0,0,0,.33.175,1.575,1.575,0,0,0,.431.054,1.48,1.48,0,0,0,.455-.067,1.056,1.056,0,0,0,.378-.2.97.97,0,0,0,.263-.331,1.042,1.042,0,0,0,.1-.457.964.964,0,0,0-.045-.3.938.938,0,0,0-.123-.252,1.2,1.2,0,0,0-.186-.213,2.124,2.124,0,0,0-.236-.181,2.854,2.854,0,0,0-.268-.165c-.093-.054-.188-.107-.285-.16s-.2-.11-.3-.169a2.91,2.91,0,0,1-.289-.186,2.1,2.1,0,0,1-.258-.214,1.3,1.3,0,0,1-.2-.255,1.233,1.233,0,0,1-.135-.311,1.365,1.365,0,0,1-.049-.375,1.674,1.674,0,0,1,.064-.48,1.644,1.644,0,0,1,.183-.407,1.554,1.554,0,0,1,.281-.331,1.783,1.783,0,0,1,.775-.4,1.912,1.912,0,0,1,.455-.053,2.119,2.119,0,0,1,.227.013c.079.009.161.023.244.041a1.9,1.9,0,0,1,.229.064,1.076,1.076,0,0,1,.194.086.539.539,0,0,1,.138.106.184.184,0,0,1,.05.123c0,.048,0,.107,0,.177s0,.15,0,.24-.006.188-.01.293-.013.217-.017.335l-.245-.011c0-.059.006-.115.006-.168a1.135,1.135,0,0,0-.072-.422.795.795,0,0,0-.514-.489,1.23,1.23,0,0,0-.4-.062,1.137,1.137,0,0,0-.415.073.986.986,0,0,0-.332.206.948.948,0,0,0-.223.313.99.99,0,0,0-.079.4,1.015,1.015,0,0,0,.174.587,1.131,1.131,0,0,0,.191.22,2.273,2.273,0,0,0,.243.187c.086.06.179.116.276.169l.293.161c.1.053.2.106.3.163a3.08,3.08,0,0,1,.289.182,1.928,1.928,0,0,1,.257.208,1.338,1.338,0,0,1,.2.249,1.231,1.231,0,0,1,.137.3,1.3,1.3,0,0,1,.05.366,1.758,1.758,0,0,1-.092.588,1.49,1.49,0,0,1-.244.448,1.533,1.533,0,0,1-.349.321,1.985,1.985,0,0,1-.412.21,2.088,2.088,0,0,1-.426.116,2.387,2.387,0,0,1-.395.035,2.835,2.835,0,0,1-.451-.033,2.285,2.285,0,0,1-.37-.086.879.879,0,0,1-.249-.121.19.19,0,0,1-.091-.142c0-.11,0-.264.009-.465s.02-.442.035-.72Z" transform="translate(-258.549 -233.249)" fill="#fc3007"/>
          <path id="Trazado_2208" data-name="Trazado 2208" d="M266.479,239.079a2.333,2.333,0,0,1-.894-.168,1.9,1.9,0,0,1-.7-.506,2.317,2.317,0,0,1-.455-.83,3.663,3.663,0,0,1-.164-1.158,4.806,4.806,0,0,1,.067-.813,3.814,3.814,0,0,1,.2-.751,3.2,3.2,0,0,1,.337-.646,2.308,2.308,0,0,1,.47-.509,2.091,2.091,0,0,1,.6-.331,2.192,2.192,0,0,1,.734-.119,2.28,2.28,0,0,1,.9.171,1.871,1.871,0,0,1,.7.5,2.381,2.381,0,0,1,.458.833,3.739,3.739,0,0,1,.162,1.156,4.7,4.7,0,0,1-.067.813,3.975,3.975,0,0,1-.2.749,3.13,3.13,0,0,1-.337.647,2.289,2.289,0,0,1-.47.507,2.012,2.012,0,0,1-.6.332A2.187,2.187,0,0,1,266.479,239.079Zm.108-.315a1.357,1.357,0,0,0,.514-.092,1.335,1.335,0,0,0,.41-.258,1.69,1.69,0,0,0,.314-.405,2.653,2.653,0,0,0,.22-.529,3.9,3.9,0,0,0,.128-.628,6.007,6.007,0,0,0,.043-.708,4.411,4.411,0,0,0-.13-1.144,2.527,2.527,0,0,0-.354-.8,1.479,1.479,0,0,0-.519-.475,1.322,1.322,0,0,0-.631-.155,1.319,1.319,0,0,0-.921.351,1.67,1.67,0,0,0-.315.405,2.527,2.527,0,0,0-.22.529,4.047,4.047,0,0,0-.126.63,5.305,5.305,0,0,0-.045.706,4.474,4.474,0,0,0,.132,1.144,2.567,2.567,0,0,0,.352.8,1.472,1.472,0,0,0,.521.475A1.309,1.309,0,0,0,266.588,238.764Z" transform="translate(-260.666 -233.249)" fill="#fc3007"/>
          <path id="Trazado_2209" data-name="Trazado 2209" d="M277.13,233.492c-.032.358-.06.7-.084,1.026s-.043.644-.06.952-.028.615-.035.918-.01.609-.01.921c0,.244,0,.453.008.631a2.223,2.223,0,0,0,.054.44.546.546,0,0,0,.137.259.361.361,0,0,0,.254.084,1.4,1.4,0,0,0,.217-.018,1.5,1.5,0,0,0,.289-.085l.062.191a2.862,2.862,0,0,1-.268.123c-.094.037-.182.071-.269.1s-.174.049-.253.064a1.282,1.282,0,0,1-.219.021.523.523,0,0,1-.3-.072.484.484,0,0,1-.178-.2.984.984,0,0,1-.088-.314,3.155,3.155,0,0,1-.022-.4c0-.159,0-.329.011-.506s.018-.362.03-.551l-.023-.006c-.052.156-.115.317-.187.48a4.043,4.043,0,0,1-.249.477,3.575,3.575,0,0,1-.31.431,2.363,2.363,0,0,1-.374.355,1.73,1.73,0,0,1-.436.24,1.411,1.411,0,0,1-.5.086,1.439,1.439,0,0,1-.49-.076,1.092,1.092,0,0,1-.358-.215,1.148,1.148,0,0,1-.248-.326,1.98,1.98,0,0,1-.152-.413,2.925,2.925,0,0,1-.077-.472c-.014-.167-.023-.337-.023-.509s.006-.382.02-.587.028-.414.048-.62.04-.406.061-.6.043-.371.062-.533.036-.3.048-.417a2.23,2.23,0,0,0,.018-.251.639.639,0,0,0-.014-.147.2.2,0,0,0-.057-.1.261.261,0,0,0-.116-.062.692.692,0,0,0-.188-.02c-.055,0-.117,0-.187.008s-.15.018-.24.03l-.027-.205c.248-.058.455-.1.625-.133a2.5,2.5,0,0,1,.419-.047.629.629,0,0,1,.2.026.26.26,0,0,1,.126.079.313.313,0,0,1,.067.135.789.789,0,0,1,.02.193,2.318,2.318,0,0,1-.02.24q-.02.174-.049.422c-.018.164-.041.347-.063.551s-.045.413-.066.631-.035.44-.048.664-.019.436-.019.641c0,.127,0,.256.01.387a2.629,2.629,0,0,0,.047.376,1.7,1.7,0,0,0,.1.334.93.93,0,0,0,.164.276.709.709,0,0,0,.25.182.858.858,0,0,0,.355.067,1.059,1.059,0,0,0,.472-.11,1.568,1.568,0,0,0,.428-.309,2.273,2.273,0,0,0,.368-.47,3.311,3.311,0,0,0,.293-.6,4.583,4.583,0,0,0,.2-.7,4.689,4.689,0,0,0,.094-.756c0-.1.008-.2.013-.29s.008-.189.013-.286.008-.2.011-.3.013-.217.017-.337.016-.249.025-.388.019-.292.029-.459a.172.172,0,0,1,.032-.092.27.27,0,0,1,.075-.068.356.356,0,0,1,.1-.039.455.455,0,0,1,.114-.014.812.812,0,0,1,.155.018A.963.963,0,0,1,277.13,233.492Z" transform="translate(-263.685 -233.313)" fill="#fc3007"/>
          <path id="Trazado_2210" data-name="Trazado 2210" d="M281.911,234.178a.86.86,0,0,0-.017-.175.252.252,0,0,0-.06-.118.239.239,0,0,0-.118-.068.67.67,0,0,0-.191-.022,3.057,3.057,0,0,0-.409.035l-.03-.215c.152-.027.319-.055.5-.084s.363-.056.555-.081.378-.044.572-.059.374-.023.551-.023a3.24,3.24,0,0,1,.655.062,1.534,1.534,0,0,1,.536.215,1.074,1.074,0,0,1,.361.406,1.348,1.348,0,0,1,.134.634,2.021,2.021,0,0,1-.149.8,1.708,1.708,0,0,1-.418.6,1.831,1.831,0,0,1-.647.375,2.55,2.55,0,0,1-.832.129.243.243,0,0,1-.143-.032.167.167,0,0,1-.04-.135v-.032a.083.083,0,0,1,0-.036,2.25,2.25,0,0,0,.61-.073,1.45,1.45,0,0,0,.431-.2,1.086,1.086,0,0,0,.278-.278,1.418,1.418,0,0,0,.16-.324,1.47,1.47,0,0,0,.072-.327,2.83,2.83,0,0,0,.016-.293,1.523,1.523,0,0,0-.1-.585.937.937,0,0,0-.266-.372.992.992,0,0,0-.394-.193,1.894,1.894,0,0,0-.478-.058c-.086,0-.17,0-.246.01s-.165.015-.256.027c0,.124-.009.29-.014.5s-.012.448-.021.718-.016.567-.026.889-.018.659-.027,1.01-.021.713-.032,1.083-.022.739-.034,1.107l-.573.074-.043-.007q.028-.693.052-1.317c.018-.415.028-.82.04-1.213s.021-.781.026-1.167S281.911,234.58,281.911,234.178Z" transform="translate(-266.898 -233.293)" fill="#fc3007"/>
        </g>
        <g id="Grupo_833" data-name="Grupo 833" transform="translate(239.804 201.816)">
          <path id="Trazado_2211" data-name="Trazado 2211" d="M249.123,217.858l-.254-.008c-.005-.208-.008-.392-.008-.551a3.6,3.6,0,0,1,.022-.429.739.739,0,0,1,.1-.294.42.42,0,0,1,.213-.17,1.079,1.079,0,0,1,.371-.053c.1,0,.21,0,.335.007l.4.016c.139,0,.284.011.433.014s.29.009.43.009l.616,0,.475,0c.138,0,.262,0,.366-.007s.2-.009.286-.016.167-.016.241-.025.15-.022.227-.036a.63.63,0,0,1,.043.2.287.287,0,0,1-.142.259.8.8,0,0,1-.423.09c-.174,0-.385-.011-.622-.031s-.509-.043-.81-.063c0,.252-.009.524-.018.811s-.016.585-.025.893-.017.621-.027.942-.02.643-.03.964-.021.64-.028.955-.02.619-.03.915l-.606.076-.048-.005c.014-.329.026-.642.038-.942s.025-.6.033-.885.021-.579.03-.867.013-.585.021-.89.008-.624.012-.953.005-.68.005-1.053l-.3-.008c-.1,0-.2,0-.307,0s-.2,0-.294.005a1.147,1.147,0,0,0-.249.036.6.6,0,0,0-.2.1.515.515,0,0,0-.152.184,1.11,1.11,0,0,0-.1.306,2.909,2.909,0,0,0-.031.451Z" transform="translate(-248.861 -216.206)" fill="#0f5b00"/>
          <path id="Trazado_2212" data-name="Trazado 2212" d="M258.07,222.329a2.419,2.419,0,0,1-.948-.181,2,2,0,0,1-.744-.533,2.515,2.515,0,0,1-.485-.883,3.882,3.882,0,0,1-.173-1.226,5.27,5.27,0,0,1,.071-.864,4.04,4.04,0,0,1,.217-.8,3.21,3.21,0,0,1,.358-.685,2.366,2.366,0,0,1,.5-.538,2.238,2.238,0,0,1,.638-.353,2.366,2.366,0,0,1,.781-.125,2.443,2.443,0,0,1,.948.181,2.009,2.009,0,0,1,.742.534,2.462,2.462,0,0,1,.485.884,3.9,3.9,0,0,1,.174,1.225,4.867,4.867,0,0,1-.072.863,4.044,4.044,0,0,1-.215.8,3.228,3.228,0,0,1-.358.685,2.436,2.436,0,0,1-.5.539,2.224,2.224,0,0,1-.64.352A2.314,2.314,0,0,1,258.07,222.329Zm.116-.334a1.456,1.456,0,0,0,.541-.1,1.388,1.388,0,0,0,.436-.276,1.72,1.72,0,0,0,.332-.429,2.543,2.543,0,0,0,.234-.562,4.256,4.256,0,0,0,.135-.667,5.927,5.927,0,0,0,.045-.75,4.7,4.7,0,0,0-.138-1.214,2.671,2.671,0,0,0-.374-.853,1.568,1.568,0,0,0-.55-.5,1.437,1.437,0,0,0-1.649.207,1.734,1.734,0,0,0-.332.429,2.54,2.54,0,0,0-.231.562,4.194,4.194,0,0,0-.139.668,6.1,6.1,0,0,0-.044.749,4.67,4.67,0,0,0,.138,1.214,2.6,2.6,0,0,0,.374.854,1.546,1.546,0,0,0,.55.5A1.416,1.416,0,0,0,258.185,222Z" transform="translate(-251.402 -216.145)" fill="#0f5b00"/>
          <path id="Trazado_2213" data-name="Trazado 2213" d="M271.042,222.066c-.124.053-.237.1-.341.138s-.2.07-.288.094-.176.043-.251.057a1.624,1.624,0,0,1-.223.016.588.588,0,0,1-.259-.053.457.457,0,0,1-.182-.181,1.019,1.019,0,0,1-.108-.332,2.816,2.816,0,0,1-.038-.51v-.224c0-.106,0-.23,0-.37s0-.286,0-.443,0-.317.006-.48.006-.32.009-.471.006-.293.011-.426.007-.244.011-.337c.008-.2.018-.4.027-.6s.028-.4.048-.587l-.023-.008c-.028.079-.062.166-.1.265s-.094.215-.157.355c-.151.332-.3.677-.461,1.032s-.316.72-.476,1.092l-.485,1.127c-.162.382-.323.761-.483,1.143l-.127-.006c-.038-.116-.081-.254-.133-.413s-.107-.329-.167-.513-.129-.378-.2-.584-.143-.411-.214-.621-.143-.419-.217-.629-.144-.409-.212-.6-.132-.376-.192-.545-.116-.324-.163-.458c-.055-.156-.1-.293-.144-.413s-.074-.226-.1-.32l-.017.008c0,.052,0,.1,0,.154s0,.106,0,.164v.425c0,.271,0,.55-.013.833s-.02.562-.035.837-.031.541-.049.8-.036.494-.059.711c-.016.18-.031.332-.047.458a2.477,2.477,0,0,1-.05.319.807.807,0,0,1-.064.2.3.3,0,0,1-.1.112.31.31,0,0,1-.141.048,1.518,1.518,0,0,1-.2.011h-.133l-.084,0-.033-.026a3.94,3.94,0,0,0,.212-.556,6.013,6.013,0,0,0,.164-.65c.048-.23.089-.467.123-.713s.064-.492.086-.737.043-.487.058-.725.023-.464.032-.677.011-.412.014-.594,0-.34,0-.475a1.092,1.092,0,0,0-.017-.215.28.28,0,0,0-.064-.135.234.234,0,0,0-.123-.07.882.882,0,0,0-.2-.02,1.939,1.939,0,0,0-.2.012c-.072.008-.156.018-.243.031l-.03-.225c.314-.072.572-.127.774-.162a3.028,3.028,0,0,1,.482-.052.73.73,0,0,1,.16.017.274.274,0,0,1,.115.056.383.383,0,0,1,.093.1,1.541,1.541,0,0,1,.072.165c.091.253.186.523.288.809s.2.578.308.876.212.6.317.9.208.589.305.871c.035.11.071.212.1.3s.059.176.086.253.053.152.075.225.046.14.067.212h.018c.026-.075.054-.147.084-.218s.059-.144.093-.222l.106-.245c.04-.087.082-.186.13-.3.12-.274.246-.558.373-.852s.263-.6.4-.9.274-.621.414-.937.282-.636.424-.954a.245.245,0,0,1,.063-.085.367.367,0,0,1,.086-.053.56.56,0,0,1,.1-.026.673.673,0,0,1,.1-.007.745.745,0,0,1,.162.019,1.019,1.019,0,0,1,.171.054c-.025.281-.048.551-.066.808s-.037.507-.05.75-.026.483-.037.721-.018.477-.023.719-.01.487-.013.739,0,.515,0,.789a3.842,3.842,0,0,0,.021.465,1.079,1.079,0,0,0,.081.315.386.386,0,0,0,.156.178.49.49,0,0,0,.243.057l.1,0a.985.985,0,0,0,.106-.012,1.01,1.01,0,0,0,.12-.027c.043-.012.093-.026.15-.046Z" transform="translate(-254.549 -216.214)" fill="#0f5b00"/>
          <path id="Trazado_2214" data-name="Trazado 2214" d="M275.737,220.859q-.09.262-.159.456c-.045.129-.085.242-.118.338s-.066.178-.092.248-.048.132-.072.19a.474.474,0,0,1-.092.15.3.3,0,0,1-.11.079.4.4,0,0,1-.129.028c-.045,0-.094,0-.147,0h-.109c-.043,0-.084,0-.12,0l-.036-.026c.206-.445.4-.872.585-1.276s.363-.794.534-1.168a.274.274,0,0,1-.054-.14c0-.069.055-.1.164-.106q.47-1.032.839-1.821t.647-1.317a.262.262,0,0,1,.067-.079.4.4,0,0,1,.089-.05.577.577,0,0,1,.1-.026.748.748,0,0,1,.106-.007.9.9,0,0,1,.148.012.78.78,0,0,1,.152.048c.108.595.206,1.13.3,1.605s.172.9.249,1.27.15.7.219.973.135.514.2.712a3.978,3.978,0,0,0,.189.489,1.254,1.254,0,0,0,.2.3.56.56,0,0,0,.214.155.658.658,0,0,0,.246.044.731.731,0,0,0,.178-.021,1.8,1.8,0,0,0,.2-.059l.072.211a3.354,3.354,0,0,1-.567.223,1.743,1.743,0,0,1-.477.076.521.521,0,0,1-.422-.193,1.293,1.293,0,0,1-.188-.287,3.6,3.6,0,0,1-.183-.452c-.062-.181-.126-.4-.191-.647s-.132-.545-.2-.876c-.317,0-.632.011-.939.023s-.628.026-.959.043c-.069.178-.128.339-.182.487S275.777,220.746,275.737,220.859Zm2.154-1.258c-.036-.171-.074-.358-.115-.565s-.084-.425-.125-.657-.087-.47-.131-.719-.088-.5-.132-.762h-.014q-.372.766-.66,1.457c-.194.461-.366.884-.518,1.272.3-.009.58-.014.856-.017S277.607,219.6,277.891,219.6Z" transform="translate(-258.379 -216.214)" fill="#0f5b00"/>
          <path id="Trazado_2215" data-name="Trazado 2215" d="M282.509,217.858l-.253-.008c-.005-.208-.008-.392-.008-.551a3.328,3.328,0,0,1,.023-.429.7.7,0,0,1,.1-.294.415.415,0,0,1,.212-.17,1.078,1.078,0,0,1,.371-.053c.1,0,.21,0,.337.007l.4.016c.14,0,.285.011.432.014s.292.009.431.009l.618,0,.474,0c.139,0,.261,0,.365-.007s.2-.009.288-.016.166-.016.24-.025.15-.022.228-.036a.63.63,0,0,1,.043.2.287.287,0,0,1-.142.259.8.8,0,0,1-.422.09q-.266,0-.624-.031t-.808-.063c-.005.252-.011.524-.018.811s-.017.585-.025.893-.02.621-.027.942-.021.643-.03.964-.021.64-.028.955-.021.619-.028.915l-.609.076-.047-.005.04-.942q.016-.451.033-.885t.027-.867c.009-.288.018-.585.021-.89s.009-.624.013-.953,0-.68,0-1.053l-.3-.008c-.1,0-.2,0-.307,0s-.2,0-.293.005a1.159,1.159,0,0,0-.251.036.589.589,0,0,0-.2.1.5.5,0,0,0-.152.184,1.035,1.035,0,0,0-.093.306,2.6,2.6,0,0,0-.033.451Z" transform="translate(-261.23 -216.206)" fill="#0f5b00"/>
          <path id="Trazado_2216" data-name="Trazado 2216" d="M291.454,222.329a2.432,2.432,0,0,1-.948-.181,2.007,2.007,0,0,1-.744-.533,2.546,2.546,0,0,1-.485-.883,3.955,3.955,0,0,1-.174-1.226,5.069,5.069,0,0,1,.073-.864,4.264,4.264,0,0,1,.216-.8,3.291,3.291,0,0,1,.356-.685,2.408,2.408,0,0,1,.5-.538,2.239,2.239,0,0,1,.641-.353,2.35,2.35,0,0,1,.777-.125,2.44,2.44,0,0,1,.949.181,2.014,2.014,0,0,1,.743.534,2.525,2.525,0,0,1,.487.884,3.992,3.992,0,0,1,.172,1.225,4.99,4.99,0,0,1-.074.863,4.085,4.085,0,0,1-.214.8,3.313,3.313,0,0,1-.358.685,2.452,2.452,0,0,1-.5.539,2.247,2.247,0,0,1-.641.352A2.314,2.314,0,0,1,291.454,222.329Zm.115-.334a1.464,1.464,0,0,0,.543-.1,1.424,1.424,0,0,0,.436-.276,1.769,1.769,0,0,0,.333-.429,2.847,2.847,0,0,0,.232-.562,4.119,4.119,0,0,0,.136-.667,6.3,6.3,0,0,0,.046-.75,4.784,4.784,0,0,0-.138-1.214,2.712,2.712,0,0,0-.374-.853,1.571,1.571,0,0,0-.551-.5,1.432,1.432,0,0,0-1.647.207,1.649,1.649,0,0,0-.332.429,2.853,2.853,0,0,0-.235.562,4.507,4.507,0,0,0-.133.668,5.853,5.853,0,0,0-.046.749,4.786,4.786,0,0,0,.137,1.214,2.71,2.71,0,0,0,.374.854,1.552,1.552,0,0,0,.552.5A1.412,1.412,0,0,0,291.569,222Z" transform="translate(-263.77 -216.145)" fill="#0f5b00"/>
        </g>
        <g id="Grupo_834" data-name="Grupo 834" transform="translate(245.903 212.166)">
          <path id="Trazado_2217" data-name="Trazado 2217" d="M258.839,236.86c-.005.037-.008.075-.01.11s0,.071,0,.105a1.355,1.355,0,0,0,.072.47.781.781,0,0,0,.212.314.859.859,0,0,0,.33.177,1.653,1.653,0,0,0,.431.053,1.56,1.56,0,0,0,.455-.066,1.093,1.093,0,0,0,.378-.2.948.948,0,0,0,.263-.33,1.044,1.044,0,0,0,.1-.456.979.979,0,0,0-.045-.3.956.956,0,0,0-.123-.252,1.239,1.239,0,0,0-.186-.212,2.064,2.064,0,0,0-.236-.183c-.085-.057-.174-.113-.268-.164s-.188-.106-.285-.159-.2-.11-.3-.168a3.3,3.3,0,0,1-.289-.187,2.11,2.11,0,0,1-.258-.215,1.266,1.266,0,0,1-.339-.565,1.359,1.359,0,0,1-.049-.375,1.6,1.6,0,0,1,.247-.885,1.553,1.553,0,0,1,.281-.331,1.785,1.785,0,0,1,.775-.4,2.051,2.051,0,0,1,.455-.052,2.119,2.119,0,0,1,.227.013c.079.01.161.022.244.04a2.018,2.018,0,0,1,.229.064,1.034,1.034,0,0,1,.194.086.513.513,0,0,1,.138.106.183.183,0,0,1,.05.123c0,.047,0,.106,0,.176s0,.15,0,.24-.006.188-.01.293-.013.218-.017.336l-.245-.012c0-.058.006-.113.006-.167a1.132,1.132,0,0,0-.072-.422.817.817,0,0,0-.2-.306.838.838,0,0,0-.314-.183,1.23,1.23,0,0,0-.4-.063,1.193,1.193,0,0,0-.415.074,1.027,1.027,0,0,0-.332.206.954.954,0,0,0-.223.315.985.985,0,0,0-.079.4,1.039,1.039,0,0,0,.046.32,1.078,1.078,0,0,0,.128.266,1.166,1.166,0,0,0,.191.22,2.276,2.276,0,0,0,.243.188c.086.059.179.116.276.169l.293.16c.1.053.2.108.3.166a3.064,3.064,0,0,1,.289.18,1.981,1.981,0,0,1,.257.208,1.279,1.279,0,0,1,.2.249,1.21,1.21,0,0,1,.137.3,1.3,1.3,0,0,1,.05.366,1.758,1.758,0,0,1-.092.588,1.494,1.494,0,0,1-.244.447,1.52,1.52,0,0,1-.349.321,1.961,1.961,0,0,1-.412.212,2.311,2.311,0,0,1-.426.115,2.373,2.373,0,0,1-.395.033,2.918,2.918,0,0,1-.451-.031,2.587,2.587,0,0,1-.37-.086.846.846,0,0,1-.249-.123.183.183,0,0,1-.091-.142c0-.107,0-.262.009-.463s.02-.443.035-.72Z" transform="translate(-258.549 -232.585)" fill="#0f5b00"/>
          <path id="Trazado_2218" data-name="Trazado 2218" d="M266.479,238.416a2.321,2.321,0,0,1-.894-.169,1.914,1.914,0,0,1-.7-.5,2.32,2.32,0,0,1-.455-.831,3.666,3.666,0,0,1-.164-1.158,4.834,4.834,0,0,1,.067-.815,3.814,3.814,0,0,1,.2-.749,3.164,3.164,0,0,1,.337-.647,2.291,2.291,0,0,1,.47-.508,2.108,2.108,0,0,1,.6-.332,2.176,2.176,0,0,1,.734-.119,2.325,2.325,0,0,1,.9.169,1.9,1.9,0,0,1,.7.5,2.367,2.367,0,0,1,.458.834,3.732,3.732,0,0,1,.162,1.156,4.667,4.667,0,0,1-.067.813,3.955,3.955,0,0,1-.2.75,3.168,3.168,0,0,1-.337.648,2.271,2.271,0,0,1-.47.507,2.07,2.07,0,0,1-.6.332A2.155,2.155,0,0,1,266.479,238.416Zm.108-.314a1.4,1.4,0,0,0,.514-.091,1.355,1.355,0,0,0,.41-.261,1.659,1.659,0,0,0,.314-.4,2.663,2.663,0,0,0,.22-.529,3.922,3.922,0,0,0,.128-.629,6.041,6.041,0,0,0,.043-.708,4.408,4.408,0,0,0-.13-1.144,2.534,2.534,0,0,0-.354-.806,1.479,1.479,0,0,0-.519-.473,1.316,1.316,0,0,0-.631-.157,1.315,1.315,0,0,0-.921.351,1.675,1.675,0,0,0-.315.4,2.609,2.609,0,0,0-.22.529,4.1,4.1,0,0,0-.126.63,5.322,5.322,0,0,0-.045.706,4.46,4.46,0,0,0,.132,1.144,2.6,2.6,0,0,0,.352.805,1.464,1.464,0,0,0,.521.474A1.331,1.331,0,0,0,266.588,238.1Z" transform="translate(-260.666 -232.585)" fill="#0f5b00"/>
          <path id="Trazado_2219" data-name="Trazado 2219" d="M277.13,232.829q-.048.538-.084,1.027c-.026.324-.043.641-.06.952s-.028.616-.035.918-.01.61-.01.922c0,.242,0,.452.008.63a2.218,2.218,0,0,0,.054.441.536.536,0,0,0,.137.26.358.358,0,0,0,.254.084,1.305,1.305,0,0,0,.506-.1l.062.192c-.087.045-.176.086-.268.124s-.182.069-.269.1-.174.049-.253.064a1.182,1.182,0,0,1-.219.023.539.539,0,0,1-.3-.071.506.506,0,0,1-.178-.205.962.962,0,0,1-.088-.312,3.137,3.137,0,0,1-.022-.4c0-.159,0-.329.011-.507s.018-.361.03-.552l-.023,0c-.052.156-.115.316-.187.481a3.914,3.914,0,0,1-.249.475,3.6,3.6,0,0,1-.31.433,2.363,2.363,0,0,1-.374.355,1.687,1.687,0,0,1-.436.239,1.411,1.411,0,0,1-.5.088,1.364,1.364,0,0,1-.49-.079,1.039,1.039,0,0,1-.358-.213,1.117,1.117,0,0,1-.248-.325,1.993,1.993,0,0,1-.152-.413,2.94,2.94,0,0,1-.077-.473c-.014-.166-.023-.337-.023-.509,0-.187.006-.382.02-.587s.028-.413.048-.62.04-.405.061-.6.043-.373.062-.534.036-.3.048-.416a2.229,2.229,0,0,0,.018-.251.639.639,0,0,0-.014-.147.214.214,0,0,0-.057-.1.243.243,0,0,0-.116-.062.682.682,0,0,0-.188-.021,1.737,1.737,0,0,0-.187.011c-.071.006-.15.016-.24.028l-.027-.205c.248-.058.455-.1.625-.132a2.373,2.373,0,0,1,.419-.047.648.648,0,0,1,.2.026.256.256,0,0,1,.126.079.3.3,0,0,1,.067.134.784.784,0,0,1,.02.192,2.305,2.305,0,0,1-.02.24q-.02.176-.049.422c-.018.164-.041.349-.063.551s-.045.413-.066.633-.035.44-.048.662-.019.437-.019.641c0,.127,0,.257.01.388a2.641,2.641,0,0,0,.047.376,1.726,1.726,0,0,0,.1.336.89.89,0,0,0,.164.274.688.688,0,0,0,.25.183.858.858,0,0,0,.355.066,1.059,1.059,0,0,0,.472-.109,1.563,1.563,0,0,0,.428-.308,2.37,2.37,0,0,0,.368-.471,3.393,3.393,0,0,0,.293-.6,4.57,4.57,0,0,0,.2-.7,4.68,4.68,0,0,0,.094-.757c0-.1.008-.2.013-.288s.008-.19.013-.288.008-.2.011-.3.013-.218.017-.338.016-.25.025-.388.019-.291.029-.458a.176.176,0,0,1,.032-.093.258.258,0,0,1,.075-.067.323.323,0,0,1,.1-.04.486.486,0,0,1,.114-.014.772.772,0,0,1,.155.019A1.019,1.019,0,0,1,277.13,232.829Z" transform="translate(-263.685 -232.649)" fill="#0f5b00"/>
          <path id="Trazado_2220" data-name="Trazado 2220" d="M281.911,233.514a.855.855,0,0,0-.017-.175.263.263,0,0,0-.06-.119.248.248,0,0,0-.118-.067.667.667,0,0,0-.191-.023,2.9,2.9,0,0,0-.409.037l-.03-.215c.152-.027.319-.057.5-.085s.363-.055.555-.081.378-.043.572-.06.374-.023.551-.023a3.283,3.283,0,0,1,.655.064,1.533,1.533,0,0,1,.536.214,1.079,1.079,0,0,1,.361.406,1.348,1.348,0,0,1,.134.635,2.028,2.028,0,0,1-.149.8,1.714,1.714,0,0,1-.418.6,1.849,1.849,0,0,1-.647.375,2.55,2.55,0,0,1-.832.129.238.238,0,0,1-.143-.032c-.027-.021-.04-.065-.04-.135v-.031a.086.086,0,0,1,0-.037,2.222,2.222,0,0,0,.61-.074,1.449,1.449,0,0,0,.431-.2,1.089,1.089,0,0,0,.278-.278,1.389,1.389,0,0,0,.16-.323,1.478,1.478,0,0,0,.072-.327,2.826,2.826,0,0,0,.016-.295,1.517,1.517,0,0,0-.1-.584.941.941,0,0,0-.266-.372.985.985,0,0,0-.394-.194,1.866,1.866,0,0,0-.478-.058c-.086,0-.17,0-.246.011s-.165.015-.256.026c0,.124-.009.29-.014.5s-.012.449-.021.718-.016.568-.026.89-.018.659-.027,1.01-.021.713-.032,1.083-.022.738-.034,1.107l-.573.073-.043,0c.019-.464.036-.9.052-1.319s.028-.818.04-1.212.021-.782.026-1.167S281.911,233.918,281.911,233.514Z" transform="translate(-266.898 -232.629)" fill="#0f5b00"/>
        </g>
        <g id="Grupo_838" data-name="Grupo 838" transform="translate(227.996 224.725)">
          <g id="Grupo_837" data-name="Grupo 837">
            <path id="Trazado_2221" data-name="Trazado 2221" d="M255.91,295.571l.654,1.69s2.559,1.631,10.51,1.631,11.874-2.115,11.874-2.115l.653-2.114Z" transform="translate(-239.665 -268.143)" fill="#afaeae"/>
            <path id="Trazado_2222" data-name="Trazado 2222" d="M285.4,259.029c-3.808,15.824-12.377,22.807-27.641,22.807s-24.593-5.735-27.64-22.807c-.546-3.051,12.374-6.493,27.64-6.493S286.107,256.1,285.4,259.029Z" transform="translate(-230.104 -252.536)" fill="#eee"/>
            <path id="Trazado_2223" data-name="Trazado 2223" d="M285.412,259.029c0,3.587-12.377,6.857-27.641,6.857s-27.64-3.27-27.64-6.857,12.374-6.493,27.64-6.493S285.412,255.443,285.412,259.029Z" transform="translate(-230.114 -252.536)" fill="#e0dbd3" opacity="0.5" style="mix-blend-mode: multiply;isolation: isolate"/>
            <g id="Grupo_835" data-name="Grupo 835" transform="translate(3.452 6.361)">
              <path id="Trazado_2224" data-name="Trazado 2224" d="M284,266c-4.709-2-13.783-3.358-24.2-3.358S240.3,264,235.588,266c4.711,2.106,13.783,3.631,24.2,3.631S279.289,268.1,284,266Z" transform="translate(-235.588 -262.64)" fill="#e0dbd3" opacity="0.5" style="mix-blend-mode: multiply;isolation: isolate"/>
              <path id="Trazado_2225" data-name="Trazado 2225" d="M283.828,265.633c-4.708-1.863-13.4-2.993-23.82-2.993s-19.129,1.163-23.838,3.026c4.709,1.961,13.417,3.479,23.838,3.479S279.12,267.6,283.828,265.633Z" transform="translate(-235.804 -262.64)" fill="#fc3007"/>
            </g>
            <path id="Trazado_2226" data-name="Trazado 2226" d="M257.771,252.536c-15.266,0-27.64,2.907-27.64,6.493s12.374,6.857,27.64,6.857,27.641-3.27,27.641-6.857S273.036,252.536,257.771,252.536Zm0,12.854c-14.686,0-27.15-3.088-27.15-6.472s12.464-6.129,27.15-6.129,27.038,2.743,27.038,6.129S272.455,265.39,257.771,265.39Z" transform="translate(-230.114 -252.536)" fill="#ccc8bc" style="mix-blend-mode: screen;isolation: isolate"/>
            <path id="Trazado_2227" data-name="Trazado 2227" d="M248.148,268.317s.179.028.509.084c.166.026.37.062.61.1l.383.062c.138.025.284.048.438.069.311.045.653.091,1.026.145l.583.082c.2.026.409.048.626.074.433.048.891.1,1.376.16l1.528.142c.533.055,1.088.084,1.663.127.289.02.582.04.877.063l.906.043c1.222.067,2.514.1,3.848.128q1,.007,2.034.011t2.084-.03c1.4-.035,2.827-.1,4.247-.192s2.843-.225,4.237-.383,2.763-.344,4.083-.565c.659-.106,1.308-.221,1.94-.342s1.248-.25,1.851-.385c1.195-.266,2.322-.565,3.347-.892a22.578,22.578,0,0,0,2.747-1.045,11.8,11.8,0,0,0,1.088-.583,7.136,7.136,0,0,0,.866-.611,3.869,3.869,0,0,0,.6-.619,2.2,2.2,0,0,0,.319-.569,1.2,1.2,0,0,0,.042-.121c.01-.039.02-.074.028-.108a1.515,1.515,0,0,0,.028-.172c.006-.1.011-.144.011-.144h.026s0,.05-.005.147c0,.048-.014.108-.023.178-.005.035-.016.072-.025.112a.889.889,0,0,1-.038.125,3.025,3.025,0,0,1-.906,1.255,7.234,7.234,0,0,1-.861.65,11.611,11.611,0,0,1-1.09.616,20.946,20.946,0,0,1-2.749,1.119c-1.025.345-2.154.66-3.354.947-.6.144-1.221.276-1.855.4s-1.284.242-1.947.352c-1.326.213-2.7.39-4.1.538s-2.822.258-4.248.339-2.851.134-4.257.16c-.7.009-1.4.015-2.086.014l-2.037-.028c-.336,0-.666-.016-1-.028l-.974-.036c-.644-.016-1.272-.061-1.885-.1l-.9-.053c-.3-.023-.589-.049-.876-.07-.577-.05-1.134-.086-1.666-.145s-1.043-.11-1.527-.159l-1.377-.176c-.213-.028-.424-.05-.626-.08l-.582-.088c-.371-.058-.715-.11-1.023-.156-.155-.023-.3-.049-.439-.074s-.266-.047-.386-.068l-.6-.107-.508-.092Z" transform="translate(-236.788 -256.357)" fill="#e0dbd3" style="mix-blend-mode: multiply;isolation: isolate"/>
            <g id="Grupo_836" data-name="Grupo 836" transform="translate(3.818 6.361)" style="mix-blend-mode: multiply;isolation: isolate">
              <path id="Trazado_2228" data-name="Trazado 2228" d="M260.008,262.64c-10.422,0-19.129,1.163-23.838,3.026,4.709,1.961,13.417,3.479,23.838,3.479s19.112-1.549,23.82-3.512C279.12,263.77,270.43,262.64,260.008,262.64Zm.368,5.5c-10.248,0-18.557-1.094-18.557-2.439s8.309-2.439,18.557-2.439,18.557,1.092,18.557,2.439S270.624,268.136,260.376,268.136Z" transform="translate(-236.17 -262.64)" fill="#eb3007"/>
            </g>
          </g>
        </g>
        <g id="Grupo_842" data-name="Grupo 842" transform="translate(243.204 212.28)">
          <path id="Trazado_2229" data-name="Trazado 2229" d="M296.522,232.766a72.281,72.281,0,0,0-12.47,6.834c-7.922,5.3-8.6,6.826-14.662,7.461-6.9.72-14.251,1.852-15.074,5.092a1.9,1.9,0,0,0,.006.927c1.022,1.613,3.464,3.536,9.269,2.878,6.461-1.27,8.684-3.847,12.213-7.456s7.336-5.114,13.481-7.177c3.25-1.138,5.735-2.082,7.238-2.672Z" transform="translate(-254.261 -232.766)" fill="#eee"/>
          <path id="Trazado_2230" data-name="Trazado 2230" d="M296.557,242.117c-1.5.589-3.989,1.534-7.238,2.672-6.145,2.062-9.952,3.569-13.481,7.177s-5.751,6.186-12.213,7.456c-5.8.658-8.247-1.265-9.269-2.878.756,3.105,8.47,6.626,14.915,2.984,3.96-2.214,4.579-4.167,7.872-8.026,2.674-2.726,5.709-3.7,13.117-6.226,3.334-1.175,5.471-2.082,6.3-2.446Z" transform="translate(-254.297 -236.23)" fill="#afaeae"/>
          <g id="Grupo_839" data-name="Grupo 839" transform="translate(35.348 2.514)">
            <path id="Trazado_2231" data-name="Trazado 2231" d="M316.634,236.959c.108.274-.392.729-1.116,1.015s-1.4.3-1.508.021.391-.728,1.117-1.015S316.526,236.684,316.634,236.959Z" transform="translate(-311.74 -236.759)" fill="#fff"/>
            <path id="Trazado_2232" data-name="Trazado 2232" d="M311.534,240.807c.053.117-.156.323-.462.458s-.6.152-.653.035.157-.32.466-.457S311.485,240.691,311.534,240.807Z" transform="translate(-310.412 -238.23)" fill="#fff"/>
          </g>
          <g id="Grupo_840" data-name="Grupo 840" transform="translate(1.831 16.105)">
            <path id="Trazado_2233" data-name="Trazado 2233" d="M262.645,259.567c-5.258,1.542-5.636,3.682-5.436,4.758,1.473.913,3.8,1.525,7.459,1.111a17.464,17.464,0,0,0,9.811-5.03C274.83,257.971,268.977,257.708,262.645,259.567Z" transform="translate(-257.169 -258.349)" fill="#fc3007"/>
          </g>
          <g id="Grupo_841" data-name="Grupo 841" transform="translate(1.832 16.548)" style="mix-blend-mode: multiply;isolation: isolate">
            <path id="Trazado_2234" data-name="Trazado 2234" d="M273.249,259.052c.181,1.214-1.251,2.41-2.252,2.775a34.022,34.022,0,0,1-4.22.827c-1.407.321-2.671,1.013-4.065,1.352a8.053,8.053,0,0,1-3.816.218,2.089,2.089,0,0,1-1.477-1.134,2.425,2.425,0,0,0-.21,1.5c1.473.913,3.8,1.525,7.459,1.111a17.464,17.464,0,0,0,9.811-5.03C274.584,259.93,274.121,259.391,273.249,259.052Z" transform="translate(-257.171 -259.052)" fill="#eb3007"/>
          </g>
        </g>
        <g id="Grupo_843" data-name="Grupo 843" transform="translate(247.656 229.835)">
          <path id="Trazado_2235" data-name="Trazado 2235" d="M266.38,260.938c.08.307-.5.725-1.306.939s-1.52.138-1.6-.167.5-.724,1.305-.937S266.3,260.635,266.38,260.938Z" transform="translate(-262.124 -260.652)" fill="#fff"/>
          <path id="Trazado_2236" data-name="Trazado 2236" d="M262.363,262.621c.044.108-.145.292-.428.412s-.548.132-.595.024.146-.294.43-.413S262.318,262.513,262.363,262.621Z" transform="translate(-261.333 -261.354)" fill="#fff"/>
        </g>
        <path id="Trazado_2237" data-name="Trazado 2237" d="M237.9,188.919v70.29c1.992.41,4.291.777,6.832,1.076V188.919Z" transform="translate(-4.995 -4.242)" fill="#fff" opacity="0.5" style="mix-blend-mode: screen;isolation: isolate"/>
        <path id="Trazado_2238" data-name="Trazado 2238" d="M303.67,255.5V188.919H273.322v72.228c16.463,0,29.86-2.765,30.339-5.423h.009v-.069c0-.025.006-.05.006-.079S303.67,255.526,303.67,255.5Z" transform="translate(-18.119 -4.242)" fill="#8c959d" opacity="0.5" style="mix-blend-mode: multiply;isolation: isolate"/>
        <g id="Grupo_847" data-name="Grupo 847" transform="translate(224.414 177.468)">
          <g id="Grupo_844" data-name="Grupo 844">
            <path id="Trazado_2239" data-name="Trazado 2239" d="M285.992,186.035l0-1.551h-.833c-3.21-2.728-15.4-4.759-29.952-4.759-14.569,0-26.772,2.037-29.966,4.771h-.823v1.491h.014c.187,3.386,13.893,6.12,30.774,6.12,16.774,0,30.413-2.7,30.771-6.056Z" transform="translate(-224.414 -178.304)" fill="#fff"/>
            <path id="Trazado_2240" data-name="Trazado 2240" d="M285.992,186.035l0-1.551h-.833c-3.21-2.728-15.4-4.759-29.952-4.759-14.569,0-26.772,2.037-29.966,4.771h-.823v1.491h.014c.187,3.386,13.893,6.12,30.774,6.12,16.774,0,30.413-2.7,30.771-6.056Z" transform="translate(-224.414 -178.304)" fill="#7e8286"/>
            <path id="Trazado_2241" data-name="Trazado 2241" d="M303.554,184.484h-.833c-3.21-2.728-15.4-4.759-29.952-4.759-.316,0-.628,0-.941,0V192.1q.468,0,.941,0c16.774,0,30.413-2.7,30.771-6.056l.018-.016Z" transform="translate(-241.98 -178.304)" fill="#8c959d" opacity="0.5" style="mix-blend-mode: multiply;isolation: isolate"/>
            <path id="Trazado_2242" data-name="Trazado 2242" d="M285.991,183.66c0,3.418-13.781,6.19-30.782,6.19s-30.778-2.772-30.778-6.19,13.78-6.192,30.778-6.192,30.782,2.771,30.782,6.192Z" transform="translate(-224.42 -177.468)" fill="#b2b6ba"/>
            <path id="Trazado_2243" data-name="Trazado 2243" d="M285.473,183.762c0,3.081-13.22,5.578-29.527,5.578s-29.527-2.5-29.527-5.578,13.219-5.578,29.527-5.578,29.527,2.5,29.527,5.578Z" transform="translate(-225.156 -177.733)" fill="#73767a"/>
            <path id="Trazado_2244" data-name="Trazado 2244" d="M285.184,184.311c0,2.941-12.905,5.325-28.824,5.325s-28.823-2.385-28.823-5.325,12.9-5.329,28.823-5.329,28.824,2.386,28.824,5.329Z" transform="translate(-225.571 -178.029)" fill="#d2d5d4"/>
            <path id="Trazado_2245" data-name="Trazado 2245" d="M284.965,184.937c0,2.474-11.775,4.482-26.3,4.482s-26.3-2.008-26.3-4.482,11.774-4.484,26.3-4.484,26.3,2.006,26.3,4.484Z" transform="translate(-227.361 -178.574)" fill="#94989c"/>
            <path id="Trazado_2246" data-name="Trazado 2246" d="M284.506,185.259c0,2.332-11.274,4.223-25.186,4.223s-25.187-1.891-25.187-4.223,11.276-4.223,25.187-4.223,25.186,1.89,25.186,4.223Z" transform="translate(-228.015 -178.79)" fill="#d2d5d4"/>
            <path id="Trazado_2247" data-name="Trazado 2247" d="M284.24,185.9c0,1.733-8.895,3.138-19.865,3.138s-19.863-1.4-19.863-3.138,8.893-3.138,19.863-3.138,19.865,1.4,19.865,3.138Z" transform="translate(-231.86 -179.429)" fill="#94989c"/>
            <path id="Trazado_2248" data-name="Trazado 2248" d="M283.895,186.256c0,1.6-8.518,2.9-19.026,2.9s-19.024-1.3-19.024-2.9,8.518-2.9,19.024-2.9,19.026,1.3,19.026,2.9Z" transform="translate(-232.353 -179.651)" fill="#d2d5d4"/>
          </g>
          <path id="Trazado_2249" data-name="Trazado 2249" d="M236.255,186.193c.031.442-.644.85-1.51.913s-1.593-.244-1.625-.684.643-.848,1.508-.912,1.593.242,1.627.682Z" transform="translate(-227.639 -180.444)" fill="#fff"/>
          <g id="Grupo_846" data-name="Grupo 846" transform="translate(3.946 1.97)">
            <path id="Trazado_2250" data-name="Trazado 2250" d="M250.76,184.026a3.727,3.727,0,0,0-3.056-2.1c-2.681-.449-5.493.08-8.147.486-2.562.391-5.333.5-7.767,1.443-1.2.468-1.507,1.909-.507,2.482,1.471.845,9.25,1.8,11.321,1.939,1.139.077,2.278.1,3.42.069a9.731,9.731,0,0,0,2.837-.449,3.018,3.018,0,0,0,1.845-1.353,3.708,3.708,0,0,0,.055-2.521Zm-1.568,1.809a1.785,1.785,0,0,1-.815,1.018,2.606,2.606,0,0,1-1.184.266,8.827,8.827,0,0,1-1.432-.09c-.4-.054-.81-.146-1.2-.224-1.1-.213-5.188-1.066-3.238-2.941a4.4,4.4,0,0,1,2.58-.9,9.249,9.249,0,0,1,3.878-.039,1.909,1.909,0,0,1,1.345,1.344,3.336,3.336,0,0,1,.07,1.564Z" transform="translate(-230.682 -181.027)" fill="#73767a"/>
            <path id="Trazado_2251" data-name="Trazado 2251" d="M250.76,182.865a3.733,3.733,0,0,0-3.056-2.1c-2.681-.449-5.493.082-8.147.486-2.562.392-5.333.5-7.767,1.445-1.2.467-1.507,1.909-.507,2.482,1.471.844,9.25,1.8,11.321,1.938,1.139.076,2.278.1,3.42.07a9.816,9.816,0,0,0,2.837-.449,3.016,3.016,0,0,0,1.845-1.353,3.712,3.712,0,0,0,.055-2.522Zm-1.568,1.811a1.787,1.787,0,0,1-.815,1.017,2.633,2.633,0,0,1-1.184.267,9.359,9.359,0,0,1-1.432-.091c-.4-.056-.81-.148-1.2-.225-1.1-.213-5.188-1.065-3.238-2.939a4.4,4.4,0,0,1,2.58-.9,9.239,9.239,0,0,1,3.878-.039,1.908,1.908,0,0,1,1.345,1.342,3.348,3.348,0,0,1,.07,1.566Z" transform="translate(-230.682 -180.597)" fill="#b0b3b3"/>
            <g id="Grupo_845" data-name="Grupo 845" transform="translate(1.629 2.32)">
              <path id="Trazado_2252" data-name="Trazado 2252" d="M236.606,185.455c.018.47-.719.874-1.642.9s-1.68-.326-1.695-.8.72-.874,1.641-.9,1.682.325,1.7.794Z" transform="translate(-233.269 -184.422)" fill="#73767a"/>
              <path id="Trazado_2253" data-name="Trazado 2253" d="M236.6,185.018c.036.467-.685.9-1.6.969s-1.694-.257-1.727-.727.685-.9,1.6-.969,1.695.259,1.727.727Z" transform="translate(-233.27 -184.282)" fill="#d2d5d4"/>
            </g>
          </g>
        </g>
      </g>
    </g>
  </g>
</svg>
