<svg xmlns="http://www.w3.org/2000/svg" width="123" height="118" viewBox="0 0 123 118">
  <g id="Grupo_1100" data-name="Grupo 1100" transform="translate(-32 -160)">
    <g id="Grupo_1034" data-name="Grupo 1034">
      <g id="Elipse_45" data-name="Elipse 45" transform="translate(32 160)" fill="#fff" stroke="#707070" stroke-width="1">
        <ellipse cx="61.5" cy="59" rx="61.5" ry="59" stroke="none"/>
        <ellipse cx="61.5" cy="59" rx="61" ry="58.5" fill="none"/>
      </g>
      <g id="Grupo_375" data-name="Grupo 375" transform="translate(306.115 -582.42)">
        <g id="Grupo_359" data-name="Grupo 359" transform="translate(-223.305 767.42)">
          <g id="Grupo_344" data-name="Grupo 344" transform="translate(0 3.39)">
            <path id="Trazado_866" data-name="Trazado 866" d="M-161.1,775.04c-12.519-3.778-20.322,1.547-20.523,5.3s-.4,8.621-2.8,12.943-14.69,21.405-7.25,28.105,38.291,11.173,42.587,8.608,8.182-19.381,7.936-23.91S-126.565,785.46-161.1,775.04Z" transform="translate(194.036 -773.746)" fill="#ffcf79"/>
          </g>
          <g id="Grupo_345" data-name="Grupo 345" transform="translate(9.065 6.53)">
            <path id="Trazado_867" data-name="Trazado 867" d="M-167.819,780.489c-3.767.876-3.931,8.53-1.491,10.284,2.553,1.836-10.61,19.836-7.265,25.343s27.577,11.673,30.436,9.226,5.641-19.257,6.069-21.8,6.375-6.222,5.58-10.2S-148.838,776.077-167.819,780.489Z" transform="translate(177.124 -779.603)" fill="#ffe8b5"/>
          </g>
          <g id="Grupo_357" data-name="Grupo 357" transform="translate(15.884 13.15)">
            <g id="Grupo_346" data-name="Grupo 346" transform="translate(10.011 4.753)">
              <path id="Trazado_868" data-name="Trazado 868" d="M-142.977,800.824a3.2,3.2,0,0,0-1.521.6c-.512.307-1.022.575-1.216,1.153a.3.3,0,0,0,.235.346,2.093,2.093,0,0,0,1.353-.414,3.418,3.418,0,0,0,1.469-1.211A.332.332,0,0,0-142.977,800.824Z" transform="translate(145.725 -800.823)" fill="#ffd296"/>
            </g>
            <g id="Grupo_347" data-name="Grupo 347" transform="translate(22.145 6.987)">
              <path id="Trazado_869" data-name="Trazado 869" d="M-120.739,805.014a3.35,3.35,0,0,0-2.116.594c-.513.28-.08,1,.424.867a3.212,3.212,0,0,0,1.857-.974A.3.3,0,0,0-120.739,805.014Z" transform="translate(123.085 -804.99)" fill="#ffd296"/>
            </g>
            <g id="Grupo_348" data-name="Grupo 348" transform="translate(9.302 16.228)">
              <path id="Trazado_870" data-name="Trazado 870" d="M-144.415,822.256a3.557,3.557,0,0,0-2.55.942c-.2.187.012.466.232.472a3.555,3.555,0,0,0,2.47-.965A.275.275,0,0,0-144.415,822.256Z" transform="translate(147.047 -822.232)" fill="#ffd296"/>
            </g>
            <g id="Grupo_349" data-name="Grupo 349" transform="translate(20.339 19.84)">
              <path id="Trazado_871" data-name="Trazado 871" d="M-124.5,828.97a2.533,2.533,0,0,0-1.732.635c-.185.155-.352.561-.087.726.748.466,1.6-.476,1.984-1.024A.205.205,0,0,0-124.5,828.97Z" transform="translate(126.456 -828.969)" fill="#ffd296"/>
            </g>
            <g id="Grupo_350" data-name="Grupo 350" transform="translate(8.383 26.303)">
              <path id="Trazado_872" data-name="Trazado 872" d="M-147.011,841.039a2.2,2.2,0,0,0-1.71,1.173.45.45,0,0,0,.645.569,11.2,11.2,0,0,1,1.284-.656C-146.21,841.925-146.373,840.913-147.011,841.039Z" transform="translate(148.762 -841.028)" fill="#ffd296"/>
            </g>
            <g id="Grupo_351" data-name="Grupo 351" transform="translate(0 23.686)">
              <path id="Trazado_873" data-name="Trazado 873" d="M-161.343,836.515c-.6-.717-1.984-.212-2.726.048a.5.5,0,0,0,.2.974c.729,0,2.228.036,2.543-.792A.233.233,0,0,0-161.343,836.515Z" transform="translate(164.402 -836.146)" fill="#ffd296"/>
            </g>
            <g id="Grupo_352" data-name="Grupo 352" transform="translate(18.639 32.509)">
              <path id="Trazado_874" data-name="Trazado 874" d="M-126.417,852.649a4.478,4.478,0,0,0-3.02.95c-.422.26-.067.813.354.722a4.407,4.407,0,0,0,2.77-1.367A.188.188,0,0,0-126.417,852.649Z" transform="translate(129.626 -852.606)" fill="#ffd296"/>
            </g>
            <g id="Grupo_353" data-name="Grupo 353" transform="translate(27.563 11.604)">
              <path id="Trazado_875" data-name="Trazado 875" d="M-110.569,813.889a.2.2,0,0,0-.19-.284c-.826.055-2.084.609-2.214,1.518a.381.381,0,0,0,.3.44C-111.753,815.7-110.862,814.684-110.569,813.889Z" transform="translate(112.976 -813.605)" fill="#ffd296"/>
            </g>
            <g id="Grupo_354" data-name="Grupo 354" transform="translate(18.18)">
              <path id="Trazado_876" data-name="Trazado 876" d="M-127.7,792.239c-.055-.195-.123-.208-.311-.271a.412.412,0,0,0-.384.13,11.489,11.489,0,0,1-1.952,1.3c-.3.175-.043.567.248.505a5.233,5.233,0,0,0,2.237-1.189A.429.429,0,0,0-127.7,792.239Z" transform="translate(130.483 -791.954)" fill="#ffd296"/>
            </g>
            <g id="Grupo_355" data-name="Grupo 355" transform="translate(5.089 0.732)">
              <path id="Trazado_877" data-name="Trazado 877" d="M-153.088,793.683a.275.275,0,0,0-.144-.289,1.376,1.376,0,0,0-1.673.994.2.2,0,0,0,.106.214C-154.212,794.836-153.135,794.358-153.088,793.683Z" transform="translate(154.907 -793.319)" fill="#ffd296"/>
            </g>
            <g id="Grupo_356" data-name="Grupo 356" transform="translate(1.9 13.266)">
              <path id="Trazado_878" data-name="Trazado 878" d="M-157.905,816.718a5.013,5.013,0,0,0-2.745.881c-.462.252-.069.883.379.773a4.907,4.907,0,0,0,2.534-1.158A.3.3,0,0,0-157.905,816.718Z" transform="translate(160.857 -816.705)" fill="#ffd296"/>
            </g>
          </g>
          <g id="Grupo_358" data-name="Grupo 358" transform="translate(2.025)">
            <path id="Trazado_879" data-name="Trazado 879" d="M-153.894,825.955h0c-9.993,0-34.642-4.95-36.18-12.751-1.458-7.388,6.3-22.08,7.975-25.13-2.053-3.859-4.067-8.652-2.691-12.609.82-2.361,2.753-4.207,5.748-5.487a32.238,32.238,0,0,1,12.751-2.558c14.772,0,28.825,9.344,32.01,15.778,3.506,7.081-4.2,14.3-6,15.851-.647,4.908-3.535,24.131-9.287,26.366A12.667,12.667,0,0,1-153.894,825.955Zm-12.4-56.312a30.047,30.047,0,0,0-11.876,2.379c-2.43,1.038-3.909,2.4-4.524,4.172-1.154,3.321.909,7.815,2.836,11.357a1.111,1.111,0,0,1-.01,1.078c-.094.168-9.464,16.855-8.029,24.143,1.072,5.434,22.588,10.959,34,10.959h0a10.457,10.457,0,0,0,3.518-.39c3.647-1.417,6.807-16.09,7.942-25.007a1.111,1.111,0,0,1,.407-.726c.088-.071,8.832-7.205,5.753-13.423C-138.718,779.249-151.529,769.643-166.292,769.643Z" transform="translate(190.257 -767.42)" fill="#80491f"/>
          </g>
        </g>
        <g id="Grupo_360" data-name="Grupo 360" transform="translate(-252.634 774.944)">
          <path id="Trazado_880" data-name="Trazado 880" d="M-230.781,781.748c-13.032,1.073-19.016,12.134-17.826,15.7s3.134,6.157,2.809,9.823c-.438,4.928-5.825,25.3,3.553,28.807s39.722-3.636,42.779-7.6.511-21.031-1.377-25.155S-194.834,778.79-230.781,781.748Z" transform="translate(248.756 -781.457)" fill="#ffcf79"/>
        </g>
        <g id="Grupo_361" data-name="Grupo 361" transform="translate(-248.663 778.431)">
          <path id="Trazado_881" data-name="Trazado 881" d="M-239.9,793.811c-3.184,2.195-.532,9.377,2.381,10.115,3.048.772-2.6,22.344,2.526,26.242s29.936.756,31.7-2.568-1.807-19.984-2.341-22.508,3.652-8.125,1.456-11.531S-223.856,782.75-239.9,793.811Z" transform="translate(241.347 -787.963)" fill="#ffe8b5"/>
        </g>
        <g id="Grupo_373" data-name="Grupo 373" transform="translate(-242.053 782.965)">
          <g id="Grupo_362" data-name="Grupo 362" transform="translate(6.332 7.28)">
            <path id="Trazado_882" data-name="Trazado 882" d="M-215.295,810.033a3.2,3.2,0,0,0-1.2,1.116,2.328,2.328,0,0,0-.709,1.519.3.3,0,0,0,.345.236c.516-.1.77-.5,1.107-.881a3.422,3.422,0,0,0,.922-1.665A.333.333,0,0,0-215.295,810.033Z" transform="translate(217.2 -810.005)" fill="#ffd296"/>
          </g>
          <g id="Grupo_363" data-name="Grupo 363" transform="translate(18.121 5.101)">
            <path id="Trazado_883" data-name="Trazado 883" d="M-193.345,805.947a3.354,3.354,0,0,0-1.752,1.328c-.375.449.292.957.713.651a3.214,3.214,0,0,0,1.371-1.587A.3.3,0,0,0-193.345,805.947Z" transform="translate(195.207 -805.939)" fill="#ffd296"/>
          </g>
          <g id="Grupo_364" data-name="Grupo 364" transform="translate(9.629 18.304)">
            <path id="Trazado_884" data-name="Trazado 884" d="M-208.995,830.577a3.556,3.556,0,0,0-2.028,1.81c-.121.249.183.43.389.354a3.554,3.554,0,0,0,1.945-1.8A.275.275,0,0,0-208.995,830.577Z" transform="translate(211.05 -830.572)" fill="#ffd296"/>
          </g>
          <g id="Grupo_365" data-name="Grupo 365" transform="translate(21.188 17.83)">
            <path id="Trazado_885" data-name="Trazado 885" d="M-188.033,829.709a2.532,2.532,0,0,0-1.379,1.226c-.115.212-.122.651.185.707.867.159,1.317-1.031,1.471-1.68A.205.205,0,0,0-188.033,829.709Z" transform="translate(189.484 -829.688)" fill="#ffd296"/>
          </g>
          <g id="Grupo_366" data-name="Grupo 366" transform="translate(12.534 28.249)">
            <path id="Trazado_886" data-name="Trazado 886" d="M-204.468,849.208a2.194,2.194,0,0,0-1.161,1.718.449.449,0,0,0,.809.293,11.194,11.194,0,0,1,.955-1.081C-203.4,849.739-203.92,848.858-204.468,849.208Z" transform="translate(205.629 -849.128)" fill="#ffd296"/>
          </g>
          <g id="Grupo_367" data-name="Grupo 367" transform="translate(3.587 28.707)">
            <path id="Trazado_887" data-name="Trazado 887" d="M-219.624,850.1c-.821-.447-1.924.53-2.519,1.043a.5.5,0,0,0,.54.835c.68-.263,2.086-.783,2.076-1.669A.234.234,0,0,0-219.624,850.1Z" transform="translate(222.323 -849.981)" fill="#ffd296"/>
          </g>
          <g id="Grupo_368" data-name="Grupo 368" transform="translate(24.334 29.838)">
            <path id="Trazado_888" data-name="Trazado 888" d="M-181.066,852.094a4.48,4.48,0,0,0-2.462,1.991c-.3.4.235.78.594.542a4.407,4.407,0,0,0,2.076-2.287A.188.188,0,0,0-181.066,852.094Z" transform="translate(183.615 -852.091)" fill="#ffd296"/>
          </g>
          <g id="Grupo_369" data-name="Grupo 369" transform="translate(25.054 7.425)">
            <path id="Trazado_889" data-name="Trazado 889" d="M-180.457,810.49a.2.2,0,0,0-.281-.194c-.748.354-1.716,1.331-1.5,2.224a.38.38,0,0,0,.44.3C-180.9,812.606-180.439,811.337-180.457,810.49Z" transform="translate(182.271 -810.276)" fill="#ffd296"/>
          </g>
          <g id="Grupo_370" data-name="Grupo 370" transform="translate(12.131)">
            <path id="Trazado_890" data-name="Trazado 890" d="M-204.279,796.566c-.123-.161-.19-.148-.389-.138a.411.411,0,0,0-.309.262,11.52,11.52,0,0,1-1.34,1.924c-.218.274.168.543.415.379a5.229,5.229,0,0,0,1.645-1.926A.43.43,0,0,0-204.279,796.566Z" transform="translate(206.382 -796.422)" fill="#ffd296"/>
          </g>
          <g id="Grupo_371" data-name="Grupo 371" transform="translate(0 5.83)">
            <path id="Trazado_891" data-name="Trazado 891" d="M-227.56,807.517a.276.276,0,0,0-.24-.216c-.675-.056-1.346.909-1.192,1.538a.2.2,0,0,0,.177.16C-228.184,809-227.357,808.162-227.56,807.517Z" transform="translate(229.015 -807.299)" fill="#ffd296"/>
          </g>
          <g id="Grupo_372" data-name="Grupo 372" transform="translate(1.675 18.129)">
            <path id="Trazado_892" data-name="Trazado 892" d="M-223.56,830.255a5.014,5.014,0,0,0-2.231,1.825c-.338.4.26.847.636.581a4.913,4.913,0,0,0,1.933-2.007A.3.3,0,0,0-223.56,830.255Z" transform="translate(225.89 -830.246)" fill="#ffd296"/>
          </g>
        </g>
        <g id="Grupo_374" data-name="Grupo 374" transform="translate(-257.115 773.045)">
          <path id="Trazado_893" data-name="Trazado 893" d="M-236.7,835.373h0c-6.165,0-10.034-1.158-11.5-3.44-4.062-6.339-2.225-22.853-1.786-26.3-3.324-2.839-6.954-6.559-7.125-10.748-.1-2.5,1.022-4.922,3.339-7.211,8.166-8.063,18.6-9.756,25.91-9.756,9.411,0,17.477,2.844,20.581,5.656,5.857,5.3,1.33,14.844.225,16.948,1.2,4.8,5.552,23.747,1.019,27.934C-209.534,831.687-225.869,835.373-236.7,835.373Zm8.839-55.235c-6.9,0-16.719,1.581-24.347,9.115-1.881,1.856-2.757,3.667-2.68,5.539.142,3.513,3.709,6.938,6.8,9.528a1.119,1.119,0,0,1,.388,1.008c-.028.191-2.632,19.151,1.376,25.407.983,1.534,4.491,2.413,9.623,2.415,11.5,0,26.581-3.948,29.158-6.329,2.872-2.655.437-17.466-1.772-26.178a1.116,1.116,0,0,1,.111-.825c.056-.1,5.576-9.94.433-14.6C-211.491,782.756-219.105,780.139-227.86,780.139Z" transform="translate(257.115 -777.915)" fill="#80491f"/>
        </g>
      </g>
    </g>
  </g>
</svg>
