<svg xmlns="http://www.w3.org/2000/svg" width="130" height="132.297" viewBox="0 0 130 132.297">
  <g id="Grupo_1021" data-name="Grupo 1021" transform="translate(-340.519 -190.308)">
    <g id="Grupo_1011" data-name="Grupo 1011" transform="translate(341.019 190.808)">
      <path id="Trazado_2603" data-name="Trazado 2603" d="M470.019,255.3a64.5,64.5,0,1,1-64.5-64.5A64.5,64.5,0,0,1,470.019,255.3Z" transform="translate(-341.019 -190.807)" fill="#5285bc" stroke="#3a3d83" stroke-linecap="round" stroke-linejoin="round" stroke-width="1"/>
      <g id="Grupo_1010" data-name="Grupo 1010" transform="translate(0.001)">
        <line id="Línea_37" data-name="Línea 37" x2="128.998" transform="translate(0 64.497)" fill="none" stroke="#3a3d83" stroke-linecap="round" stroke-linejoin="round" stroke-width="1"/>
        <line id="Línea_38" data-name="Línea 38" y1="128.998" transform="translate(64.499)" fill="none" stroke="#3a3d83" stroke-linecap="round" stroke-linejoin="round" stroke-width="1"/>
        <g id="Grupo_1008" data-name="Grupo 1008" transform="translate(26.562 3.194)">
          <path id="Trazado_2604" data-name="Trazado 2604" d="M370.912,192.256c-11.284,18.723-33.771,67.992-.018,122.607" transform="translate(-353.065 -192.256)" fill="none" stroke="#3a3d83" stroke-linecap="round" stroke-linejoin="round" stroke-width="1"/>
          <path id="Trazado_2605" data-name="Trazado 2605" d="M379.379,192.256c11.284,18.727,33.771,67.992.018,122.6" transform="translate(-321.349 -192.256)" fill="none" stroke="#3a3d83" stroke-linecap="round" stroke-linejoin="round" stroke-width="1"/>
        </g>
        <g id="Grupo_1009" data-name="Grupo 1009" transform="translate(17.727 20.093)">
          <path id="Trazado_2606" data-name="Trazado 2606" d="M349.058,199.919c21.294,9.326,55.576,17.536,93.712.174" transform="translate(-349.058 -199.919)" fill="none" stroke="#3a3d83" stroke-linecap="round" stroke-linejoin="round" stroke-width="1"/>
          <path id="Trazado_2607" data-name="Trazado 2607" d="M349.079,245.849c21.287-9.311,55.535-17.5,93.617-.172" transform="translate(-349.033 -156.987)" fill="none" stroke="#3a3d83" stroke-linecap="round" stroke-linejoin="round" stroke-width="1"/>
        </g>
      </g>
    </g>
    <g id="Grupo_1020" data-name="Grupo 1020" transform="translate(391.246 256.351)">
      <path id="Trazado_2608" data-name="Trazado 2608" d="M429.551,253.407a32.878,32.878,0,1,1-32.876-32.878A32.876,32.876,0,0,1,429.551,253.407Z" transform="translate(-363.795 -220.529)" fill="#ffff4d" stroke="#3a3d83" stroke-linecap="round" stroke-linejoin="round" stroke-width="1"/>
      <circle id="Elipse_85" data-name="Elipse 85" cx="25.726" cy="25.726" r="25.726" transform="translate(7.154 7.15)" fill="#fe9431" stroke="#3a3d83" stroke-linecap="round" stroke-linejoin="round" stroke-width="1"/>
      <circle id="Elipse_86" data-name="Elipse 86" cx="22.763" cy="22.763" r="22.763" transform="translate(0.688 32.877) rotate(-45)" fill="#ffff4d" stroke="#3a3d83" stroke-linecap="round" stroke-linejoin="round" stroke-width="1"/>
      <path id="Trazado_2609" data-name="Trazado 2609" d="M386.042,244.738v-9.723a5,5,0,0,1,2.781,4.472,2.205,2.205,0,0,0,4.411,0,9.407,9.407,0,0,0-7.191-9.13v-2.042a2.2,2.2,0,0,0-4.408,0v2.042a9.389,9.389,0,0,0,0,18.255v9.721a4.987,4.987,0,0,1-2.783-4.47,2.2,2.2,0,1,0-4.406,0,9.407,9.407,0,0,0,7.189,9.13v2.042a2.2,2.2,0,0,0,4.408,0v-2.042a9.388,9.388,0,0,0,0-18.255Zm-7.191-5.251a5,5,0,0,1,2.783-4.472v8.942A5,5,0,0,1,378.851,239.488Zm7.191,18.846v-8.94a4.983,4.983,0,0,1,0,8.94Z" transform="translate(-350.959 -213.799)" fill="#fe9431" stroke="#3a3d83" stroke-linecap="round" stroke-linejoin="round" stroke-width="1"/>
      <g id="Grupo_1012" data-name="Grupo 1012" transform="translate(32.88 1.439)">
        <line id="Línea_39" data-name="Línea 39" y2="3.698" fill="none" stroke="#3a3d83" stroke-linecap="round" stroke-linejoin="round" stroke-width="1"/>
        <line id="Línea_40" data-name="Línea 40" y2="3.698" transform="translate(0 59.178)" fill="none" stroke="#3a3d83" stroke-linecap="round" stroke-linejoin="round" stroke-width="1"/>
      </g>
      <g id="Grupo_1013" data-name="Grupo 1013" transform="translate(1.438 32.877)">
        <line id="Línea_41" data-name="Línea 41" x2="3.702" fill="none" stroke="#3a3d83" stroke-linecap="round" stroke-linejoin="round" stroke-width="1"/>
        <line id="Línea_42" data-name="Línea 42" x2="3.7" transform="translate(59.18)" fill="none" stroke="#3a3d83" stroke-linecap="round" stroke-linejoin="round" stroke-width="1"/>
      </g>
      <g id="Grupo_1014" data-name="Grupo 1014" transform="translate(10.649 10.648)">
        <line id="Línea_43" data-name="Línea 43" x1="2.614" y2="2.617" transform="translate(41.846)" fill="none" stroke="#3a3d83" stroke-linecap="round" stroke-linejoin="round" stroke-width="1"/>
        <line id="Línea_44" data-name="Línea 44" x1="2.614" y2="2.615" transform="translate(0 41.844)" fill="none" stroke="#3a3d83" stroke-linecap="round" stroke-linejoin="round" stroke-width="1"/>
      </g>
      <g id="Grupo_1015" data-name="Grupo 1015" transform="translate(10.649 10.648)">
        <line id="Línea_45" data-name="Línea 45" x2="2.614" y2="2.617" fill="none" stroke="#3a3d83" stroke-linecap="round" stroke-linejoin="round" stroke-width="1"/>
        <line id="Línea_46" data-name="Línea 46" x2="2.614" y2="2.615" transform="translate(41.846 41.844)" fill="none" stroke="#3a3d83" stroke-linecap="round" stroke-linejoin="round" stroke-width="1"/>
      </g>
      <g id="Grupo_1016" data-name="Grupo 1016" transform="translate(22.125 3.332)">
        <line id="Línea_47" data-name="Línea 47" x2="1.262" y2="3.48" fill="none" stroke="#3a3d83" stroke-linecap="round" stroke-linejoin="round" stroke-width="1"/>
        <line id="Línea_48" data-name="Línea 48" x2="1.264" y2="3.478" transform="translate(20.244 55.609)" fill="none" stroke="#3a3d83" stroke-linecap="round" stroke-linejoin="round" stroke-width="1"/>
      </g>
      <g id="Grupo_1017" data-name="Grupo 1017" transform="translate(3.338 22.122)">
        <line id="Línea_49" data-name="Línea 49" y1="1.266" x2="3.476" transform="translate(0 20.243)" fill="none" stroke="#3a3d83" stroke-linecap="round" stroke-linejoin="round" stroke-width="1"/>
        <line id="Línea_50" data-name="Línea 50" y1="1.266" x2="3.476" transform="translate(55.609)" fill="none" stroke="#3a3d83" stroke-linecap="round" stroke-linejoin="round" stroke-width="1"/>
      </g>
      <g id="Grupo_1018" data-name="Grupo 1018" transform="translate(19.595 4.381)">
        <line id="Línea_51" data-name="Línea 51" x1="1.566" y2="3.355" transform="translate(25.005)" fill="none" stroke="#3a3d83" stroke-linecap="round" stroke-linejoin="round" stroke-width="1"/>
        <line id="Línea_52" data-name="Línea 52" x1="1.561" y2="3.351" transform="translate(0 53.641)" fill="none" stroke="#3a3d83" stroke-linecap="round" stroke-linejoin="round" stroke-width="1"/>
      </g>
      <g id="Grupo_1019" data-name="Grupo 1019" transform="translate(4.384 19.592)">
        <line id="Línea_53" data-name="Línea 53" x2="3.355" y2="1.566" fill="none" stroke="#3a3d83" stroke-linecap="round" stroke-linejoin="round" stroke-width="1"/>
        <line id="Línea_54" data-name="Línea 54" x2="3.351" y2="1.561" transform="translate(53.636 25.009)" fill="none" stroke="#3a3d83" stroke-linecap="round" stroke-linejoin="round" stroke-width="1"/>
      </g>
    </g>
  </g>
</svg>
